<svg width="22" height="28" viewBox="0 0 22 28" fill="none" xmlns="http://www.w3.org/2000/svg">
<path d="M4.40823 1.22375L5.96423 0.755747C6.81661 0.498712 7.7334 0.560587 8.54352 0.929827C9.35364 1.29907 10.0017 1.95044 10.3669 2.76241L11.5696 5.43708C11.8835 6.13548 11.9709 6.91465 11.8196 7.66526C11.6682 8.41588 11.2856 9.10027 10.7256 9.62241L8.73356 11.4797C8.67533 11.534 8.63844 11.6073 8.62956 11.6864C8.5709 12.2157 8.92956 13.2464 9.75623 14.6797C10.3576 15.7211 10.9029 16.4531 11.3656 16.8624C11.6882 17.1491 11.8656 17.2104 11.9416 17.1891L14.6216 16.3691C15.3534 16.1452 16.137 16.156 16.8625 16.3999C17.5879 16.6438 18.2189 17.1086 18.6669 17.7291L20.3749 20.0971C20.8943 20.8172 21.1348 21.7013 21.0516 22.5853C20.9685 23.4693 20.5674 24.2931 19.9229 24.9038L18.7416 26.0238C18.1146 26.6175 17.3445 27.0387 16.5064 27.2465C15.6682 27.4542 14.7906 27.4413 13.9589 27.2091C10.2869 26.1838 6.99489 23.0851 4.04556 17.9771C1.09223 12.8624 0.056228 8.45708 1.01089 4.75975C1.2258 3.92819 1.65128 3.16602 2.24633 2.54668C2.84138 1.92734 3.58593 1.47173 4.40823 1.22375ZM4.98556 3.13975C4.49233 3.28835 4.04567 3.56146 3.6886 3.93277C3.33154 4.30408 3.0761 4.76108 2.9469 5.25975C2.14423 8.36908 3.0629 12.2744 5.77756 16.9771C8.48823 21.6731 11.4069 24.4198 14.4976 25.2838C14.9964 25.4227 15.5227 25.4301 16.0253 25.3054C16.5279 25.1806 16.9896 24.9279 17.3656 24.5718L18.5482 23.4518C18.8413 23.1741 19.0237 22.7996 19.0614 22.3977C19.0992 21.9957 18.9898 21.5938 18.7536 21.2664L17.0469 18.8997C16.8432 18.6174 16.5563 18.4058 16.2263 18.2949C15.8963 18.1839 15.5398 18.1791 15.2069 18.2811L12.5202 19.1037C10.9602 19.5677 9.54423 18.3131 8.02423 15.6797C7.00023 13.9064 6.52289 12.5331 6.64156 11.4651C6.70423 10.9104 6.96156 10.3984 7.36956 10.0171L9.36156 8.15975C9.61626 7.92243 9.79025 7.61132 9.85912 7.27008C9.92799 6.92884 9.88828 6.5746 9.74556 6.25708L8.54289 3.58241C8.37692 3.21362 8.08252 2.91776 7.71455 2.74997C7.34659 2.58218 6.93016 2.5539 6.54289 2.67041L4.98556 3.13975Z" fill="#FFC626"/>
</svg>
