<svg width="28" height="28" viewBox="0 0 28 28" fill="none" xmlns="http://www.w3.org/2000/svg">
<path d="M13.9999 0.666992C21.3639 0.666992 27.3332 6.63633 27.3332 14.0003C27.3332 21.3643 21.3639 27.3337 13.9999 27.3337C11.8718 27.3366 9.77428 26.8281 7.88385 25.851L2.78252 27.2737C2.4979 27.3531 2.19729 27.3554 1.91148 27.2804C1.62567 27.2054 1.36494 27.0558 1.15599 26.8469C0.947053 26.6379 0.797417 26.3772 0.722418 26.0914C0.647419 25.8056 0.649753 25.5049 0.729182 25.2203L2.15318 20.123C1.17365 18.2309 0.663746 16.1309 0.666515 14.0003C0.666515 6.63633 6.63585 0.666992 13.9999 0.666992ZM13.9999 2.66699C10.9941 2.66699 8.11138 3.86104 5.98597 5.98645C3.86056 8.11186 2.66652 10.9945 2.66652 14.0003C2.66652 15.9603 3.16385 17.8443 4.09718 19.5163L4.29718 19.8763L2.81452 25.1883L8.13052 23.7057L8.49052 23.9057C10.003 24.7466 11.688 25.23 13.4163 25.3187C15.1446 25.4075 16.8703 25.0993 18.461 24.4178C20.0517 23.7363 21.4652 22.6995 22.5931 21.387C23.721 20.0745 24.5334 18.5211 24.9679 16.846C25.4025 15.1709 25.4476 13.4185 25.0999 11.7232C24.7522 10.028 24.0209 8.43484 22.962 7.06601C21.9032 5.69719 20.5449 4.58902 18.9914 3.82649C17.4379 3.06396 15.7304 2.66732 13.9999 2.66699ZM9.66652 15.3337H15.6639C15.9172 15.3337 16.1611 15.43 16.3462 15.603C16.5314 15.7759 16.6439 16.0127 16.6612 16.2655C16.6785 16.5183 16.5992 16.7682 16.4393 16.9647C16.2794 17.1613 16.0509 17.2898 15.7999 17.3243L15.6639 17.3337H9.66652C9.41315 17.3336 9.16926 17.2373 8.98413 17.0644C8.79899 16.8914 8.68642 16.6546 8.66915 16.4018C8.65188 16.149 8.7312 15.8991 8.89109 15.7026C9.05098 15.5061 9.27952 15.3775 9.53052 15.343L9.66652 15.3337H15.6639H9.66652ZM9.66652 10.667H18.3399C18.5931 10.6674 18.8368 10.7639 19.0216 10.937C19.2065 11.11 19.3188 11.3468 19.3359 11.5995C19.353 11.8522 19.2736 12.1019 19.1137 12.2983C18.9539 12.4947 18.7254 12.6231 18.4745 12.6577L18.3399 12.667H9.66652C9.41315 12.6669 9.16926 12.5707 8.98413 12.3977C8.79899 12.2247 8.68642 11.9879 8.66915 11.7352C8.65188 11.4824 8.7312 11.2325 8.89109 11.0359C9.05098 10.8394 9.27952 10.7109 9.53052 10.6763L9.66652 10.667H18.3399H9.66652Z" fill="#FFC626"/>
</svg>
