<svg width="24" height="24" viewBox="0 0 24 24" fill="none" xmlns="http://www.w3.org/2000/svg">
<path d="M10 13.7601C10.3315 13.7601 10.6495 13.8918 10.8839 14.1263C11.1183 14.3607 11.25 14.6786 11.25 15.0101C11.25 15.3417 11.1183 15.6596 10.8839 15.894C10.6495 16.1284 10.3315 16.2601 10 16.2601C9.66849 16.2601 9.35055 16.1284 9.11613 15.894C8.88171 15.6596 8.75001 15.3417 8.75001 15.0101C8.75001 14.6786 8.88171 14.3607 9.11613 14.1263C9.35055 13.8918 9.66849 13.7601 10 13.7601ZM10 4.00614C12.062 4.00614 13.706 5.69814 13.706 7.90614C13.706 9.07814 13.278 9.72214 12.252 10.5421L11.698 10.9721C11.206 11.3601 11.04 11.5721 11.006 11.8681L10.984 12.1801C10.9395 12.426 10.8045 12.6463 10.6057 12.7977C10.4068 12.949 10.1585 13.0205 9.90965 12.9979C9.66078 12.9753 9.42938 12.8604 9.26103 12.6757C9.09267 12.491 8.99955 12.25 9.00001 12.0001C9.00001 10.8601 9.42001 10.2321 10.432 9.42414L10.988 8.99414C11.564 8.53414 11.708 8.31014 11.708 7.90614C11.708 6.79014 10.944 6.00614 10 6.00614C9.01201 6.00614 8.28201 6.73814 8.29401 7.89614C8.29666 8.16136 8.19385 8.41676 8.00819 8.60617C7.91626 8.69996 7.80675 8.77472 7.68593 8.82619C7.56511 8.87766 7.43533 8.90483 7.30401 8.90614C7.03879 8.90879 6.78338 8.80598 6.59397 8.62032C6.40456 8.43466 6.29666 8.18136 6.29401 7.91614C6.27201 5.64014 7.90401 4.00614 10 4.00614ZM9.28313e-06 10.0001C0.000824973 7.83621 0.703546 5.73093 2.00267 4.00036C3.3018 2.26979 5.12723 1.00732 7.20491 0.402478C9.2826 -0.202361 11.5004 -0.116931 13.5254 0.645943C15.5504 1.40882 17.2733 2.80797 18.4355 4.63335C19.5976 6.45872 20.1363 8.61182 19.9707 10.7694C19.805 12.927 18.944 14.9726 17.5168 16.5992C16.0896 18.2258 14.1733 19.3455 12.0556 19.7904C9.93788 20.2352 7.73301 19.981 5.77201 19.0661L1.19601 19.9801C1.0347 20.0123 0.867954 20.0041 0.710555 19.9563C0.553156 19.9086 0.40996 19.8228 0.293657 19.7065C0.177354 19.5902 0.0915335 19.447 0.0438006 19.2896C-0.00393234 19.1322 -0.0121043 18.9655 0.0200093 18.8041L0.934009 14.2261C0.316868 12.9029 -0.00198344 11.4602 9.28313e-06 10.0001ZM10 2.00014C8.63065 1.99979 7.28413 2.35095 6.08934 3.01999C4.89455 3.68903 3.8915 4.65355 3.1762 5.82124C2.4609 6.98892 2.0573 8.32066 2.00404 9.68898C1.95078 11.0573 2.24964 12.4164 2.87201 13.6361C2.97472 13.8371 3.00644 14.0669 2.96201 14.2881L2.27401 17.7261L5.71201 17.0381C5.93327 16.9937 6.16306 17.0254 6.36401 17.1281C7.44146 17.6771 8.62935 17.9748 9.83837 17.9986C11.0474 18.0224 12.2461 17.7719 13.3443 17.2657C14.4426 16.7596 15.4118 16.0111 16.1791 15.0765C16.9465 14.1419 17.4919 13.0455 17.7745 11.8697C18.0571 10.6939 18.0695 9.46938 17.8107 8.28813C17.5519 7.10689 17.0287 5.99968 16.2804 5.04975C15.5321 4.09982 14.5782 3.33188 13.4904 2.80368C12.4027 2.27547 11.2093 2.00074 10 2.00014ZM7.72001 21.7841C9.49708 23.2215 11.7144 24.0039 14 24.0001C15.508 24.0001 16.94 23.6661 18.226 23.0661L22.804 23.9801C22.9653 24.0123 23.1321 24.0041 23.2895 23.9563C23.4469 23.9086 23.5901 23.8228 23.7064 23.7065C23.8227 23.5902 23.9085 23.447 23.9562 23.2896C24.004 23.1322 24.0121 22.9655 23.98 22.8041L23.066 18.2281C23.666 16.9421 24 15.5081 24 14.0001C24 11.6221 23.17 9.44014 21.784 7.72214C22.069 9.20278 22.0737 10.7237 21.798 12.2061C22.2174 14.0388 21.9802 15.9604 21.128 17.6361C21.0253 17.8371 20.9936 18.0669 21.038 18.2881L21.726 21.7261L18.286 21.0381C18.0654 20.9942 17.8364 21.0259 17.636 21.1281C15.96 21.9817 14.0372 22.2188 12.204 21.7981C10.7216 22.0738 9.20066 22.069 7.72001 21.7841Z" fill="#FFC626"/>
</svg>
