<svg width="18" height="18" viewBox="0 0 18 18" fill="none" xmlns="http://www.w3.org/2000/svg">
<path d="M9.00004 0.665833C13.6034 0.665833 17.335 4.3975 17.335 9.00083C17.335 13.6033 13.6034 17.335 9.00004 17.335C4.39671 17.335 0.665039 13.6033 0.665039 9.00083C0.665039 4.3975 4.39671 0.665833 9.00004 0.665833ZM9.00004 1.91583C8.06321 1.90567 7.13367 2.08142 6.26522 2.43289C5.39677 2.78437 4.60665 3.3046 3.94059 3.96347C3.27453 4.62234 2.74576 5.40678 2.38489 6.27137C2.02402 7.13596 1.8382 8.06353 1.8382 9.00042C1.8382 9.9373 2.02402 10.8649 2.38489 11.7295C2.74576 12.5941 3.27453 13.3785 3.94059 14.0374C4.60665 14.6962 5.39677 15.2165 6.26522 15.5679C7.13367 15.9194 8.06321 16.0952 9.00004 16.085C10.8601 16.0565 12.6342 15.2976 13.9395 13.9721C15.2448 12.6467 15.9764 10.8611 15.9764 9.00083C15.9764 7.14059 15.2448 5.35498 13.9395 4.02955C12.6342 2.70411 10.8601 1.94436 9.00004 1.91583ZM8.99671 7.74917C9.14788 7.74897 9.294 7.80358 9.408 7.90286C9.522 8.00215 9.59615 8.1394 9.61671 8.28917L9.62254 8.37417L9.62504 12.9592C9.62499 13.1175 9.56484 13.2699 9.45673 13.3857C9.34862 13.5014 9.20062 13.5717 9.04264 13.5825C8.88465 13.5933 8.72846 13.5437 8.60562 13.4438C8.48278 13.3439 8.40246 13.201 8.38087 13.0442L8.37504 12.96L8.37254 8.375C8.37254 8.20924 8.43839 8.05027 8.5556 7.93306C8.67281 7.81585 8.83178 7.75 8.99754 7.75L8.99671 7.74917ZM9.00004 4.83583C9.11153 4.8323 9.22258 4.85122 9.32662 4.89144C9.43065 4.93167 9.52555 4.9924 9.60566 5.07001C9.68577 5.14762 9.74946 5.24055 9.79296 5.34326C9.83646 5.44597 9.85888 5.55637 9.85888 5.66792C9.85888 5.77946 9.83646 5.88986 9.79296 5.99257C9.74946 6.09528 9.68577 6.18821 9.60566 6.26582C9.52555 6.34343 9.43065 6.40416 9.32662 6.44439C9.22258 6.48462 9.11153 6.50353 9.00004 6.5C8.78391 6.49316 8.57893 6.40249 8.42847 6.2472C8.27801 6.0919 8.19388 5.88415 8.19388 5.66792C8.19388 5.45168 8.27801 5.24393 8.42847 5.08864C8.57893 4.93334 8.78391 4.84267 9.00004 4.83583Z" fill="url(#paint0_linear_1800_5418)"/>
<defs>
<linearGradient id="paint0_linear_1800_5418" x1="17.335" y1="9.00041" x2="0.665039" y2="9.00041" gradientUnits="userSpaceOnUse">
<stop stop-color="#FF423D"/>
<stop offset="1" stop-color="#FFAE00"/>
</linearGradient>
</defs>
</svg>
