<svg width="191" height="180" viewBox="0 0 191 180" fill="none" xmlns="http://www.w3.org/2000/svg">
<path d="M119 145C157.66 145 189 113.66 189 75C189 36.3401 157.66 5 119 5C80.3401 5 49 36.3401 49 75C49 113.66 80.3401 145 119 145Z" fill="#F9A826"/>
<path d="M119 99C124.523 99 129 94.5228 129 89C129 83.4772 124.523 79 119 79C113.477 79 109 83.4772 109 89C109 94.5228 113.477 99 119 99Z" fill="#3F3D56"/>
<path d="M119.5 94C121.985 94 124 91.9853 124 89.5C124 87.0147 121.985 85 119.5 85C117.015 85 115 87.0147 115 89.5C115 91.9853 117.015 94 119.5 94Z" fill="#F9A826"/>
<path d="M137.318 111H100.683C97.0551 110.996 93.5773 109.559 91.0122 107.003C88.4471 104.447 87.0042 100.982 87 97.3681V80.6326C87.0041 77.0183 88.447 73.5532 91.0121 70.9975C93.5772 68.4417 97.0551 67.0041 100.683 67H137.318C140.945 67.0042 144.423 68.4419 146.988 70.9976C149.553 73.5533 150.996 77.0183 151 80.6326V97.3681C150.996 100.982 149.553 104.447 146.988 107.003C144.423 109.558 140.945 110.996 137.318 111ZM100.683 68.4274C97.4349 68.4311 94.3212 69.7181 92.0247 72.0063C89.7281 74.2944 88.4363 77.3967 88.4326 80.6326V97.3681C88.4364 100.604 89.7282 103.706 92.0247 105.994C94.3213 108.282 97.4349 109.569 100.683 109.573H137.318C140.565 109.569 143.679 108.282 145.975 105.994C148.272 103.706 149.564 100.604 149.567 97.3681V80.6326C149.564 77.3967 148.272 74.2945 145.976 72.0063C143.679 69.7182 140.565 68.4311 137.318 68.4274L100.683 68.4274Z" fill="white"/>
<path d="M97.9639 102.343H131.402C133.138 102.343 134.857 102.011 136.46 101.368C138.064 100.725 139.521 99.7819 140.748 98.5932C141.975 97.4045 142.949 95.9934 143.613 94.4403C144.277 92.8872 144.619 91.2226 144.619 89.5416V75.5413C144.617 73.9887 144.321 72.4497 143.747 71C145.379 72.1897 146.702 73.7303 147.614 75.5002C148.525 77.2701 149 79.2209 149 81.1988V95.199C149 96.8801 148.658 98.5447 147.994 100.098C147.33 101.651 146.356 103.062 145.129 104.251C143.902 105.439 142.445 106.382 140.841 107.026C139.238 107.669 137.519 108 135.783 108H102.345C99.6649 107.999 97.0489 107.208 94.8441 105.732C92.6392 104.257 90.9497 102.167 90 99.7403C92.2889 101.429 95.0867 102.343 97.9639 102.343Z" fill="#3F3D56"/>
<path d="M118.043 37C111.293 37 105.359 40.1139 102 44.7881C105.591 42.1247 109.927 40.707 114.369 40.7438C124.822 40.7438 133.326 48.2053 133.326 57.3765V65H137V53.6327C137 44.4614 128.496 37 118.043 37Z" fill="#3F3D56"/>
<path d="M141 69H97V55.6028C97 44.7938 106.869 36 119 36C131.131 36 141 44.7938 141 55.6028V69ZM98.4212 67.5292H139.579V55.6028C139.579 45.6046 130.347 37.4708 119 37.4708C107.653 37.4708 98.4212 45.6046 98.4212 55.6028V67.5292Z" fill="white"/>
<path d="M130.946 63H107.054C105.979 62.9989 104.949 62.614 104.189 61.9297C103.429 61.2454 103.001 60.3177 103 59.35V54.4329C103 47.5773 110.178 42 119 42C127.822 42 135 47.5773 135 54.4329V59.35C134.999 60.3177 134.571 61.2454 133.811 61.9297C133.051 62.614 132.021 62.9989 130.946 63ZM119 43.3564C111.008 43.3564 104.507 48.3251 104.507 54.4329V59.35C104.507 59.958 104.776 60.541 105.253 60.971C105.731 61.401 106.379 61.6429 107.054 61.6436H130.946C131.621 61.6429 132.269 61.401 132.747 60.971C133.224 60.541 133.493 59.958 133.493 59.35V54.4329C133.493 48.3251 126.992 43.3564 119 43.3564Z" fill="white"/>
<path d="M57 171C87.9279 171 113 167.642 113 163.5C113 159.358 87.9279 156 57 156C26.0721 156 1 159.358 1 163.5C1 167.642 26.0721 171 57 171Z" fill="#3F3D56"/>
<path d="M111.5 101C111.776 101 112 100.776 112 100.5C112 100.224 111.776 100 111.5 100C111.224 100 111 100.224 111 100.5C111 100.776 111.224 101 111.5 101Z" fill="#F2F2F2"/>
<path d="M59 154C73.3594 154 85 142.359 85 128C85 113.641 73.3594 102 59 102C44.6406 102 33 113.641 33 128C33 142.359 44.6406 154 59 154Z" fill="#2F2E41"/>
<path d="M55 148H47V163H55V148Z" fill="#2F2E41"/>
<path d="M71 148H63V163H71V148Z" fill="#2F2E41"/>
<path d="M54 165C57.866 165 61 163.881 61 162.5C61 161.119 57.866 160 54 160C50.134 160 47 161.119 47 162.5C47 163.881 50.134 165 54 165Z" fill="#2F2E41"/>
<path d="M69.5 165C73.0899 165 76 163.881 76 162.5C76 161.119 73.0899 160 69.5 160C65.9101 160 63 161.119 63 162.5C63 163.881 65.9101 165 69.5 165Z" fill="#2F2E41"/>
<path d="M59.5 130C64.1944 130 68 126.194 68 121.5C68 116.806 64.1944 113 59.5 113C54.8056 113 51 116.806 51 121.5C51 126.194 54.8056 130 59.5 130Z" fill="white"/>
<path d="M60 125C61.6569 125 63 123.433 63 121.5C63 119.567 61.6569 118 60 118C58.3431 118 57 119.567 57 121.5C57 123.433 58.3431 125 60 125Z" fill="#3F3D56"/>
<path d="M33.391 103.815C31.2556 94.3773 38.0815 84.8414 48.6371 82.5155C59.1926 80.1895 69.4807 85.9544 71.616 95.3916C73.7514 104.829 66.7559 108.309 56.2003 110.635C45.6447 112.961 35.5263 113.252 33.391 103.815Z" fill="#FE6A07"/>
<path d="M83.4183 122.885C90.0445 120.049 94.6943 116.064 93.804 113.984C92.9137 111.903 86.8203 112.516 80.1941 115.352C73.5679 118.188 68.918 122.174 69.8084 124.254C70.6987 126.334 76.792 125.721 83.4183 122.885Z" fill="#2F2E41"/>
<path d="M34.5208 140.396C41.147 137.56 45.7969 133.575 44.9066 131.495C44.0162 129.414 37.9229 130.027 31.2967 132.863C24.6704 135.699 20.0206 139.685 20.9109 141.765C21.8012 143.845 27.8946 143.232 34.5208 140.396Z" fill="#2F2E41"/>
<path d="M74 135.729C74 138.173 67.4419 143 60.1647 143C52.8875 143 46 138.489 46 136.045C46 133.601 52.8875 134.148 60.1647 134.148C67.4419 134.148 74 133.284 74 135.729Z" fill="white"/>
<path d="M129 56H143V68L139 67H129V56Z" fill="#F9A826"/>
</svg>
