<svg width="24" height="24" viewBox="0 0 24 24" color="#A9ABAC" xmlns="http://www.w3.org/2000/svg">
<path d="M8.64042 5.23C8.53937 5.1458 8.4227 5.08236 8.2971 5.04332C8.1715 5.00427 8.03942 4.99039 7.90845 5.00247C7.77747 5.01454 7.65016 5.05234 7.53381 5.11369C7.41747 5.17504 7.31437 5.25875 7.23042 5.36L2.23042 11.36C2.08334 11.5389 2.00293 11.7634 2.00293 11.995C2.00293 12.2266 2.08334 12.4511 2.23042 12.63L7.06042 18.63C7.15454 18.746 7.27345 18.8395 7.40843 18.9035C7.54341 18.9675 7.69102 19.0005 7.84042 19C8.02965 19.0006 8.21519 18.9476 8.37546 18.847C8.53574 18.7464 8.66418 18.6024 8.74587 18.4317C8.82755 18.261 8.85912 18.0706 8.83692 17.8827C8.81471 17.6947 8.73964 17.517 8.62042 17.37L4.29042 12L8.77042 6.64C8.85462 6.53896 8.91806 6.42229 8.9571 6.29668C8.99615 6.17108 9.01003 6.03901 8.99795 5.90803C8.98588 5.77706 8.94808 5.64975 8.88673 5.5334C8.82538 5.41705 8.74168 5.31395 8.64042 5.23V5.23ZM21.7804 11.37L17.0004 5.37C16.9179 5.26728 16.8159 5.18187 16.7002 5.1187C16.5846 5.05552 16.4576 5.01583 16.3266 5.00189C16.1956 4.98795 16.0631 5.00004 15.9367 5.03747C15.8104 5.07491 15.6927 5.13694 15.5904 5.22C15.4877 5.30253 15.4023 5.40454 15.3391 5.52017C15.2759 5.63581 15.2362 5.76279 15.2223 5.89382C15.2084 6.02485 15.2205 6.15734 15.2579 6.28368C15.2953 6.41002 15.3574 6.52772 15.4404 6.63L19.7104 12L15.2304 17.37C15.1462 17.4711 15.0828 17.5877 15.0437 17.7133C15.0047 17.8389 14.9908 17.971 15.0029 18.102C15.015 18.233 15.0528 18.3603 15.1141 18.4766C15.1755 18.593 15.2592 18.6961 15.3604 18.78C15.5417 18.9255 15.768 19.0033 16.0004 19C16.1473 19.0002 16.2925 18.9681 16.4256 18.9059C16.5587 18.8437 16.6764 18.7529 16.7704 18.64L21.7704 12.64C21.9189 12.4622 22.0011 12.2384 22.0029 12.0068C22.0047 11.7752 21.9261 11.5501 21.7804 11.37V11.37Z" fill="currentColor"/>
</svg>
