<svg width="103" height="138" viewBox="0 0 103 138" fill="none" xmlns="http://www.w3.org/2000/svg">
<path d="M141.202 31.5216C118.76 7.00652 100.744 -2.59237 84.501 1.32255C81.0899 2.15109 77.8171 3.47064 74.7852 5.23989C70.767 7.55981 67.8327 10.5591 64.7301 13.7338C60.9918 17.5608 56.745 21.9079 49.3563 26.1738C41.9676 30.4397 36.0782 31.9486 30.8861 33.2776C26.5807 34.376 22.519 35.4158 18.5125 37.729C15.3626 39.533 12.4788 41.7661 9.94387 44.3643C-1.50507 56.414 -2.19756 76.8063 7.72621 108.561C18.4104 142.729 32.7764 159.902 48.1399 156.94C50.2523 156.546 52.2833 155.798 54.1479 154.73C62.92 149.665 65.7355 138.298 67.0885 129.541C68.6106 119.635 72.9845 112.53 92.6565 101.172C110.227 91.0275 118.874 89.2121 129.671 93.4084C136.459 96.0471 142.176 97.3338 147.149 97.3507C153.761 97.3708 159.077 95.1534 162.928 90.7299C169.005 83.7787 169.402 74.4483 164.108 62.9911C160.042 54.2091 152.551 43.9148 141.202 31.5216ZM59.6549 76.5006L50.2761 81.9155L55.691 91.2943C56.409 92.538 56.6036 94.016 56.2319 95.4032C55.8602 96.7903 54.9527 97.973 53.709 98.6911C52.4653 99.4091 50.9873 99.6037 49.6001 99.232C48.213 98.8603 47.0303 97.9528 46.3122 96.7091L40.8974 87.3303L31.5186 92.7452C30.2749 93.4632 28.7969 93.6578 27.4097 93.2861C26.0225 92.9144 24.8398 92.0069 24.1218 90.7632C23.4037 89.5195 23.2091 88.0415 23.5808 86.6543C23.9525 85.2671 24.86 84.0844 26.1037 83.3664L35.4825 77.9515L30.0677 68.5727C29.3496 67.329 29.155 65.851 29.5267 64.4639C29.8984 63.0767 30.8059 61.894 32.0496 61.1759C33.2933 60.4579 34.7713 60.2633 36.1585 60.635C37.5457 61.0067 38.7284 61.9142 39.4464 63.1579L44.8613 72.5367L54.2401 67.1218C55.4838 66.4038 56.9618 66.2092 58.349 66.5809C59.7361 66.9526 60.9188 67.8601 61.6369 69.1038C62.3549 70.3475 62.5495 71.8255 62.1778 73.2127C61.8062 74.5999 60.8986 75.7826 59.6549 76.5006ZM84.9511 63.459C83.7918 64.1284 82.46 64.4389 81.1241 64.3513C79.7883 64.2638 78.5084 63.7821 77.4464 62.9671C76.3843 62.1522 75.5878 61.0406 75.1575 59.7729C74.7272 58.5053 74.6824 57.1385 75.0289 55.8454C75.3754 54.5524 76.0975 53.3911 77.104 52.5084C78.1105 51.6257 79.3561 51.0614 80.6833 50.8866C82.0106 50.7119 83.3598 50.9346 84.5605 51.5267C85.7611 52.1188 86.7592 53.0536 87.4286 54.213C88.3261 55.7676 88.5694 57.6151 88.1047 59.3491C87.6401 61.0831 86.5057 62.5614 84.9511 63.459ZM105.292 68.9094C104.132 69.5791 102.8 69.8896 101.463 69.8016C100.127 69.7136 98.8464 69.231 97.7843 68.415C96.7222 67.5989 95.926 66.4861 95.4967 65.2173C95.0673 63.9486 95.0241 62.581 95.3724 61.2877C95.7206 59.9943 96.4448 58.8334 97.4532 57.9518C98.4616 57.0703 99.7089 56.5077 101.037 56.3354C102.365 56.163 103.715 56.3887 104.915 56.9837C106.115 57.5788 107.111 58.5164 107.778 59.6781C108.67 61.2324 108.91 63.0771 108.444 64.8077C107.978 66.5383 106.844 68.0133 105.292 68.9094ZM90.4015 43.1178C89.2422 43.7871 87.9104 44.0977 86.5745 44.0101C85.2387 43.9225 83.9589 43.4408 82.8968 42.6259C81.8347 41.8109 81.0382 40.6994 80.6079 39.4317C80.1776 38.1641 80.1328 36.7973 80.4793 35.5042C80.8258 34.2111 81.5479 33.0498 82.5544 32.1672C83.5609 31.2845 84.8065 30.7201 86.1338 30.5454C87.461 30.3706 88.8103 30.5934 90.0109 31.1855C91.2115 31.7776 92.2096 32.7124 92.879 33.8718C93.7765 35.4264 94.0198 37.2739 93.5552 39.0079C93.0905 40.7418 91.9561 42.2202 90.4015 43.1178ZM110.743 48.5682C109.583 49.2375 108.252 49.5481 106.916 49.4605C105.58 49.373 104.3 48.8913 103.238 48.0763C102.176 47.2614 101.379 46.1498 100.949 44.8821C100.519 43.6145 100.474 42.2477 100.821 40.9546C101.167 39.6615 101.889 38.5002 102.896 37.6176C103.902 36.7349 105.148 36.1705 106.475 35.9958C107.802 35.8211 109.151 36.0438 110.352 36.6359C111.553 37.228 112.551 38.1628 113.22 39.3222C114.118 40.8768 114.361 42.7243 113.896 44.4583C113.432 46.1922 112.297 47.6706 110.743 48.5682Z" fill="#ADEBFD"/>
</svg>
