<svg width="20" height="27" viewBox="0 0 20 27" fill="none" xmlns="http://www.w3.org/2000/svg">
<path d="M14.384 22.664L13.9973 24.3427C13.853 24.9647 13.514 25.5245 13.0296 25.9405C12.5452 26.3566 11.9407 26.6072 11.304 26.656L11.0733 26.6653H8.25867C7.6198 26.6653 6.99761 26.4614 6.48271 26.0832C5.96781 25.705 5.58709 25.1723 5.396 24.5627L5.33467 24.34L4.948 22.664H14.384ZM9.66667 0C12.2304 0 14.6892 1.01845 16.502 2.8313C18.3149 4.64415 19.3333 7.10291 19.3333 9.66667C19.3333 12.5147 18.0853 15.124 15.6467 17.4533C15.5995 17.4984 15.5666 17.5564 15.552 17.62L14.848 20.664H4.48533L3.784 17.62C3.7692 17.5569 3.7363 17.4994 3.68933 17.4547C1.24933 15.124 0 12.5147 0 9.66533C0.00035359 7.1018 1.01896 4.64339 2.83177 2.83083C4.64459 1.01827 7.10314 -2.43855e-08 9.66667 0Z" fill="#212527"/>
</svg>
