<svg width="20" height="21" viewBox="0 0 20 21" fill="none" xmlns="http://www.w3.org/2000/svg">
<path d="M10.0001 0.5L14.0001 3.5718L18.6604 5.5L18.0001 10.5L18.6604 15.5L14.0001 17.4282L10.0001 20.5L6.0001 17.4282L1.33984 15.5L2.0001 10.5L1.33984 5.5L6.0001 3.5718L10.0001 0.5Z" fill="#7538C4"/>
<path d="M9.50013 1.5L12.9001 4.11103L16.8613 5.75L16.3001 10L16.8613 14.25L12.9001 15.889L9.50013 18.5L6.10013 15.889L2.13892 14.25L2.70013 10L2.13892 5.75L6.10013 4.11103L9.50013 1.5Z" fill="#BA9EE2"/>
<path d="M5.41333 6.5H5.56C5.70222 6.5 5.79852 6.53162 5.84889 6.59485C5.89926 6.65808 5.93185 6.73713 5.94667 6.83198C5.96148 6.92683 5.96889 7.13866 5.96889 7.46748L5.94667 8.46341V8.6294L5.93778 8.88076V9.04675L5.91556 10.0569V10.2229L5.91111 10.3889C5.91111 11.037 5.91704 11.4402 5.92889 11.5982C5.9437 11.7532 5.99111 12.0282 6.07111 12.4234C6.15111 12.8187 6.19111 13.0178 6.19111 13.021C6.19111 13.1981 6.15556 13.3229 6.08444 13.3957C6.0163 13.4652 5.89185 13.5 5.71111 13.5H5.63556C5.44 13.5 5.2963 13.4273 5.20444 13.2818C5.06815 13.07 5 12.7681 5 12.376V12.0725L5.00444 11.9919L5.01333 11.6836L5.01778 11.603C5.01778 11.5492 5.01778 11.4955 5.01778 11.4417L5.02667 11.1098V10.9438L5.03556 10.5217V10.3557L5.04889 9.84824V9.68225L5.06222 9.09417C5.06222 9.03726 5.06222 8.98035 5.06222 8.92344L5.07111 8.59146V8.42547L5.08 8.00813V7.68089L5.05778 7.06436C5.05778 6.86518 5.08444 6.72132 5.13778 6.63279C5.19111 6.54426 5.28296 6.5 5.41333 6.5Z" fill="#9F76D7"/>
<path d="M6.96889 9.02304C6.96889 8.91238 7.0563 8.85705 7.23111 8.85705C7.40889 8.85705 7.54815 8.89499 7.64889 8.97087C7.75259 9.04675 7.85185 9.19377 7.94667 9.41192C8.04444 9.63008 8.21037 10.1802 8.44444 11.0623C8.68148 11.9413 8.84148 12.3808 8.92444 12.3808C8.99259 12.3808 9.17333 11.9128 9.46667 10.977C9.76 10.0379 9.96296 9.44986 10.0756 9.21274C10.1881 8.97245 10.3481 8.8523 10.5556 8.8523C10.763 8.8523 10.8667 8.92186 10.8667 9.06098C10.8667 9.11789 10.7215 9.62376 10.4311 10.5786C10.1407 11.5303 9.8563 12.3112 9.57778 12.9214C9.47111 13.1585 9.36889 13.3103 9.27111 13.3767C9.17333 13.4431 9.04444 13.4763 8.88444 13.4763C8.72444 13.4763 8.60296 13.4415 8.52 13.372C8.44 13.3024 8.31259 13.0653 8.13778 12.6606C7.96296 12.2559 7.72444 11.5571 7.42222 10.5644C7.12 9.57159 6.96889 9.05781 6.96889 9.02304Z" fill="#9F76D7"/>
<path d="M12.2222 6.5H12.3689C12.5111 6.5 12.6074 6.53162 12.6578 6.59485C12.7081 6.65808 12.7407 6.73713 12.7556 6.83198C12.7704 6.92683 12.7778 7.13866 12.7778 7.46748L12.7556 8.46341V8.6294L12.7467 8.88076V9.04675L12.7244 10.0569V10.2229L12.72 10.3889C12.72 11.037 12.7259 11.4402 12.7378 11.5982C12.7526 11.7532 12.8 12.0282 12.88 12.4234C12.96 12.8187 13 13.0178 13 13.021C13 13.1981 12.9644 13.3229 12.8933 13.3957C12.8252 13.4652 12.7007 13.5 12.52 13.5H12.4444C12.2489 13.5 12.1052 13.4273 12.0133 13.2818C11.877 13.07 11.8089 12.7681 11.8089 12.376V12.0725L11.8133 11.9919L11.8222 11.6836L11.8267 11.603C11.8267 11.5492 11.8267 11.4955 11.8267 11.4417L11.8356 11.1098V10.9438L11.8444 10.5217V10.3557L11.8578 9.84824V9.68225L11.8711 9.09417C11.8711 9.03726 11.8711 8.98035 11.8711 8.92344L11.88 8.59146V8.42547L11.8889 8.00813V7.68089L11.8667 7.06436C11.8667 6.86518 11.8933 6.72132 11.9467 6.63279C12 6.54426 12.0919 6.5 12.2222 6.5Z" fill="#9F76D7"/>
<path d="M5.40869 6.5H5.55371C5.69434 6.5 5.78955 6.5293 5.83936 6.58789C5.88916 6.64648 5.92139 6.71973 5.93604 6.80762C5.95068 6.89551 5.95801 7.0918 5.95801 7.39648L5.93604 8.31934V8.47314L5.92725 8.70605V8.85986L5.90527 9.7959V9.94971L5.90088 10.1035C5.90088 10.7041 5.90674 11.0776 5.91846 11.2241C5.93311 11.3677 5.97998 11.6226 6.05908 11.9888C6.13818 12.355 6.17773 12.5396 6.17773 12.5425C6.17773 12.7065 6.14258 12.8223 6.07227 12.8896C6.00488 12.9541 5.88184 12.9863 5.70312 12.9863H5.62842C5.43506 12.9863 5.29297 12.9189 5.20215 12.7842C5.06738 12.5879 5 12.3081 5 11.9448V11.6636L5.00439 11.5889L5.01318 11.3032L5.01758 11.2285C5.01758 11.1787 5.01758 11.1289 5.01758 11.0791L5.02637 10.7715V10.6177L5.03516 10.2266V10.0728L5.04834 9.60254V9.44873L5.06152 8.90381C5.06152 8.85107 5.06152 8.79834 5.06152 8.74561L5.07031 8.43799V8.28418L5.0791 7.89746V7.59424L5.05713 7.02295C5.05713 6.83838 5.0835 6.70508 5.13623 6.62305C5.18896 6.54102 5.27979 6.5 5.40869 6.5Z" fill="white"/>
<path d="M6.94678 8.83789C6.94678 8.73535 7.0332 8.68408 7.20605 8.68408C7.38184 8.68408 7.51953 8.71924 7.61914 8.78955C7.72168 8.85986 7.81982 8.99609 7.91357 9.19824C8.01025 9.40039 8.17432 9.91016 8.40576 10.7275C8.64014 11.542 8.79834 11.9492 8.88037 11.9492C8.94775 11.9492 9.12646 11.5156 9.4165 10.6484C9.70654 9.77832 9.90723 9.2334 10.0186 9.01367C10.1299 8.79102 10.2881 8.67969 10.4932 8.67969C10.6982 8.67969 10.8008 8.74414 10.8008 8.87305C10.8008 8.92578 10.6572 9.39453 10.3701 10.2793C10.083 11.1611 9.80176 11.8848 9.52637 12.4502C9.4209 12.6699 9.31982 12.8105 9.22314 12.8721C9.12646 12.9336 8.99902 12.9644 8.84082 12.9644C8.68262 12.9644 8.5625 12.9321 8.48047 12.8677C8.40137 12.8032 8.27539 12.5835 8.10254 12.2085C7.92969 11.8335 7.69385 11.186 7.39502 10.2661C7.09619 9.34619 6.94678 8.87012 6.94678 8.83789Z" fill="white"/>
<path d="M12.1411 6.5H12.2861C12.4268 6.5 12.522 6.5293 12.5718 6.58789C12.6216 6.64648 12.6538 6.71973 12.6685 6.80762C12.6831 6.89551 12.6904 7.0918 12.6904 7.39648L12.6685 8.31934V8.47314L12.6597 8.70605V8.85986L12.6377 9.7959V9.94971L12.6333 10.1035C12.6333 10.7041 12.6392 11.0776 12.6509 11.2241C12.6655 11.3677 12.7124 11.6226 12.7915 11.9888C12.8706 12.355 12.9102 12.5396 12.9102 12.5425C12.9102 12.7065 12.875 12.8223 12.8047 12.8896C12.7373 12.9541 12.6143 12.9863 12.4355 12.9863H12.3608C12.1675 12.9863 12.0254 12.9189 11.9346 12.7842C11.7998 12.5879 11.7324 12.3081 11.7324 11.9448V11.6636L11.7368 11.5889L11.7456 11.3032L11.75 11.2285C11.75 11.1787 11.75 11.1289 11.75 11.0791L11.7588 10.7715V10.6177L11.7676 10.2266V10.0728L11.7808 9.60254V9.44873L11.7939 8.90381C11.7939 8.85107 11.7939 8.79834 11.7939 8.74561L11.8027 8.43799V8.28418L11.8115 7.89746V7.59424L11.7896 7.02295C11.7896 6.83838 11.8159 6.70508 11.8687 6.62305C11.9214 6.54102 12.0122 6.5 12.1411 6.5Z" fill="white"/>
</svg>
