<svg width="22" height="16" viewBox="0 0 22 16" fill="none" xmlns="http://www.w3.org/2000/svg">
<path d="M8.23083 11.077L5.49113 13.8167C5.18621 14.1215 4.79775 14.3291 4.37486 14.4132C3.95196 14.4973 3.51363 14.4541 3.11527 14.2891C2.71692 14.1241 2.37642 13.8447 2.13684 13.4862C1.89726 13.1278 1.76936 12.7063 1.76929 12.2751V11.077L3.0219 4.81481C3.1892 3.97778 3.64134 3.22458 4.30139 2.68334C4.96144 2.14211 5.78863 1.84628 6.64221 1.84619H15.3579C16.2115 1.84628 17.0387 2.14211 17.6987 2.68334C18.3588 3.22458 18.8109 3.97778 18.9782 4.81481L20.2308 11.077V12.2742C20.2308 12.7054 20.1028 13.1268 19.8633 13.4853C19.6237 13.8438 19.2832 14.1232 18.8848 14.2882C18.4865 14.4532 18.0481 14.4964 17.6253 14.4123C17.2024 14.3282 16.8139 14.1206 16.509 13.8157L13.7693 11.077H8.23083Z" stroke="#0066AF" stroke-width="2" stroke-linecap="round" stroke-linejoin="round"/>
<path d="M8.23071 1.84619L9.15379 3.69235H12.8461L13.7692 1.84619" stroke="#0066AF" stroke-width="2" stroke-linecap="round" stroke-linejoin="round"/>
</svg>
