<svg width="20" height="14" viewBox="0 0 20 14" fill="none" xmlns="http://www.w3.org/2000/svg">
<path d="M7.72908 9.94814L5.25399 12.4232C4.97852 12.6986 4.62757 12.8862 4.24552 12.9622C3.86347 13.0381 3.46747 12.9991 3.10759 12.8501C2.74771 12.701 2.4401 12.4486 2.22366 12.1247C2.00722 11.8009 1.89166 11.4201 1.8916 11.0306V9.94814L3.02324 4.29079C3.17438 3.53461 3.58285 2.85415 4.17915 2.36518C4.77546 1.87622 5.52275 1.60897 6.29389 1.60889H14.1678C14.939 1.60897 15.6862 1.87622 16.2825 2.36518C16.8789 2.85415 17.2873 3.53461 17.4385 4.29079L18.5701 9.94814V11.0297C18.57 11.4193 18.4545 11.8 18.238 12.1239C18.0216 12.4478 17.714 12.7002 17.3541 12.8492C16.9942 12.9983 16.5982 13.0373 16.2162 12.9613C15.8341 12.8854 15.4832 12.6978 15.2077 12.4224L12.7326 9.94814H7.72908Z" stroke="#0066AF" stroke-width="2" stroke-linecap="round" stroke-linejoin="round"/>
</svg>
