<svg width="24" height="24" viewBox="0 0 24 24" fill="none" color="#A9ABAC" xmlns="http://www.w3.org/2000/svg">
<path d="M4.7998 4.80002V19.2C4.7998 19.8365 5.05266 20.447 5.50275 20.8971C5.95284 21.3472 6.56329 21.6 7.1998 21.6H18.5998C18.7589 21.6 18.9115 21.5368 19.0241 21.4243C19.1366 21.3118 19.1998 21.1592 19.1998 21C19.1998 20.8409 19.1366 20.6883 19.0241 20.5758C18.9115 20.4632 18.7589 20.4 18.5998 20.4H7.1998C6.88154 20.4 6.57632 20.2736 6.35128 20.0486C6.12623 19.8235 5.9998 19.5183 5.9998 19.2H17.9998C18.3181 19.2 18.6233 19.0736 18.8483 18.8486C19.0734 18.6235 19.1998 18.3183 19.1998 18V4.80002C19.1998 4.1635 18.9469 3.55306 18.4969 3.10297C18.0468 2.65288 17.4363 2.40002 16.7998 2.40002H7.1998C6.56329 2.40002 5.95284 2.65288 5.50275 3.10297C5.05266 3.55306 4.7998 4.1635 4.7998 4.80002V4.80002ZM16.7998 3.60002C17.1181 3.60002 17.4233 3.72645 17.6483 3.9515C17.8734 4.17654 17.9998 4.48176 17.9998 4.80002V18H5.9998V4.80002C5.9998 4.48176 6.12623 4.17654 6.35128 3.9515C6.57632 3.72645 6.88154 3.60002 7.1998 3.60002H16.7998ZM10.5118 7.69082C10.7398 7.45202 11.1718 7.20002 11.9998 7.20002C12.8278 7.20002 13.2598 7.45322 13.4878 7.69082C13.7278 7.94282 13.7998 8.23802 13.7998 8.40002C13.7998 8.94482 13.4758 9.23762 12.9322 9.50882C12.7967 9.57491 12.6595 9.63733 12.5206 9.69602L12.4942 9.70802C12.367 9.76202 12.2278 9.82202 12.1054 9.88442C11.9551 9.95545 11.8157 10.0476 11.6914 10.158C11.601 10.239 11.5285 10.3379 11.4783 10.4484C11.4281 10.5589 11.4014 10.6787 11.3998 10.8V12C11.3998 12.1592 11.463 12.3118 11.5755 12.4243C11.6881 12.5368 11.8407 12.6 11.9998 12.6C12.1589 12.6 12.3115 12.5368 12.4241 12.4243C12.5366 12.3118 12.5998 12.1592 12.5998 12V10.98L12.6442 10.956C12.7342 10.9104 12.8434 10.8636 12.9838 10.8036L12.997 10.7976C13.1374 10.7364 13.3006 10.6656 13.4674 10.5816C14.1238 10.2576 14.9998 9.65642 14.9998 8.40002C14.9998 7.96202 14.8318 7.35722 14.3518 6.85922C13.8598 6.34802 13.0918 6.00002 11.9998 6.00002C10.9078 6.00002 10.1398 6.34682 9.6478 6.85922C9.1678 7.35722 8.9998 7.96202 8.9998 8.40002C8.9998 8.55915 9.06302 8.71177 9.17554 8.82429C9.28806 8.93681 9.44067 9.00002 9.5998 9.00002C9.75893 9.00002 9.91155 8.93681 10.0241 8.82429C10.1366 8.71177 10.1998 8.55915 10.1998 8.40002C10.1998 8.23802 10.2718 7.94282 10.5118 7.69082ZM11.9998 15.6C12.2385 15.6 12.4674 15.5052 12.6362 15.3364C12.805 15.1676 12.8998 14.9387 12.8998 14.7C12.8998 14.4613 12.805 14.2324 12.6362 14.0636C12.4674 13.8948 12.2385 13.8 11.9998 13.8C11.7611 13.8 11.5322 13.8948 11.3634 14.0636C11.1946 14.2324 11.0998 14.4613 11.0998 14.7C11.0998 14.9387 11.1946 15.1676 11.3634 15.3364C11.5322 15.5052 11.7611 15.6 11.9998 15.6Z" fill="currentColor" />
</svg>
