<svg width="16" height="18" viewBox="0 0 16 18" fill="none" xmlns="http://www.w3.org/2000/svg">
<path d="M1.625 0C1.32663 6.28765e-09 1.04048 0.118526 0.829505 0.329505C0.618526 0.540483 0.5 0.826631 0.5 1.125C0.5 1.42337 0.618526 1.70952 0.829505 1.9205C1.04048 2.13147 1.32663 2.25 1.625 2.25H14.375C14.6734 2.25 14.9595 2.13147 15.1705 1.9205C15.3815 1.70952 15.5 1.42337 15.5 1.125C15.5 0.826631 15.3815 0.540483 15.1705 0.329505C14.9595 0.118526 14.6734 6.28765e-09 14.375 0H1.625ZM8.795 4.08C8.58406 3.86932 8.29813 3.75099 8 3.75099C7.70187 3.75099 7.41594 3.86932 7.205 4.08L2.33 8.955C2.13128 9.16826 2.0231 9.45033 2.02824 9.74178C2.03338 10.0332 2.15145 10.3113 2.35757 10.5174C2.56369 10.7236 2.84176 10.8416 3.13322 10.8468C3.42467 10.8519 3.70674 10.7437 3.92 10.545L6.875 7.59V16.875C6.875 17.1734 6.99353 17.4595 7.2045 17.6705C7.41548 17.8815 7.70163 18 8 18C8.29837 18 8.58452 17.8815 8.79549 17.6705C9.00647 17.4595 9.125 17.1734 9.125 16.875V7.59L12.08 10.545C12.183 10.6555 12.3072 10.7442 12.4452 10.8057C12.5832 10.8672 12.7322 10.9002 12.8832 10.9029C13.0343 10.9056 13.1843 10.8778 13.3244 10.8212C13.4645 10.7646 13.5917 10.6804 13.6986 10.5736C13.8054 10.4667 13.8896 10.3395 13.9462 10.1994C14.0028 10.0593 14.0306 9.90927 14.0279 9.75822C14.0252 9.60716 13.9922 9.45819 13.9307 9.32019C13.8692 9.18219 13.7805 9.05799 13.67 8.955L8.795 4.08Z" fill="#A9ABAC"/>
</svg>
