<svg width="24" height="25" viewBox="0 0 24 25" fill="none" xmlns="http://www.w3.org/2000/svg">
<path d="M9 15.5L6.032 18.468C5.70167 18.7983 5.28084 19.0232 4.8227 19.1143C4.36457 19.2054 3.88971 19.1586 3.45815 18.9799C3.0266 18.8011 2.65773 18.4984 2.39819 18.1101C2.13864 17.7217 2.00007 17.2651 2 16.798V15.5L3.357 8.716C3.53824 7.80922 4.02806 6.99325 4.74312 6.40691C5.45817 5.82058 6.35429 5.5001 7.279 5.5H16.721C17.6457 5.5001 18.5418 5.82058 19.2569 6.40691C19.9719 6.99325 20.4618 7.80922 20.643 8.716L22 15.5V16.797C21.9999 17.2641 21.8614 17.7207 21.6018 18.1091C21.3423 18.4974 20.9734 18.8001 20.5418 18.9789C20.1103 19.1576 19.6354 19.2044 19.1773 19.1133C18.7192 19.0222 18.2983 18.7973 17.968 18.467L15 15.5H9Z" stroke="white" stroke-width="2" stroke-linecap="round" stroke-linejoin="round"/>
<path d="M9 5.5L10 7.5H14L15 5.5" stroke="white" stroke-width="2" stroke-linecap="round" stroke-linejoin="round"/>
</svg>
