<svg width="134" height="102" viewBox="0 0 134 102" fill="none" xmlns="http://www.w3.org/2000/svg">
<g clip-path="url(#clip0_1345_1100)">
<path d="M98.4999 57.0003C113.366 57.0003 125.417 44.9493 125.417 30.0837C125.417 15.218 113.366 3.16699 98.4999 3.16699C83.6343 3.16699 71.5833 15.218 71.5833 30.0837C71.5833 44.9493 83.6343 57.0003 98.4999 57.0003Z" fill="#F4900C"/>
<path d="M98.4999 53.8333C113.366 53.8333 125.417 41.7823 125.417 26.9167C125.417 12.051 113.366 0 98.4999 0C83.6343 0 71.5833 12.051 71.5833 26.9167C71.5833 41.7823 83.6343 53.8333 98.4999 53.8333Z" fill="#FFCC4D"/>
<path d="M98.4999 50.6663C110.742 50.6663 120.667 40.742 120.667 28.4997C120.667 16.2574 110.742 6.33301 98.4999 6.33301C86.2576 6.33301 76.3333 16.2574 76.3333 28.4997C76.3333 40.742 86.2576 50.6663 98.4999 50.6663Z" fill="#FFE8B6"/>
<path d="M98.4999 49.0833C110.742 49.0833 120.667 39.159 120.667 26.9167C120.667 14.6744 110.742 4.75 98.4999 4.75C86.2576 4.75 76.3333 14.6744 76.3333 26.9167C76.3333 39.159 86.2576 49.0833 98.4999 49.0833Z" fill="#FFAC33"/>
<path d="M84.4201 24.0565L84.3416 20.7546C84.3416 20.4106 84.4158 20.1613 84.5641 20.0065C84.7124 19.8517 85.0264 19.7743 85.5063 19.7743C85.9948 19.7743 86.3569 20.1097 86.5924 20.7804C86.6971 21.0899 86.7931 22.0057 86.8803 23.5277C86.9763 25.0411 87.1682 25.9655 87.4561 26.3008C87.8836 26.8082 89.5106 27.0618 92.3372 27.0618C93.3318 27.0618 93.9643 26.8039 94.2347 26.2879C94.4179 25.9354 94.5531 25.0024 94.6404 23.489C94.7276 21.967 94.8236 21.047 94.9283 20.7288C95.1725 19.9721 95.7047 19.5938 96.5248 19.5938C96.7952 19.5938 97.0177 19.6926 97.1922 19.8904C97.3754 20.0882 97.467 20.5826 97.467 21.3737V22.7538L97.4539 23.2182V25.1142L97.4277 27.036L97.4015 28.0034C97.3841 28.6483 97.3754 29.117 97.3754 29.4093L97.2838 33.7044L97.3099 36.4389C97.3099 37.0838 97.022 37.4062 96.4463 37.4062C95.7222 37.4062 95.238 37.1483 94.9937 36.6324C94.7581 36.1164 94.6404 34.9513 94.6404 33.1369C94.6404 31.3226 94.4833 30.2391 94.1693 29.8866C93.8639 29.534 93.0133 29.3577 91.6175 29.3577C89.262 29.3577 87.8618 29.6372 87.4168 30.1961C87.1464 30.5315 86.9763 31.4559 86.9065 32.9692C86.8454 34.4826 86.7451 35.5059 86.6055 36.039C86.3961 36.8215 85.9643 37.2128 85.31 37.2128C84.8476 37.2128 84.5553 37.1096 84.4332 36.9032C84.3111 36.6882 84.25 36.254 84.25 35.6005V33.3175L84.2631 32.8532C84.2631 31.3312 84.2805 30.2219 84.3154 29.5254C84.3591 28.8289 84.3809 28.0937 84.3809 27.3198L84.3939 26.8555C84.4027 26.5459 84.407 26.245 84.407 25.9526L84.4201 25.4883V24.0565Z" fill="#F4900C"/>
<path d="M104.062 36.3099C103.844 36.9032 103.478 37.1999 102.963 37.1999C102.448 37.1999 102.117 37.0408 101.969 36.7226C101.881 36.5421 101.838 36.1551 101.838 35.5618V34.6847L101.916 32.3888C101.925 32.0707 101.929 31.4902 101.929 30.6476V28.6999L101.903 27.7841L101.89 26.8555C101.89 26.5545 101.886 26.2536 101.877 25.9526L101.838 24.6112V22.8957C101.838 21.4167 101.916 20.531 102.073 20.2387C102.23 19.9463 102.588 19.8001 103.146 19.8001C103.705 19.8001 104.089 20.2129 104.298 21.0384C104.438 21.6145 104.533 22.6979 104.586 24.2887C104.638 25.8795 104.834 26.6749 105.175 26.6749C105.576 26.6749 106.549 25.7591 108.093 23.9276C109.637 22.096 110.553 21.047 110.841 20.7804C111.521 20.1527 112.154 19.8388 112.738 19.8388C113.323 19.8388 113.615 19.9807 113.615 20.2645C113.615 20.4536 112.808 21.6059 111.194 23.7212C109.589 25.8365 108.786 27.1478 108.786 27.6552C108.786 27.8013 109.742 29.3792 111.652 32.3888C113.572 35.3984 114.531 36.9333 114.531 36.9935C114.531 37.2601 114.318 37.3934 113.89 37.3934H113.511C112.943 37.3934 112.398 37.1397 111.875 36.6324C111.36 36.1164 110.688 35.2049 109.86 33.8979C109.039 32.5823 108.437 31.6923 108.054 31.228C107.33 30.3423 106.728 29.8995 106.248 29.8995C105.777 29.8995 105.349 30.2821 104.965 31.0474C104.712 31.5547 104.538 32.4576 104.442 33.756C104.346 35.0459 104.219 35.8972 104.062 36.3099Z" fill="#F4900C"/>
<path d="M84.6971 22.8156L84.6241 19.6984C84.6241 19.3737 84.6931 19.1383 84.8311 18.9922C84.9691 18.8461 85.2613 18.773 85.7078 18.773C86.1624 18.773 86.4992 19.0896 86.7184 19.7228C86.8158 20.015 86.9051 20.8795 86.9863 22.3164C87.0756 23.7451 87.2542 24.6177 87.5221 24.9343C87.9198 25.4133 89.4338 25.6527 92.0639 25.6527C92.9893 25.6527 93.5779 25.4092 93.8295 24.9221C94 24.5893 94.1258 23.7086 94.207 22.2798C94.2881 20.843 94.3774 19.9744 94.4749 19.6741C94.7021 18.9597 95.1973 18.6025 95.9604 18.6025C96.212 18.6025 96.419 18.6959 96.5814 18.8826C96.7519 19.0693 96.8371 19.5361 96.8371 20.2829V21.5858L96.8249 22.0241V23.8141L96.8006 25.6284L96.7762 26.5416C96.76 27.1505 96.7519 27.5929 96.7519 27.8689L96.6666 31.9236L96.691 34.5051C96.691 35.1139 96.4231 35.4183 95.8873 35.4183C95.2136 35.4183 94.763 35.1748 94.5357 34.6877C94.3166 34.2007 94.207 33.1007 94.207 31.3879C94.207 29.675 94.0609 28.6522 93.7686 28.3194C93.4845 27.9866 92.693 27.8202 91.3942 27.8202C89.2024 27.8202 87.8995 28.084 87.4855 28.6116C87.2339 28.9282 87.0756 29.8009 87.0107 31.2296C86.9538 32.6583 86.8605 33.6243 86.7306 34.1276C86.5358 34.8663 86.1339 35.2357 85.5251 35.2357C85.0949 35.2357 84.8229 35.1382 84.7093 34.9434C84.5956 34.7405 84.5388 34.3305 84.5388 33.7136V31.5583L84.551 31.12C84.551 29.6832 84.5672 28.636 84.5997 27.9785C84.6403 27.3209 84.6606 26.6269 84.6606 25.8963L84.6728 25.4579C84.6809 25.1657 84.6849 24.8816 84.6849 24.6056L84.6971 24.1672V22.8156Z" fill="#FFCC4D"/>
<path d="M102.974 34.3833C102.771 34.9434 102.43 35.2235 101.951 35.2235C101.472 35.2235 101.164 35.0733 101.026 34.7729C100.945 34.6025 100.904 34.2372 100.904 33.6771V32.8491L100.977 30.6816C100.985 30.3813 100.989 29.8333 100.989 29.0378V27.1992L100.965 26.3346L100.953 25.4579C100.953 25.1738 100.949 24.8897 100.941 24.6056L100.904 23.3392V21.7197C100.904 20.3235 100.977 19.4874 101.123 19.2114C101.269 18.9354 101.602 18.7974 102.122 18.7974C102.641 18.7974 102.998 19.187 103.193 19.9663C103.323 20.5102 103.412 21.533 103.461 23.0348C103.51 24.5366 103.692 25.2874 104.009 25.2874C104.382 25.2874 105.288 24.4229 106.724 22.6938C108.161 20.9648 109.014 19.9744 109.281 19.7228C109.915 19.1302 110.503 18.8339 111.047 18.8339C111.591 18.8339 111.863 18.9678 111.863 19.2357C111.863 19.4143 111.112 20.5021 109.61 22.499C108.117 24.496 107.37 25.7339 107.37 26.2129C107.37 26.3509 108.259 27.8405 110.036 30.6816C111.822 33.5228 112.715 34.9718 112.715 35.0287C112.715 35.2803 112.516 35.4061 112.119 35.4061H111.766C111.238 35.4061 110.73 35.1667 110.243 34.6877C109.764 34.2007 109.139 33.3402 108.368 32.1063C107.605 30.8643 107.045 30.0241 106.688 29.5858C106.014 28.7496 105.454 28.3316 105.008 28.3316C104.569 28.3316 104.171 28.6928 103.814 29.4153C103.579 29.8942 103.416 30.7466 103.327 31.9724C103.238 33.19 103.12 33.9937 102.974 34.3833Z" fill="#FFCC4D"/>
</g>
<g clip-path="url(#clip1_1345_1100)">
<path d="M118.5 80.0004C126.585 80.0004 133.139 73.4464 133.139 65.3615C133.139 57.2767 126.585 50.7227 118.5 50.7227C110.415 50.7227 103.861 57.2767 103.861 65.3615C103.861 73.4464 110.415 80.0004 118.5 80.0004Z" fill="#F4900C"/>
<path d="M118.5 78.2778C126.585 78.2778 133.139 71.7237 133.139 63.6389C133.139 55.5541 126.585 49 118.5 49C110.415 49 103.861 55.5541 103.861 63.6389C103.861 71.7237 110.415 78.2778 118.5 78.2778Z" fill="#FFCC4D"/>
<path d="M118.5 76.5554C125.158 76.5554 130.556 71.158 130.556 64.4999C130.556 57.8418 125.158 52.4443 118.5 52.4443C111.842 52.4443 106.445 57.8418 106.445 64.4999C106.445 71.158 111.842 76.5554 118.5 76.5554Z" fill="#FFE8B6"/>
<path d="M118.5 75.6941C125.158 75.6941 130.556 70.2967 130.556 63.6386C130.556 56.9805 125.158 51.583 118.5 51.583C111.842 51.583 106.445 56.9805 106.445 63.6386C106.445 70.2967 111.842 75.6941 118.5 75.6941Z" fill="#FFAC33"/>
<path d="M110.843 62.0834L110.8 60.2876C110.8 60.1005 110.84 59.9649 110.921 59.8807C111.001 59.7965 111.172 59.7545 111.433 59.7545C111.699 59.7545 111.896 59.9368 112.024 60.3016C112.081 60.47 112.133 60.968 112.181 61.7958C112.233 62.6189 112.337 63.1216 112.494 63.304C112.726 63.5799 113.611 63.7178 115.148 63.7178C115.689 63.7178 116.033 63.5775 116.18 63.297C116.28 63.1052 116.353 62.5978 116.401 61.7747C116.448 60.947 116.501 60.4466 116.557 60.2736C116.69 59.862 116.98 59.6562 117.426 59.6562C117.573 59.6562 117.694 59.71 117.789 59.8176C117.888 59.9252 117.938 60.1941 117.938 60.6243V61.3749L117.931 61.6274V62.6586L117.917 63.7038L117.903 64.2299C117.893 64.5807 117.888 64.8355 117.888 64.9945L117.839 67.3305L117.853 68.8176C117.853 69.1684 117.696 69.3438 117.383 69.3438C116.989 69.3438 116.726 69.2035 116.593 68.9229C116.465 68.6423 116.401 68.0086 116.401 67.0218C116.401 66.0351 116.315 65.4458 116.145 65.2541C115.979 65.0624 115.516 64.9665 114.757 64.9665C113.476 64.9665 112.714 65.1185 112.472 65.4225C112.325 65.6048 112.233 66.1076 112.195 66.9306C112.162 67.7537 112.107 68.3102 112.031 68.6002C111.917 69.0257 111.682 69.2385 111.326 69.2385C111.075 69.2385 110.916 69.1824 110.85 69.0702C110.783 68.9533 110.75 68.7171 110.75 68.3617V67.12L110.757 66.8675C110.757 66.0398 110.767 65.4365 110.786 65.0577C110.809 64.6789 110.821 64.279 110.821 63.8581L110.828 63.6056C110.833 63.4373 110.835 63.2736 110.835 63.1146L110.843 62.862V62.0834Z" fill="#F4900C"/>
<path d="M121.525 68.7475C121.407 69.0702 121.207 69.2315 120.927 69.2315C120.647 69.2315 120.467 69.145 120.386 68.972C120.339 68.8738 120.315 68.6633 120.315 68.3406V67.8636L120.358 66.615C120.363 66.4419 120.365 66.1263 120.365 65.668V64.6087L120.351 64.1107L120.344 63.6056C120.344 63.4419 120.341 63.2782 120.337 63.1146L120.315 62.385V61.4521C120.315 60.6477 120.358 60.166 120.443 60.007C120.529 59.848 120.723 59.7685 121.027 59.7685C121.331 59.7685 121.539 59.993 121.653 60.4419C121.729 60.7552 121.781 61.3445 121.81 62.2097C121.838 63.0748 121.945 63.5074 122.13 63.5074C122.348 63.5074 122.877 63.0093 123.717 62.0132C124.557 61.0171 125.055 60.4466 125.212 60.3016C125.582 59.9602 125.926 59.7895 126.244 59.7895C126.562 59.7895 126.721 59.8667 126.721 60.021C126.721 60.1239 126.282 60.7506 125.404 61.901C124.531 63.0514 124.094 63.7646 124.094 64.0405C124.094 64.12 124.614 64.9782 125.653 66.615C126.697 68.2518 127.219 69.0865 127.219 69.1193C127.219 69.2642 127.103 69.3367 126.87 69.3367H126.664C126.355 69.3367 126.059 69.1988 125.774 68.9229C125.494 68.6423 125.129 68.1466 124.678 67.4357C124.232 66.7202 123.905 66.2362 123.696 65.9836C123.302 65.502 122.975 65.2611 122.714 65.2611C122.457 65.2611 122.225 65.4692 122.016 65.8854C121.879 66.1613 121.784 66.6524 121.732 67.3585C121.679 68.06 121.611 68.523 121.525 68.7475Z" fill="#F4900C"/>
<path d="M110.993 61.4085L110.953 59.7132C110.953 59.5366 110.991 59.4086 111.066 59.3291C111.141 59.2496 111.3 59.2099 111.543 59.2099C111.79 59.2099 111.973 59.3821 112.092 59.7264C112.145 59.8854 112.194 60.3556 112.238 61.137C112.287 61.914 112.384 62.3886 112.529 62.5608C112.746 62.8213 113.569 62.9515 115 62.9515C115.503 62.9515 115.823 62.8191 115.96 62.5542C116.053 62.3732 116.121 61.8941 116.165 61.1171C116.209 60.3357 116.258 59.8633 116.311 59.7C116.434 59.3114 116.704 59.1172 117.119 59.1172C117.256 59.1172 117.368 59.168 117.456 59.2695C117.549 59.371 117.596 59.6249 117.596 60.0311V60.7397L117.589 60.9781V61.9515L117.576 62.9383L117.562 63.4349C117.554 63.7661 117.549 64.0067 117.549 64.1568L117.503 66.362L117.516 67.7659C117.516 68.097 117.37 68.2626 117.079 68.2626C116.713 68.2626 116.468 68.1302 116.344 67.8653C116.225 67.6004 116.165 67.0022 116.165 66.0706C116.165 65.1391 116.086 64.5828 115.927 64.4018C115.772 64.2208 115.342 64.1303 114.635 64.1303C113.443 64.1303 112.735 64.2738 112.51 64.5607C112.373 64.7329 112.287 65.2075 112.251 65.9845C112.22 66.7615 112.17 67.2869 112.099 67.5606C111.993 67.9624 111.775 68.1633 111.443 68.1633C111.209 68.1633 111.062 68.1103 111 68.0043C110.938 67.894 110.907 67.671 110.907 67.3355V66.1633L110.914 65.9249C110.914 65.1435 110.922 64.574 110.94 64.2164C110.962 63.8588 110.973 63.4813 110.973 63.084L110.98 62.8456C110.984 62.6866 110.986 62.5321 110.986 62.382L110.993 62.1436V61.4085Z" fill="#FFCC4D"/>
<path d="M120.933 67.6997C120.823 68.0043 120.637 68.1566 120.377 68.1566C120.116 68.1566 119.949 68.075 119.874 67.9116C119.829 67.8189 119.807 67.6202 119.807 67.3156V66.8653L119.847 65.6865C119.852 65.5232 119.854 65.2252 119.854 64.7925V63.7925L119.84 63.3224L119.834 62.8456C119.834 62.691 119.832 62.5365 119.827 62.382L119.807 61.6933V60.8125C119.807 60.0531 119.847 59.5984 119.927 59.4483C120.006 59.2982 120.187 59.2231 120.47 59.2231C120.752 59.2231 120.946 59.4351 121.052 59.8589C121.123 60.1547 121.172 60.711 121.198 61.5277C121.225 62.3445 121.324 62.7528 121.496 62.7528C121.699 62.7528 122.191 62.2827 122.973 61.3423C123.754 60.4019 124.218 59.8633 124.364 59.7264C124.708 59.4042 125.028 59.243 125.324 59.243C125.62 59.243 125.767 59.3159 125.767 59.4615C125.767 59.5587 125.359 60.1503 124.542 61.2363C123.73 62.3224 123.324 62.9957 123.324 63.2561C123.324 63.3312 123.807 64.1413 124.774 65.6865C125.745 67.2317 126.231 68.0198 126.231 68.0507C126.231 68.1876 126.123 68.256 125.907 68.256H125.714C125.428 68.256 125.152 68.1257 124.887 67.8653C124.626 67.6004 124.286 67.1324 123.867 66.4613C123.452 65.7859 123.147 65.3289 122.953 65.0905C122.587 64.6358 122.282 64.4084 122.039 64.4084C121.801 64.4084 121.584 64.6049 121.39 64.9978C121.262 65.2583 121.174 65.7218 121.125 66.3885C121.077 67.0507 121.013 67.4878 120.933 67.6997Z" fill="#FFCC4D"/>
</g>
<g clip-path="url(#clip2_1345_1100)">
<path d="M96.4291 39.6596C96.1645 39.8224 95.9048 39.9883 95.6454 40.1596C92.9057 46.9807 91.3414 54.2082 91.0176 61.5414C90.9777 62.3895 90.9575 63.2362 90.9569 64.0816C90.9333 70.4215 91.8656 76.7294 93.7232 82.797C93.8212 83.1164 93.9213 83.4345 94.0236 83.7514C94.0969 83.9788 94.1715 84.2083 94.2524 84.4339C94.3385 84.5495 94.4232 84.6631 94.508 84.7766C94.514 84.7816 94.5192 84.79 94.5252 84.7951C94.5594 84.8409 94.5935 84.8867 94.6242 84.9317C94.7708 85.1263 94.9195 85.3198 95.066 85.5143L94.9426 85.5226L94.6333 85.5421L94.6345 85.5441C94.7384 85.542 94.8444 85.5386 94.9491 85.5331C94.9871 85.5332 95.0286 85.5341 95.0674 85.5308C95.1021 85.5302 95.1388 85.5281 95.1734 85.5275C99.6334 85.4079 104.198 85.1877 108.256 83.3828C112.504 81.4921 116.108 77.4043 115.925 72.8001C115.899 72.1971 115.806 71.5987 115.649 71.0156C115.583 70.7721 115.505 70.5329 115.422 70.2941C114.916 68.8323 114.025 67.5304 112.841 66.5223C111.658 65.5141 110.224 64.8361 108.688 64.5578C107.152 64.2796 105.569 64.4113 104.101 64.9393C102.633 65.4672 101.334 66.3725 100.337 67.562C101.555 62.8275 106.781 60.4115 111.488 58.9426C116.199 57.4747 121.499 55.9391 123.906 51.6732C125.249 49.2993 125.282 46.5335 124.405 43.9794C124.378 43.9031 124.35 43.8246 124.32 43.7474C123.216 40.7424 121.006 38.2603 118.133 36.7971C112.75 34.1596 106.209 35.0902 100.693 37.4443C99.217 38.075 97.7917 38.8156 96.4291 39.6596Z" fill="#F2F2F2"/>
<path d="M111.858 70.3145C107.627 70.6995 103.633 72.4214 100.467 75.2258C97.7708 77.6409 95.7811 80.7299 94.7071 84.1684C94.6446 84.3651 94.5877 84.5615 94.5342 84.7587C94.4273 84.5573 94.3235 84.3513 94.2208 84.1474C94.1548 84.0168 94.0874 83.8841 94.0235 83.7523C94.0968 83.9796 94.1714 84.2092 94.2523 84.4348C94.3384 84.5504 94.4231 84.664 94.5078 84.7775C94.5138 84.7824 94.5191 84.7909 94.5251 84.7959C94.5593 84.8418 94.5934 84.8876 94.6241 84.9325C94.7707 85.1272 94.9194 85.3206 95.0659 85.5152L94.9425 85.5235L94.6331 85.5429L94.6344 85.545C94.7383 85.5429 94.8442 85.5394 94.9489 85.534C94.987 85.5341 95.0285 85.535 95.0673 85.5317C95.0801 85.472 95.0963 85.4131 95.1124 85.3541C96.2087 80.913 98.8922 77.0147 102.667 74.3792C106.442 71.7438 111.053 70.5493 115.649 71.0165C115.583 70.773 115.505 70.5337 115.422 70.295C114.236 70.1989 113.043 70.2055 111.858 70.3145Z" fill="white"/>
<path d="M97.7998 52.8015C96.102 54.0603 94.5992 55.5576 93.3389 57.2463C92.6823 58.1465 92.1118 59.1052 91.6348 60.1101C91.4087 60.5764 91.2028 61.0565 91.0175 61.5415C90.9776 62.3896 90.9574 63.2363 90.9568 64.0817C91.1142 63.4426 91.3059 62.8123 91.5313 62.1934C91.6485 61.8536 91.7787 61.5204 91.917 61.1912C93.4685 57.5033 96.2794 54.5915 99.5945 52.3778C103.147 50.009 107.152 48.2308 111.211 46.9085C115.37 45.5471 119.683 44.6954 124.052 44.3724C124.15 44.3645 124.242 44.3193 124.308 44.2461C124.374 44.1729 124.408 44.0774 124.405 43.9795C124.408 43.8942 124.378 43.811 124.32 43.7476C124.289 43.7178 124.252 43.6956 124.211 43.6827C124.17 43.6698 124.127 43.6666 124.084 43.6734C123.545 43.7133 123.007 43.7554 122.47 43.8119C117.995 44.2679 113.596 45.2728 109.373 46.8035C105.295 48.2756 101.26 50.1847 97.7998 52.8015Z" fill="white"/>
<path d="M119.969 32.406C119.143 32.406 118.473 31.7434 118.473 30.9261C118.473 30.1088 119.143 29.4463 119.969 29.4463C120.795 29.4463 121.464 30.1088 121.464 30.9261C121.464 31.7434 120.795 32.406 119.969 32.406Z" fill="#F2F2F2"/>
<path d="M28.0978 44.5879H95.9822V101.805H28.0978V44.5879Z" fill="white"/>
<path d="M27.9004 102H96.1794V44.3926H27.9004V102ZM95.7848 101.61H28.2951V44.7831H95.7848V101.61Z" fill="#3F3D56"/>
<path d="M53.5546 55.7188H70.5256V101.805H53.5546V55.7188Z" fill="#F9A826"/>
<path d="M53.5546 55.7188H70.5256V101.805H53.5546V55.7188Z" fill="#FE6A07"/>
<path opacity="0.2" d="M95.7849 48.7861V58.0694L28.0979 62.3581L28.2974 50.9034L95.7849 48.7861Z" fill="black"/>
<path d="M24.1511 39.3154H99.929V55.719H24.1511V39.3154Z" fill="white"/>
<path d="M23.9537 55.9142H100.126V39.1201H23.9537V55.9142ZM99.7315 55.5237H24.3484V39.5107H99.7315V55.5237Z" fill="#3F3D56"/>
<path d="M53.5546 37.7529H70.5256V55.5234H53.5546V37.7529Z" fill="#FE6A07"/>
<path d="M63.8571 22.2583C59.3772 28.8298 63.5981 39.3991 63.5981 39.3991C63.5981 39.3991 75.0822 39.3139 79.5621 32.7424C84.0419 26.1709 79.8211 15.6016 79.8211 15.6016C79.8211 15.6016 68.3369 15.6868 63.8571 22.2583Z" fill="#FE6A07"/>
<path d="M61.8016 22.2583C66.2814 28.8298 62.0606 39.3991 62.0606 39.3991C62.0606 39.3991 50.5764 39.3139 46.0966 32.7424C41.6167 26.1709 45.8376 15.6016 45.8376 15.6016C45.8376 15.6016 57.3217 15.6868 61.8016 22.2583Z" fill="#FE6A07"/>
<path d="M73.8802 27.2074C72.8993 27.2074 72.1042 26.4206 72.1042 25.4499C72.1042 24.4793 72.8993 23.6924 73.8802 23.6924C74.8611 23.6924 75.6562 24.4793 75.6562 25.4499C75.6562 26.4206 74.8611 27.2074 73.8802 27.2074Z" fill="#3F3D56"/>
<path d="M63.2239 44.9779C62.2431 44.9779 61.4479 44.1911 61.4479 43.2204C61.4479 42.2498 62.2431 41.4629 63.2239 41.4629C64.2048 41.4629 65 42.2498 65 43.2204C65 44.1911 64.2048 44.9779 63.2239 44.9779Z" fill="#3F3D56"/>
<path d="M63.2239 83.4486C62.2431 83.4486 61.4479 82.6618 61.4479 81.6911C61.4479 80.7205 62.2431 79.9336 63.2239 79.9336C64.2048 79.9336 65 80.7205 65 81.6911C65 82.6618 64.2048 83.4486 63.2239 83.4486Z" fill="#3F3D56"/>
<path d="M69.1441 33.066C68.4902 33.066 67.9601 32.5414 67.9601 31.8943C67.9601 31.2472 68.4902 30.7227 69.1441 30.7227C69.798 30.7227 70.3281 31.2472 70.3281 31.8943C70.3281 32.5414 69.798 33.066 69.1441 33.066Z" fill="#3F3D56"/>
<path d="M51.3838 23.107C50.7299 23.107 50.1998 22.5825 50.1998 21.9354C50.1998 21.2883 50.7299 20.7637 51.3838 20.7637C52.0378 20.7637 52.5679 21.2883 52.5679 21.9354C52.5679 22.5825 52.0378 23.107 51.3838 23.107Z" fill="#3F3D56"/>
<path d="M59.0799 50.6412C58.426 50.6412 57.8959 50.1166 57.8959 49.4695C57.8959 48.8224 58.426 48.2979 59.0799 48.2979C59.7338 48.2979 60.2639 48.8224 60.2639 49.4695C60.2639 50.1166 59.7338 50.6412 59.0799 50.6412Z" fill="#3F3D56"/>
<path d="M66.1841 65.8727C65.5302 65.8727 65.0001 65.3481 65.0001 64.701C65.0001 64.0539 65.5302 63.5293 66.1841 63.5293C66.8381 63.5293 67.3682 64.0539 67.3682 64.701C67.3682 65.3481 66.8381 65.8727 66.1841 65.8727Z" fill="#3F3D56"/>
<path d="M60.0667 71.1461C59.4128 71.1461 58.8827 70.6215 58.8827 69.9744C58.8827 69.3273 59.4128 68.8027 60.0667 68.8027C60.7206 68.8027 61.2507 69.3273 61.2507 69.9744C61.2507 70.6215 60.7206 71.1461 60.0667 71.1461Z" fill="#3F3D56"/>
<path d="M61.4481 93.2125C60.7941 93.2125 60.264 92.6879 60.264 92.0408C60.264 91.3937 60.7941 90.8691 61.4481 90.8691C62.102 90.8691 62.6321 91.3937 62.6321 92.0408C62.6321 92.6879 62.102 93.2125 61.4481 93.2125Z" fill="#3F3D56"/>
<path d="M2.2051 71.4512H38.3252V101.895H2.2051V71.4512Z" fill="white"/>
<path d="M2.10005 102H38.4302V71.3477H2.10005V102ZM38.2202 101.792H2.31005V71.5555H38.2202V101.792Z" fill="#3F3D56"/>
<path d="M15.75 77.375H24.78V101.897H15.75V77.375Z" fill="#F9A826"/>
<path d="M15.75 77.375H24.78V101.897H15.75V77.375Z" fill="#FE6A07"/>
<path opacity="0.2" d="M38.22 73.6865V78.6259L2.20476 80.9078L2.31093 74.8131L38.22 73.6865Z" fill="black"/>
<path d="M0.105171 68.6465H40.4253V77.3745H0.105171V68.6465Z" fill="white"/>
<path d="M-9.15527e-05 77.4779H40.53V68.542H-9.15527e-05V77.4779ZM40.32 77.27H0.209908V68.7498H40.32V77.27Z" fill="#3F3D56"/>
<path d="M15.75 67.8154H24.78V77.2708H15.75V67.8154Z" fill="#FE6A07"/>
<path d="M21.2318 59.5712C18.8482 63.0678 21.094 68.6915 21.094 68.6915C21.094 68.6915 27.2046 68.6462 29.5882 65.1496C31.9719 61.653 29.726 56.0293 29.726 56.0293C29.726 56.0293 23.6155 56.0746 21.2318 59.5712Z" fill="#FE6A07"/>
<path d="M20.1383 59.5712C22.5219 63.0678 20.2761 68.6915 20.2761 68.6915C20.2761 68.6915 14.1656 68.6462 11.7819 65.1496C9.39827 61.653 11.6441 56.0293 11.6441 56.0293C11.6441 56.0293 17.7546 56.0746 20.1383 59.5712Z" fill="#FE6A07"/>
<path d="M26.565 62.2043C26.0431 62.2043 25.62 61.7856 25.62 61.2691C25.62 60.7527 26.0431 60.334 26.565 60.334C27.0869 60.334 27.51 60.7527 27.51 61.2691C27.51 61.7856 27.0869 62.2043 26.565 62.2043Z" fill="#3F3D56"/>
<path d="M20.8951 71.6594C20.3732 71.6594 19.9501 71.2407 19.9501 70.7242C19.9501 70.2077 20.3732 69.7891 20.8951 69.7891C21.417 69.7891 21.8401 70.2077 21.8401 70.7242C21.8401 71.2407 21.417 71.6594 20.8951 71.6594Z" fill="#3F3D56"/>
<path d="M20.8951 92.1291C20.3732 92.1291 19.9501 91.7104 19.9501 91.1939C19.9501 90.6775 20.3732 90.2588 20.8951 90.2588C21.417 90.2588 21.8401 90.6775 21.8401 91.1939C21.8401 91.7104 21.417 92.1291 20.8951 92.1291Z" fill="#3F3D56"/>
<path d="M24.045 65.3221C23.6971 65.3221 23.415 65.0429 23.415 64.6986C23.415 64.3543 23.6971 64.0752 24.045 64.0752C24.393 64.0752 24.675 64.3543 24.675 64.6986C24.675 65.0429 24.393 65.3221 24.045 65.3221Z" fill="#3F3D56"/>
<path d="M14.5951 60.0222C14.2472 60.0222 13.9651 59.7431 13.9651 59.3988C13.9651 59.0545 14.2472 58.7754 14.5951 58.7754C14.943 58.7754 15.2251 59.0545 15.2251 59.3988C15.2251 59.7431 14.943 60.0222 14.5951 60.0222Z" fill="#3F3D56"/>
<path d="M18.6901 74.6726C18.3421 74.6726 18.0601 74.3935 18.0601 74.0492C18.0601 73.7049 18.3421 73.4258 18.6901 73.4258C19.038 73.4258 19.3201 73.7049 19.3201 74.0492C19.3201 74.3935 19.038 74.6726 18.6901 74.6726Z" fill="#3F3D56"/>
<path d="M22.4701 82.7781C22.1222 82.7781 21.8401 82.499 21.8401 82.1547C21.8401 81.8104 22.1222 81.5312 22.4701 81.5312C22.818 81.5312 23.1001 81.8104 23.1001 82.1547C23.1001 82.499 22.818 82.7781 22.4701 82.7781Z" fill="#3F3D56"/>
<path d="M19.215 85.5838C18.867 85.5838 18.585 85.3047 18.585 84.9604C18.585 84.616 18.867 84.3369 19.215 84.3369C19.5629 84.3369 19.845 84.616 19.845 84.9604C19.845 85.3047 19.5629 85.5838 19.215 85.5838Z" fill="#3F3D56"/>
<path d="M19.9501 97.324C19.6021 97.324 19.3201 97.0449 19.3201 96.7006C19.3201 96.3563 19.6021 96.0771 19.9501 96.0771C20.298 96.0771 20.5801 96.3563 20.5801 96.7006C20.5801 97.0449 20.298 97.324 19.9501 97.324Z" fill="#3F3D56"/>
<path d="M64.3558 87.8703C64.0401 87.2115 65.5032 85.8707 67.6236 84.8755C69.7441 83.8803 71.7191 83.6075 72.0348 84.2662C72.3505 84.925 70.8875 86.2658 68.767 87.261C66.6465 88.2562 64.6716 88.529 64.3558 87.8703Z" fill="#2F2E41"/>
<path d="M46.8552 94.6546C46.2903 94.1866 47.0537 92.3637 48.5603 90.583C50.067 88.8023 51.7462 87.7382 52.3111 88.2063C52.876 88.6743 52.1126 90.4972 50.606 92.2779C49.0994 94.0586 47.4201 95.1227 46.8552 94.6546Z" fill="#2F2E41"/>
<path d="M58.6228 98.38C53.929 98.38 50.1239 94.6146 50.1239 89.9698C50.1239 85.3249 53.929 81.5596 58.6228 81.5596C63.3165 81.5596 67.1216 85.3249 67.1216 89.9698C67.1216 94.6146 63.3165 98.38 58.6228 98.38Z" fill="#2F2E41"/>
<path d="M55.0255 96.5713H57.6074V101.149H55.0255V96.5713Z" fill="#2F2E41"/>
<path d="M60.1893 96.5713H62.7712V101.149H60.1893V96.5713Z" fill="#2F2E41"/>
<path d="M57.1772 102C55.9889 102 55.0256 101.643 55.0256 101.202C55.0256 100.761 55.9889 100.403 57.1772 100.403C58.3656 100.403 59.3289 100.761 59.3289 101.202C59.3289 101.643 58.3656 102 57.1772 102Z" fill="#2F2E41"/>
<path d="M62.3411 101.893C61.1528 101.893 60.1895 101.535 60.1895 101.094C60.1895 100.653 61.1528 100.296 62.3411 100.296C63.5294 100.296 64.4927 100.653 64.4927 101.094C64.4927 101.535 63.5294 101.893 62.3411 101.893Z" fill="#2F2E41"/>
<path d="M61.2914 79.3983C60.5326 76.374 57.1827 74.5942 53.8094 75.4231C50.4361 76.252 48.3166 79.3756 49.0755 82.3999C49.8344 85.4243 52.3521 85.434 55.7254 84.6051C59.0988 83.7762 62.0503 82.4226 61.2914 79.3983Z" fill="#E6E6E6"/>
<path d="M59.8933 90.9995C58.3284 90.9995 57.0598 89.7441 57.0598 88.1956C57.0598 86.647 58.3284 85.3916 59.8933 85.3916C61.4582 85.3916 62.7268 86.647 62.7268 88.1956C62.7268 89.7441 61.4582 90.9995 59.8933 90.9995Z" fill="white"/>
<path d="M61.0579 88.1252C60.5363 88.1252 60.1134 87.7067 60.1134 87.1905C60.1134 86.6743 60.5363 86.2559 61.0579 86.2559C61.5796 86.2559 62.0024 86.6743 62.0024 87.1905C62.0024 87.7067 61.5796 88.1252 61.0579 88.1252Z" fill="#3F3D56"/>
<path d="M58.1159 94.0381C58.0715 94.2796 58.0755 94.5274 58.1279 94.7674C58.1802 95.0074 58.2798 95.2348 58.421 95.4366C58.5622 95.6385 58.7421 95.8109 58.9506 95.9439C59.1591 96.0769 59.392 96.168 59.636 96.212C59.8801 96.256 60.1305 96.2519 60.373 96.2001C60.6155 96.1483 60.8453 96.0498 61.0493 95.9101C61.2532 95.7704 61.4274 95.5923 61.5619 95.386C61.6963 95.1797 61.7884 94.9492 61.8328 94.7077L61.8335 94.7041C62.0193 93.6882 61.2256 93.3287 60.199 93.1448C59.1724 92.9609 58.3017 93.0223 58.1159 94.0381Z" fill="white"/>
<path d="M41.4401 26.6308C39.271 25.7442 37.7405 24.4793 38.0218 23.8054C38.3031 23.1315 40.2895 23.304 42.4587 24.1906C44.6278 25.0772 46.1582 26.3422 45.877 27.016C45.5957 27.6899 43.6093 27.5174 41.4401 26.6308Z" fill="#2F2E41"/>
<path d="M20.6094 32.4349C20.0445 31.9669 20.8079 30.1439 22.3145 28.3633C23.8211 26.5826 25.5004 25.5185 26.0653 25.9865C26.6302 26.4546 25.8668 28.2775 24.3602 30.0582C22.8536 31.8389 21.1743 32.903 20.6094 32.4349Z" fill="#2F2E41"/>
<path d="M32.3769 36.1602C27.6831 36.1602 23.8781 32.3949 23.8781 27.75C23.8781 23.1052 27.6831 19.3398 32.3769 19.3398C37.0707 19.3398 40.8757 23.1052 40.8757 27.75C40.8757 32.3949 37.0707 36.1602 32.3769 36.1602Z" fill="#2F2E41"/>
<path d="M28.7797 34.3506H31.3616V38.9283H28.7797V34.3506Z" fill="#2F2E41"/>
<path d="M33.9435 34.3506H36.5254V38.9283H33.9435V34.3506Z" fill="#2F2E41"/>
<path d="M30.9312 39.7805C29.7429 39.7805 28.7795 39.423 28.7795 38.982C28.7795 38.5411 29.7429 38.1836 30.9312 38.1836C32.1195 38.1836 33.0828 38.5411 33.0828 38.982C33.0828 39.423 32.1195 39.7805 30.9312 39.7805Z" fill="#2F2E41"/>
<path d="M36.095 39.674C34.9067 39.674 33.9434 39.3166 33.9434 38.8756C33.9434 38.4346 34.9067 38.0771 36.095 38.0771C37.2833 38.0771 38.2466 38.4346 38.2466 38.8756C38.2466 39.3166 37.2833 39.674 36.095 39.674Z" fill="#2F2E41"/>
<path d="M35.0453 17.1785C34.2865 14.1542 30.9366 12.3745 27.5633 13.2034C24.19 14.0323 22.0705 17.1559 22.8294 20.1802C23.5883 23.2045 26.106 23.2143 29.4793 22.3854C32.8527 21.5565 35.8042 20.2028 35.0453 17.1785Z" fill="#F9A826"/>
<path d="M33.6474 28.7798C32.0825 28.7798 30.8139 27.5244 30.8139 25.9758C30.8139 24.4273 32.0825 23.1719 33.6474 23.1719C35.2124 23.1719 36.481 24.4273 36.481 25.9758C36.481 27.5244 35.2124 28.7798 33.6474 28.7798Z" fill="white"/>
<path d="M34.8121 27.2726C34.2905 27.2726 33.8676 26.8542 33.8676 26.338C33.8676 25.8218 34.2905 25.4033 34.8121 25.4033C35.3337 25.4033 35.7566 25.8218 35.7566 26.338C35.7566 26.8542 35.3337 27.2726 34.8121 27.2726Z" fill="#3F3D56"/>
<path d="M31.87 31.8174C31.7803 32.3052 31.8901 32.8082 32.1751 33.2159C32.4602 33.6236 32.8973 33.9025 33.3902 33.9913C33.8831 34.0801 34.3914 33.9715 34.8034 33.6894C35.2154 33.4073 35.4972 32.9748 35.587 32.487L35.5876 32.4834C35.7735 31.4675 34.9797 31.108 33.9532 30.9241C32.9266 30.7402 32.0559 30.8016 31.87 31.8174Z" fill="white"/>
<path d="M105.092 98.381C100.398 98.381 96.5927 94.6156 96.5927 89.9707C96.5927 85.3259 100.398 81.5605 105.092 81.5605C109.785 81.5605 113.59 85.3259 113.59 89.9707C113.59 94.6156 109.785 98.381 105.092 98.381Z" fill="#2F2E41"/>
<path d="M106.383 96.5713H108.965V101.149H106.383V96.5713Z" fill="#2F2E41"/>
<path d="M101.219 96.5713H103.801V101.149H101.219V96.5713Z" fill="#2F2E41"/>
<path d="M106.813 102C105.625 102 104.661 101.643 104.661 101.202C104.661 100.761 105.625 100.403 106.813 100.403C108.001 100.403 108.965 100.761 108.965 101.202C108.965 101.643 108.001 102 106.813 102Z" fill="#2F2E41"/>
<path d="M101.649 101.893C100.461 101.893 99.4976 101.535 99.4976 101.094C99.4976 100.653 100.461 100.296 101.649 100.296C102.837 100.296 103.801 100.653 103.801 101.094C103.801 101.535 102.837 101.893 101.649 101.893Z" fill="#2F2E41"/>
<path d="M113.336 82.1491C114.022 79.1079 111.828 76.0348 108.436 75.2853C105.044 74.5357 101.738 76.3935 101.051 79.4347C100.365 82.476 102.613 83.5977 106.006 84.3472C109.398 85.0968 112.65 85.1904 113.336 82.1491Z" fill="#F9A826"/>
<path d="M95.9332 86.2946C94.0926 84.4718 93.0693 82.5307 93.6476 81.9589C94.2258 81.3871 96.1867 82.4012 98.0272 84.224C99.8678 86.0468 100.891 87.9879 100.313 88.5597C99.7346 89.1315 97.7737 88.1174 95.9332 86.2946Z" fill="#2F2E41"/>
<path d="M111.942 89.1466C111.364 88.5748 112.387 86.6337 114.228 84.8109C116.068 82.9881 118.029 81.974 118.607 82.5457C119.186 83.1175 118.162 85.0587 116.322 86.8815C114.481 88.7043 112.52 89.7184 111.942 89.1466Z" fill="#2F2E41"/>
<path d="M105.449 91.653C103.845 91.653 102.544 90.3661 102.544 88.7787C102.544 87.1912 103.845 85.9043 105.449 85.9043C107.053 85.9043 108.354 87.1912 108.354 88.7787C108.354 90.3661 107.053 91.653 105.449 91.653Z" fill="white"/>
<path d="M105.449 89.7366C104.915 89.7366 104.481 89.3076 104.481 88.7784C104.481 88.2493 104.915 87.8203 105.449 87.8203C105.984 87.8203 106.417 88.2493 106.417 88.7784C106.417 89.3076 105.984 89.7366 105.449 89.7366Z" fill="#3F3D56"/>
<path d="M103.143 94.0938C103.099 94.3353 103.103 94.5831 103.155 94.8231C103.208 95.063 103.307 95.2904 103.449 95.4923C103.59 95.6942 103.77 95.8665 103.978 95.9996C104.187 96.1326 104.42 96.2237 104.664 96.2677C104.908 96.3117 105.158 96.3076 105.401 96.2558C105.643 96.204 105.873 96.1055 106.077 95.9658C106.281 95.8261 106.455 95.648 106.589 95.4417C106.724 95.2354 106.816 95.0049 106.86 94.7634L106.861 94.7598C107.047 93.7439 106.253 93.3844 105.227 93.2005C104.2 93.0166 103.329 93.0779 103.143 94.0938Z" fill="white"/>
<g clip-path="url(#clip3_1345_1100)">
<path d="M92.5001 85.9996C96.4121 85.9996 99.5834 83.0397 99.5834 79.3885C99.5834 75.7372 96.4121 72.7773 92.5001 72.7773C88.5881 72.7773 85.4167 75.7372 85.4167 79.3885C85.4167 83.0397 88.5881 85.9996 92.5001 85.9996Z" fill="#F4900C"/>
<path d="M92.5001 85.2222C96.4121 85.2222 99.5834 82.2623 99.5834 78.6111C99.5834 74.9599 96.4121 72 92.5001 72C88.5881 72 85.4167 74.9599 85.4167 78.6111C85.4167 82.2623 88.5881 85.2222 92.5001 85.2222Z" fill="#FFCC4D"/>
<path d="M92.5001 84.4446C95.7217 84.4446 98.3334 82.007 98.3334 79.0001C98.3334 75.9932 95.7217 73.5557 92.5001 73.5557C89.2784 73.5557 86.6667 75.9932 86.6667 79.0001C86.6667 82.007 89.2784 84.4446 92.5001 84.4446Z" fill="#FFE8B6"/>
<path d="M92.5001 84.0559C95.7217 84.0559 98.3334 81.6183 98.3334 78.6114C98.3334 75.6046 95.7217 73.167 92.5001 73.167C89.2784 73.167 86.6667 75.6046 86.6667 78.6114C86.6667 81.6183 89.2784 84.0559 92.5001 84.0559Z" fill="#FFAC33"/>
<path d="M88.7948 77.9086L88.7741 77.0976C88.7741 77.0131 88.7936 76.9519 88.8326 76.9139C88.8717 76.8759 88.9543 76.8569 89.0806 76.8569C89.2092 76.8569 89.3044 76.9392 89.3664 77.104C89.394 77.18 89.4192 77.4049 89.4422 77.7787C89.4674 78.1504 89.5179 78.3775 89.5937 78.4599C89.7062 78.5845 90.1344 78.6468 90.8782 78.6468C91.1399 78.6468 91.3064 78.5834 91.3776 78.4567C91.4258 78.3701 91.4613 78.1409 91.4843 77.7692C91.5073 77.3954 91.5325 77.1694 91.5601 77.0913C91.6244 76.9054 91.7644 76.8125 91.9802 76.8125C92.0514 76.8125 92.1099 76.8368 92.1558 76.8854C92.204 76.9339 92.2281 77.0554 92.2281 77.2497V77.5887L92.2247 77.7027V78.1684L92.2178 78.6404L92.2109 78.878C92.2063 79.0364 92.204 79.1515 92.204 79.2233L92.1799 80.2783L92.1868 80.9499C92.1868 81.1083 92.1111 81.1875 91.9595 81.1875C91.769 81.1875 91.6416 81.1241 91.5773 80.9974C91.5153 80.8707 91.4843 80.5845 91.4843 80.1389C91.4843 79.6933 91.443 79.4272 91.3603 79.3406C91.28 79.254 91.0561 79.2107 90.6888 79.2107C90.0689 79.2107 89.7005 79.2793 89.5834 79.4166C89.5122 79.499 89.4674 79.726 89.4491 80.0977C89.433 80.4694 89.4066 80.7207 89.3699 80.8517C89.3148 81.0439 89.2011 81.14 89.0289 81.14C88.9073 81.14 88.8304 81.1146 88.7982 81.0639C88.7661 81.0111 88.75 80.9045 88.75 80.744V80.1832L88.7534 80.0692C88.7534 79.6954 88.758 79.4229 88.7672 79.2519C88.7787 79.0808 88.7844 78.9002 88.7844 78.7101L88.7879 78.5961C88.7902 78.52 88.7913 78.4461 88.7913 78.3743L88.7948 78.2603V77.9086Z" fill="#F4900C"/>
<path d="M93.9638 80.9182C93.9064 81.0639 93.81 81.1368 93.6745 81.1368C93.5391 81.1368 93.4518 81.0977 93.4128 81.0196C93.3898 80.9752 93.3783 80.8802 93.3783 80.7345V80.5191L93.399 79.9552C93.4013 79.877 93.4025 79.7344 93.4025 79.5275V79.0491L93.3956 78.8242L93.3921 78.5961C93.3921 78.5222 93.391 78.4482 93.3887 78.3743L93.3783 78.0448V77.6235C93.3783 77.2602 93.399 77.0427 93.4403 76.9709C93.4817 76.8991 93.5758 76.8632 93.7227 76.8632C93.8697 76.8632 93.9707 76.9646 94.0258 77.1673C94.0625 77.3088 94.0878 77.5749 94.1015 77.9656C94.1153 78.3564 94.167 78.5517 94.2565 78.5517C94.3621 78.5517 94.6181 78.3268 95.0244 77.8769C95.4308 77.4271 95.6719 77.1694 95.7476 77.104C95.9267 76.9498 96.0931 76.8727 96.247 76.8727C96.4008 76.8727 96.4777 76.9075 96.4777 76.9772C96.4777 77.0237 96.2653 77.3067 95.8406 77.8263C95.4182 78.3458 95.207 78.6679 95.207 78.7925C95.207 78.8284 95.4584 79.216 95.9611 79.9552C96.4662 80.6943 96.7187 81.0713 96.7187 81.0861C96.7187 81.1516 96.6625 81.1843 96.55 81.1843H96.4501C96.3009 81.1843 96.1574 81.122 96.0197 80.9974C95.8842 80.8707 95.7074 80.6468 95.4893 80.3258C95.2735 80.0027 95.1151 79.7841 95.0141 79.67C94.8236 79.4525 94.6651 79.3437 94.5389 79.3437C94.4149 79.3437 94.3024 79.4377 94.2014 79.6257C94.1348 79.7503 94.0889 79.972 94.0636 80.291C94.0384 80.6078 94.0051 80.8168 93.9638 80.9182Z" fill="#F4900C"/>
<path d="M88.8676 77.6041L88.8484 76.8385C88.8484 76.7587 88.8665 76.7009 88.9028 76.665C88.9391 76.6292 89.0161 76.6112 89.1335 76.6112C89.2532 76.6112 89.3418 76.689 89.3995 76.8445C89.4251 76.9163 89.4486 77.1286 89.47 77.4815C89.4935 77.8324 89.5405 78.0468 89.611 78.1245C89.7157 78.2421 90.1141 78.301 90.8062 78.301C91.0497 78.301 91.2046 78.2411 91.2708 78.1215C91.3157 78.0398 91.3488 77.8234 91.3702 77.4725C91.3915 77.1196 91.415 76.9063 91.4407 76.8325C91.5005 76.6571 91.6308 76.5693 91.8316 76.5693C91.8978 76.5693 91.9523 76.5923 91.995 76.6381C92.0399 76.684 92.0623 76.7986 92.0623 76.9821V77.3021L92.0591 77.4097V77.8494L92.0527 78.295L92.0463 78.5193C92.042 78.6688 92.0399 78.7775 92.0399 78.8453L92.0175 79.8412L92.0239 80.4752C92.0239 80.6248 91.9534 80.6995 91.8124 80.6995C91.6351 80.6995 91.5165 80.6397 91.4567 80.5201C91.399 80.4005 91.3702 80.1303 91.3702 79.7096C91.3702 79.2889 91.3317 79.0377 91.2548 78.9559C91.1801 78.8742 90.9718 78.8333 90.63 78.8333C90.0532 78.8333 89.7103 78.8981 89.6014 79.0277C89.5352 79.1055 89.4935 79.3198 89.4764 79.6707C89.4615 80.0216 89.4369 80.2589 89.4027 80.3825C89.3514 80.5639 89.2457 80.6547 89.0855 80.6547C88.9723 80.6547 88.9007 80.6307 88.8708 80.5829C88.8409 80.533 88.8259 80.4324 88.8259 80.2808V79.7515L88.8291 79.6438C88.8291 79.2909 88.8334 79.0337 88.8419 78.8722C88.8526 78.7107 88.858 78.5402 88.858 78.3608L88.8612 78.2531C88.8633 78.1813 88.8644 78.1116 88.8644 78.0438L88.8676 77.9361V77.6041Z" fill="#FFCC4D"/>
<path d="M93.6773 80.4453C93.6239 80.5829 93.5342 80.6517 93.4081 80.6517C93.2821 80.6517 93.2009 80.6148 93.1646 80.541C93.1432 80.4991 93.1326 80.4094 93.1326 80.2719V80.0685L93.1518 79.5361C93.1539 79.4624 93.155 79.3278 93.155 79.1324V78.6808L93.1486 78.4684L93.1454 78.2531C93.1454 78.1833 93.1443 78.1135 93.1422 78.0438L93.1326 77.7327V77.335C93.1326 76.992 93.1518 76.7867 93.1902 76.7189C93.2287 76.6511 93.3163 76.6172 93.453 76.6172C93.5897 76.6172 93.6837 76.7129 93.735 76.9043C93.7692 77.0379 93.7927 77.2891 93.8055 77.658C93.8183 78.0268 93.8664 78.2112 93.9497 78.2112C94.0479 78.2112 94.2861 77.9989 94.6642 77.5742C95.0424 77.1495 95.2667 76.9063 95.3372 76.8445C95.5038 76.6989 95.6587 76.6262 95.8018 76.6262C95.9449 76.6262 96.0165 76.6591 96.0165 76.7249C96.0165 76.7687 95.8189 77.0359 95.4237 77.5264C95.0306 78.0168 94.8341 78.3209 94.8341 78.4385C94.8341 78.4724 95.068 78.8383 95.5358 79.5361C96.0058 80.234 96.2408 80.5899 96.2408 80.6038C96.2408 80.6656 96.1884 80.6965 96.0838 80.6965H95.9908C95.852 80.6965 95.7185 80.6377 95.5903 80.5201C95.4643 80.4005 95.2998 80.1891 95.0968 79.886C94.896 79.581 94.7486 79.3746 94.6546 79.267C94.4773 79.0616 94.3299 78.9589 94.2124 78.9589C94.0971 78.9589 93.9924 79.0476 93.8984 79.2251C93.8365 79.3427 93.7937 79.5521 93.7702 79.8531C93.7467 80.1522 93.7158 80.3496 93.6773 80.4453Z" fill="#FFCC4D"/>
</g>
<g clip-path="url(#clip4_1345_1100)">
<path d="M17 40.9996C20.6512 40.9996 23.6111 38.0397 23.6111 34.3885C23.6111 30.7372 20.6512 27.7773 17 27.7773C13.3488 27.7773 10.3889 30.7372 10.3889 34.3885C10.3889 38.0397 13.3488 40.9996 17 40.9996Z" fill="#F4900C"/>
<path d="M17 40.2222C20.6512 40.2222 23.6111 37.2623 23.6111 33.6111C23.6111 29.9599 20.6512 27 17 27C13.3488 27 10.3889 29.9599 10.3889 33.6111C10.3889 37.2623 13.3488 40.2222 17 40.2222Z" fill="#FFCC4D"/>
<path d="M17.0001 39.4446C20.007 39.4446 22.4446 37.007 22.4446 34.0001C22.4446 30.9932 20.007 28.5557 17.0001 28.5557C13.9932 28.5557 11.5557 30.9932 11.5557 34.0001C11.5557 37.007 13.9932 39.4446 17.0001 39.4446Z" fill="#FFE8B6"/>
<path d="M17.0001 39.0559C20.007 39.0559 22.4446 36.6183 22.4446 33.6114C22.4446 30.6046 20.007 28.167 17.0001 28.167C13.9932 28.167 11.5557 30.6046 11.5557 33.6114C11.5557 36.6183 13.9932 39.0559 17.0001 39.0559Z" fill="#FFAC33"/>
<path d="M13.5418 32.9086L13.5225 32.0976C13.5225 32.0131 13.5407 31.9519 13.5771 31.9139C13.6136 31.8759 13.6907 31.8569 13.8086 31.8569C13.9286 31.8569 14.0175 31.9392 14.0753 32.104C14.101 32.18 14.1246 32.4049 14.146 32.7787C14.1696 33.1504 14.2168 33.3775 14.2875 33.4599C14.3925 33.5845 14.7921 33.6468 15.4863 33.6468C15.7306 33.6468 15.886 33.5834 15.9524 33.4567C15.9974 33.3701 16.0306 33.1409 16.052 32.7692C16.0734 32.3954 16.097 32.1694 16.1227 32.0913C16.1827 31.9054 16.3134 31.8125 16.5149 31.8125C16.5813 31.8125 16.6359 31.8368 16.6788 31.8854C16.7238 31.9339 16.7463 32.0554 16.7463 32.2497V32.5887L16.7431 32.7027V33.1684L16.7366 33.6404L16.7302 33.878C16.7259 34.0364 16.7238 34.1515 16.7238 34.2233L16.7013 35.2783L16.7077 35.9499C16.7077 36.1083 16.637 36.1875 16.4956 36.1875C16.3177 36.1875 16.1988 36.1241 16.1388 35.9974C16.0809 35.8707 16.052 35.5845 16.052 35.1389C16.052 34.6933 16.0135 34.4272 15.9363 34.3406C15.8613 34.254 15.6524 34.2107 15.3096 34.2107C14.731 34.2107 14.3871 34.2793 14.2778 34.4166C14.2114 34.499 14.1696 34.726 14.1525 35.0977C14.1375 35.4694 14.1128 35.7207 14.0785 35.8517C14.0271 36.0439 13.9211 36.14 13.7603 36.14C13.6468 36.14 13.575 36.1146 13.545 36.0639C13.515 36.0111 13.5 35.9045 13.5 35.744V35.1832L13.5032 35.0692C13.5032 34.6954 13.5075 34.4229 13.5161 34.2519C13.5268 34.0808 13.5321 33.9002 13.5321 33.7101L13.5354 33.5961C13.5375 33.52 13.5386 33.4461 13.5386 33.3743L13.5418 33.2603V32.9086Z" fill="#F4900C"/>
<path d="M18.3662 35.9182C18.3126 36.0639 18.2226 36.1368 18.0962 36.1368C17.9698 36.1368 17.8884 36.0977 17.8519 36.0196C17.8305 35.9752 17.8198 35.8802 17.8198 35.7345V35.5191L17.8391 34.9552C17.8412 34.877 17.8423 34.7344 17.8423 34.5275V34.0491L17.8359 33.8242L17.8326 33.5961C17.8326 33.5222 17.8316 33.4482 17.8294 33.3743L17.8198 33.0448V32.6235C17.8198 32.2602 17.8391 32.0427 17.8776 31.9709C17.9162 31.8991 18.0041 31.8632 18.1412 31.8632C18.2783 31.8632 18.3726 31.9646 18.424 32.1673C18.4583 32.3088 18.4819 32.5749 18.4948 32.9656C18.5076 33.3564 18.5558 33.5517 18.6394 33.5517C18.738 33.5517 18.9769 33.3268 19.3561 32.8769C19.7354 32.4271 19.9604 32.1694 20.0311 32.104C20.1982 31.9498 20.3536 31.8727 20.4972 31.8727C20.6407 31.8727 20.7125 31.9075 20.7125 31.9772C20.7125 32.0237 20.5143 32.3067 20.1179 32.8263C19.7236 33.3458 19.5265 33.6679 19.5265 33.7925C19.5265 33.8284 19.7611 34.216 20.2304 34.9552C20.7018 35.6943 20.9375 36.0713 20.9375 36.0861C20.9375 36.1516 20.885 36.1843 20.78 36.1843H20.6868C20.5475 36.1843 20.4136 36.122 20.285 35.9974C20.1586 35.8707 19.9936 35.6468 19.7901 35.3258C19.5886 35.0027 19.4408 34.7841 19.3465 34.67C19.1687 34.4525 19.0208 34.3437 18.903 34.3437C18.7872 34.3437 18.6823 34.4377 18.588 34.6257C18.5258 34.7503 18.483 34.972 18.4594 35.291C18.4358 35.6078 18.4048 35.8168 18.3662 35.9182Z" fill="#F4900C"/>
<path d="M13.6097 32.6041L13.5917 31.8385C13.5917 31.7587 13.6087 31.7009 13.6426 31.665C13.6765 31.6292 13.7483 31.6112 13.8579 31.6112C13.9696 31.6112 14.0523 31.689 14.1061 31.8445C14.1301 31.9163 14.152 32.1286 14.1719 32.4815C14.1939 32.8324 14.2377 33.0468 14.3035 33.1245C14.4012 33.2421 14.7731 33.301 15.4191 33.301C15.6464 33.301 15.7909 33.2411 15.8527 33.1215C15.8946 33.0398 15.9255 32.8234 15.9454 32.4725C15.9654 32.1196 15.9873 31.9063 16.0112 31.8325C16.0671 31.6571 16.1887 31.5693 16.3761 31.5693C16.4379 31.5693 16.4887 31.5923 16.5286 31.6381C16.5705 31.684 16.5914 31.7986 16.5914 31.9821V32.3021L16.5884 32.4097V32.8494L16.5825 33.295L16.5765 33.5193C16.5725 33.6688 16.5705 33.7775 16.5705 33.8453L16.5496 34.8412L16.5555 35.4752C16.5555 35.6248 16.4897 35.6995 16.3582 35.6995C16.1927 35.6995 16.082 35.6397 16.0262 35.5201C15.9724 35.4005 15.9454 35.1303 15.9454 34.7096C15.9454 34.2889 15.9095 34.0377 15.8378 33.9559C15.768 33.8742 15.5736 33.8333 15.2546 33.8333C14.7162 33.8333 14.3962 33.8981 14.2946 34.0277C14.2327 34.1055 14.1939 34.3198 14.1779 34.6707C14.164 35.0216 14.141 35.2589 14.1091 35.3825C14.0613 35.5639 13.9626 35.6547 13.813 35.6547C13.7074 35.6547 13.6406 35.6307 13.6127 35.5829C13.5848 35.533 13.5708 35.4324 13.5708 35.2808V34.7515L13.5738 34.6438C13.5738 34.2909 13.5778 34.0337 13.5858 33.8722C13.5957 33.7107 13.6007 33.5402 13.6007 33.3608L13.6037 33.2531C13.6057 33.1813 13.6067 33.1116 13.6067 33.0438L13.6097 32.9361V32.6041Z" fill="#FFCC4D"/>
<path d="M18.0988 35.4453C18.0489 35.5829 17.9652 35.6517 17.8475 35.6517C17.7299 35.6517 17.6541 35.6148 17.6202 35.541C17.6003 35.4991 17.5903 35.4094 17.5903 35.2719V35.0685L17.6083 34.5361C17.6103 34.4624 17.6113 34.3278 17.6113 34.1324V33.6808L17.6053 33.4684L17.6023 33.2531C17.6023 33.1833 17.6013 33.1135 17.5993 33.0438L17.5903 32.7327V32.335C17.5903 31.992 17.6083 31.7867 17.6442 31.7189C17.6801 31.6511 17.7618 31.6172 17.8894 31.6172C18.017 31.6172 18.1047 31.7129 18.1526 31.9043C18.1845 32.0379 18.2064 32.2891 18.2184 32.658C18.2303 33.0268 18.2752 33.2112 18.353 33.2112C18.4447 33.2112 18.667 32.9989 19.0199 32.5742C19.3728 32.1495 19.5822 31.9063 19.6479 31.8445C19.8035 31.6989 19.948 31.6262 20.0816 31.6262C20.2152 31.6262 20.282 31.6591 20.282 31.7249C20.282 31.7687 20.0976 32.0359 19.7287 32.5264C19.3618 33.0168 19.1784 33.3209 19.1784 33.4385C19.1784 33.4724 19.3967 33.8383 19.8334 34.5361C20.272 35.234 20.4913 35.5899 20.4913 35.6038C20.4913 35.6656 20.4425 35.6965 20.3448 35.6965H20.2581C20.1285 35.6965 20.0038 35.6377 19.8842 35.5201C19.7666 35.4005 19.6131 35.1891 19.4236 34.886C19.2362 34.581 19.0987 34.3746 19.0109 34.267C18.8454 34.0616 18.7079 33.9589 18.5982 33.9589C18.4905 33.9589 18.3928 34.0476 18.3051 34.2251C18.2473 34.3427 18.2074 34.5521 18.1855 34.8531C18.1636 35.1522 18.1346 35.3496 18.0988 35.4453Z" fill="#FFCC4D"/>
</g>
</g>
<defs>
<clipPath id="clip0_1345_1100">
<rect width="57" height="57" fill="white" transform="translate(70)"/>
</clipPath>
<clipPath id="clip1_1345_1100">
<rect width="31" height="31" fill="white" transform="translate(103 49)"/>
</clipPath>
<clipPath id="clip2_1345_1100">
<rect width="125" height="89" fill="white" transform="matrix(-1 0 0 1 125 13)"/>
</clipPath>
<clipPath id="clip3_1345_1100">
<rect width="15" height="14" fill="white" transform="translate(85 72)"/>
</clipPath>
<clipPath id="clip4_1345_1100">
<rect width="14" height="14" fill="white" transform="translate(10 27)"/>
</clipPath>
</defs>
</svg>
