<svg width="169" height="105" viewBox="0 0 169 105" fill="none" xmlns="http://www.w3.org/2000/svg">
<path d="M122 0.0771484H-13.9419V87.0427H122V0.0771484Z" fill="#E6E6E6"/>
<path d="M118.113 10.9844H-10.0547V81.8974H118.113V10.9844Z" fill="white"/>
<path d="M121.942 0H-14V5.76883H121.942V0Z" fill="#00BAFF"/>
<path d="M81.847 17.6261H40.1198C40.0308 17.6144 39.949 17.5707 39.8897 17.5033C39.8305 17.4358 39.7979 17.3491 39.7979 17.2594C39.7979 17.1696 39.8305 17.0829 39.8897 17.0154C39.949 16.948 40.0308 16.9043 40.1198 16.8926H81.847C81.9361 16.9043 82.0179 16.948 82.0771 17.0154C82.1363 17.0829 82.169 17.1696 82.169 17.2594C82.169 17.3491 82.1363 17.4358 82.0771 17.5033C82.0179 17.5707 81.9361 17.6144 81.847 17.6261Z" fill="#CCCCCC"/>
<path d="M52.9345 21.6613H26.4042C26.3152 21.6496 26.2334 21.6059 26.1742 21.5384C26.1149 21.4709 26.0823 21.3842 26.0823 21.2945C26.0823 21.2048 26.1149 21.1181 26.1742 21.0506C26.2334 20.9831 26.3152 20.9395 26.4042 20.9277H52.9345C53.0235 20.9395 53.1053 20.9831 53.1645 21.0506C53.2238 21.1181 53.2564 21.2048 53.2564 21.2945C53.2564 21.3842 53.2238 21.4709 53.1645 21.5384C53.1053 21.6059 53.0235 21.6496 52.9345 21.6613Z" fill="#CCCCCC"/>
<path d="M81.8471 21.7345H55.3168C55.2278 21.7228 55.146 21.6791 55.0868 21.6116C55.0275 21.5442 54.9949 21.4575 54.9949 21.3677C54.9949 21.278 55.0275 21.1913 55.0868 21.1238C55.146 21.0564 55.2278 21.0127 55.3168 21.001H81.8471C81.9362 21.0127 82.0179 21.0564 82.0772 21.1238C82.1364 21.1913 82.1691 21.278 82.1691 21.3677C82.1691 21.4575 82.1364 21.5442 82.0772 21.6116C82.0179 21.6791 81.9362 21.7228 81.8471 21.7345H81.8471Z" fill="#CCCCCC"/>
<path d="M52.9987 25.6955H26.4684C26.3794 25.6837 26.2976 25.6401 26.2384 25.5726C26.1791 25.5051 26.1465 25.4184 26.1465 25.3287C26.1465 25.2389 26.1791 25.1523 26.2384 25.0848C26.2976 25.0173 26.3794 24.9736 26.4684 24.9619H52.9987C53.0877 24.9736 53.1695 25.0173 53.2288 25.0848C53.288 25.1523 53.3206 25.2389 53.3206 25.3287C53.3206 25.4184 53.288 25.5051 53.2288 25.5726C53.1695 25.6401 53.0877 25.6837 52.9987 25.6955Z" fill="#CCCCCC"/>
<path d="M53.0631 29.7306H26.5329C26.4438 29.7189 26.3621 29.6752 26.3028 29.6077C26.2436 29.5403 26.2109 29.4536 26.2109 29.3638C26.2109 29.2741 26.2436 29.1874 26.3028 29.1199C26.3621 29.0525 26.4438 29.0088 26.5329 28.9971H53.0631C53.1522 29.0088 53.234 29.0525 53.2932 29.1199C53.3524 29.1874 53.3851 29.2741 53.3851 29.3638C53.3851 29.4536 53.3524 29.5403 53.2932 29.6077C53.234 29.6752 53.1522 29.7189 53.0631 29.7306Z" fill="#CCCCCC"/>
<path d="M65.1047 25.6955H57.5063C57.4172 25.6837 57.3354 25.6401 57.2762 25.5726C57.217 25.5051 57.1843 25.4184 57.1843 25.3287C57.1843 25.2389 57.217 25.1523 57.2762 25.0848C57.3354 25.0173 57.4172 24.9736 57.5063 24.9619H65.1047C65.1938 24.9736 65.2756 25.0173 65.3348 25.0848C65.3941 25.1523 65.4267 25.2389 65.4267 25.3287C65.4267 25.4184 65.3941 25.5051 65.3348 25.5726C65.2756 25.6401 65.1938 25.6837 65.1047 25.6955Z" fill="#CCCCCC"/>
<path d="M65.1047 29.6574H57.5063C57.4172 29.6456 57.3354 29.602 57.2762 29.5345C57.217 29.467 57.1843 29.3803 57.1843 29.2906C57.1843 29.2009 57.217 29.1142 57.2762 29.0467C57.3354 28.9792 57.4172 28.9356 57.5063 28.9238H65.1047C65.1938 28.9356 65.2756 28.9792 65.3348 29.0467C65.3941 29.1142 65.4267 29.2009 65.4267 29.2906C65.4267 29.3803 65.3941 29.467 65.3348 29.5345C65.2756 29.602 65.1938 29.6456 65.1047 29.6574Z" fill="#CCCCCC"/>
<path d="M77.8548 29.6574H70.2563C70.1672 29.6456 70.0855 29.602 70.0262 29.5345C69.967 29.467 69.9343 29.3803 69.9343 29.2906C69.9343 29.2009 69.967 29.1142 70.0262 29.0467C70.0855 28.9792 70.1672 28.9356 70.2563 28.9238H77.8548C77.9438 28.9356 78.0256 28.9792 78.0848 29.0467C78.1441 29.1142 78.1767 29.2009 78.1767 29.2906C78.1767 29.3803 78.1441 29.467 78.0848 29.5345C78.0256 29.602 77.9438 29.6456 77.8548 29.6574Z" fill="#CCCCCC"/>
<path d="M33.8093 17.6261H26.2109C26.1218 17.6144 26.04 17.5707 25.9808 17.5033C25.9216 17.4358 25.8889 17.3491 25.8889 17.2594C25.8889 17.1696 25.9216 17.0829 25.9808 17.0154C26.04 16.948 26.1218 16.9043 26.2109 16.8926H33.8093C33.8984 16.9043 33.9802 16.948 34.0394 17.0154C34.0986 17.0829 34.1313 17.1696 34.1313 17.2594C34.1313 17.3491 34.0986 17.4358 34.0394 17.5033C33.9802 17.5707 33.8984 17.6144 33.8093 17.6261Z" fill="#CCCCCC"/>
<path d="M52.8378 63.8859H26.3076C26.2185 63.8742 26.1367 63.8305 26.0775 63.763C26.0183 63.6955 25.9856 63.6089 25.9856 63.5191C25.9856 63.4294 26.0183 63.3427 26.0775 63.2752C26.1367 63.2077 26.2185 63.1641 26.3076 63.1523H52.8378C52.9269 63.1641 53.0087 63.2077 53.0679 63.2752C53.1271 63.3427 53.1598 63.4294 53.1598 63.5191C53.1598 63.6089 53.1271 63.6955 53.0679 63.763C53.0087 63.8305 52.9269 63.8742 52.8378 63.8859H52.8378Z" fill="#CCCCCC"/>
<path d="M52.7089 71.9552H26.1787C26.0896 71.9435 26.0078 71.8998 25.9486 71.8324C25.8893 71.7649 25.8567 71.6782 25.8567 71.5885C25.8567 71.4987 25.8893 71.412 25.9486 71.3445C26.0078 71.2771 26.0896 71.2334 26.1787 71.2217H52.7089C52.798 71.2334 52.8798 71.2771 52.939 71.3445C52.9982 71.412 53.0309 71.4987 53.0309 71.5885C53.0309 71.6782 52.9982 71.7649 52.939 71.8324C52.8798 71.8998 52.798 71.9435 52.7089 71.9552H52.7089Z" fill="#CCCCCC"/>
<path d="M52.7733 75.9894H26.2431C26.154 75.9777 26.0723 75.934 26.013 75.8665C25.9538 75.7991 25.9211 75.7124 25.9211 75.6226C25.9211 75.5329 25.9538 75.4462 26.013 75.3787C26.0723 75.3113 26.154 75.2676 26.2431 75.2559H52.7733C52.8624 75.2676 52.9442 75.3113 53.0034 75.3787C53.0627 75.4462 53.0953 75.5329 53.0953 75.6226C53.0953 75.7124 53.0627 75.7991 53.0034 75.8665C52.9442 75.934 52.8624 75.9777 52.7733 75.9894H52.7733Z" fill="#CCCCCC"/>
<path d="M64.1067 72.0285H56.5083C56.4192 72.0168 56.3374 71.9731 56.2782 71.9056C56.2189 71.8381 56.1863 71.7514 56.1863 71.6617C56.1863 71.572 56.2189 71.4853 56.2782 71.4178C56.3374 71.3503 56.4192 71.3066 56.5083 71.2949H64.1067C64.1958 71.3066 64.2776 71.3503 64.3368 71.4178C64.396 71.4853 64.4287 71.572 64.4287 71.6617C64.4287 71.7514 64.396 71.8381 64.3368 71.9056C64.2776 71.9731 64.1958 72.0168 64.1067 72.0285Z" fill="#CCCCCC"/>
<path d="M64.1067 75.9894H56.5083C56.4192 75.9777 56.3374 75.934 56.2782 75.8665C56.2189 75.7991 56.1863 75.7124 56.1863 75.6226C56.1863 75.5329 56.2189 75.4462 56.2782 75.3787C56.3374 75.3113 56.4192 75.2676 56.5083 75.2559H64.1067C64.1958 75.2676 64.2776 75.3113 64.3368 75.3787C64.396 75.4462 64.4287 75.5329 64.4287 75.6226C64.4287 75.7124 64.396 75.7991 64.3368 75.8665C64.2776 75.934 64.1958 75.9777 64.1067 75.9894Z" fill="#CCCCCC"/>
<path d="M76.8567 72.0285H69.2582C69.1692 72.0168 69.0874 71.9731 69.0282 71.9056C68.9689 71.8381 68.9363 71.7514 68.9363 71.6617C68.9363 71.572 68.9689 71.4853 69.0282 71.4178C69.0874 71.3503 69.1692 71.3066 69.2582 71.2949H76.8567C76.9458 71.3066 77.0276 71.3503 77.0868 71.4178C77.146 71.4853 77.1787 71.572 77.1787 71.6617C77.1787 71.7514 77.146 71.8381 77.0868 71.9056C77.0276 71.9731 76.9458 72.0168 76.8567 72.0285Z" fill="#CCCCCC"/>
<path d="M81.8792 67.9201H40.152C40.063 67.9083 39.9812 67.8647 39.922 67.7972C39.8627 67.7297 39.8301 67.643 39.8301 67.5533C39.8301 67.4636 39.8627 67.3769 39.922 67.3094C39.9812 67.2419 40.063 67.1983 40.152 67.1865H81.8792C81.9683 67.1983 82.0501 67.2419 82.1093 67.3094C82.1685 67.3769 82.2012 67.4636 82.2012 67.5533C82.2012 67.643 82.1685 67.7297 82.1093 67.7972C82.0501 67.8647 81.9683 67.9083 81.8792 67.9201Z" fill="#CCCCCC"/>
<path d="M33.8415 67.9201H26.2431C26.154 67.9083 26.0723 67.8647 26.013 67.7972C25.9538 67.7297 25.9211 67.643 25.9211 67.5533C25.9211 67.4636 25.9538 67.3769 26.013 67.3094C26.0723 67.2419 26.154 67.1983 26.2431 67.1865H33.8415C33.9306 67.1983 34.0124 67.2419 34.0716 67.3094C34.1309 67.3769 34.1635 67.4636 34.1635 67.5533C34.1635 67.643 34.1309 67.7297 34.0716 67.7972C34.0124 67.8647 33.9306 67.9083 33.8415 67.9201Z" fill="#CCCCCC"/>
<path d="M46.4306 36.2471L36.1274 46.41L46.4306 56.5728L48.7487 54.2572L40.957 46.4742L48.813 38.627L46.4306 36.2471Z" fill="#E6E6E6"/>
<path d="M61.6275 36.2471L71.9304 46.41L61.6275 56.5728L59.3093 54.2572L67.1009 46.4742L59.2449 38.627L61.6275 36.2471Z" fill="#E6E6E6"/>
<path d="M46.4306 36.2471L36.1274 46.41L46.4306 56.5728L48.7487 54.2572L40.957 46.4742L48.813 38.627L46.4306 36.2471Z" fill="#00BAFF"/>
<path d="M61.6275 36.2471L71.9304 46.41L61.6275 56.5728L59.3093 54.2572L67.1009 46.4742L59.2449 38.627L61.6275 36.2471Z" fill="#00BAFF"/>
<g clip-path="url(#clip0_1345_1101)">
<path d="M80.0173 96.7043C77.6857 98.4207 77.0249 101.441 77.0249 101.441C77.0249 101.441 80.1444 101.678 82.476 99.9614C84.8077 98.2449 85.4685 95.225 85.4685 95.225C85.4685 95.225 82.349 94.9879 80.0173 96.7043Z" fill="#F1F1F1"/>
<path d="M80.9886 97.5099C79.868 100.16 77.0614 101.526 77.0614 101.526C77.0614 101.526 76.0718 98.5946 77.1924 95.9445C78.313 93.2944 81.1195 91.9287 81.1195 91.9287C81.1195 91.9287 82.1092 94.8597 80.9886 97.5099Z" fill="#F1F1F1"/>
<path d="M148.071 89.8493C147.824 88.2013 147.758 86.5316 147.876 84.8697L148.071 82.1191C146.996 84.2325 147.239 87.0142 148.071 89.8492V89.8493Z" fill="#CACACA"/>
<path d="M148.91 90.3093C148.791 89.3259 148.759 88.334 148.816 87.3452L148.91 85.708C148.393 86.966 148.51 88.6217 148.91 90.3093Z" fill="#CACACA"/>
<path d="M152.638 92.3337V93.2539C152.638 93.3271 152.608 93.3971 152.556 93.4487C152.504 93.5004 152.433 93.5296 152.359 93.53H151.893C151.88 93.53 151.868 93.5323 151.857 93.5369C151.846 93.5415 151.835 93.5483 151.827 93.5569C151.818 93.5654 151.811 93.5756 151.807 93.5868C151.802 93.598 151.799 93.6099 151.8 93.622V101.168C151.799 101.241 151.77 101.311 151.717 101.363C151.665 101.415 151.594 101.444 151.52 101.444H145.835C145.761 101.444 145.69 101.415 145.638 101.363C145.585 101.311 145.556 101.241 145.556 101.168V93.622C145.556 93.5977 145.546 93.5743 145.529 93.5571C145.511 93.5398 145.487 93.5301 145.463 93.53H144.904C144.829 93.53 144.758 93.5009 144.706 93.4491C144.654 93.3973 144.624 93.3272 144.624 93.2539V92.3337C144.624 92.2974 144.631 92.2615 144.645 92.228C144.659 92.1945 144.68 92.164 144.706 92.1384C144.732 92.1127 144.763 92.0924 144.797 92.0785C144.83 92.0647 144.867 92.0576 144.904 92.0576H152.359C152.433 92.0578 152.504 92.087 152.556 92.1387C152.608 92.1904 152.638 92.2605 152.638 92.3337Z" fill="#F2F2F2"/>
<path d="M151.808 93.7236H145.564V93.9997H151.808V93.7236Z" fill="#E6E6E6"/>
<path d="M151.799 97.7855C149.71 98.6393 147.598 98.6487 145.463 97.7855V95.8405C147.518 95.1586 149.744 95.1586 151.799 95.8405V97.7855Z" fill="#E6E6E6"/>
<path d="M116.803 68.048C121.467 68.048 125.248 64.3143 125.248 59.7086C125.248 55.1028 121.467 51.3691 116.803 51.3691C112.139 51.3691 108.358 55.1028 108.358 59.7086C108.358 64.3143 112.139 68.048 116.803 68.048Z" fill="#FEB8B8"/>
<path d="M124.691 52.5135C123.428 50.4889 121.452 48.997 119.142 48.325L118.105 49.0722V48.1021C117.551 48.0182 116.989 47.9859 116.428 48.0056L115.534 48.8048V48.072C114.21 48.2345 112.934 48.6662 111.787 49.3399C110.64 50.0136 109.647 50.9147 108.87 51.9863C106.928 54.7516 106.6 58.5988 108.51 61.3862C109.035 59.7946 109.671 58.3012 110.196 56.7097C110.608 56.7652 111.026 56.7672 111.439 56.7156L112.077 55.2454L112.255 56.6534C114.233 56.4833 117.166 56.1097 119.041 55.7674L118.859 54.6872L119.949 55.5848C120.524 55.4542 120.865 55.3357 120.837 55.2452C122.231 57.4652 123.938 58.883 125.332 61.103C125.861 57.9727 126.471 55.3699 124.691 52.5135Z" fill="#2F2E41"/>
<path d="M134.966 81.1539C134.675 79.4286 134.376 77.6702 133.564 76.1161C133.03 75.098 132.183 74.1279 131.041 73.9267C130.816 73.9069 130.595 73.8563 130.384 73.7765C130.05 73.6173 125.553 71.0826 124.839 70.6411C124.225 70.2621 123.256 69.5603 122.768 69.5603C122.277 69.5497 120.393 69.9827 113.039 69.415C113.039 69.415 111.019 70.2014 109.455 71.1549C109.432 71.1395 101.823 75.1744 101.537 75.1638C100.995 75.1413 100.492 75.4836 100.182 75.9146C99.8717 76.3456 99.7261 76.8793 99.5737 77.3952C101.236 81.05 102.756 84.7095 104.418 88.3644C104.496 88.502 104.537 88.6569 104.538 88.8145C104.505 88.9782 104.434 89.1321 104.332 89.2647C103.517 90.5576 103.543 92.1839 103.632 93.7035C103.721 95.2231 103.831 96.8283 103.143 98.1903C102.956 98.5643 102.713 98.9066 102.535 99.2805C102.118 100.127 101.968 102.836 102.211 103.746L132.699 104.609C132.044 102.829 134.966 81.1539 134.966 81.1539Z" fill="#00BAFF"/>
<path d="M96.9384 88.5266C96.8776 88.9612 96.8714 89.4015 96.9202 89.8375L97.3571 96.0347C97.3982 96.6188 97.4385 97.2014 97.4941 97.7841C97.5989 98.9148 97.7555 100.036 97.9499 101.157C97.9543 101.316 98.0224 101.466 98.1393 101.576C98.2561 101.685 98.4122 101.745 98.5733 101.741C100.497 102.143 102.484 102.127 104.447 102.017C107.443 101.852 115.107 101.54 115.575 100.939C116.043 100.338 115.77 99.3667 115.16 98.881C114.549 98.3953 104.436 97.2112 104.436 97.2112C104.535 96.4379 104.833 95.7096 105.115 94.9754C105.623 93.6731 106.098 92.3281 106.107 90.9331C106.116 89.538 105.584 88.0713 104.427 87.2721C103.475 86.616 102.249 86.4943 101.089 86.5213C100.245 86.5452 98.7869 86.3456 98.016 86.6714C97.406 86.9367 97.0524 87.9367 96.9384 88.5266Z" fill="#FBBEBE"/>
<path d="M99.4858 77.5062C99.3377 77.6593 99.2228 77.8407 99.1483 78.0393C97.9191 80.7748 97.1931 83.7046 97.0043 86.6915C97.0076 86.8371 96.9736 86.9812 96.9055 87.1104C96.8383 87.1964 96.7635 87.2763 96.6819 87.3492C96.6108 87.4324 96.5571 87.5286 96.5236 87.6323C96.4902 87.7361 96.4778 87.8453 96.4871 87.9538C96.4965 88.0622 96.5273 88.1678 96.578 88.2645C96.6286 88.3612 96.698 88.4471 96.7823 88.5173C96.7961 88.5288 96.8103 88.5398 96.8249 88.5505C97.0757 88.0842 97.6763 87.9318 98.2102 87.8913C100.766 87.6916 103.263 88.8659 105.827 88.7773C105.646 88.1601 105.386 87.567 105.238 86.9424C104.586 84.1689 106.213 81.1493 105.215 78.4779C105.016 77.9433 104.683 77.4177 104.159 77.1835C103.941 77.097 103.714 77.0376 103.482 77.0066C102.834 76.891 101.545 76.397 100.918 76.5952C100.687 76.6689 100.596 76.8835 100.404 77.0132C100.113 77.1968 99.727 77.2644 99.4858 77.5062Z" fill="#00BAFF"/>
<path d="M134.984 86.6714C134.213 86.3456 132.755 86.5452 131.911 86.5213C130.751 86.4943 129.525 86.616 128.573 87.2721C127.416 88.0713 126.884 89.538 126.893 90.9331C126.902 92.3281 127.377 93.6731 127.885 94.9754C128.167 95.7096 128.466 96.4379 128.564 97.2112C128.564 97.2112 118.451 98.3953 117.84 98.881C117.23 99.3667 116.957 100.338 117.425 100.939C117.893 101.54 132.503 102.143 134.427 101.741C134.588 101.745 134.744 101.685 134.861 101.576C134.978 101.466 135.046 101.316 135.05 101.157C135.245 100.037 135.401 98.9148 135.506 97.7841C135.562 97.2014 135.602 96.6188 135.643 96.0347L136.08 89.8376C136.129 89.4015 136.123 88.9612 136.062 88.5266C135.948 87.9367 135.594 86.9367 134.984 86.6714Z" fill="#FBBEBE"/>
<path d="M132.596 77.0132C132.404 76.8835 132.313 76.6689 132.082 76.5952C131.455 76.397 130.166 76.891 129.518 77.0066C129.286 77.0376 129.059 77.097 128.841 77.1835C128.317 77.4177 127.984 77.9433 127.785 78.4779C126.787 81.1493 128.414 84.1689 127.762 86.9424C127.614 87.567 127.354 88.1601 127.173 88.7773C129.737 88.8659 132.234 87.6916 134.79 87.8913C135.324 87.9318 135.924 88.0842 136.175 88.5505C136.19 88.5398 136.204 88.5288 136.218 88.5173C136.302 88.4471 136.371 88.3612 136.422 88.2645C136.473 88.1678 136.504 88.0622 136.513 87.9537C136.522 87.8453 136.51 87.7361 136.476 87.6323C136.443 87.5286 136.389 87.4324 136.318 87.3492C136.237 87.2763 136.162 87.1964 136.095 87.1104C136.026 86.9812 135.992 86.8371 135.996 86.6914C135.807 83.7046 135.081 80.7748 133.852 78.0393C133.777 77.8407 133.662 77.6593 133.514 77.5062C133.273 77.2644 132.887 77.1968 132.596 77.0132Z" fill="#00BAFF"/>
<path d="M114.302 102.036C115.561 102.036 116.582 101.028 116.582 99.785C116.582 98.5419 115.561 97.5342 114.302 97.5342C113.043 97.5342 112.023 98.5419 112.023 99.785C112.023 101.028 113.043 102.036 114.302 102.036Z" fill="#FBBEBE"/>
<path d="M119.349 102.036C120.608 102.036 121.628 101.028 121.628 99.785C121.628 98.5419 120.608 97.5342 119.349 97.5342C118.09 97.5342 117.07 98.5419 117.07 99.785C117.07 101.028 118.09 102.036 119.349 102.036Z" fill="#FBBEBE"/>
<path d="M133.419 104.856H102.105C101.739 104.856 101.389 104.712 101.13 104.457C100.872 104.202 100.726 103.856 100.726 103.495V84.7347C100.726 84.3737 100.872 84.0276 101.13 83.7723C101.389 83.517 101.739 83.3735 102.105 83.373H133.419C133.784 83.3735 134.135 83.517 134.393 83.7723C134.652 84.0276 134.797 84.3737 134.798 84.7347V103.495C134.797 103.856 134.652 104.202 134.393 104.457C134.135 104.712 133.784 104.856 133.419 104.856Z" fill="#3F3D56"/>
<path d="M117.686 95.0158C118.189 95.0158 118.598 94.6124 118.598 94.1148C118.598 93.6172 118.189 93.2139 117.686 93.2139C117.182 93.2139 116.773 93.6172 116.773 94.1148C116.773 94.6124 117.182 95.0158 117.686 95.0158Z" fill="white"/>
<path d="M169 101.073H64V104.26H70.2106V105H162.792V104.26H169V101.073Z" fill="#F1F1F1"/>
<path d="M109.038 62.8162C107.681 62.8162 106.581 61.6417 106.581 60.1928V58.8812C106.581 57.4323 107.681 56.2578 109.038 56.2578V62.8162H109.038Z" fill="#00BAFF"/>
<path d="M124.719 56.2578C126.076 56.2578 127.176 57.4323 127.176 58.8812V60.1928C127.176 61.6417 126.076 62.8162 124.719 62.8162V56.2578Z" fill="#00BAFF"/>
<path d="M126.007 59.0871H125.617C125.617 53.8084 121.595 49.5139 116.651 49.5139C111.707 49.5139 107.685 53.8084 107.685 59.0871H107.295C107.295 53.5789 111.492 49.0977 116.651 49.0977C121.81 49.0977 126.007 53.5789 126.007 59.0871Z" fill="#00BAFF"/>
</g>
<defs>
<clipPath id="clip0_1345_1101">
<rect width="105" height="57" fill="white" transform="translate(64 48)"/>
</clipPath>
</defs>
</svg>
