<svg width="188" height="76" viewBox="0 0 188 76" fill="none" xmlns="http://www.w3.org/2000/svg">
<g clip-path="url(#clip0_324_1667)">
<path d="M18.115 65.7934L17.8189 65.449C20.3244 63.3085 23.4427 60.6448 24.6099 57.124C25.7604 53.6533 24.8949 49.4633 22.3511 46.1889C20.1863 43.4023 16.8434 41.2079 12.684 39.8429C11.8636 39.5737 11.0118 39.3345 10.188 39.1032C8.19681 38.5441 6.13779 37.9659 4.31433 36.9093C1.80285 35.4539 -0.478332 32.5953 0.0869491 29.4897C0.27885 28.4959 0.746425 27.5757 1.43659 26.8336C2.12675 26.0914 3.01185 25.557 3.99138 25.291L4.11245 25.7284C3.21505 25.972 2.40409 26.4613 1.77161 27.141C1.13913 27.8208 0.710444 28.6636 0.534209 29.5739C0.00892158 32.4599 2.16904 35.1413 4.54311 36.5171C6.31671 37.5448 8.3475 38.115 10.3114 38.6665C11.1399 38.8991 11.9966 39.1397 12.8264 39.412C17.0723 40.8053 20.4904 43.0526 22.711 45.9111C25.3462 49.3032 26.2395 53.6543 25.0421 57.2664C23.8351 60.907 20.6635 63.6165 18.115 65.7934Z" fill="#F1F1F1"/>
<path d="M7.31777 27.0211C9.46777 26.558 11.0278 25.3388 10.8022 24.2978C10.5765 23.2569 8.65071 22.7884 6.50071 23.2514C4.35071 23.7145 2.79069 24.9337 3.01632 25.9747C3.24194 27.0156 5.16777 27.4841 7.31777 27.0211Z" fill="#F1F1F1"/>
<path d="M13.1236 38.7676C15.2736 38.3046 16.8336 37.0854 16.6079 36.0444C16.3823 35.0035 14.4565 34.535 12.3065 34.998C10.1565 35.4611 8.59648 36.6803 8.8221 37.7212C9.04773 38.7622 10.9736 39.2307 13.1236 38.7676Z" fill="#F1F1F1"/>
<path d="M6.43764 42.2965C8.58764 41.8334 10.1477 40.6142 9.92203 39.5732C9.69641 38.5323 7.77058 38.0638 5.62058 38.5268C3.47058 38.9899 1.91057 40.2091 2.13619 41.25C2.36182 42.291 4.28764 42.7595 6.43764 42.2965Z" fill="#F1F1F1"/>
<path d="M62.4098 40.4272H61.9546V41.7884H62.4098V40.4272Z" fill="#E5E5E5"/>
<path d="M62.4098 70.79H61.9546V67.8898H62.4098V70.79ZM62.4098 64.9897H61.9546V62.0895H62.4098V64.9897ZM62.4098 59.1893H61.9546V56.2892H62.4098V59.1893ZM62.4098 53.389H61.9546V50.4888H62.4098V53.389ZM62.4098 47.5887H61.9546V44.6885H62.4098V47.5887Z" fill="#E5E5E5"/>
<path d="M62.4098 73.6899H61.9546V75.0511H62.4098V73.6899Z" fill="#E5E5E5"/>
<path d="M112.251 40.4272H111.796V41.7884H112.251V40.4272Z" fill="#E5E5E5"/>
<path d="M112.251 70.79H111.796V67.8898H112.251V70.79ZM112.251 64.9897H111.796V62.0895H112.251V64.9897ZM112.251 59.1893H111.796V56.2892H112.251V59.1893ZM112.251 53.389H111.796V50.4888H112.251V53.389ZM112.251 47.5887H111.796V44.6885H112.251V47.5887Z" fill="#E5E5E5"/>
<path d="M112.251 73.6899H111.796V75.0511H112.251V73.6899Z" fill="#E5E5E5"/>
<path d="M137.392 13.7993H136.937V15.1605H137.392V13.7993Z" fill="#E5E5E5"/>
<path d="M137.392 70.9031H136.937V68.116H137.392V70.9031ZM137.392 65.3289H136.937V62.5417H137.392V65.3289ZM137.392 59.7546H136.937V56.9675H137.392V59.7546ZM137.392 54.1804H136.937V51.3933H137.392V54.1804ZM137.392 48.6062H136.937V45.8189H137.392V48.6062ZM137.392 43.0318H136.937V40.2447H137.392V43.0318ZM137.392 37.4576H136.937V34.6705H137.392V37.4576ZM137.392 31.8834H136.937V29.0963H137.392V31.8834ZM137.392 26.3091H136.937V23.522H137.392V26.3091ZM137.392 20.7349H136.937V17.9478H137.392V20.7349Z" fill="#E5E5E5"/>
<path d="M137.392 73.6899H136.937V75.0511H137.392V73.6899Z" fill="#E5E5E5"/>
<path d="M162.283 2.91016H161.828V4.27131H162.283V2.91016Z" fill="#E5E5E5"/>
<path d="M162.283 70.9136H161.828V68.1368H162.283V70.9136ZM162.283 65.3601H161.828V62.5833H162.283V65.3601ZM162.283 59.8066H161.828V57.0298H162.283V59.8066ZM162.283 54.2531H161.828V51.4763H162.283V54.2531ZM162.283 48.6996H161.828V45.9228H162.283V48.6996ZM162.283 43.1461H161.828V40.3693H162.283V43.1461ZM162.283 37.5926H161.828V34.8158H162.283V37.5926ZM162.283 32.0391H161.828V29.2623H162.283V32.0391ZM162.283 26.4856H161.828V23.7088H162.283V26.4856ZM162.283 20.9321H161.828V18.1553H162.283V20.9321ZM162.283 15.3786H161.828V12.6018H162.283V15.3786ZM162.283 9.8251H161.828V7.04834H162.283V9.8251Z" fill="#E5E5E5"/>
<path d="M162.283 73.6899H161.828V75.0511H162.283V73.6899Z" fill="#E5E5E5"/>
<path d="M87.4441 22.1934H86.989V23.5545H87.4441V22.1934Z" fill="#E5E5E5"/>
<path d="M87.4441 71.0517H86.989V68.413H87.4441V71.0517ZM87.4441 65.7742H86.989V63.1356H87.4441V65.7742ZM87.4441 60.4968H86.989V57.8581H87.4441V60.4968ZM87.4441 55.2193H86.989V52.5807H87.4441V55.2193ZM87.4441 49.9419H86.989V47.3032H87.4441V49.9419ZM87.4441 44.6644H86.989V42.0257H87.4441V44.6644ZM87.4441 39.387H86.989V36.7483H87.4441V39.387ZM87.4441 34.1095H86.989V31.4708H87.4441V34.1095ZM87.4441 28.832H86.989V26.1934H87.4441V28.832Z" fill="#E5E5E5"/>
<path d="M87.4441 73.6899H86.989V75.0511H87.4441V73.6899Z" fill="#E5E5E5"/>
<path d="M187.528 75.6833H36.8394C36.7143 75.6833 36.5944 75.6338 36.5059 75.5456C36.4175 75.4575 36.3678 75.3379 36.3678 75.2132V3.21856C36.3681 3.09406 36.4179 2.97476 36.5063 2.88683C36.5947 2.79889 36.7145 2.74951 36.8394 2.74951C36.9643 2.74951 37.0841 2.79889 37.1725 2.88683C37.2609 2.97476 37.3107 3.09406 37.311 3.21856V74.7432H187.528C187.59 74.743 187.652 74.7551 187.709 74.7786C187.767 74.8022 187.819 74.8368 187.863 74.8805C187.906 74.9241 187.941 74.976 187.965 75.0331C187.989 75.0902 188.001 75.1514 188.001 75.2132C188.001 75.2751 187.989 75.3363 187.965 75.3934C187.941 75.4505 187.906 75.5023 187.863 75.546C187.819 75.5897 187.767 75.6243 187.709 75.6478C187.652 75.6714 187.59 75.6835 187.528 75.6833Z" fill="#3F3D56"/>
<path d="M112.23 41.0591L87.1764 22.3535L62.4649 40.8035L61.8994 40.051L87.1764 21.1786L112.111 39.7953L136.889 12.7664L136.988 12.7263L161.983 2.68799L162.335 3.56026L137.44 13.5584L112.23 41.0591Z" fill="#3F3D56"/>
<path d="M62.1822 43.2474C63.7449 43.2474 65.0117 41.9847 65.0117 40.4269C65.0117 38.8692 63.7449 37.6064 62.1822 37.6064C60.6195 37.6064 59.3527 38.8692 59.3527 40.4269C59.3527 41.9847 60.6195 43.2474 62.1822 43.2474Z" fill="#F9A826"/>
<path d="M87.1763 24.9144C88.739 24.9144 90.0059 23.6516 90.0059 22.0939C90.0059 20.5362 88.739 19.2734 87.1763 19.2734C85.6136 19.2734 84.3468 20.5362 84.3468 22.0939C84.3468 23.6516 85.6136 24.9144 87.1763 24.9144Z" fill="#F9A826"/>
<path d="M112.17 43.2474C113.733 43.2474 115 41.9847 115 40.4269C115 38.8692 113.733 37.6064 112.17 37.6064C110.608 37.6064 109.341 38.8692 109.341 40.4269C109.341 41.9847 110.608 43.2474 112.17 43.2474Z" fill="#E5E5E5"/>
<path d="M111.488 53.2294C113.05 53.2294 114.317 51.9666 114.317 50.4089C114.317 48.8512 113.05 47.5884 111.488 47.5884C109.925 47.5884 108.658 48.8512 108.658 50.4089C108.658 51.9666 109.925 53.2294 111.488 53.2294Z" fill="#F9A826"/>
<path d="M137.165 15.9828C138.727 15.9828 139.994 14.72 139.994 13.1623C139.994 11.6046 138.727 10.3418 137.165 10.3418C135.602 10.3418 134.335 11.6046 134.335 13.1623C134.335 14.72 135.602 15.9828 137.165 15.9828Z" fill="#F9A826"/>
<path d="M162.159 5.64099C163.722 5.64099 164.988 4.37821 164.988 2.8205C164.988 1.26278 163.722 0 162.159 0C160.596 0 159.329 1.26278 159.329 2.8205C159.329 4.37821 160.596 5.64099 162.159 5.64099Z" fill="#F9A826"/>
<path d="M36.0547 55.1945C37.021 52.6744 37.161 50.3862 36.3673 50.0838C35.5736 49.7814 34.1468 51.5793 33.1805 54.0995C32.2142 56.6196 32.0742 58.9077 32.8679 59.2101C33.6616 59.5125 35.0884 57.7147 36.0547 55.1945Z" fill="#2F2E41"/>
<path d="M25.5581 71.7953C30.9713 71.7953 35.3596 67.421 35.3596 62.0251C35.3596 56.6292 30.9713 52.2549 25.5581 52.2549C20.1449 52.2549 15.7566 56.6292 15.7566 62.0251C15.7566 67.421 20.1449 71.7953 25.5581 71.7953Z" fill="#2F2E41"/>
<path d="M24.0692 69.6929H21.0916V75.0108H24.0692V69.6929Z" fill="#2F2E41"/>
<path d="M30.0246 69.6929H27.0469V75.0108H30.0246V69.6929Z" fill="#2F2E41"/>
<path d="M23.5729 76.0001C24.9434 76.0001 26.0543 75.5848 26.0543 75.0726C26.0543 74.5603 24.9434 74.145 23.5729 74.145C22.2025 74.145 21.0916 74.5603 21.0916 75.0726C21.0916 75.5848 22.2025 76.0001 23.5729 76.0001Z" fill="#2F2E41"/>
<path d="M29.5283 75.8761C30.8987 75.8761 32.0097 75.4608 32.0097 74.9486C32.0097 74.4363 30.8987 74.021 29.5283 74.021C28.1578 74.021 27.0469 74.4363 27.0469 74.9486C27.0469 75.4608 28.1578 75.8761 29.5283 75.8761Z" fill="#2F2E41"/>
<path d="M25.8063 62.8903C27.6564 62.8903 29.1562 61.3953 29.1562 59.5511C29.1562 57.7069 27.6564 56.2119 25.8063 56.2119C23.9562 56.2119 22.4564 57.7069 22.4564 59.5511C22.4564 61.3953 23.9562 62.8903 25.8063 62.8903Z" fill="white"/>
<path d="M25.8062 60.6646C26.4229 60.6646 26.9228 60.1663 26.9228 59.5515C26.9228 58.9368 26.4229 58.4385 25.8062 58.4385C25.1895 58.4385 24.6896 58.9368 24.6896 59.5515C24.6896 60.1663 25.1895 60.6646 25.8062 60.6646Z" fill="#3F3D56"/>
<path d="M16.0503 52.9388C15.2589 49.4057 17.7888 45.8357 21.7009 44.9649C25.6131 44.0942 29.4261 46.2524 30.2176 49.7854C31.009 53.3185 28.4162 54.6215 24.5041 55.4923C20.5919 56.3631 16.8417 56.4718 16.0503 52.9388Z" fill="#E6E6E6"/>
<path d="M18.9463 59.5849C19.3104 58.8196 17.6231 57.262 15.1776 56.1058C12.7321 54.9497 10.4544 54.6328 10.0903 55.3981C9.7262 56.1633 11.4135 57.7209 13.859 58.8771C16.3045 60.0333 18.5821 60.3502 18.9463 59.5849Z" fill="#2F2E41"/>
<path d="M20.7437 65.5498C20.7437 66.5061 23.2137 68.3943 25.9546 68.3943C28.6955 68.3943 31.2653 65.7022 31.2653 64.746C31.2653 63.7897 28.6954 64.9315 25.9546 64.9315C23.2137 64.9315 20.7437 64.5936 20.7437 65.5498Z" fill="white"/>
<path d="M99.5529 70.2406C104.966 70.2406 109.354 65.8663 109.354 60.4704C109.354 55.0745 104.966 50.7002 99.5529 50.7002C94.1396 50.7002 89.7513 55.0745 89.7513 60.4704C89.7513 65.8663 94.1396 70.2406 99.5529 70.2406Z" fill="#2F2E41"/>
<path d="M98.0639 68.1377H95.0863V73.4557H98.0639V68.1377Z" fill="#2F2E41"/>
<path d="M104.019 68.1377H101.042V73.4557H104.019V68.1377Z" fill="#2F2E41"/>
<path d="M99.601 75.2173C99.8128 74.7506 98.9722 73.9158 97.7235 73.3529C96.4749 72.79 95.291 72.712 95.0792 73.1788C94.8674 73.6455 95.708 74.4803 96.9567 75.0432C98.2053 75.6061 99.3892 75.6841 99.601 75.2173Z" fill="#2F2E41"/>
<path d="M105.3 74.9283C105.525 74.4675 104.707 73.6102 103.474 73.0136C102.241 72.4169 101.06 72.3068 100.836 72.7676C100.611 73.2285 101.429 74.0857 102.661 74.6824C103.894 75.279 105.076 75.3891 105.3 74.9283Z" fill="#2F2E41"/>
<path d="M90.0451 51.3841C89.2536 47.851 91.7835 44.281 95.6957 43.4103C99.6079 42.5395 103.421 44.6977 104.212 48.2308C105.004 51.7638 102.411 53.0669 98.4988 53.9376C94.5866 54.8084 90.8365 54.9171 90.0451 51.3841Z" fill="#F9A826"/>
<path d="M110.115 56.2007C112.238 54.0832 113.418 51.8281 112.751 51.1638C112.084 50.4996 109.823 51.6777 107.7 53.7953C105.577 55.9128 104.397 58.1679 105.064 58.8321C105.731 59.4964 107.992 58.3182 110.115 56.2007Z" fill="#2F2E41"/>
<path d="M91.5072 64.5091C92.2775 61.6158 92.1633 59.0748 91.2521 58.8338C90.3409 58.5927 88.9777 60.7428 88.2074 63.6361C87.437 66.5295 87.5512 69.0704 88.4625 69.3115C89.3737 69.5525 90.7368 67.4024 91.5072 64.5091Z" fill="#2F2E41"/>
</g>
<defs>
<clipPath id="clip0_324_1667">
<rect width="188" height="76" fill="white"/>
</clipPath>
</defs>
</svg>
