<svg width="157" height="122" viewBox="0 0 157 122" fill="none" xmlns="http://www.w3.org/2000/svg">
<g clip-path="url(#clip0_102_1714)">
<path d="M32.593 80.2472C25.4948 73.2701 22.4968 65.9913 24.1511 59.7517C26.2742 51.7446 35.7058 46.2083 50.0276 44.5625L50.0805 45.0218C35.9581 46.6446 26.6703 52.0566 24.5987 59.87C22.9887 65.9423 25.9431 73.0621 32.9178 79.9179L32.593 80.2472Z" fill="#F0F0F0"/>
<path d="M101.079 105.014C92.2201 105.014 82.5932 103.699 73.0309 101.172C61.2059 98.046 50.3636 93.328 41.6763 87.5277L41.9335 87.1436C50.5791 92.9158 61.3733 97.6122 73.1494 100.725C83.7912 103.538 94.5129 104.841 104.151 104.498L104.168 104.959C103.15 104.996 102.121 105.014 101.079 105.014Z" fill="#F0F0F0"/>
<path d="M121.403 102.107L121.255 101.669C129.178 98.9947 134.134 94.6859 135.586 89.2085C137.432 82.2455 133.421 74.1653 124.292 66.4564C115.117 58.7084 101.886 52.2794 87.0354 48.3541L87.1539 47.9072C102.069 51.8498 115.365 58.312 124.591 66.1035C133.864 73.9341 137.928 82.1816 136.033 89.3268C134.54 94.9612 129.48 99.3806 121.403 102.107Z" fill="#F0F0F0"/>
<path d="M48.6493 105.207C31.2418 97.4981 17.8281 87.4971 10.8792 77.0458L11.2648 76.79C18.1657 87.169 31.509 97.1108 48.8369 104.784L48.6493 105.207Z" fill="#F0F0F0"/>
<path d="M109.853 118.561C108.057 118.561 106.231 118.521 104.374 118.441L104.394 117.98C118.251 118.579 130.477 116.923 139.753 113.19L139.927 113.619C131.835 116.875 121.521 118.561 109.853 118.561Z" fill="#F0F0F0"/>
<path d="M99.7526 44.9776C96.8755 44.0423 93.9161 43.1714 90.9566 42.3891C73.9263 37.8875 57.1854 36.2892 42.5429 37.7678L42.4963 37.3079C57.1934 35.8243 73.9917 37.4265 91.0751 41.9422C94.0429 42.7268 97.0107 43.6001 99.8959 44.5381L99.7526 44.9776Z" fill="#F0F0F0"/>
<path d="M21.7139 80.9405C14.6156 73.9635 11.6177 66.6847 13.272 60.4451C15.395 52.438 24.8267 46.9017 39.1485 45.2559L39.2014 45.7152C25.0789 47.338 15.7912 52.75 13.7196 60.5634C12.1095 66.6357 15.064 73.7555 22.0387 80.6112L21.7139 80.9405Z" fill="#F0F0F0"/>
<path d="M90.2 105.707C81.3409 105.707 71.714 104.393 62.1517 101.865C50.3267 98.7394 39.4845 94.0214 30.7971 88.2211L31.0544 87.8369C39.6999 93.6092 50.4941 98.3056 62.2702 101.418C72.9121 104.231 83.6337 105.535 93.2722 105.191L93.2889 105.653C92.271 105.689 91.2414 105.707 90.2 105.707Z" fill="#F0F0F0"/>
<path d="M110.524 102.801L110.375 102.363C118.299 99.688 123.254 95.3793 124.707 89.9019C126.553 82.9388 122.542 74.8587 113.413 67.1498C104.237 59.4017 91.0062 52.9728 76.156 49.0475L76.2745 48.6006C91.1895 52.5432 104.485 59.0054 113.712 66.7969C122.985 74.6274 127.049 82.875 125.154 90.0202C123.66 95.6546 118.601 100.074 110.524 102.801Z" fill="#F0F0F0"/>
<path d="M37.7702 105.9C20.3627 98.1914 6.94892 88.1904 0 77.7391L0.38564 77.4834C7.28654 87.8624 20.6299 97.8041 37.9578 105.478L37.7702 105.9Z" fill="#F0F0F0"/>
<path d="M98.9734 119.255C97.1779 119.255 95.3517 119.215 93.4949 119.135L93.5148 118.673C107.372 119.272 119.598 117.616 128.874 113.884L129.047 114.313C120.955 117.568 110.642 119.255 98.9734 119.255Z" fill="#F0F0F0"/>
<path d="M88.8734 45.67C85.9963 44.7347 83.0369 43.8638 80.0775 43.0815C63.0472 38.5799 46.3062 36.9815 31.6637 38.4602L31.6172 38.0003C46.3142 36.5167 63.1125 38.1189 80.1959 42.6346C83.1637 43.4192 86.1315 44.2925 89.0168 45.2306L88.8734 45.67Z" fill="#F0F0F0"/>
<path d="M7.89068 68.56C11.2175 64.8356 16.5243 62.5658 21.3334 63.9246C16.8968 67.0595 13.7137 71.6603 12.3473 76.9129C11.8277 78.9405 11.4613 81.2498 9.77242 82.4895C8.72159 83.2609 7.3292 83.4452 6.03689 83.2695C4.74451 83.0938 3.52254 82.592 2.31706 82.0947L1.99268 82.1228C2.9253 77.22 4.56389 72.2843 7.89068 68.56Z" fill="#F2F2F2"/>
<path d="M21.3187 64.0275C17.298 64.9996 13.6861 67.2119 10.9963 70.3502C10.4052 71.0155 9.9229 71.7697 9.56705 72.5851C9.24611 73.3905 9.14703 74.267 9.2801 75.1236C9.38811 75.9247 9.59151 76.7317 9.50258 77.5452C9.45088 77.9609 9.31175 78.361 9.09432 78.7192C8.87689 79.0774 8.58607 79.3857 8.24093 79.6239C7.39643 80.2396 6.3807 80.5157 5.37801 80.7511C4.26471 81.0126 3.10419 81.2665 2.19668 82.0053C2.08672 82.0948 1.95405 81.9192 2.06384 81.8298C3.64276 80.5445 5.83711 80.7096 7.58404 79.776C8.39919 79.3404 9.0878 78.6568 9.25522 77.7189C9.40162 76.8987 9.19259 76.0663 9.07621 75.2561C8.93412 74.4224 8.99865 73.5666 9.26416 72.7635C9.57729 71.9328 10.0297 71.1613 10.6021 70.482C11.8663 68.9324 13.3666 67.5909 15.0481 66.5066C16.9604 65.2584 19.0724 64.3461 21.2927 63.8091C21.4302 63.7759 21.4553 63.9946 21.3187 64.0275L21.3187 64.0275Z" fill="white"/>
<path d="M11.8028 69.2895C11.3367 68.7674 11.0717 68.0969 11.055 67.3977C11.0384 66.6985 11.2712 66.0162 11.7118 65.4725C11.8014 65.3628 11.9763 65.4966 11.8866 65.6065C11.4753 66.1119 11.2586 66.7476 11.2754 67.3986C11.2923 68.0497 11.5416 68.6733 11.9785 69.1568C12.0734 69.262 11.8971 69.3941 11.8028 69.2895H11.8028Z" fill="white"/>
<path d="M9.1717 74.725C10.6004 74.8197 12.0124 74.3733 13.1261 73.4747C13.2364 73.3856 13.3691 73.5612 13.259 73.6502C12.0983 74.5831 10.6279 75.0447 9.14137 74.9428C8.99968 74.933 9.03078 74.7152 9.1717 74.725Z" fill="white"/>
<path d="M17.0098 65.5464C17.148 65.7859 17.3436 65.9874 17.5791 66.1328C17.8145 66.2782 18.0824 66.3629 18.3588 66.3794C18.5005 66.3874 18.4693 66.6052 18.3285 66.5972C18.0232 66.5776 17.7274 66.4837 17.4669 66.3236C17.2065 66.1636 16.9892 65.9422 16.8341 65.679C16.8174 65.6554 16.8103 65.6264 16.8143 65.5977C16.8183 65.5691 16.833 65.5431 16.8555 65.525C16.8789 65.5075 16.9082 65.5 16.9371 65.504C16.966 65.508 16.9921 65.5232 17.0098 65.5464Z" fill="white"/>
<path d="M28.16 79.3852C28.0714 79.3827 27.9827 79.3802 27.893 79.3792C26.701 79.3519 25.5088 79.4214 24.3281 79.5869C24.2366 79.5982 24.1441 79.6111 24.0531 79.625C21.2128 80.054 18.477 81.0058 15.9847 82.432C14.9935 83.0005 14.047 83.6434 13.1535 84.3552C11.9195 85.3383 10.66 86.5022 9.21534 87.0061C9.06521 87.0603 8.91187 87.1053 8.75618 87.1406L2.05206 82.5157C2.04211 82.4976 2.03103 82.4809 2.021 82.4627L1.74487 82.2903C1.78839 82.2503 1.83438 82.2099 1.87789 82.1699C1.90304 82.1467 1.92969 82.1244 1.95482 82.1012C1.97206 82.086 1.98938 82.0708 2.00407 82.0562C2.00978 82.0511 2.01558 82.0461 2.02025 82.0425C2.03493 82.0278 2.05013 82.0157 2.06376 82.0026C2.32022 81.7756 2.57871 81.5501 2.83926 81.3259C2.84032 81.3244 2.84032 81.3244 2.84287 81.3239C4.83244 79.6211 6.98187 78.0692 9.29888 76.8924C9.3686 76.857 9.4393 76.8201 9.51209 76.7868C10.5594 76.2621 11.648 75.8238 12.7668 75.4762C13.3801 75.2879 14.0025 75.1306 14.6317 75.0051C16.2581 74.6839 17.9249 74.6201 19.5711 74.8161C22.8528 75.2073 25.9726 76.642 28.0065 79.189C28.0585 79.2542 28.1091 79.3184 28.16 79.3852Z" fill="#F2F2F2"/>
<path d="M28.0862 79.4597C24.2897 77.8187 20.0719 77.4138 16.0319 78.3026C15.1587 78.4785 14.3188 78.7908 13.5431 79.2278C12.8012 79.678 12.1935 80.3183 11.7833 81.0822C11.3864 81.7868 11.0622 82.5534 10.5007 83.1494C10.2088 83.4503 9.85642 83.6861 9.4668 83.8414C9.07718 83.9967 8.65907 84.0681 8.2399 84.0507C7.19432 84.0347 6.21688 83.6445 5.2743 83.2297C4.22775 82.7692 3.14801 82.2743 1.97796 82.3186C1.83619 82.324 1.83614 82.104 1.9777 82.0987C4.01338 82.0216 5.66594 83.4725 7.62369 83.7773C8.53721 83.9195 9.49919 83.7877 10.1984 83.1394C10.8099 82.5726 11.1449 81.7823 11.5405 81.0654C11.9298 80.3143 12.4974 79.6699 13.1936 79.1883C13.9446 78.7132 14.771 78.3692 15.6376 78.1709C17.5814 77.6936 19.5882 77.5243 21.5847 77.6695C23.8641 77.8224 26.1005 78.3636 28.1972 79.2696C28.3269 79.3257 28.2151 79.5154 28.0862 79.4597Z" fill="white"/>
<path d="M17.3158 77.9399C17.2585 77.2429 17.4512 76.5482 17.8595 75.9799C18.2678 75.4116 18.8651 75.0068 19.5448 74.8376C19.6824 74.8039 19.7414 75.0158 19.6036 75.0496C18.9704 75.206 18.414 75.5832 18.0349 76.1131C17.6558 76.6431 17.4789 77.2909 17.5361 77.9397C17.5484 78.0807 17.328 78.0801 17.3158 77.9399Z" fill="white"/>
<path d="M11.9374 80.6983C13.0211 81.6328 14.4176 82.1252 15.8487 82.0773C15.9905 82.0724 15.9906 82.2924 15.849 82.2972C14.3597 82.3443 12.9074 81.829 11.7819 80.854C11.6747 80.761 11.8308 80.6058 11.9374 80.6983Z" fill="white"/>
<path d="M23.7303 78.0815C23.6962 78.3558 23.7309 78.6343 23.8312 78.8919C23.9315 79.1496 24.0944 79.3783 24.3051 79.5576C24.4135 79.6492 24.2572 79.8043 24.1495 79.7133C23.9176 79.5141 23.7381 79.2613 23.6266 78.9769C23.5152 78.6925 23.4751 78.3852 23.51 78.0818C23.5109 78.0529 23.5228 78.0255 23.5432 78.005C23.5637 77.9846 23.5911 77.9726 23.6201 77.9717C23.6492 77.9718 23.6772 77.9834 23.6978 78.004C23.7185 78.0245 23.7302 78.0524 23.7303 78.0815H23.7303Z" fill="white"/>
<path d="M138.246 99.0898C136.367 94.4658 132.133 90.5471 127.146 90.2129C130.269 94.6543 131.718 100.056 131.237 105.461C131.044 107.545 130.612 109.843 131.785 111.578C132.515 112.657 133.764 113.298 135.041 113.566C136.317 113.834 137.637 113.771 138.94 113.708L139.236 113.843C140.008 108.912 140.126 103.714 138.246 99.0898Z" fill="#F2F2F2"/>
<path d="M127.125 90.3152C130.584 92.5801 133.241 95.8757 134.718 99.7342C135.051 100.559 135.251 101.431 135.312 102.319C135.343 103.185 135.142 104.044 134.728 104.806C134.357 105.524 133.893 106.216 133.703 107.012C133.612 107.421 133.608 107.844 133.693 108.255C133.777 108.665 133.947 109.053 134.192 109.393C134.78 110.256 135.644 110.857 136.509 111.415C137.469 112.035 138.477 112.664 139.083 113.664C139.156 113.785 139.34 113.665 139.267 113.544C138.213 111.803 136.09 111.222 134.759 109.757C134.138 109.073 133.72 108.198 133.878 107.259C134.016 106.437 134.493 105.723 134.875 104.999C135.29 104.262 135.517 103.434 135.537 102.588C135.522 101.701 135.356 100.822 135.045 99.9907C134.376 98.1069 133.415 96.3399 132.196 94.7544C130.815 92.9372 129.133 91.3691 127.223 90.1182C127.104 90.0409 127.007 90.2384 127.125 90.3152Z" fill="white"/>
<path d="M134.316 98.464C134.931 98.1287 135.406 97.5861 135.657 96.9332C135.908 96.2803 135.919 95.5595 135.687 94.8996C135.639 94.7663 135.429 94.8336 135.477 94.9671C135.694 95.5812 135.684 96.2526 135.449 96.8601C135.214 97.4676 134.769 97.9713 134.195 98.2801C134.07 98.3474 134.192 98.5309 134.316 98.464Z" fill="white"/>
<path d="M134.964 104.467C133.587 104.077 132.407 103.182 131.661 101.962C131.587 101.841 131.403 101.962 131.477 102.083C132.256 103.351 133.485 104.279 134.92 104.682C135.056 104.72 135.1 104.505 134.964 104.467Z" fill="white"/>
<path d="M130.672 93.1916C130.461 93.3709 130.209 93.495 129.938 93.5529C129.668 93.6108 129.387 93.6007 129.121 93.5235C128.985 93.4835 128.941 93.6991 129.076 93.7388C129.37 93.8228 129.681 93.8336 129.98 93.7703C130.279 93.7069 130.558 93.5714 130.793 93.3755C130.816 93.3589 130.833 93.3339 130.839 93.3056C130.845 93.2774 130.839 93.2479 130.824 93.2232C130.808 93.199 130.783 93.1821 130.755 93.1761C130.726 93.1702 130.696 93.1758 130.672 93.1916Z" fill="white"/>
<path d="M115.512 102.484C115.596 102.511 115.681 102.538 115.766 102.568C116.897 102.942 117.997 103.407 119.053 103.96C119.135 104.001 119.218 104.044 119.299 104.088C121.83 105.445 124.086 107.26 125.953 109.439C126.696 110.307 127.371 111.23 127.973 112.201C128.804 113.541 129.598 115.06 130.789 116.019C130.912 116.12 131.042 116.214 131.176 116.3L139.047 114.194C139.063 114.18 139.079 114.168 139.094 114.154L139.413 114.084C139.385 114.032 139.355 113.979 139.328 113.926C139.312 113.896 139.294 113.866 139.278 113.836C139.267 113.816 139.256 113.796 139.247 113.777C139.244 113.77 139.24 113.764 139.237 113.759C139.228 113.74 139.217 113.723 139.209 113.706C139.044 113.407 138.876 113.107 138.706 112.809C138.706 112.807 138.706 112.807 138.704 112.806C137.403 110.534 135.901 108.351 134.115 106.466C134.061 106.409 134.007 106.35 133.95 106.294C133.14 105.449 132.262 104.671 131.326 103.968C130.811 103.585 130.278 103.228 129.728 102.898C128.304 102.05 126.756 101.431 125.139 101.063C121.917 100.33 118.496 100.634 115.723 102.35C115.652 102.394 115.582 102.438 115.512 102.484Z" fill="#F2F2F2"/>
<path d="M115.556 102.579C119.684 102.307 123.793 103.341 127.299 105.534C128.062 105.993 128.748 106.569 129.332 107.241C129.879 107.914 130.236 108.721 130.365 109.578C130.501 110.375 130.549 111.205 130.877 111.955C131.051 112.337 131.303 112.677 131.618 112.954C131.932 113.231 132.302 113.438 132.703 113.563C133.693 113.899 134.745 113.859 135.772 113.785C136.913 113.702 138.096 113.599 139.184 114.033C139.315 114.086 139.389 113.878 139.258 113.826C137.366 113.07 135.322 113.882 133.375 113.512C132.467 113.339 131.605 112.893 131.165 112.047C130.78 111.308 130.73 110.452 130.599 109.644C130.485 108.806 130.168 108.008 129.674 107.321C129.127 106.621 128.464 106.02 127.715 105.542C126.045 104.441 124.211 103.608 122.282 103.074C120.084 102.454 117.796 102.213 115.516 102.362C115.375 102.372 115.416 102.588 115.556 102.579Z" fill="white"/>
<path d="M126.212 104.761C126.5 104.124 126.553 103.405 126.359 102.733C126.166 102.061 125.74 101.479 125.157 101.091C125.039 101.013 124.912 101.193 125.03 101.271C125.574 101.631 125.971 102.173 126.149 102.799C126.328 103.426 126.277 104.095 126.004 104.687C125.945 104.816 126.153 104.889 126.212 104.761H126.212Z" fill="white"/>
<path d="M130.349 109.165C129.014 109.681 127.533 109.676 126.201 109.151C126.069 109.099 125.995 109.306 126.127 109.358C127.513 109.902 129.055 109.904 130.443 109.364C130.575 109.312 130.48 109.113 130.349 109.165Z" fill="white"/>
<path d="M120.123 102.743C120.062 103.012 119.936 103.263 119.755 103.472C119.574 103.681 119.343 103.842 119.085 103.94C118.952 103.99 119.047 104.188 119.179 104.139C119.464 104.029 119.718 103.851 119.919 103.621C120.12 103.39 120.261 103.114 120.33 102.817C120.339 102.789 120.337 102.759 120.325 102.733C120.312 102.707 120.29 102.687 120.264 102.676C120.236 102.667 120.206 102.668 120.179 102.681C120.153 102.693 120.133 102.715 120.123 102.743V102.743Z" fill="white"/>
<path d="M101.78 114.836C102.803 114.836 103.632 114.008 103.632 112.987C103.632 111.966 102.803 111.138 101.78 111.138C100.758 111.138 99.9287 111.966 99.9287 112.987C99.9287 114.008 100.758 114.836 101.78 114.836Z" fill="#FD6584"/>
<path d="M108.34 83.3434C109.363 83.3434 110.192 82.5156 110.192 81.4945C110.192 80.4733 109.363 79.6455 108.34 79.6455C107.317 79.6455 106.488 80.4733 106.488 81.4945C106.488 82.5156 107.317 83.3434 108.34 83.3434Z" fill="#E6E6E6"/>
<path d="M73.8825 32.0573C74.9053 32.0573 75.7343 31.2295 75.7343 30.2083C75.7343 29.1872 74.9053 28.3594 73.8825 28.3594C72.8598 28.3594 72.0308 29.1872 72.0308 30.2083C72.0308 31.2295 72.8598 32.0573 73.8825 32.0573Z" fill="#E6E6E6"/>
<path d="M35.0774 101.134C35.0774 101.604 35.0929 102.075 35.1259 102.542C35.1608 103.1 35.221 103.654 35.3024 104.204C35.5762 106.056 36.0996 107.862 36.8582 109.575C36.897 109.66 36.9358 109.745 36.9746 109.83L37.0328 109.958C37.0522 110.001 37.0735 110.043 37.0929 110.084C37.1201 110.14 37.1453 110.194 37.1724 110.249C37.2054 110.316 37.2384 110.384 37.2733 110.452C37.2772 110.46 37.2811 110.469 37.2869 110.479C37.316 110.537 37.3432 110.593 37.3742 110.652C37.3799 110.664 37.3864 110.676 37.3936 110.688C37.4266 110.754 37.4615 110.822 37.4964 110.888C37.5352 110.958 37.5721 111.029 37.6109 111.099C37.704 111.271 37.801 111.442 37.8999 111.612C37.929 111.663 37.9581 111.713 37.9891 111.763C38.0163 111.81 38.0434 111.856 38.0725 111.903C38.0919 111.934 38.1113 111.967 38.1307 111.998C38.1618 112.05 38.1928 112.1 38.2258 112.153C38.2976 112.267 38.3713 112.381 38.443 112.495H38.445C38.478 112.548 38.5129 112.6 38.5478 112.65V112.652C38.6506 112.807 38.7573 112.962 38.864 113.115C38.8643 113.115 38.8645 113.115 38.8647 113.115C38.865 113.115 38.8652 113.116 38.8654 113.116C38.8656 113.116 38.8657 113.116 38.8658 113.116C38.8659 113.117 38.8659 113.117 38.8659 113.117C38.9513 113.241 39.0405 113.361 39.1278 113.481V113.483C39.186 113.559 39.2423 113.636 39.3005 113.712C39.347 113.774 39.3955 113.838 39.444 113.9C39.4537 113.913 39.4653 113.925 39.475 113.938V113.94C39.4886 113.958 39.5022 113.973 39.5158 113.991C39.7214 114.254 39.9335 114.512 40.1521 114.764L40.187 114.804C40.1986 114.818 40.2122 114.831 40.2238 114.847C40.2432 114.868 40.2607 114.889 40.2801 114.911C40.2975 114.932 40.3169 114.953 40.3363 114.975C41.4756 116.256 42.7674 117.394 44.1831 118.362C44.3712 118.492 44.5633 118.618 44.7553 118.74C44.8038 118.771 44.8523 118.802 44.9008 118.831C44.9144 118.841 44.9299 118.85 44.9435 118.86C44.9706 118.876 44.9959 118.891 45.023 118.908C45.0482 118.924 45.0734 118.939 45.1006 118.955C45.2034 119.019 45.3082 119.081 45.4129 119.143C45.4381 119.158 45.4653 119.174 45.4925 119.189C45.5177 119.203 45.5448 119.218 45.572 119.234C45.572 119.236 45.572 119.236 45.5739 119.236H45.5759V119.238H45.5778C45.7078 119.313 45.8397 119.387 45.9735 119.459C46.0453 119.497 46.119 119.538 46.1927 119.575C46.3596 119.666 46.5283 119.753 46.6971 119.836C46.7572 119.865 46.8193 119.894 46.8794 119.925C46.9299 119.949 46.9803 119.974 47.0308 119.997C47.0463 120.005 47.0599 120.011 47.0734 120.018C47.1161 120.038 47.1568 120.057 47.1995 120.076C47.2461 120.098 47.2926 120.119 47.3373 120.14C47.3896 120.164 47.4401 120.187 47.4924 120.208C47.6864 120.295 47.8823 120.379 48.0783 120.458C48.7804 120.745 49.498 120.994 50.2276 121.202C50.2606 121.211 50.2955 121.221 50.3304 121.231C50.6428 121.318 50.957 121.397 51.2732 121.469C51.8261 121.597 52.3841 121.701 52.9473 121.783H52.9512C53.0191 121.793 53.085 121.802 53.1529 121.812C53.1587 121.812 53.1646 121.814 53.1723 121.814C53.1723 121.816 53.1723 121.816 53.1743 121.814C53.248 121.824 53.3236 121.833 53.3973 121.843C53.4024 121.844 53.4076 121.845 53.4129 121.845C53.4827 121.854 53.5545 121.862 53.6243 121.87C53.7 121.878 53.7756 121.885 53.8513 121.893C53.9095 121.899 53.9677 121.905 54.0259 121.911C54.0308 121.912 54.0361 121.913 54.0414 121.913C54.0938 121.916 54.1461 121.922 54.1985 121.926H54.2063C54.2509 121.93 54.2974 121.934 54.3421 121.938C54.8833 121.98 55.4264 122 55.9773 122C56.5729 122 57.1645 121.977 57.7484 121.926H57.7542C57.8803 121.915 58.0045 121.903 58.1286 121.891C58.1616 121.887 58.1927 121.885 58.2256 121.882C58.2315 121.882 58.2392 121.88 58.245 121.88C58.2547 121.878 58.2644 121.878 58.2761 121.876C58.2813 121.876 58.2866 121.875 58.2916 121.874C58.3343 121.87 58.3769 121.864 58.4216 121.86L58.567 121.843C58.6155 121.837 58.664 121.829 58.7125 121.824C58.7242 121.822 58.7339 121.822 58.7455 121.82C58.7804 121.816 58.8153 121.81 58.8503 121.804C58.8677 121.802 58.8852 121.8 58.9007 121.798C58.9356 121.793 58.9686 121.789 59.0035 121.783H59.0054C60.0699 121.63 61.1207 121.393 62.148 121.076C62.2023 121.058 62.2566 121.043 62.311 121.026C62.3129 121.026 62.3148 121.024 62.3168 121.024C62.3323 121.018 62.3497 121.014 62.3653 121.008C62.5107 120.962 62.6543 120.913 62.7979 120.863C62.9957 120.797 63.1916 120.725 63.3876 120.652C63.4399 120.63 63.4923 120.611 63.5447 120.59C63.6514 120.549 63.7561 120.506 63.8609 120.464C64.0394 120.392 64.2178 120.317 64.3943 120.239C64.5592 120.166 64.7222 120.092 64.8851 120.014C64.889 120.013 64.8948 120.013 64.8987 120.009C64.9356 119.991 64.9724 119.974 65.0073 119.956H65.0093C65.9026 119.528 66.7642 119.037 67.5873 118.486C67.8512 118.31 68.1111 118.128 68.3672 117.94C68.5728 117.787 68.7745 117.632 68.9763 117.473C69.9715 116.683 70.8929 115.804 71.7289 114.847V114.845C71.789 114.779 71.8453 114.711 71.9035 114.643C71.9132 114.634 71.921 114.624 71.9287 114.616C71.9656 114.572 72.0005 114.529 72.0374 114.487V114.485C72.0858 114.428 72.1343 114.37 72.1809 114.312C72.1925 114.299 72.2022 114.287 72.2119 114.275V114.274C72.2507 114.227 72.2876 114.181 72.3264 114.132C72.3458 114.109 72.3632 114.086 72.3826 114.062V114.06C72.4971 113.917 72.6077 113.774 72.7182 113.627C72.7473 113.588 72.7764 113.547 72.8075 113.507C72.9471 113.319 73.0829 113.127 73.2148 112.935V112.933C73.2653 112.862 73.3138 112.788 73.3642 112.716C73.4127 112.643 73.4612 112.569 73.5097 112.495C73.5582 112.418 73.6086 112.342 73.6571 112.265L73.6629 112.253C73.7114 112.18 73.7599 112.102 73.8065 112.027C73.8433 111.965 73.8802 111.905 73.9171 111.845C73.9403 111.804 73.9656 111.763 73.9888 111.721C73.9979 111.708 74.0064 111.694 74.0141 111.68C74.0684 111.585 74.1227 111.49 74.177 111.395C74.241 111.285 74.3031 111.173 74.3652 111.06C74.3885 111.014 74.4137 110.967 74.4389 110.921C74.4486 110.905 74.4563 110.89 74.4641 110.874C74.4932 110.82 74.5223 110.764 74.5494 110.708C74.5785 110.653 74.6076 110.597 74.6367 110.541C74.6639 110.487 74.693 110.431 74.7202 110.375C74.7415 110.332 74.7609 110.289 74.7822 110.247C74.7837 110.243 74.7857 110.24 74.7881 110.237C74.7978 110.216 74.8075 110.196 74.8152 110.177C74.8176 110.174 74.8195 110.171 74.821 110.167C74.8424 110.125 74.8618 110.08 74.8831 110.038C74.9103 109.981 74.9355 109.923 74.9626 109.867C74.9801 109.828 74.9995 109.788 75.017 109.747C75.0422 109.691 75.0693 109.635 75.0926 109.577C75.1198 109.518 75.145 109.46 75.1702 109.4C75.1775 109.386 75.184 109.371 75.1896 109.356C75.2032 109.329 75.2129 109.302 75.2245 109.274C75.2556 109.203 75.2866 109.129 75.3157 109.057C75.3506 108.976 75.3836 108.893 75.4146 108.812C75.4457 108.736 75.4748 108.659 75.5039 108.581L75.5155 108.554C75.9675 107.365 76.3103 106.138 76.5397 104.887V104.885C76.6691 104.171 76.7617 103.451 76.8171 102.728C76.8191 102.687 76.823 102.648 76.8249 102.61C76.8598 102.12 76.8753 101.628 76.8753 101.134C76.8753 100.915 76.8714 100.698 76.8656 100.481C76.7302 95.9441 75.1099 91.5764 72.2527 88.0461C72.1906 87.9686 72.1285 87.8912 72.0645 87.8137C72.0005 87.7362 71.9345 87.6607 71.8705 87.5851C69.744 85.0986 67.0621 83.1457 64.041 81.884C61.0199 80.6223 57.7441 80.0869 54.4778 80.3212C51.2114 80.5555 48.0459 81.5528 45.2365 83.2327C42.427 84.9127 40.0521 87.2282 38.3034 89.9927C38.2083 90.1438 38.1133 90.2968 38.0221 90.4498C37.929 90.6048 37.8398 90.7597 37.7505 90.9166C35.9932 94.0356 35.0724 97.555 35.0774 101.134Z" fill="#F2F2F2"/>
<path d="M55.1466 87.4857C58.5832 88.3662 62.1049 88.8737 65.6505 88.9994C66.1867 89.0286 66.7242 89.0249 67.2599 88.9885C68.4372 88.8896 69.4456 88.5202 70.5687 88.3183C71.1086 88.2215 71.7101 88.1507 72.2536 88.0461C72.128 87.8905 72.0002 87.7368 71.87 87.5851C70.698 87.6839 69.5076 88.0076 68.3215 88.158C66.3051 88.414 64.0459 88.1283 62.5173 87.4238C61.7757 87.0819 61.2077 86.6552 60.4687 86.3118C60.3682 86.2602 60.2593 86.2269 60.1471 86.2134C59.934 86.207 59.7236 86.2615 59.5405 86.3706C58.3007 86.9955 56.5006 87.5034 54.8298 87.224C54.7052 87.3213 54.9418 87.4321 55.1466 87.4857Z" fill="white"/>
<path d="M47.7531 89.6844C47.7378 89.6817 47.7225 89.6795 47.7073 89.6769C47.7715 89.6371 47.8319 89.5917 47.8878 89.541L47.7531 89.6844Z" fill="white"/>
<path d="M37.751 90.9173C38.4488 90.9729 39.1503 91.0144 39.8554 91.0416C40.3916 91.0705 40.929 91.0669 41.4647 91.0307C42.642 90.9313 43.6505 90.5624 44.7736 90.3605C45.8029 90.1758 47.0536 90.0868 47.7072 89.6767C46.0181 89.3848 44.2681 89.979 42.5263 90.2002C41.1175 90.3732 39.6894 90.3028 38.3044 89.9921C38.1116 90.2949 37.9271 90.6033 37.751 90.9173Z" fill="white"/>
<path d="M46.1929 119.575C46.3597 119.666 46.5285 119.753 46.6972 119.836C46.7574 119.865 46.8194 119.894 46.8796 119.925C46.93 119.949 46.9805 119.974 47.0309 119.997C47.0464 120.005 47.06 120.011 47.0736 120.018C47.1162 120.038 47.157 120.057 47.1997 120.076C47.2462 120.098 47.2928 120.119 47.3374 120.14C47.3898 120.164 47.4402 120.187 47.4926 120.208C47.6866 120.295 47.8825 120.379 48.0784 120.458C48.7805 120.745 49.4981 120.994 50.2278 121.202C50.2607 121.211 50.2956 121.221 50.3306 121.231C50.6429 121.318 50.9571 121.397 51.2733 121.469C51.8262 121.597 52.3842 121.702 52.9474 121.783H52.9513C53.0192 121.793 53.0852 121.802 53.1531 121.812C53.1589 121.812 53.1647 121.814 53.1725 121.814C53.1725 121.816 53.1724 121.816 53.1744 121.814C53.2481 121.824 53.3238 121.833 53.3975 121.843C53.4025 121.844 53.4077 121.845 53.413 121.845C53.4828 121.855 53.5546 121.862 53.6244 121.87C53.7001 121.878 53.7757 121.886 53.8514 121.893C53.9096 121.899 53.9678 121.905 54.026 121.911C54.031 121.912 54.0362 121.913 54.0415 121.913C54.0939 121.916 54.1462 121.922 54.1986 121.926H54.2064C54.251 121.93 54.2976 121.934 54.3422 121.938C54.8834 121.98 55.4266 122 55.9775 122C56.573 122 57.1647 121.977 57.7485 121.926H57.7544C57.8805 121.915 58.0046 121.903 58.1288 121.891C58.1617 121.887 58.1928 121.886 58.2257 121.882C58.2316 121.882 58.2393 121.88 58.2451 121.88C58.2548 121.878 58.2645 121.878 58.2762 121.876C58.2814 121.876 58.2867 121.875 58.2917 121.874C58.3344 121.87 58.3771 121.864 58.4217 121.86L58.5672 121.843C58.6157 121.837 58.6642 121.829 58.7127 121.824C58.7243 121.822 58.734 121.822 58.7456 121.82C58.7805 121.816 58.8155 121.81 58.8504 121.804C58.8678 121.802 58.8853 121.8 58.9008 121.798C58.9357 121.793 58.9687 121.789 59.0036 121.783H59.0056C60.07 121.63 61.1208 121.393 62.1481 121.076C62.2024 121.058 62.2568 121.043 62.3111 121.026C62.0606 119.859 61.5449 118.766 60.804 117.83C60.063 116.895 59.1165 116.142 58.0376 115.629C58.3044 115.376 58.4889 115.048 58.5672 114.688C58.6175 114.456 58.6215 114.217 58.5789 113.983C58.5363 113.75 58.4479 113.527 58.3189 113.328C58.0671 112.942 57.6722 112.672 57.2209 112.577L54.3461 111.976C53.8833 111.886 53.4036 111.982 53.0113 112.243C52.6189 112.505 52.3457 112.91 52.251 113.371C52.2217 113.512 52.2087 113.657 52.2122 113.801C49.4441 115.641 47.4518 117.549 46.1929 119.575Z" fill="#F9A826"/>
<path d="M54.6813 110.843C57.9891 110.843 60.6707 108.166 60.6707 104.863C60.6707 101.56 57.9891 98.8828 54.6813 98.8828C51.3734 98.8828 48.6919 101.56 48.6919 104.863C48.6919 108.166 51.3734 110.843 54.6813 110.843Z" fill="#FFB8B8"/>
<path d="M50.948 110.019C50.3093 109.583 49.6571 108.746 49.2217 108.119C48.6447 107.294 48.2477 106.358 48.0564 105.37C47.8651 104.382 47.8837 103.365 48.1112 102.385C48.1837 101.994 48.362 101.629 48.6267 101.331C48.9088 101.052 49.3696 100.92 49.7139 101.117C49.6199 100.866 49.5785 100.598 49.5923 100.33C49.606 100.062 49.6745 99.8001 49.7937 99.5598C50.0357 99.0799 50.3863 98.6629 50.8178 98.3419C51.643 97.7074 52.6249 97.3079 53.6592 97.1856C54.6934 97.0633 55.7416 97.2229 56.6924 97.6475C57.0665 97.8206 56.452 96.4837 56.8436 96.6126C57.2326 96.763 57.6651 96.7555 58.0485 96.5915C58.4169 96.4064 59.6376 97.5062 59.4964 97.1194C59.7759 97.2461 60.0187 97.4414 60.2023 97.687C60.3858 97.9327 60.5042 98.2207 60.5462 98.5243C60.5883 98.8279 60.5527 99.1372 60.4428 99.4234C60.3329 99.7096 60.1522 99.9633 59.9177 100.161C59.6085 100.422 59.2226 100.572 58.8842 100.793C58.2912 101.209 57.8714 101.828 57.7042 102.533C57.537 103.237 57.6338 103.978 57.9765 104.616C57.6204 104.388 57.2297 104.218 56.8195 104.114C56.6136 104.064 56.3988 104.064 56.1928 104.113C55.9869 104.163 55.7957 104.26 55.6352 104.399C55.5011 104.552 55.3999 104.731 55.3376 104.924C55.2753 105.118 55.2533 105.323 55.273 105.525C55.2864 105.931 55.3831 106.331 55.394 106.737C55.4258 107.928 56.0647 110.192 55.1398 110.825C54.41 111.325 51.8201 110.614 50.948 110.019Z" fill="#2F2E41"/>
<path d="M58.7994 74.9296C58.6732 74.9293 58.5484 74.9041 58.432 74.8555C58.2584 74.7858 58.1099 74.6654 58.0059 74.5101C57.9019 74.3547 57.8473 74.1716 57.8493 73.9848V73.0382C57.8491 72.8396 57.77 72.6493 57.6294 72.5089C57.4888 72.3685 57.2982 72.2895 57.0993 72.2893C56.849 72.289 56.6091 72.1896 56.4321 72.0129C56.2551 71.8362 56.1556 71.5966 56.1553 71.3466V58.3782C56.1555 58.1283 56.2551 57.8887 56.4321 57.712C56.609 57.5353 56.849 57.4358 57.0993 57.4355H100.13C100.381 57.4358 100.621 57.5352 100.797 57.7119C100.974 57.8887 101.074 58.1283 101.074 58.3782V71.3466C101.074 71.5966 100.974 71.8362 100.797 72.0129C100.621 72.1896 100.381 72.289 100.13 72.2893H62.1373C62.0387 72.289 61.9411 72.3082 61.8501 72.3459C61.759 72.3835 61.6763 72.4388 61.6068 72.5086L59.461 74.6512C59.3747 74.739 59.2717 74.8089 59.1581 74.8566C59.0446 74.9044 58.9226 74.9292 58.7994 74.9296Z" fill="white"/>
<path d="M58.7995 75.1236C58.6478 75.1235 58.4977 75.0933 58.3578 75.0347C58.1485 74.9507 57.9695 74.8056 57.8442 74.6183C57.7189 74.431 57.6531 74.2104 57.6555 73.9852V73.0387C57.6553 72.8914 57.5967 72.7503 57.4925 72.6462C57.3883 72.5421 57.2469 72.4835 57.0995 72.4833C56.7977 72.483 56.5085 72.3631 56.2951 72.1501C56.0818 71.937 55.9618 71.6482 55.9614 71.3469V58.3785C55.9617 58.0772 56.0817 57.7884 56.2951 57.5754C56.5084 57.3624 56.7977 57.2425 57.0994 57.2422H100.13C100.432 57.2425 100.721 57.3624 100.935 57.5754C101.148 57.7884 101.268 58.0772 101.268 58.3785V71.3469C101.268 71.6482 101.148 71.937 100.935 72.1501C100.721 72.3631 100.432 72.483 100.13 72.4833H62.1374C62.0643 72.4831 61.9919 72.4974 61.9244 72.5253C61.8569 72.5532 61.7956 72.5942 61.7441 72.646L59.5983 74.7885C59.494 74.8943 59.3696 74.9785 59.2325 75.036C59.0954 75.0935 58.9482 75.1233 58.7995 75.1236ZM57.0994 57.6296C56.9005 57.6298 56.7099 57.7088 56.5693 57.8492C56.4287 57.9896 56.3496 58.18 56.3494 58.3785V71.3469C56.3496 71.5455 56.4287 71.7359 56.5693 71.8763C56.7099 72.0167 56.9006 72.0957 57.0995 72.0959C57.3498 72.0963 57.5897 72.1957 57.7667 72.3724C57.9436 72.5491 58.0432 72.7888 58.0435 73.0387V73.9852C58.0435 74.1333 58.0875 74.278 58.1699 74.4012C58.2524 74.5243 58.3695 74.6203 58.5065 74.6769C58.6436 74.7336 58.7944 74.7484 58.9399 74.7195C59.0853 74.6906 59.219 74.6193 59.3239 74.5146L61.4698 72.3721C61.5573 72.2843 61.6613 72.2146 61.7759 72.1672C61.8905 72.1198 62.0134 72.0956 62.1374 72.0959H100.13C100.329 72.0957 100.52 72.0167 100.661 71.8763C100.801 71.7359 100.88 71.5455 100.88 71.3469V58.3785C100.88 58.1799 100.801 57.9896 100.661 57.8492C100.52 57.7087 100.329 57.6298 100.13 57.6296L57.0994 57.6296Z" fill="#3F3D56"/>
<path d="M96.4326 63.3073H61.539C61.4057 63.3073 61.2778 63.2545 61.1836 63.1604C61.0893 63.0662 61.0364 62.9386 61.0364 62.8055C61.0364 62.6724 61.0893 62.5448 61.1836 62.4507C61.2778 62.3566 61.4057 62.3037 61.539 62.3037H96.4326C96.5659 62.3037 96.6937 62.3566 96.788 62.4507C96.8822 62.5448 96.9352 62.6724 96.9352 62.8055C96.9352 62.9386 96.8822 63.0662 96.788 63.1604C96.6937 63.2545 96.5659 63.3073 96.4326 63.3073Z" fill="#F9A826"/>
<path d="M96.3685 65.4391H61.539C61.4057 65.4391 61.2778 65.3863 61.1836 65.2922C61.0893 65.1981 61.0364 65.0704 61.0364 64.9373C61.0364 64.8043 61.0893 64.6766 61.1836 64.5825C61.2778 64.4884 61.4057 64.4355 61.539 64.4355H96.3685C96.5018 64.4355 96.6297 64.4884 96.7239 64.5825C96.8182 64.6766 96.8711 64.8043 96.8711 64.9373C96.8711 65.0704 96.8182 65.1981 96.7239 65.2922C96.6297 65.3863 96.5018 65.4391 96.3685 65.4391Z" fill="#E6E6E6"/>
<path d="M96.3338 67.571H61.539C61.4057 67.571 61.2778 67.5181 61.1836 67.424C61.0893 67.3299 61.0364 67.2023 61.0364 67.0692C61.0364 66.9361 61.0893 66.8085 61.1836 66.7144C61.2778 66.6202 61.4057 66.5674 61.539 66.5674H96.3338C96.4671 66.5674 96.595 66.6202 96.6892 66.7144C96.7835 66.8085 96.8364 66.9361 96.8364 67.0692C96.8364 67.2023 96.7835 67.3299 96.6892 67.424C96.595 67.5181 96.4671 67.571 96.3338 67.571Z" fill="#E6E6E6"/>
<path d="M151.383 55.4237C151.383 55.8944 151.367 56.3651 151.334 56.8318C151.299 57.3897 151.239 57.9436 151.158 58.4937C150.884 60.3459 150.361 62.1525 149.602 63.8647C149.563 63.9499 149.525 64.0351 149.486 64.1204L149.427 64.2482C149.408 64.2908 149.387 64.3334 149.367 64.3741C149.34 64.4303 149.315 64.4845 149.288 64.5387C149.255 64.6065 149.222 64.6743 149.187 64.7421C149.183 64.7499 149.179 64.7595 149.173 64.7692C149.144 64.8273 149.117 64.8835 149.086 64.9416C149.08 64.9543 149.074 64.9666 149.067 64.9784C149.034 65.0443 148.999 65.1121 148.964 65.1779C148.925 65.2476 148.888 65.3193 148.849 65.389C148.756 65.5614 148.659 65.7319 148.56 65.9023C148.531 65.9527 148.502 66.003 148.471 66.0534C148.444 66.0999 148.417 66.1464 148.388 66.1928C148.368 66.2238 148.349 66.2568 148.33 66.2878C148.299 66.34 148.267 66.3904 148.234 66.4427C148.163 66.557 148.089 66.6713 148.017 66.7855H148.015C147.982 66.8378 147.947 66.8901 147.912 66.9405V66.9424C147.81 67.0974 147.703 67.2523 147.596 67.4053C147.596 67.4053 147.596 67.4054 147.596 67.4055C147.595 67.4056 147.595 67.4057 147.595 67.4059C147.595 67.4061 147.595 67.4063 147.594 67.4065C147.594 67.4068 147.594 67.407 147.594 67.4073C147.509 67.5312 147.42 67.6513 147.332 67.7714V67.7733C147.274 67.8489 147.218 67.9263 147.16 68.0019C147.113 68.0639 147.065 68.1278 147.016 68.1898C147.007 68.2033 146.995 68.2149 146.985 68.2285V68.2304C146.972 68.2479 146.958 68.2634 146.944 68.2808C146.739 68.5442 146.527 68.8018 146.308 69.0536L146.273 69.0943C146.262 69.1079 146.248 69.1214 146.236 69.1369C146.217 69.1582 146.2 69.1795 146.18 69.2008C146.163 69.2221 146.143 69.2434 146.124 69.2647C144.985 70.5461 143.693 71.6838 142.277 72.6524C142.089 72.7821 141.897 72.908 141.705 73.0301C141.656 73.0611 141.608 73.092 141.559 73.1211C141.546 73.1308 141.53 73.1405 141.517 73.1501C141.49 73.1656 141.464 73.1811 141.437 73.1986C141.412 73.2141 141.387 73.2296 141.36 73.2451C141.257 73.309 141.152 73.3709 141.047 73.4329C141.022 73.4484 140.995 73.4639 140.968 73.4794C140.943 73.493 140.915 73.5085 140.888 73.524C140.888 73.5259 140.888 73.5259 140.886 73.5259H140.884V73.5279H140.882C140.752 73.6034 140.621 73.677 140.487 73.7487C140.415 73.7874 140.341 73.8281 140.268 73.8649C140.101 73.9559 139.932 74.0431 139.763 74.1263C139.703 74.1554 139.641 74.1844 139.581 74.2154C139.53 74.2387 139.48 74.2639 139.43 74.2871C139.414 74.2948 139.4 74.3007 139.387 74.3084C139.344 74.3278 139.303 74.3471 139.261 74.3665C139.214 74.3878 139.168 74.4091 139.123 74.4304C139.071 74.4537 139.02 74.4769 138.968 74.4982C138.774 74.5854 138.578 74.6687 138.382 74.7481C137.68 75.0355 136.962 75.2838 136.233 75.4919C136.2 75.5015 136.165 75.5112 136.13 75.5209C135.818 75.6081 135.503 75.6875 135.187 75.7591C134.634 75.887 134.076 75.9916 133.513 76.0729H133.509C133.441 76.0826 133.375 76.0923 133.307 76.102C133.302 76.102 133.296 76.1039 133.288 76.1039C133.288 76.1058 133.288 76.1058 133.286 76.1039C133.212 76.1136 133.137 76.1233 133.063 76.133C133.058 76.1344 133.053 76.1351 133.047 76.1349C132.978 76.1446 132.906 76.1523 132.836 76.1601C132.76 76.1678 132.685 76.1756 132.609 76.1833C132.551 76.1891 132.493 76.1949 132.434 76.2008C132.429 76.2025 132.424 76.2031 132.419 76.2027C132.367 76.2066 132.314 76.2124 132.262 76.2163H132.254C132.209 76.2201 132.163 76.224 132.118 76.2279C131.577 76.2705 131.034 76.2899 130.483 76.2899C129.887 76.2899 129.296 76.2666 128.712 76.2163H128.706C128.58 76.2046 128.456 76.193 128.332 76.1814C128.299 76.1775 128.268 76.1756 128.235 76.1717C128.229 76.1717 128.221 76.1698 128.215 76.1698C128.206 76.1678 128.196 76.1678 128.184 76.1659C128.179 76.1661 128.174 76.1654 128.169 76.164C128.126 76.1601 128.083 76.1543 128.039 76.1504L127.893 76.133C127.845 76.1272 127.796 76.1194 127.748 76.1136C127.736 76.1117 127.726 76.1116 127.715 76.1097C127.68 76.1058 127.645 76.1 127.61 76.0942C127.593 76.0923 127.575 76.0904 127.56 76.0884C127.525 76.0826 127.492 76.0787 127.457 76.0729H127.455C126.39 75.9199 125.34 75.6835 124.312 75.366C124.258 75.3485 124.204 75.333 124.149 75.3156C124.147 75.3156 124.145 75.3137 124.144 75.3137C124.128 75.3079 124.111 75.304 124.095 75.2982C123.95 75.2517 123.806 75.2033 123.662 75.1529C123.465 75.087 123.269 75.0154 123.073 74.9418C123.02 74.9205 122.968 74.9011 122.916 74.8798C122.809 74.8391 122.704 74.7965 122.599 74.7539C122.421 74.6822 122.242 74.6067 122.066 74.5292C121.901 74.4556 121.738 74.382 121.575 74.3045C121.571 74.3026 121.565 74.3026 121.562 74.2987C121.525 74.2813 121.488 74.2639 121.453 74.2464H121.451C120.558 73.8184 119.696 73.3271 118.873 72.7763C118.609 72.6001 118.349 72.418 118.093 72.2301C117.888 72.0771 117.686 71.9222 117.484 71.7633C116.489 70.9729 115.567 70.0938 114.731 69.1369V69.135C114.671 69.0691 114.615 69.0013 114.557 68.9335C114.547 68.9239 114.539 68.9142 114.532 68.9064C114.495 68.8619 114.46 68.8193 114.423 68.7767V68.7747C114.374 68.7185 114.326 68.6604 114.279 68.6023C114.268 68.5888 114.258 68.5772 114.248 68.5655V68.5636C114.21 68.5171 114.173 68.4706 114.134 68.4222C114.115 68.399 114.097 68.3757 114.078 68.3525V68.3505C113.963 68.2072 113.853 68.0639 113.742 67.9167C113.713 67.8779 113.684 67.8373 113.653 67.7966C113.513 67.6087 113.377 67.417 113.245 67.2252V67.2233C113.195 67.1516 113.147 67.078 113.096 67.0063C113.048 66.9327 112.999 66.8591 112.951 66.7855C112.902 66.7081 112.852 66.6325 112.803 66.5551L112.797 66.5434C112.749 66.4698 112.7 66.3924 112.654 66.3168C112.617 66.2548 112.58 66.1948 112.543 66.1347C112.52 66.0941 112.495 66.0534 112.471 66.0108C112.462 65.9977 112.454 65.9841 112.446 65.9701C112.392 65.8752 112.338 65.7803 112.283 65.6854C112.219 65.575 112.157 65.4626 112.095 65.3503C112.072 65.3038 112.047 65.2573 112.021 65.2109C112.012 65.1954 112.004 65.1799 111.996 65.1644C111.967 65.1101 111.938 65.054 111.911 64.9978C111.882 64.9436 111.853 64.8874 111.824 64.8312C111.796 64.777 111.767 64.7208 111.74 64.6646C111.719 64.622 111.699 64.5794 111.678 64.5368C111.677 64.5333 111.675 64.5301 111.672 64.5271C111.663 64.5058 111.653 64.4865 111.645 64.4671C111.643 64.4641 111.641 64.4609 111.639 64.4574C111.618 64.4148 111.599 64.3702 111.577 64.3276C111.55 64.2715 111.525 64.2134 111.498 64.1572C111.48 64.1184 111.461 64.0778 111.443 64.0371C111.418 63.9809 111.391 63.9248 111.368 63.8666C111.341 63.8085 111.315 63.7504 111.29 63.6904C111.283 63.6759 111.276 63.661 111.271 63.6458C111.257 63.6187 111.247 63.5916 111.236 63.5645C111.205 63.4928 111.174 63.4192 111.145 63.3476C111.11 63.2662 111.077 63.1829 111.046 63.1016C111.015 63.026 110.986 62.9486 110.956 62.8711L110.945 62.844C110.493 61.6553 110.15 60.4281 109.921 59.1774V59.1755C109.791 58.4615 109.699 57.7413 109.643 57.0178C109.641 56.9771 109.637 56.9384 109.635 56.8996C109.6 56.4096 109.585 55.9176 109.585 55.4237C109.585 55.2049 109.589 54.9879 109.595 54.771C109.73 50.2341 111.35 45.8664 114.208 42.3362C114.27 42.2587 114.332 42.1812 114.396 42.1037C114.46 42.0263 114.526 41.9507 114.59 41.8752C116.716 39.3886 119.398 37.4358 122.419 36.174C125.44 34.9123 128.716 34.377 131.983 34.6113C135.249 34.8455 138.414 35.8428 141.224 37.5228C144.033 39.2027 146.408 41.5182 148.157 44.2827C148.252 44.4338 148.347 44.5868 148.438 44.7399C148.531 44.8948 148.621 45.0498 148.71 45.2066C150.467 48.3257 151.388 51.845 151.383 55.4237Z" fill="#F2F2F2"/>
<path d="M131.314 41.7747C127.877 42.6552 124.356 43.1627 120.81 43.2885C120.274 43.3176 119.736 43.314 119.201 43.2775C118.023 43.1787 117.015 42.8092 115.892 42.6073C115.352 42.5105 114.75 42.4398 114.207 42.3352C114.332 42.1796 114.46 42.0259 114.59 41.8741C115.762 41.973 116.953 42.2967 118.139 42.447C120.155 42.7031 122.414 42.4174 123.943 41.7128C124.685 41.3709 125.253 40.9442 125.992 40.6008C126.092 40.5493 126.201 40.516 126.313 40.5025C126.526 40.4961 126.737 40.5506 126.92 40.6596C128.16 41.2846 129.96 41.7924 131.631 41.513C131.755 41.6103 131.519 41.7211 131.314 41.7747Z" fill="white"/>
<path d="M138.707 43.9745C138.723 43.9717 138.738 43.9695 138.753 43.9669C138.689 43.9272 138.628 43.8817 138.573 43.8311L138.707 43.9745Z" fill="white"/>
<path d="M148.709 45.2073C148.012 45.263 147.31 45.3044 146.605 45.3317C146.069 45.3606 145.531 45.3569 144.996 45.3207C143.818 45.2214 142.81 44.8524 141.687 44.6505C140.657 44.4658 139.407 44.3768 138.753 43.9668C140.442 43.6748 142.192 44.2691 143.934 44.4902C145.343 44.6632 146.771 44.5928 148.156 44.2821C148.349 44.5849 148.533 44.8934 148.709 45.2073Z" fill="white"/>
<path d="M128.127 64.5536C131.594 64.5536 134.404 61.685 134.404 58.1464C134.404 54.6078 131.594 51.7393 128.127 51.7393C124.66 51.7393 121.85 54.6078 121.85 58.1464C121.85 61.685 124.66 64.5536 128.127 64.5536Z" fill="#FFB6B6"/>
<path d="M140.268 73.8648C140.101 73.9559 139.932 74.043 139.763 74.1263C139.703 74.1553 139.641 74.1844 139.581 74.2154C139.53 74.2386 139.48 74.2638 139.43 74.2871C139.414 74.2948 139.401 74.3006 139.387 74.3084C139.344 74.3277 139.304 74.3471 139.261 74.3665C139.214 74.3878 139.168 74.4091 139.123 74.4304C139.071 74.4536 139.02 74.4769 138.968 74.4982C138.774 74.5853 138.578 74.6686 138.382 74.748C137.68 75.0354 136.962 75.2837 136.233 75.4918C136.2 75.5015 136.165 75.5112 136.13 75.5209C135.818 75.608 135.503 75.6874 135.187 75.7591C134.634 75.8869 134.076 75.9915 133.513 76.0729H133.509C133.441 76.0826 133.375 76.0922 133.307 76.1019C133.302 76.1019 133.296 76.1039 133.288 76.1039C133.288 76.1058 133.288 76.1058 133.286 76.1039C133.212 76.1135 133.137 76.1232 133.063 76.1329C133.058 76.1344 133.053 76.1351 133.047 76.1349C132.978 76.1445 132.906 76.1523 132.836 76.16C132.76 76.1678 132.685 76.1755 132.609 76.1833C132.551 76.1891 132.493 76.1949 132.435 76.2007C132.43 76.2024 132.424 76.2031 132.419 76.2026C132.367 76.2065 132.314 76.2123 132.262 76.2162H132.254C132.209 76.2201 132.163 76.224 132.118 76.2278C131.577 76.2705 131.034 76.2898 130.483 76.2898C129.887 76.2898 129.296 76.2666 128.712 76.2162H128.706C128.58 76.2046 128.456 76.193 128.332 76.1813C128.299 76.1775 128.268 76.1755 128.235 76.1717C128.229 76.1717 128.221 76.1697 128.215 76.1697C128.206 76.1678 128.196 76.1678 128.184 76.1658C128.179 76.166 128.174 76.1654 128.169 76.1639C128.126 76.16 128.083 76.1542 128.039 76.1503L127.893 76.1329C127.845 76.1271 127.796 76.1194 127.748 76.1135C127.736 76.1116 127.726 76.1116 127.715 76.1097C127.68 76.1058 127.645 76.1 127.61 76.0942C127.593 76.0923 127.575 76.0903 127.56 76.0884C127.525 76.0826 127.492 76.0787 127.457 76.0729H127.455C126.39 75.9199 125.34 75.6835 124.312 75.3659C124.258 75.3485 124.204 75.333 124.149 75.3156C124.4 74.1492 124.916 73.056 125.657 72.1204C126.398 71.1847 127.344 70.4317 128.423 69.9194C128.156 69.6656 127.972 69.3377 127.893 68.978C127.843 68.7463 127.839 68.5068 127.882 68.2735C127.924 68.0401 128.013 67.8175 128.142 67.6184C128.393 67.2324 128.788 66.9621 129.24 66.8669L132.114 66.2664C132.577 66.1763 133.057 66.2723 133.449 66.5334C133.842 66.7946 134.115 67.1998 134.209 67.661C134.239 67.8024 134.252 67.9466 134.248 68.091C137.016 69.931 139.009 71.8388 140.268 73.8648Z" fill="#F9A826"/>
<path d="M144.924 55.368C143.857 54.1256 143.349 52.4773 142.497 51.0666C141.644 49.6558 140.159 48.3932 138.591 48.7215C137.51 48.9478 136.675 49.9002 136.252 50.962C135.829 52.0238 135.75 53.1948 135.676 54.3419C135.702 51.9845 134.146 49.6991 132.004 48.9469C129.861 48.1947 127.297 49.0337 125.95 50.9276C125.363 50.3839 124.596 50.0743 123.795 50.0575C122.994 50.0407 122.215 50.3179 121.605 50.8366C120.4 51.9113 120.134 53.9569 121.02 55.3277C121.905 56.6986 123.823 57.2092 125.231 56.4489L125.729 56.906C125.448 57.8841 125.992 59.0396 126.905 59.4078C127.645 59.7064 128.69 59.6567 128.967 60.4325C129.161 60.9746 128.799 61.5532 128.414 61.9698C128.029 62.3864 127.572 62.8165 127.526 63.393C127.456 64.2627 128.356 64.872 129.175 65.0555C131.148 65.4979 133.337 64.5856 134.474 62.847C134.496 62.8135 134.52 62.7799 134.546 62.7463C135.184 61.9316 135.649 60.9956 135.912 59.9954C136.176 58.9952 136.232 57.9519 136.078 56.9291C136.014 56.5273 136.079 56.2284 136.356 56.1332C137.556 55.7219 140.916 56.5852 141.933 57.3655C142.95 58.1457 143.764 59.1783 144.744 60.0089C145.723 60.8395 146.971 61.4802 148.215 61.254C149.211 61.0729 150.059 60.3508 150.629 59.4798C151.199 58.6089 151.527 57.5936 151.82 56.5847C149.618 57.8552 146.603 57.3234 144.924 55.368Z" fill="#2F2E41"/>
<path d="M16.0669 42.4462C16.0669 42.9168 16.0824 43.3875 16.1154 43.8543C16.1503 44.4121 16.2105 44.9661 16.2919 45.5162C16.5657 47.3683 17.0891 49.175 17.8477 50.8872C17.8865 50.9724 17.9253 51.0576 17.9641 51.1428L18.0223 51.2707C18.0417 51.3133 18.063 51.3559 18.0824 51.3966C18.1096 51.4527 18.1348 51.507 18.1619 51.5612C18.1949 51.629 18.2279 51.6968 18.2628 51.7646C18.2667 51.7723 18.2706 51.782 18.2764 51.7917C18.3055 51.8498 18.3327 51.906 18.3637 51.9641C18.3694 51.9767 18.3759 51.989 18.3831 52.0009C18.4161 52.0667 18.451 52.1345 18.4859 52.2004C18.5247 52.2701 18.5616 52.3418 18.6004 52.4115C18.6935 52.5839 18.7905 52.7543 18.8894 52.9248C18.9185 52.9751 18.9476 53.0255 18.9786 53.0758C19.0058 53.1223 19.0329 53.1688 19.062 53.2153C19.0814 53.2463 19.1008 53.2792 19.1202 53.3102C19.1513 53.3625 19.1823 53.4129 19.2153 53.4652C19.2871 53.5794 19.3608 53.6937 19.4325 53.808H19.4345C19.4675 53.8603 19.5024 53.9126 19.5373 53.9629V53.9649C19.6401 54.1198 19.7468 54.2748 19.8535 54.4278C19.8538 54.4278 19.854 54.4278 19.8542 54.4279C19.8545 54.428 19.8547 54.4282 19.8549 54.4283C19.8551 54.4285 19.8552 54.4287 19.8553 54.429C19.8554 54.4292 19.8554 54.4295 19.8554 54.4297C19.9408 54.5537 20.03 54.6738 20.1173 54.7939V54.7958C20.1755 54.8713 20.2318 54.9488 20.29 55.0243C20.3365 55.0863 20.385 55.1502 20.4335 55.2122C20.4432 55.2258 20.4548 55.2374 20.4645 55.251V55.2529C20.4781 55.2703 20.4917 55.2858 20.5053 55.3033C20.7109 55.5667 20.923 55.8243 21.1416 56.0761L21.1765 56.1168C21.1881 56.1303 21.2017 56.1439 21.2133 56.1594C21.2327 56.1807 21.2502 56.202 21.2696 56.2233C21.287 56.2446 21.3064 56.2659 21.3258 56.2872C22.4651 57.5686 23.7569 58.7062 25.1726 59.6748C25.3607 59.8046 25.5528 59.9305 25.7448 60.0525C25.7933 60.0835 25.8418 60.1145 25.8903 60.1435C25.9039 60.1532 25.9194 60.1629 25.933 60.1726C25.9601 60.1881 25.9854 60.2036 26.0125 60.221C26.0377 60.2365 26.0629 60.252 26.0901 60.2675C26.1929 60.3314 26.2977 60.3934 26.4024 60.4554C26.4276 60.4709 26.4548 60.4864 26.482 60.5019C26.5072 60.5154 26.5343 60.5309 26.5615 60.5464C26.5615 60.5484 26.5615 60.5484 26.5634 60.5484H26.5654V60.5503H26.5673C26.6973 60.6258 26.8292 60.6994 26.963 60.7711C27.0348 60.8098 27.1085 60.8505 27.1822 60.8873C27.3491 60.9784 27.5178 61.0655 27.6866 61.1488C27.7467 61.1779 27.8088 61.2069 27.8689 61.2379C27.9194 61.2611 27.9698 61.2863 28.0203 61.3096C28.0358 61.3173 28.0494 61.3231 28.0629 61.3309C28.1056 61.3502 28.1463 61.3696 28.189 61.389C28.2356 61.4103 28.2821 61.4316 28.3267 61.4529C28.3791 61.4761 28.4296 61.4994 28.4819 61.5207C28.6759 61.6078 28.8718 61.6911 29.0678 61.7705C29.7699 62.0579 30.4875 62.3062 31.2171 62.5143C31.2501 62.524 31.285 62.5337 31.3199 62.5434C31.6323 62.6305 31.9465 62.7099 32.2627 62.7816C32.8156 62.9094 33.3736 63.014 33.9368 63.0954H33.9407C34.0086 63.1051 34.0745 63.1147 34.1424 63.1244C34.1482 63.1244 34.1541 63.1264 34.1618 63.1264C34.1618 63.1283 34.1618 63.1283 34.1638 63.1264C34.2375 63.136 34.3131 63.1457 34.3868 63.1554C34.3919 63.1569 34.3971 63.1576 34.4024 63.1574C34.4722 63.167 34.544 63.1748 34.6138 63.1825C34.6894 63.1903 34.7651 63.198 34.8408 63.2058C34.899 63.2116 34.9572 63.2174 35.0154 63.2232C35.0203 63.2249 35.0256 63.2256 35.0309 63.2251C35.0832 63.229 35.1356 63.2348 35.188 63.2387H35.1958C35.2404 63.2426 35.2869 63.2464 35.3315 63.2503C35.8728 63.2929 36.4159 63.3123 36.9668 63.3123C37.5624 63.3123 38.154 63.2891 38.7379 63.2387H38.7437C38.8698 63.2271 38.994 63.2155 39.1181 63.2038C39.1511 63.2 39.1821 63.198 39.2151 63.1942C39.2209 63.1942 39.2287 63.1922 39.2345 63.1922C39.2442 63.1903 39.2539 63.1903 39.2656 63.1883C39.2708 63.1885 39.276 63.1879 39.2811 63.1864C39.3238 63.1825 39.3664 63.1767 39.411 63.1728L39.5565 63.1554C39.605 63.1496 39.6535 63.1419 39.702 63.136C39.7137 63.1341 39.7234 63.1341 39.735 63.1322C39.7699 63.1283 39.8048 63.1225 39.8398 63.1167C39.8572 63.1147 39.8747 63.1128 39.8902 63.1109C39.9251 63.1051 39.9581 63.1012 39.993 63.0954H39.9949C41.0594 62.9424 42.1102 62.706 43.1375 62.3884C43.1918 62.371 43.2461 62.3555 43.3004 62.3381C43.3024 62.3381 43.3043 62.3361 43.3063 62.3361C43.3218 62.3303 43.3392 62.3264 43.3548 62.3206C43.5002 62.2741 43.6438 62.2257 43.7873 62.1754C43.9852 62.1095 44.1811 62.0378 44.3771 61.9642C44.4294 61.9429 44.4818 61.9236 44.5342 61.9023C44.6409 61.8616 44.7456 61.819 44.8504 61.7764C45.0288 61.7047 45.2073 61.6292 45.3838 61.5517C45.5487 61.4781 45.7117 61.4045 45.8746 61.327C45.8785 61.3251 45.8843 61.3251 45.8882 61.3212C45.9251 61.3038 45.9619 61.2863 45.9968 61.2689H45.9988C46.8921 60.8408 47.7536 60.3495 48.5768 59.7988C48.8406 59.6225 49.1006 59.4405 49.3566 59.2526C49.5623 59.0996 49.764 58.9446 49.9658 58.7858C50.961 57.9953 51.8824 57.1162 52.7184 56.1594V56.1574C52.7785 56.0916 52.8348 56.0238 52.893 55.956C52.9027 55.9463 52.9104 55.9366 52.9182 55.9289C52.9551 55.8843 52.99 55.8417 53.0268 55.7991V55.7972C53.0753 55.741 53.1238 55.6829 53.1704 55.6248C53.182 55.6112 53.1917 55.5996 53.2014 55.588V55.5861C53.2402 55.5396 53.2771 55.4931 53.3159 55.4447C53.3353 55.4214 53.3527 55.3982 53.3721 55.3749V55.373C53.4866 55.2297 53.5971 55.0863 53.7077 54.9391C53.7368 54.9004 53.7659 54.8597 53.7969 54.819C53.9366 54.6312 54.0724 54.4394 54.2043 54.2477V54.2457C54.2548 54.1741 54.3032 54.1005 54.3537 54.0288C54.4022 53.9552 54.4507 53.8816 54.4992 53.808C54.5477 53.7305 54.5981 53.655 54.6466 53.5775L54.6524 53.5659C54.7009 53.4923 54.7494 53.4148 54.796 53.3393C54.8328 53.2773 54.8697 53.2172 54.9065 53.1572C54.9298 53.1165 54.955 53.0758 54.9783 53.0332C54.9874 53.0201 54.9958 53.0065 55.0035 52.9926C55.0578 52.8977 55.1122 52.8027 55.1665 52.7078C55.2305 52.5975 55.2926 52.4851 55.3546 52.3728C55.3779 52.3263 55.4031 52.2798 55.4284 52.2333C55.4381 52.2178 55.4458 52.2023 55.4536 52.1868C55.4827 52.1326 55.5118 52.0764 55.5389 52.0202C55.568 51.966 55.5971 51.9098 55.6262 51.8537C55.6534 51.7994 55.6825 51.7433 55.7096 51.6871C55.731 51.6445 55.7504 51.6019 55.7717 51.5593C55.7732 51.5558 55.7752 51.5525 55.7775 51.5496C55.7872 51.5283 55.7969 51.5089 55.8047 51.4895C55.8071 51.4866 55.809 51.4833 55.8105 51.4799C55.8319 51.4372 55.8512 51.3927 55.8726 51.3501C55.8997 51.2939 55.925 51.2358 55.9521 51.1796C55.9696 51.1409 55.989 51.1002 56.0064 51.0596C56.0317 51.0034 56.0588 50.9472 56.0821 50.8891C56.1092 50.831 56.1345 50.7729 56.1597 50.7128C56.167 50.6984 56.1734 50.6835 56.1791 50.6683C56.1927 50.6412 56.2024 50.6141 56.214 50.587C56.245 50.5153 56.2761 50.4417 56.3052 50.37C56.3401 50.2887 56.3731 50.2054 56.4041 50.124C56.4351 50.0485 56.4642 49.971 56.4933 49.8935L56.505 49.8664C56.957 48.6778 57.2998 47.4505 57.5292 46.1999V46.198C57.6586 45.4839 57.7512 44.7638 57.8066 44.0403C57.8086 43.9996 57.8124 43.9608 57.8144 43.9221C57.8493 43.4321 57.8648 42.9401 57.8648 42.4462C57.8648 42.2273 57.8609 42.0104 57.8551 41.7935C57.7197 37.2566 56.0994 32.8889 53.2422 29.3586C53.1801 29.2811 53.118 29.2037 53.054 29.1262C52.99 29.0487 52.924 28.9732 52.86 28.8976C50.7335 26.4111 48.0516 24.4582 45.0304 23.1965C42.0093 21.9348 38.7336 21.3994 35.4673 21.6337C32.2009 21.868 29.0354 22.8653 26.226 24.5452C23.4165 26.2251 21.0416 28.5407 19.2929 31.3052C19.1978 31.4563 19.1028 31.6093 19.0116 31.7623C18.9185 31.9173 18.8293 32.0722 18.74 32.2291C16.9827 35.3481 16.0619 38.8675 16.0669 42.4462Z" fill="#F2F2F2"/>
<path d="M36.1361 28.7972C39.5727 29.6777 43.0944 30.1852 46.64 30.3109C47.1762 30.3401 47.7137 30.3365 48.2494 30.3C49.4267 30.2011 50.4351 29.8317 51.5582 29.6298C52.0981 29.533 52.6995 29.4622 53.2431 29.3576C53.1175 29.202 52.9897 29.0484 52.8595 28.8966C51.6875 28.9955 50.4971 29.3191 49.311 29.4695C47.2946 29.7255 45.0354 29.4398 43.5068 28.7353C42.7652 28.3934 42.1972 27.9667 41.4582 27.6233C41.3577 27.5717 41.2488 27.5384 41.1366 27.5249C40.9236 27.5185 40.7131 27.5731 40.53 27.6821C39.2902 28.307 37.4901 28.8149 35.8193 28.5355C35.6947 28.6328 35.9313 28.7436 36.1361 28.7972Z" fill="white"/>
<path d="M28.7426 30.9969C28.7273 30.9942 28.712 30.992 28.6968 30.9893C28.761 30.9496 28.8214 30.9042 28.8773 30.8535L28.7426 30.9969Z" fill="white"/>
<path d="M18.7405 32.2298C19.4383 32.2854 20.1398 32.3269 20.8449 32.3541C21.3811 32.383 21.9185 32.3794 22.4543 32.3432C23.6315 32.2438 24.64 31.8749 25.7631 31.673C26.7924 31.4882 28.0431 31.3993 28.6967 30.9892C27.0076 30.6973 25.2576 31.2915 23.5158 31.5127C22.107 31.6857 20.6789 31.6153 19.2939 31.3046C19.1011 31.6074 18.9166 31.9158 18.7405 32.2298Z" fill="white"/>
<path d="M27.1821 60.8873C27.349 60.9783 27.5177 61.0655 27.6865 61.1488C27.7466 61.1778 27.8087 61.2069 27.8688 61.2379C27.9193 61.2611 27.9697 61.2863 28.0201 61.3095C28.0357 61.3173 28.0492 61.3231 28.0628 61.3308C28.1055 61.3502 28.1462 61.3696 28.1889 61.3889C28.2355 61.4103 28.282 61.4316 28.3266 61.4529C28.379 61.4761 28.4295 61.4993 28.4818 61.5207C28.6758 61.6078 28.8717 61.6911 29.0677 61.7705C29.7698 62.0579 30.4874 62.3062 31.217 62.5143C31.25 62.524 31.2849 62.5337 31.3198 62.5433C31.6322 62.6305 31.9464 62.7099 32.2626 62.7816C32.8155 62.9094 33.3735 63.014 33.9367 63.0953H33.9406C34.0085 63.105 34.0744 63.1147 34.1423 63.1244C34.1481 63.1244 34.154 63.1263 34.1617 63.1263C34.1617 63.1283 34.1617 63.1283 34.1637 63.1263C34.2374 63.136 34.313 63.1457 34.3867 63.1554C34.3918 63.1569 34.397 63.1575 34.4023 63.1573C34.4721 63.167 34.5439 63.1748 34.6137 63.1825C34.6893 63.1903 34.765 63.198 34.8407 63.2057C34.8989 63.2116 34.9571 63.2174 35.0153 63.2232C35.0202 63.2249 35.0255 63.2256 35.0308 63.2251C35.0831 63.229 35.1355 63.2348 35.1879 63.2387H35.1957C35.2403 63.2426 35.2868 63.2464 35.3315 63.2503C35.8727 63.2929 36.4158 63.3123 36.9667 63.3123C37.5623 63.3123 38.1539 63.289 38.7378 63.2387H38.7436C38.8697 63.2271 38.9939 63.2154 39.118 63.2038C39.151 63.1999 39.182 63.198 39.215 63.1941C39.2208 63.1941 39.2286 63.1922 39.2344 63.1922C39.2441 63.1903 39.2538 63.1903 39.2655 63.1883C39.2707 63.1885 39.2759 63.1879 39.281 63.1864C39.3237 63.1825 39.3663 63.1767 39.411 63.1728L39.5564 63.1554C39.6049 63.1496 39.6534 63.1418 39.7019 63.136C39.7136 63.1341 39.7233 63.1341 39.7349 63.1321C39.7698 63.1283 39.8047 63.1225 39.8397 63.1167C39.8571 63.1147 39.8746 63.1128 39.8901 63.1108C39.925 63.105 39.958 63.1012 39.9929 63.0954H39.9948C41.0593 62.9423 42.1101 62.706 43.1374 62.3884C43.1917 62.371 43.246 62.3555 43.3003 62.338C43.0499 61.1717 42.5342 60.0785 41.7932 59.1428C41.0522 58.2072 40.1057 57.4541 39.0269 56.9419C39.2937 56.688 39.4782 56.3601 39.5564 56.0005C39.6068 55.7687 39.6108 55.5293 39.5682 55.2959C39.5256 55.0626 39.4372 54.84 39.3081 54.6408C39.0564 54.2549 38.6615 53.9846 38.2102 53.8893L35.3353 53.2889C34.8725 53.1988 34.3928 53.2947 34.0005 53.5559C33.6082 53.817 33.335 54.2223 33.2403 54.6834C33.211 54.8248 33.1979 54.9691 33.2015 55.1134C30.4333 56.9535 28.4411 58.8613 27.1821 60.8873Z" fill="#F9A826"/>
<path d="M38.5553 51.3509C42.42 51.3509 45.5529 48.2227 45.5529 44.3639C45.5529 40.5051 42.42 37.377 38.5553 37.377C34.6906 37.377 31.5576 40.5051 31.5576 44.3639C31.5576 48.2227 34.6906 51.3509 38.5553 51.3509Z" fill="#9E616A"/>
<path d="M37.5608 50.9774C35.8089 51.4498 33.8776 50.8217 32.5104 49.6303C31.1433 48.4389 30.2881 46.7508 29.7953 45.007C29.4344 43.7299 29.2633 42.3122 29.8328 41.1133C30.4023 39.9143 31.935 39.1054 33.1175 39.7111C32.3881 38.8625 32.7525 37.4589 33.6045 36.733C34.4565 36.007 35.6264 35.7989 36.7406 35.6851C38.3576 35.52 40.0279 35.5015 41.5667 36.0246C43.1054 36.5476 44.5035 37.6912 44.9851 39.2414C45.4769 39.47 46.0309 39.5294 46.5601 39.4101C47.0893 39.2907 47.564 38.9995 47.9097 38.5821C47.9989 39.0615 47.9273 39.557 47.706 39.9918C47.4848 40.4265 47.1262 40.7763 46.6857 40.9871L49.0434 40.2239C49.4488 41.0809 48.7384 42.1414 47.8298 42.4159C46.9213 42.6903 45.9405 42.3903 45.0784 41.9939C44.2162 41.5974 43.3807 41.0962 42.4442 40.9416C41.5077 40.787 40.4077 41.0874 39.9745 41.9307C39.7476 42.3724 39.7358 42.8897 39.6041 43.3684C39.4724 43.847 39.1387 44.3433 38.6431 44.3825C38.3299 44.4072 38.0234 44.2407 37.7111 44.2747C37.5195 44.3124 37.343 44.405 37.2033 44.5413C37.0637 44.6776 36.9668 44.8516 36.9246 45.042C36.8469 45.4241 36.8459 45.8178 36.9218 46.2003L37.5207 50.7709L37.5608 50.9774Z" fill="#2F2E41"/>
</g>
<defs>
<clipPath id="clip0_102_1714">
<rect width="157" height="122" fill="white"/>
</clipPath>
</defs>
</svg>
