<svg width="179" height="141" viewBox="0 0 179 141" fill="none" xmlns="http://www.w3.org/2000/svg">
<g clip-path="url(#clip0_102_693)">
<path d="M162.937 128.718C159.505 132.404 155.574 135.587 151.257 138.172C151.158 138.233 151.058 138.29 150.957 138.35L143.969 132.145C144.042 132.076 144.123 131.999 144.211 131.915C149.418 126.955 175.266 92.2735 176.988 83.8281C176.869 84.5317 178.542 112.124 162.937 128.718Z" fill="#F0F0F0"/>
<path d="M152.606 139.369C152.473 139.401 152.339 139.431 152.204 139.458L146.962 134.802C147.064 134.766 147.184 134.724 147.321 134.677C149.57 133.877 156.269 131.465 162.936 128.718C170.1 125.764 177.229 122.427 178.763 120.289C178.434 120.786 168.302 135.848 152.606 139.369Z" fill="#F0F0F0"/>
<path d="M162.84 36.9275H162.093V16.4082C162.093 14.8487 161.787 13.3044 161.192 11.8635C160.597 10.4226 159.726 9.11342 158.626 8.01063C157.527 6.90784 156.222 6.03306 154.786 5.43623C153.35 4.83941 151.811 4.53223 150.256 4.53223H106.926C105.372 4.53222 103.832 4.8394 102.396 5.43622C100.96 6.03304 99.6553 6.90782 98.5561 8.01061C97.4569 9.1134 96.585 10.4226 95.9902 11.8635C95.3953 13.3043 95.0891 14.8486 95.0891 16.4082V128.979C95.0891 130.538 95.3953 132.082 95.9901 133.523C96.585 134.964 97.4569 136.273 98.5561 137.376C99.6553 138.479 100.96 139.354 102.396 139.951C103.832 140.547 105.372 140.855 106.926 140.855H150.256C151.811 140.855 153.35 140.547 154.786 139.951C156.222 139.354 157.527 138.479 158.626 137.376C159.725 136.273 160.597 134.964 161.192 133.523C161.787 132.083 162.093 130.538 162.093 128.979V51.5335H162.84V36.9275Z" fill="#3F3D56"/>
<path d="M159.574 16.4898V128.896C159.574 130.061 159.345 131.214 158.901 132.29C158.456 133.366 157.805 134.344 156.984 135.167C156.163 135.991 155.188 136.644 154.116 137.089C153.043 137.535 151.893 137.764 150.732 137.763H107.194C106.033 137.764 104.884 137.534 103.811 137.089C102.739 136.643 101.765 135.99 100.944 135.167C100.123 134.343 99.4724 133.366 99.0283 132.29C98.5842 131.214 98.3556 130.061 98.3557 128.896V16.4898C98.3556 15.3254 98.5842 14.1723 99.0283 13.0965C99.4724 12.0206 100.123 11.0431 100.944 10.2197C101.765 9.3963 102.739 8.74317 103.811 8.29759C104.884 7.85201 106.033 7.62272 107.194 7.6228H112.477C112.218 8.26262 112.119 8.95659 112.19 9.64365C112.261 10.3307 112.499 10.9898 112.883 11.563C113.267 12.1362 113.785 12.6059 114.393 12.9308C115 13.2558 115.678 13.4259 116.367 13.4264H141.189C141.878 13.4271 142.557 13.2576 143.165 12.933C143.773 12.6084 144.292 12.1386 144.676 11.5651C145.061 10.9915 145.299 10.3319 145.369 9.64439C145.439 8.95687 145.339 8.26259 145.079 7.6228H150.732C151.893 7.62238 153.043 7.85142 154.116 8.29684C155.188 8.74227 156.163 9.39534 156.984 10.2188C157.805 11.0422 158.456 12.0198 158.901 13.0958C159.345 14.1718 159.574 15.3251 159.574 16.4898Z" fill="white"/>
<path d="M146.03 74.9023H107.761C107.091 74.9015 106.448 74.634 105.974 74.1585C105.5 73.683 105.233 73.0382 105.233 72.3657V71.1031C105.233 70.4306 105.5 69.7858 105.974 69.3103C106.448 68.8348 107.091 68.5673 107.761 68.5665H146.03C146.7 68.5673 147.343 68.8348 147.817 69.3103C148.291 69.7858 148.558 70.4306 148.558 71.1031V72.3657C148.558 73.0382 148.291 73.683 147.817 74.1585C147.343 74.634 146.7 74.9015 146.03 74.9023Z" fill="#F0F0F0"/>
<path d="M146.03 85.786H107.761C107.091 85.7852 106.448 85.5178 105.974 85.0422C105.5 84.5667 105.233 83.9219 105.233 83.2494V81.9868C105.233 81.3143 105.5 80.6696 105.974 80.194C106.448 79.7185 107.091 79.451 107.761 79.4503H146.03C146.7 79.451 147.343 79.7185 147.817 80.194C148.291 80.6696 148.558 81.3143 148.558 81.9868V83.2494C148.558 83.9219 148.291 84.5667 147.817 85.0422C147.343 85.5178 146.7 85.7852 146.03 85.786Z" fill="#F0F0F0"/>
<path d="M147.945 72.4681H109.675C108.972 72.4673 108.297 72.1864 107.799 71.6871C107.301 71.1878 107.022 70.5108 107.021 69.8047V68.5421C107.022 67.836 107.301 67.159 107.799 66.6597C108.297 66.1604 108.972 65.8795 109.675 65.8787H147.945C148.649 65.8795 149.323 66.1604 149.821 66.6597C150.319 67.159 150.599 67.836 150.599 68.5421V69.8047C150.599 70.5108 150.319 71.1878 149.821 71.6871C149.323 72.1864 148.649 72.4673 147.945 72.4681ZM109.675 66.386C109.106 66.3867 108.559 66.614 108.157 67.0182C107.754 67.4225 107.527 67.9705 107.526 68.5421V69.8047C107.527 70.3763 107.754 70.9244 108.157 71.3286C108.559 71.7328 109.106 71.9602 109.675 71.9608H147.945C148.514 71.9602 149.061 71.7328 149.464 71.3286C149.866 70.9244 150.093 70.3763 150.094 69.8047V68.5421C150.093 67.9705 149.866 67.4225 149.464 67.0182C149.061 66.614 148.514 66.3867 147.945 66.386H109.675Z" fill="#3F3D56"/>
<path d="M147.945 83.3519H109.675C108.972 83.3511 108.297 83.0702 107.799 82.5709C107.301 82.0716 107.022 81.3946 107.021 80.6885V79.4259C107.022 78.7197 107.301 78.0427 107.799 77.5434C108.297 77.0441 108.972 76.7633 109.675 76.7625H147.945C148.649 76.7633 149.323 77.0441 149.821 77.5434C150.319 78.0427 150.599 78.7197 150.599 79.4259V80.6885C150.599 81.3946 150.319 82.0716 149.821 82.5709C149.323 83.0702 148.649 83.3511 147.945 83.3519ZM109.675 77.2698C109.106 77.2704 108.559 77.4978 108.157 77.902C107.754 78.3062 107.527 78.8542 107.526 79.4259V80.6885C107.527 81.2601 107.754 81.8081 108.157 82.2123C108.559 82.6165 109.106 82.8439 109.675 82.8445H147.945C148.514 82.8439 149.061 82.6165 149.464 82.2123C149.866 81.8081 150.093 81.2601 150.094 80.6885V79.4259C150.093 78.8542 149.866 78.3062 149.464 77.902C149.061 77.4978 148.514 77.2704 147.945 77.2698H109.675Z" fill="#3F3D56"/>
<path d="M159.574 16.4898V40.9398C155.701 41.9619 151.647 42.0792 147.722 41.2826C143.798 40.486 140.108 38.7968 136.936 36.3449C133.764 33.8931 131.196 30.7439 129.427 27.1397C127.659 23.5355 126.738 19.5723 126.736 15.5551C126.736 14.8381 126.765 14.1285 126.822 13.4264H141.189C141.878 13.4271 142.557 13.2576 143.165 12.933C143.773 12.6084 144.292 12.1386 144.676 11.5651C145.061 10.9915 145.299 10.3319 145.369 9.64439C145.439 8.95687 145.339 8.26259 145.079 7.6228H150.732C151.893 7.62238 153.043 7.85142 154.116 8.29684C155.188 8.74227 156.163 9.39534 156.984 10.2188C157.805 11.0422 158.456 12.0198 158.901 13.0958C159.345 14.1718 159.574 15.3251 159.574 16.4898Z" fill="#F0F0F0"/>
<path d="M120.355 136.236C120.355 136.752 120.336 137.261 120.294 137.763H107.194C106.033 137.763 104.884 137.534 103.811 137.089C102.739 136.643 101.765 135.99 100.944 135.166C100.123 134.343 99.4724 133.366 99.0283 132.29C98.5842 131.214 98.3556 130.061 98.3557 128.896V116.873C101.102 116.515 103.892 116.748 106.542 117.557C109.191 118.365 111.638 119.731 113.72 121.564C115.801 123.396 117.47 125.652 118.614 128.182C119.758 130.712 120.352 133.458 120.355 136.236H120.355Z" fill="#F9A826"/>
<path d="M14.6944 115.14C15.0626 115.302 15.4799 115.312 15.8548 115.166C16.2298 115.02 16.5317 114.731 16.6945 114.362L28.4962 87.5266C28.7663 86.9124 28.8489 86.2318 28.7334 85.5706C28.6179 84.9094 28.3096 84.2974 27.8474 83.8121C27.3853 83.3267 26.79 82.9898 26.137 82.8438C25.4839 82.6979 24.8024 82.7495 24.1786 82.9922H24.1786C23.4579 83.2683 22.8549 83.7864 22.472 84.4584C22.4111 84.5647 22.3559 84.6742 22.3066 84.7864L10.5049 111.622C10.4244 111.805 10.3807 112.002 10.3761 112.201C10.3716 112.401 10.4063 112.6 10.4783 112.786C10.5503 112.973 10.6582 113.143 10.7958 113.288C10.9335 113.432 11.0981 113.548 11.2804 113.629L14.6944 115.14Z" fill="#F9A826"/>
<path d="M28.0117 98.5437L16.3384 95.941L19.2277 88.2724C19.7199 86.3981 20.8653 84.7628 22.4563 83.6632C24.0473 82.5636 25.9784 82.0725 27.8993 82.279L28.0118 82.2915L28.0117 98.5437Z" fill="#2F2E41"/>
<path d="M51.5903 115.524C51.2469 115.523 50.9111 115.423 50.6234 115.235C50.3357 115.047 50.1085 114.779 49.9692 114.464L38.1676 87.6289C37.7922 86.775 37.7573 85.8093 38.0701 84.9305C38.3828 84.0516 39.0193 83.3264 39.8487 82.9041C40.6782 82.4818 41.6374 82.3944 42.529 82.66C43.4207 82.9257 44.1769 83.524 44.6422 84.332V84.3319C44.7076 84.4461 44.7669 84.5636 44.8199 84.684L56.6216 111.52C56.811 111.95 56.8221 112.439 56.6525 112.878C56.4828 113.317 56.1462 113.671 55.7168 113.861L52.187 115.423L52.1852 115.419C51.9944 115.488 51.7931 115.524 51.5903 115.524Z" fill="#F9A826"/>
<path d="M35.2655 106.309C34.8633 106.309 34.4777 106.47 34.1933 106.755C33.9089 107.04 33.749 107.427 33.7485 107.831V139.034C33.749 139.438 33.9089 139.824 34.1933 140.11C34.4777 140.395 34.8633 140.556 35.2655 140.556H38.9971C39.3992 140.556 39.7848 140.395 40.0692 140.11C40.3536 139.824 40.5136 139.438 40.514 139.034V107.831C40.5136 107.427 40.3536 107.04 40.0692 106.755C39.7848 106.47 39.3992 106.309 38.9971 106.309H35.2655Z" fill="#F9A826"/>
<path d="M27.8849 106.309C27.4827 106.309 27.0971 106.47 26.8127 106.755C26.5283 107.04 26.3684 107.427 26.3679 107.831V139.034C26.3684 139.438 26.5283 139.824 26.8127 140.11C27.0971 140.395 27.4827 140.556 27.8849 140.556H31.6165C32.0187 140.556 32.4043 140.395 32.6886 140.11C32.973 139.824 33.133 139.438 33.1334 139.034V107.831C33.133 107.427 32.973 107.04 32.6886 106.755C32.4043 106.47 32.0187 106.309 31.6165 106.309H27.8849Z" fill="#F9A826"/>
<path d="M33.3294 73.6176C40.4506 73.6176 46.2234 67.8257 46.2234 60.6811C46.2234 53.5364 40.4506 47.7445 33.3294 47.7445C26.2082 47.7445 20.4353 53.5364 20.4353 60.6811C20.4353 67.8257 26.2082 73.6176 33.3294 73.6176Z" fill="#F9A826"/>
<path d="M37.6203 66.1116C38.4561 66.0883 39.4963 66.0592 40.2977 65.4719C40.5363 65.2898 40.7324 65.0576 40.8721 64.7915C41.0119 64.5254 41.092 64.2319 41.1067 63.9315C41.1212 63.718 41.0863 63.504 41.0047 63.3063C40.9231 63.1086 40.7971 62.9325 40.6364 62.7917C40.2178 62.4369 39.6066 62.3537 38.948 62.5479L39.6304 57.5443L39.1294 57.4755L38.3272 63.3578L38.7455 63.1652C39.2305 62.942 39.8963 62.8284 40.31 63.1792C40.4116 63.2709 40.4907 63.3848 40.5413 63.5122C40.5918 63.6396 40.6124 63.777 40.6014 63.9136C40.5892 64.1372 40.529 64.3555 40.4252 64.5537C40.3213 64.7519 40.1761 64.9253 39.9994 65.0622C39.3758 65.5192 38.5466 65.5781 37.6062 65.6045L37.6203 66.1116Z" fill="#2F2E41"/>
<path d="M44.8312 57.9758H42.1079V58.4832H44.8312V57.9758Z" fill="#2F2E41"/>
<path d="M36.2353 57.9758H33.512V58.4832H36.2353V57.9758Z" fill="#2F2E41"/>
<path d="M46.1055 115.681L41.4646 81.6912C41.4149 81.3268 41.2352 80.9927 40.9589 80.7509C40.6826 80.5091 40.3283 80.3758 39.9616 80.3759H36.4587C36.4732 80.2921 36.4808 80.2072 36.4814 80.1222V78.8539C36.4814 78.4503 36.3215 78.0632 36.0371 77.7778C35.7526 77.4923 35.3667 77.332 34.9644 77.332H31.9305C31.5282 77.332 31.1424 77.4923 30.8579 77.7778C30.5734 78.0632 30.4136 78.4503 30.4136 78.8539V80.1222C30.4141 80.2072 30.4217 80.2921 30.4363 80.3759H26.9333C26.5666 80.3759 26.2124 80.5091 25.936 80.7509C25.6597 80.9927 25.4801 81.3268 25.4303 81.6912L20.7894 115.681C20.76 115.897 20.7769 116.116 20.839 116.324C20.901 116.532 21.0068 116.725 21.1492 116.888C21.2916 117.052 21.4673 117.183 21.6645 117.273C21.8616 117.363 22.0757 117.41 22.2923 117.41H44.6026C44.8192 117.41 45.0333 117.363 45.2305 117.273C45.4276 117.183 45.6033 117.052 45.7457 116.888C45.8881 116.725 45.9939 116.532 46.0559 116.324C46.118 116.116 46.1349 115.897 46.1055 115.681Z" fill="#2F2E41"/>
<path d="M38.8833 98.5437V82.2915L38.9958 82.279C40.919 82.0727 42.8523 82.5654 44.4443 83.6676C46.0363 84.7698 47.1814 86.4084 47.6716 88.2857L50.5566 95.941L38.8833 98.5437Z" fill="#2F2E41"/>
<path d="M32.68 74.0212L23.7615 70.5481C22.3031 69.9802 20.8366 69.4296 19.386 68.8421C18.7646 68.6248 18.1922 68.2864 17.7018 67.8462C17.2748 67.3927 16.9838 66.8277 16.8621 66.2159C16.5528 64.9042 16.6087 63.4701 16.6308 62.1314C16.6479 60.667 16.768 59.2056 16.9902 57.7582C17.3797 55.0382 18.2943 52.4206 19.6829 50.052C22.184 45.9347 26.4933 42.837 31.4501 43.0842C33.7449 43.1987 36.0529 44.0249 37.7579 45.599C37.9358 45.8123 38.1353 46.0063 38.3533 46.178C38.5049 46.235 38.6698 46.2461 38.8275 46.2099C39.0356 46.1965 39.2438 46.1862 39.4522 46.1792C40.1754 46.1486 40.8998 46.1791 41.6178 46.2703C42.9263 46.4121 44.1665 46.9288 45.1903 47.7586C46.0424 48.494 46.7357 49.5321 46.807 50.6858C46.8414 51.2154 46.7542 51.7458 46.5519 52.2362C46.3496 52.7266 46.0378 53.1639 45.6404 53.5142C44.5764 54.4139 43.0583 54.0977 41.7819 54.0298L37.1063 53.7813L34.7372 53.6554C34.2495 53.6295 34.2509 54.3905 34.7372 54.4164L41.0338 54.751C42.0457 54.8048 43.0885 54.9366 44.1012 54.8758C44.8793 54.8404 45.6223 54.5405 46.208 54.0254C46.743 53.5324 47.1415 52.9087 47.3646 52.2151C47.5878 51.5216 47.628 50.7818 47.4814 50.0681C47.1568 48.5112 46.0019 47.2234 44.6481 46.4572C42.806 45.4147 40.6059 45.3148 38.5447 45.469L38.8129 45.5804C36.4813 43.0697 32.9098 42.0096 29.5569 42.3806C26.0168 42.7722 22.8681 44.7537 20.6059 47.4632C18.0836 50.4841 16.7091 54.251 16.1747 58.1244C15.8967 60.2157 15.8051 62.3277 15.9012 64.4354C15.8972 65.3649 16.0557 66.2879 16.3695 67.1624C16.7275 68.0136 17.3747 68.7098 18.1962 69.1273C19.1379 69.5835 20.1061 69.9825 21.0955 70.3223L24.3813 71.6018L30.8355 74.1152L32.4784 74.755C32.9337 74.9323 33.1309 74.1968 32.68 74.0212Z" fill="#2F2E41"/>
<path d="M18.6573 48.1614C17.8823 48.1614 17.1246 47.9308 16.4801 47.4988C15.8357 47.0667 15.3334 46.4527 15.0368 45.7343C14.7402 45.0158 14.6626 44.2253 14.8138 43.4626C14.965 42.7 15.3383 41.9994 15.8863 41.4495C16.4344 40.8997 17.1326 40.5252 17.8928 40.3735C18.653 40.2218 19.4409 40.2997 20.157 40.5973C20.873 40.8948 21.4851 41.3988 21.9157 42.0453C22.3463 42.6919 22.5761 43.4521 22.5761 44.2297C22.5749 45.2721 22.1617 46.2714 21.427 47.0085C20.6924 47.7456 19.6963 48.1602 18.6573 48.1614ZM18.6573 41.0589C18.0323 41.0589 17.4212 41.2449 16.9015 41.5933C16.3818 41.9417 15.9768 42.4369 15.7376 43.0163C15.4984 43.5957 15.4358 44.2332 15.5577 44.8482C15.6797 45.4633 15.9807 46.0283 16.4226 46.4717C16.8646 46.9151 17.4277 47.2171 18.0408 47.3395C18.6538 47.4618 19.2892 47.399 19.8667 47.159C20.4442 46.9191 20.9378 46.5127 21.285 45.9912C21.6323 45.4698 21.8176 44.8568 21.8176 44.2297C21.8167 43.389 21.4834 42.5831 20.8909 41.9887C20.2985 41.3943 19.4952 41.0599 18.6573 41.0589Z" fill="#2F2E41"/>
<path d="M84.1651 72.5264L75.6831 66.0178L69.1958 74.5277L77.6778 81.0363L84.1651 72.5264Z" fill="#F0F0F0"/>
<path d="M36.2285 14.4249C37.5687 14.4238 38.8905 14.7376 40.088 15.3412C41.2856 15.9447 42.3256 16.8212 43.1249 17.9005L48.0777 11.4034L33.217 0L21.8511 14.9097L28.256 19.8246C28.897 18.2297 29.9985 16.8634 31.4191 15.9013C32.8397 14.9391 34.5145 14.425 36.2285 14.4249Z" fill="#F0F0F0"/>
<path d="M178.747 141H0.252825C0.185772 141 0.121464 140.973 0.0740505 140.926C0.0266366 140.878 0 140.814 0 140.746C0 140.679 0.0266366 140.615 0.0740505 140.567C0.121464 140.519 0.185772 140.493 0.252825 140.493H178.747C178.814 140.493 178.879 140.519 178.926 140.567C178.973 140.615 179 140.679 179 140.746C179 140.814 178.973 140.878 178.926 140.926C178.879 140.973 178.814 141 178.747 141Z" fill="#3F3D56"/>
<path d="M135.182 98.9104H117.014C116.344 98.9097 115.701 98.6422 115.227 98.1667C114.753 97.6911 114.486 97.0464 114.486 96.3739V95.1113C114.486 94.4388 114.753 93.794 115.227 93.3185C115.701 92.843 116.344 92.5755 117.014 92.5747H135.182C135.853 92.5755 136.495 92.843 136.969 93.3185C137.443 93.794 137.71 94.4388 137.711 95.1113V96.3739C137.71 97.0464 137.443 97.6911 136.969 98.1667C136.495 98.6422 135.853 98.9097 135.182 98.9104Z" fill="#F9A826"/>
<path d="M137.097 96.4764H118.928C118.224 96.4756 117.55 96.1948 117.052 95.6954C116.554 95.1961 116.274 94.5191 116.273 93.813V92.5504C116.274 91.8443 116.554 91.1673 117.052 90.668C117.55 90.1687 118.224 89.8878 118.928 89.887H137.097C137.801 89.8878 138.475 90.1687 138.973 90.668C139.471 91.1673 139.751 91.8443 139.751 92.5504V93.813C139.751 94.5191 139.471 95.1961 138.973 95.6954C138.475 96.1948 137.801 96.4756 137.097 96.4764ZM118.928 90.3943C118.358 90.395 117.812 90.6223 117.409 91.0265C117.006 91.4308 116.78 91.9788 116.779 92.5504V93.813C116.78 94.3846 117.006 94.9327 117.409 95.3369C117.812 95.7411 118.358 95.9685 118.928 95.9691H137.097C137.666 95.9685 138.213 95.7411 138.616 95.3369C139.018 94.9327 139.245 94.3846 139.246 93.813V92.5504C139.245 91.9788 139.018 91.4308 138.616 91.0265C138.213 90.6223 137.666 90.395 137.097 90.3943H118.928Z" fill="#3F3D56"/>
</g>
<defs>
<clipPath id="clip0_102_693">
<rect width="179" height="141" fill="white"/>
</clipPath>
</defs>
</svg>
