<svg width="32" height="40" viewBox="0 0 32 40" fill="none" xmlns="http://www.w3.org/2000/svg">
<path d="M26.5 0C27.2223 0 27.9375 0.142262 28.6048 0.418663C29.2721 0.695063 29.8784 1.10019 30.3891 1.61091C30.8998 2.12163 31.3049 2.72795 31.5813 3.39524C31.8577 4.06253 32 4.77773 32 5.5V34.5C32 35.2223 31.8577 35.9375 31.5813 36.6048C31.3049 37.272 30.8998 37.8784 30.3891 38.3891C29.8784 38.8998 29.2721 39.3049 28.6048 39.5813C27.9375 39.8577 27.2223 40 26.5 40H5.5C4.77756 40 4.0622 39.8577 3.39478 39.5811C2.72736 39.3046 2.12095 38.8993 1.61021 38.3884C1.09946 37.8774 0.694372 37.2709 0.418088 36.6034C0.141805 35.9359 -0.000262341 35.2204 3.63671e-07 34.498V5.5C3.63671e-07 2.98 1.692 0.86 4 0.206V3.5C3.392 3.956 3 4.68 3 5.5V34.496C3 35.876 4.12 36.996 5.5 36.996H26.5C27.88 36.996 29 35.876 29 34.496V5.5C29 4.12 27.88 3 26.5 3H22V0H26.5ZM20 0V16.278C20 17.772 18.4 18.332 17.42 17.806L17.256 17.702L13.004 15.132L8.848 17.634C7.848 18.354 6.188 17.914 6.014 16.518L6 16.28V0H20ZM17 3H9V14.046L12.146 12.148C12.3966 12.0148 12.6746 11.9411 12.9584 11.9328C13.2421 11.9245 13.524 11.9817 13.782 12.1L17.002 14.048V3H17Z" fill="white" />
</svg>
