<svg width="48" height="48" viewBox="0 0 48 48" fill="none" xmlns="http://www.w3.org/2000/svg">
<path d="M24 4C26.1217 4 28.1566 4.84285 29.6569 6.34315C31.1571 7.84344 32 9.87827 32 12V16H37C37.7956 16 38.5587 16.3161 39.1213 16.8787C39.6839 17.4413 40 18.2044 40 19V41C40 41.7957 39.6839 42.5587 39.1213 43.1213C38.5587 43.6839 37.7956 44 37 44H11C10.2044 44 9.44129 43.6839 8.87868 43.1213C8.31607 42.5587 8 41.7957 8 41V19C8 18.2044 8.31607 17.4413 8.87868 16.8787C9.44129 16.3161 10.2044 16 11 16H16V12C16 9.87827 16.8429 7.84344 18.3431 6.34315C19.8434 4.84285 21.8783 4 24 4ZM24 27C23.2044 27 22.4413 27.3161 21.8787 27.8787C21.3161 28.4413 21 29.2044 21 30C21 30.7956 21.3161 31.5587 21.8787 32.1213C22.4413 32.6839 23.2044 33 24 33C24.7956 33 25.5587 32.6839 26.1213 32.1213C26.6839 31.5587 27 30.7956 27 30C27 29.2044 26.6839 28.4413 26.1213 27.8787C25.5587 27.3161 24.7956 27 24 27ZM24 8C22.9391 8 21.9217 8.42143 21.1716 9.17157C20.4214 9.92172 20 10.9391 20 12V16H28V12C28 10.9391 27.5786 9.92172 26.8284 9.17157C26.0783 8.42143 25.0609 8 24 8Z" fill="url(#paint0_linear_17_326)"/>
<defs>
<linearGradient id="paint0_linear_17_326" x1="40" y1="24" x2="8" y2="24" gradientUnits="userSpaceOnUse">
<stop stop-color="#0F5837"/>
<stop offset="1" stop-color="#24AA70"/>
</linearGradient>
</defs>
</svg>
