<svg width="191" height="145" viewBox="0 0 191 145" fill="none" xmlns="http://www.w3.org/2000/svg">
<g clip-path="url(#clip0_628_2061)">
<path d="M74.9755 29.9713L75.6727 30.1411C75.3581 30.1861 75.0434 30.229 74.7288 30.2679H63.1017C62.2298 30.1574 61.3626 30.0211 60.5004 29.8588C55.3061 28.9062 50.349 26.9534 45.9079 24.11C43.179 22.345 40.5775 20.1751 39.1648 17.2608C37.2462 13.3035 37.9165 8.2929 40.6558 4.84685C41.653 3.60353 42.881 2.56213 44.273 1.77914C44.4807 1.66053 44.6904 1.54804 44.9043 1.4417C47.2231 0.282864 49.8271 -0.191215 52.4083 0.0755455C56.7988 0.552062 60.8499 3.21892 63.1881 6.94515C65.773 11.06 66.2686 16.0951 66.7005 20.9277C67.484 18.4204 70.4247 16.8886 73.0055 17.4428C75.5842 17.995 77.5749 20.3899 77.8957 22.9954C78.2103 25.5436 77.0464 28.1593 75.1072 29.8588C75.064 29.8957 75.0208 29.9345 74.9755 29.9713Z" fill="#F2F2F2"/>
<path d="M66.0096 30.2679H65.4276C65.37 30.2222 65.3253 30.1623 65.2981 30.0941C65.2652 30.0164 65.2344 29.9366 65.1993 29.8589C63.47 25.6925 61.3406 21.7017 58.8408 17.9419C54.8686 11.9571 50.0028 6.6091 44.4108 2.08189C44.363 2.04806 44.325 2.00222 44.3008 1.94905C44.2766 1.89587 44.267 1.83727 44.273 1.77921C44.2848 1.70172 44.3169 1.6287 44.3662 1.56752C44.4154 1.50633 44.48 1.45914 44.5534 1.43072C44.6268 1.4023 44.7065 1.39364 44.7844 1.40564C44.8622 1.41763 44.9356 1.44984 44.9969 1.49903C48.6201 4.43362 51.9436 7.71625 54.9192 11.2993C57.8965 14.878 60.5177 18.7355 62.746 22.8175C63.9893 25.1023 65.1063 27.453 66.0919 29.8589C66.0939 29.8651 66.096 29.8691 66.098 29.8753C66.1309 29.9408 66.1402 30.0157 66.1241 30.0872C66.108 30.1588 66.0676 30.2226 66.0096 30.2679Z" fill="white"/>
<path d="M114.749 29.8589H3.90723C2.87125 29.8598 1.87798 30.2695 1.14544 30.998C0.412892 31.7265 0.000937645 32.7144 0 33.7446V45.6064C0.000937645 46.6367 0.412892 47.6245 1.14544 48.353C1.87798 49.0816 2.87125 49.4912 3.90723 49.4922H114.749C115.785 49.4912 116.778 49.0816 117.511 48.353C118.243 47.6245 118.655 46.6367 118.656 45.6064V33.7446C118.655 32.7144 118.243 31.7265 117.511 30.998C116.778 30.2695 115.785 29.8598 114.749 29.8589ZM118.245 45.6064C118.244 46.5281 117.875 47.4117 117.22 48.0634C116.564 48.7151 115.676 49.0819 114.749 49.0832H3.90723C2.98045 49.0819 2.09201 48.7151 1.43667 48.0634C0.781343 47.4117 0.412599 46.5281 0.411287 45.6064V33.7446C0.412598 32.823 0.781343 31.9394 1.43667 31.2877C2.09201 30.6359 2.98045 30.2692 3.90723 30.2679H114.749C115.676 30.2692 116.564 30.6359 117.22 31.2877C117.875 31.9394 118.244 32.823 118.245 33.7446V45.6064Z" fill="#3F3D56"/>
<path d="M114.749 77.5105H3.90723C2.87133 77.5093 1.8782 77.0995 1.1457 76.3711C0.413211 75.6426 0.00117674 74.6549 0 73.6247V61.7629C0.00117674 60.7327 0.413211 59.7451 1.1457 59.0166C1.8782 58.2881 2.87133 57.8784 3.90723 57.8772H114.749C115.785 57.8784 116.778 58.2881 117.511 59.0166C118.243 59.7451 118.655 60.7327 118.656 61.7629V73.6247C118.655 74.6549 118.243 75.6426 117.511 76.3711C116.778 77.0995 115.785 77.5093 114.749 77.5105ZM3.90723 58.2862C2.98037 58.2873 2.09176 58.6539 1.43637 59.3057C0.780982 59.9575 0.412326 60.8412 0.411287 61.7629V73.6247C0.412326 74.5465 0.780982 75.4302 1.43637 76.082C2.09176 76.7338 2.98037 77.1004 3.90723 77.1014H114.749C115.676 77.1004 116.565 76.7338 117.22 76.082C117.875 75.4302 118.244 74.5465 118.245 73.6247V61.7629C118.244 60.8412 117.875 59.9575 117.22 59.3057C116.565 58.6539 115.676 58.2873 114.749 58.2862H3.90723Z" fill="#3F3D56"/>
<path d="M114.749 105.529H3.90723C2.87133 105.528 1.8782 105.118 1.1457 104.389C0.413211 103.661 0.00117674 102.673 0 101.643V89.7813C0.00117674 88.7511 0.413211 87.7634 1.1457 87.0349C1.8782 86.3064 2.87133 85.8967 3.90723 85.8955H114.749C115.785 85.8967 116.778 86.3064 117.511 87.0349C118.243 87.7634 118.655 88.7511 118.656 89.7813V101.643C118.655 102.673 118.243 103.661 117.511 104.389C116.778 105.118 115.785 105.528 114.749 105.529ZM3.90723 86.3045C2.98037 86.3056 2.09176 86.6722 1.43637 87.324C0.780982 87.9758 0.412326 88.8595 0.411287 89.7813V101.643C0.412326 102.565 0.780982 103.449 1.43637 104.1C2.09176 104.752 2.98037 105.119 3.90723 105.12H114.749C115.676 105.119 116.565 104.752 117.22 104.1C117.875 103.449 118.244 102.565 118.245 101.643V89.7813C118.244 88.8595 117.875 87.9758 117.22 87.324C116.565 86.6722 115.676 86.3056 114.749 86.3045H3.90723Z" fill="#3F3D56"/>
<path d="M22.1747 46.3222H15.5941C14.6945 46.3212 13.832 45.9653 13.1959 45.3327C12.5598 44.7001 12.202 43.8424 12.201 42.9477V36.4033C12.202 35.5086 12.5598 34.6509 13.1959 34.0183C13.832 33.3857 14.6945 33.0298 15.5941 33.0288H22.1747C23.0743 33.0298 23.9368 33.3857 24.5729 34.0183C25.209 34.6509 25.5668 35.5086 25.5678 36.4033V42.9477C25.5668 43.8424 25.209 44.7001 24.5729 45.3327C23.9368 45.9653 23.0743 46.3212 22.1747 46.3222Z" fill="#F9A826"/>
<path d="M104.707 45.1975H32.1152C31.6789 45.1975 31.2605 45.0251 30.9519 44.7183C30.6434 44.4115 30.4701 43.9953 30.4701 43.5614C30.4701 43.1275 30.6434 42.7113 30.9519 42.4045C31.2605 42.0977 31.6789 41.9253 32.1152 41.9253H104.707C105.144 41.9253 105.562 42.0977 105.871 42.4045C106.179 42.7113 106.353 43.1275 106.353 43.5614C106.353 43.9953 106.179 44.4115 105.871 44.7183C105.562 45.0251 105.144 45.1975 104.707 45.1975Z" fill="#CCCCCC"/>
<path d="M81.0584 38.2439H32.1152C31.6789 38.2439 31.2605 38.0715 30.9519 37.7647C30.6434 37.4579 30.4701 37.0417 30.4701 36.6078C30.4701 36.1739 30.6434 35.7577 30.9519 35.4509C31.2605 35.1441 31.6789 34.9717 32.1152 34.9717H81.0584C81.4947 34.9717 81.9132 35.1441 82.2217 35.4509C82.5302 35.7577 82.7035 36.1739 82.7035 36.6078C82.7035 37.0417 82.5302 37.4579 82.2217 37.7647C81.9132 38.0715 81.4947 38.2439 81.0584 38.2439Z" fill="#CCCCCC"/>
<path d="M22.1747 74.3405H15.5941C14.6945 74.3395 13.832 73.9836 13.1959 73.351C12.5598 72.7184 12.202 71.8607 12.201 70.966V64.4216C12.202 63.5269 12.5598 62.6692 13.1959 62.0366C13.832 61.404 14.6945 61.0481 15.5941 61.0471H22.1747C23.0743 61.0481 23.9368 61.404 24.5729 62.0366C25.209 62.6692 25.5668 63.5269 25.5678 64.4216V70.966C25.5668 71.8607 25.209 72.7184 24.5729 73.351C23.9368 73.9836 23.0743 74.3395 22.1747 74.3405Z" fill="#F9A826"/>
<path d="M104.707 73.2158H32.1152C31.6789 73.2158 31.2605 73.0434 30.9519 72.7366C30.6434 72.4298 30.4701 72.0136 30.4701 71.5797C30.4701 71.1458 30.6434 70.7296 30.9519 70.4228C31.2605 70.116 31.6789 69.9436 32.1152 69.9436H104.707C105.144 69.9436 105.562 70.116 105.871 70.4228C106.179 70.7296 106.353 71.1458 106.353 71.5797C106.353 72.0136 106.179 72.4298 105.871 72.7366C105.562 73.0434 105.144 73.2158 104.707 73.2158Z" fill="#CCCCCC"/>
<path d="M81.0584 66.2622H32.1152C31.6789 66.2622 31.2605 66.0898 30.9519 65.783C30.6434 65.4762 30.4701 65.06 30.4701 64.6261C30.4701 64.1922 30.6434 63.776 30.9519 63.4692C31.2605 63.1624 31.6789 62.99 32.1152 62.99H81.0584C81.4947 62.99 81.9132 63.1624 82.2217 63.4692C82.5302 63.776 82.7035 64.1922 82.7035 64.6261C82.7035 65.06 82.5302 65.4762 82.2217 65.783C81.9132 66.0898 81.4947 66.2622 81.0584 66.2622Z" fill="#CCCCCC"/>
<path d="M22.1747 102.359H15.5941C14.6945 102.358 13.832 102.002 13.1959 101.37C12.5598 100.737 12.202 99.8792 12.201 98.9846V92.4401C12.202 91.5455 12.5598 90.6878 13.1959 90.0551C13.832 89.4225 14.6945 89.0667 15.5941 89.0657H22.1747C23.0743 89.0667 23.9368 89.4225 24.5729 90.0551C25.209 90.6878 25.5668 91.5455 25.5678 92.4401V98.9846C25.5668 99.8792 25.209 100.737 24.5729 101.37C23.9368 102.002 23.0743 102.358 22.1747 102.359Z" fill="#F9A826"/>
<path d="M104.707 101.234H32.1152C31.6789 101.234 31.2605 101.062 30.9519 100.755C30.6434 100.448 30.4701 100.032 30.4701 99.598C30.4701 99.1641 30.6434 98.748 30.9519 98.4411C31.2605 98.1343 31.6789 97.9619 32.1152 97.9619H104.707C105.144 97.9619 105.562 98.1343 105.871 98.4411C106.179 98.748 106.353 99.1641 106.353 99.598C106.353 100.032 106.179 100.448 105.871 100.755C105.562 101.062 105.144 101.234 104.707 101.234Z" fill="#CCCCCC"/>
<path d="M81.0584 94.2808H32.1152C31.6789 94.2808 31.2605 94.1084 30.9519 93.8016C30.6434 93.4947 30.4701 93.0786 30.4701 92.6447C30.4701 92.2107 30.6434 91.7946 30.9519 91.4877C31.2605 91.1809 31.6789 91.0085 32.1152 91.0085H81.0584C81.4947 91.0085 81.9132 91.1809 82.2217 91.4877C82.5302 91.7946 82.7035 92.2107 82.7035 92.6447C82.7035 93.0786 82.5302 93.4947 82.2217 93.8016C81.9132 94.1084 81.4947 94.2808 81.0584 94.2808Z" fill="#CCCCCC"/>
<path d="M117.217 35.7897C119.829 35.7897 121.947 33.6837 121.947 31.0859C121.947 28.488 119.829 26.3821 117.217 26.3821C114.605 26.3821 112.487 28.488 112.487 31.0859C112.487 33.6837 114.605 35.7897 117.217 35.7897Z" fill="#3F3D56"/>
<path d="M119.068 33.029C119.041 33.029 119.014 33.0237 118.989 33.0134C118.964 33.0032 118.941 32.9881 118.922 32.9691L115.221 29.2878C115.182 29.2495 115.16 29.1974 115.16 29.1432C115.16 29.089 115.182 29.037 115.221 28.9986C115.259 28.9603 115.312 28.9387 115.366 28.9387C115.421 28.9387 115.473 28.9603 115.511 28.9986L119.213 32.6799C119.242 32.7085 119.261 32.7449 119.269 32.7846C119.277 32.8242 119.273 32.8653 119.258 32.9027C119.242 32.9401 119.216 32.972 119.182 32.9945C119.148 33.017 119.108 33.029 119.068 33.029L119.068 33.029Z" fill="white"/>
<path d="M115.366 33.029C115.325 33.029 115.286 33.017 115.252 32.9945C115.218 32.972 115.192 32.9401 115.176 32.9027C115.161 32.8653 115.156 32.8242 115.164 32.7846C115.172 32.7449 115.192 32.7085 115.221 32.6799L118.922 28.9986C118.941 28.9796 118.964 28.9646 118.989 28.9543C119.014 28.944 119.041 28.9387 119.068 28.9387C119.095 28.9387 119.121 28.944 119.146 28.9543C119.171 28.9646 119.194 28.9796 119.213 28.9986C119.232 29.0176 119.247 29.0401 119.258 29.065C119.268 29.0898 119.273 29.1164 119.273 29.1432C119.273 29.1701 119.268 29.1967 119.258 29.2215C119.247 29.2463 119.232 29.2688 119.213 29.2878L115.511 32.9691C115.492 32.9881 115.47 33.0032 115.445 33.0134C115.42 33.0237 115.393 33.029 115.366 33.029Z" fill="white"/>
<path d="M164.825 86.8131C170.904 86.8131 175.831 81.9127 175.831 75.8677C175.831 69.8228 170.904 64.9224 164.825 64.9224C158.747 64.9224 153.819 69.8228 153.819 75.8677C153.819 81.9127 158.747 86.8131 164.825 86.8131Z" fill="#F9A826"/>
<path d="M165.634 143.53V118.372C165.635 118.02 165.776 117.682 166.026 117.433C166.277 117.183 166.616 117.043 166.971 117.043H170.006C170.36 117.043 170.7 117.183 170.951 117.433C171.201 117.682 171.342 118.02 171.343 118.372V143.53C171.342 143.883 171.201 144.221 170.951 144.47C170.7 144.719 170.36 144.859 170.006 144.86H166.971C166.616 144.859 166.277 144.719 166.026 144.47C165.776 144.221 165.635 143.883 165.634 143.53Z" fill="#2F2E41"/>
<path d="M159.22 143.53V118.372C159.22 118.02 159.361 117.682 159.612 117.433C159.862 117.183 160.202 117.043 160.556 117.043H163.592C163.946 117.043 164.286 117.183 164.536 117.433C164.787 117.682 164.928 118.02 164.928 118.372V143.53C164.928 143.883 164.787 144.221 164.536 144.47C164.286 144.719 163.946 144.859 163.592 144.86H160.556C160.202 144.859 159.862 144.719 159.612 144.47C159.361 144.221 159.22 143.883 159.22 143.53Z" fill="#2F2E41"/>
<path d="M171.846 121.33H158.055C157.673 121.329 157.308 121.178 157.038 120.91C156.768 120.642 156.616 120.278 156.616 119.898V97.6176C156.616 95.4191 157.494 93.3107 159.057 91.7562C160.62 90.2017 162.74 89.3284 164.951 89.3284C167.161 89.3284 169.281 90.2017 170.844 91.7562C172.407 93.3107 173.286 95.4191 173.286 97.6176V119.898C173.285 120.278 173.133 120.642 172.863 120.91C172.594 121.178 172.228 121.329 171.846 121.33Z" fill="#2F2E41"/>
<path d="M155.531 80.7062L155.543 80.2972C154.777 80.276 154.103 80.2283 153.596 79.86C153.452 79.7496 153.334 79.6098 153.25 79.45C153.165 79.2902 153.116 79.1142 153.106 78.9339C153.097 78.8237 153.114 78.713 153.155 78.6103C153.196 78.5077 153.261 78.4158 153.343 78.3419C153.68 78.0593 154.221 78.1508 154.616 78.3307L154.956 78.4859L154.304 73.7432L153.896 73.7987L154.451 77.833C153.915 77.6763 153.418 77.7438 153.078 78.0296C152.947 78.143 152.845 78.285 152.778 78.4443C152.712 78.6037 152.684 78.7762 152.695 78.9483C152.707 79.1905 152.772 79.4272 152.886 79.6417C153 79.8563 153.159 80.0435 153.353 80.1903C154.005 80.6637 154.851 80.6872 155.531 80.7062Z" fill="#2F2E41"/>
<path d="M158.873 74.1467H156.658V74.5558H158.873V74.1467Z" fill="#2F2E41"/>
<path d="M169.179 119.883C169.05 119.765 168.945 119.623 168.871 119.464C168.797 119.306 168.756 119.134 168.749 118.96L167.701 93.8234C167.694 93.649 167.721 93.4749 167.782 93.311C167.842 93.147 167.934 92.9966 168.053 92.8681C168.172 92.7397 168.315 92.6358 168.474 92.5623C168.634 92.4889 168.806 92.4474 168.981 92.4402L172.014 92.3151C172.368 92.3008 172.713 92.4269 172.974 92.6656C173.235 92.9043 173.39 93.2361 173.405 93.5882L174.453 118.725C174.467 119.077 174.34 119.42 174.1 119.68C173.86 119.939 173.526 120.093 173.172 120.108L170.14 120.233C170.043 120.237 169.946 120.231 169.851 120.214C169.6 120.17 169.366 120.055 169.179 119.883Z" fill="#F9A826"/>
<path d="M173.049 102.87H168.114C167.759 102.87 167.42 102.73 167.169 102.48C166.918 102.231 166.777 101.893 166.777 101.541V94.5875C166.777 93.584 167.178 92.6217 167.891 91.9121C168.605 91.2026 169.572 90.804 170.581 90.804C171.59 90.804 172.558 91.2026 173.272 91.9121C173.985 92.6217 174.386 93.584 174.386 94.5875V101.541C174.385 101.893 174.244 102.231 173.994 102.48C173.743 102.73 173.404 102.87 173.049 102.87Z" fill="#2F2E41"/>
<path d="M141.355 112.185L139.42 109.86C139.195 109.588 139.087 109.238 139.12 108.887C139.153 108.537 139.325 108.213 139.598 107.988L159.089 91.951C159.362 91.7265 159.714 91.619 160.067 91.6521C160.42 91.6853 160.745 91.8563 160.971 92.1277L162.906 94.4536C163.018 94.5881 163.102 94.7432 163.153 94.91C163.205 95.0769 163.223 95.2522 163.207 95.426C163.19 95.5998 163.139 95.7687 163.057 95.9229C162.975 96.0772 162.863 96.2139 162.728 96.3252L143.237 112.362C143.002 112.555 142.708 112.663 142.404 112.667C142.099 112.672 141.803 112.573 141.562 112.387C141.486 112.327 141.417 112.26 141.355 112.185Z" fill="#F9A826"/>
<path d="M155.729 101.74L152.602 97.942C152.378 97.669 152.272 97.3188 152.307 96.9681C152.342 96.6174 152.516 96.2949 152.79 96.0713L158.2 91.6665C158.587 91.3516 159.032 91.1156 159.51 90.9718C159.988 90.8281 160.491 90.7794 160.988 90.8287C161.485 90.8779 161.968 91.0241 162.408 91.2589C162.848 91.4936 163.238 91.8123 163.554 92.1968C163.871 92.5814 164.108 93.0241 164.253 93.4998C164.397 93.9755 164.446 94.4749 164.396 94.9693C164.347 95.4638 164.2 95.9437 163.963 96.3816C163.727 96.8196 163.407 97.2069 163.02 97.5216L157.61 101.926C157.335 102.149 156.983 102.255 156.631 102.22C156.278 102.185 155.954 102.012 155.729 101.74Z" fill="#2F2E41"/>
<path d="M142.446 102.663L142.391 102.712L141.062 101.201C140.961 101.086 140.838 100.993 140.7 100.925C140.563 100.857 140.413 100.817 140.26 100.807C140.107 100.797 139.954 100.817 139.808 100.866C139.663 100.915 139.529 100.992 139.413 101.092L136.196 103.893C135.963 104.096 135.82 104.383 135.8 104.69C135.779 104.998 135.882 105.3 136.086 105.532L143.379 113.818C143.48 113.933 143.602 114.027 143.74 114.094C143.877 114.162 144.027 114.202 144.18 114.212C144.333 114.222 144.487 114.202 144.632 114.153C144.777 114.105 144.912 114.028 145.027 113.927L148.245 111.126C148.478 110.924 148.62 110.637 148.641 110.329C148.661 110.022 148.558 109.719 148.354 109.487L143.337 103.787L143.393 103.738L142.446 102.663Z" fill="#3F3D56"/>
<path d="M139.769 101.575L139.368 101.924C139.426 101.953 139.476 101.995 139.514 102.048C139.551 102.1 139.575 102.161 139.583 102.225C139.592 102.289 139.584 102.354 139.561 102.414C139.538 102.475 139.5 102.528 139.452 102.571L137.693 104.101C137.645 104.144 137.586 104.174 137.523 104.188C137.46 104.203 137.394 104.202 137.331 104.185C137.269 104.169 137.211 104.137 137.164 104.093C137.116 104.049 137.08 103.995 137.059 103.934L136.685 104.259C136.603 104.331 136.536 104.418 136.487 104.515C136.439 104.613 136.41 104.719 136.403 104.827C136.396 104.935 136.41 105.044 136.445 105.147C136.48 105.25 136.535 105.345 136.607 105.427L143.553 113.319C143.698 113.484 143.903 113.585 144.124 113.6C144.344 113.614 144.561 113.541 144.727 113.397L147.811 110.712C147.977 110.568 148.078 110.363 148.093 110.144C148.108 109.925 148.034 109.71 147.889 109.544L140.943 101.653C140.798 101.487 140.592 101.387 140.372 101.372C140.152 101.357 139.935 101.43 139.769 101.575Z" fill="white"/>
<path d="M167.585 77.7211C168.158 76.7689 168.606 75.7198 168.393 74.5916C168.203 73.5842 167.474 72.7997 166.426 72.6967C165.795 72.6347 165.166 72.8023 164.55 72.9114C164.045 72.9997 163.531 73.0328 163.018 73.0101C161.987 72.9635 160.976 72.7085 160.047 72.2607C159.103 71.8218 158.266 71.1871 157.59 70.3993C156.914 69.6116 156.415 68.689 156.128 67.6937C155.502 65.4289 155.967 62.8572 157.452 61.0137L156.937 60.8784L157.608 63.0716C157.621 63.1166 157.644 63.158 157.676 63.1928C157.707 63.2276 157.746 63.2549 157.79 63.2725C157.833 63.2902 157.88 63.2977 157.927 63.2947C157.974 63.2917 158.02 63.2781 158.061 63.255C159.278 62.4905 160.638 61.9797 162.059 61.7538C163.48 61.5278 164.932 61.5913 166.328 61.9405C167.117 62.1376 167.878 62.4289 168.596 62.8082C168.947 62.9935 169.259 62.4641 168.908 62.2784C167.559 61.5787 166.081 61.1583 164.565 61.0427C163.048 60.9272 161.523 61.1188 160.083 61.6061C159.262 61.8841 158.479 62.2599 157.75 62.7252L158.203 62.9085L157.531 60.7153C157.516 60.664 157.488 60.6174 157.45 60.5801C157.412 60.5428 157.364 60.5161 157.312 60.5024C157.26 60.4888 157.206 60.4888 157.154 60.5023C157.102 60.5159 157.054 60.5426 157.016 60.5799C156.325 61.4515 155.819 62.4532 155.527 63.5246C155.236 64.596 155.166 65.7149 155.321 66.814C155.471 67.8973 155.85 68.9368 156.432 69.8644C157.014 70.792 157.787 71.5868 158.7 72.1966C159.611 72.8086 160.636 73.2348 161.715 73.4504C162.793 73.6661 163.904 73.6668 164.983 73.4527C165.586 73.3373 166.271 73.172 166.864 73.4235C167.078 73.5265 167.268 73.6754 167.418 73.8595C167.569 74.0435 167.677 74.2583 167.734 74.4885C168.07 75.6197 167.499 76.694 166.915 77.6346L167.585 77.7211Z" fill="#2F2E41"/>
<path d="M162.071 99.2407L162.063 99.2406C161.949 99.2402 161.837 99.201 161.747 99.1294C161.658 99.0578 161.595 98.958 161.57 98.8464L161.61 90.3247C161.584 90.2093 161.599 90.0886 161.651 89.9825C161.703 89.8763 161.791 89.7912 161.898 89.7412C163.39 89.0444 164.931 88.9507 166.61 89.4554C166.739 89.4932 166.847 89.5794 166.913 89.6956C166.978 89.8118 166.996 89.9489 166.961 90.0776L162.568 98.8602C162.54 98.9698 162.476 99.0669 162.386 99.1359C162.296 99.2049 162.185 99.2418 162.071 99.2407Z" fill="#CCCCCC"/>
<path d="M190.794 145H139.795C139.74 145 139.688 144.979 139.649 144.94C139.611 144.902 139.589 144.85 139.589 144.796C139.589 144.741 139.611 144.689 139.649 144.651C139.688 144.613 139.74 144.591 139.795 144.591H190.794C190.849 144.591 190.901 144.613 190.94 144.651C190.978 144.689 191 144.741 191 144.796C191 144.85 190.978 144.902 190.94 144.94C190.901 144.979 190.849 145 190.794 145Z" fill="#3F3D56"/>
</g>
<defs>
<clipPath id="clip0_628_2061">
<rect width="191" height="145" fill="white"/>
</clipPath>
</defs>
</svg>
