<svg width="20" height="14" viewBox="0 0 20 14" fill="none" xmlns="http://www.w3.org/2000/svg">
<path d="M7.50008 9.49984L5.02675 11.9732C4.75147 12.2484 4.40078 12.4358 4.019 12.5117C3.63722 12.5876 3.2415 12.5487 2.88187 12.3997C2.52225 12.2508 2.21486 11.9985 1.99857 11.6749C1.78228 11.3513 1.66681 10.9708 1.66675 10.5815V9.49984L2.79758 3.8465C2.94862 3.09086 3.3568 2.41088 3.95268 1.92227C4.54856 1.43365 5.29532 1.16658 6.06591 1.1665H13.9342C14.7048 1.16658 15.4516 1.43365 16.0475 1.92227C16.6434 2.41088 17.0515 3.09086 17.2026 3.8465L18.3334 9.49984V10.5807C18.3334 10.9699 18.2179 11.3504 18.0016 11.6741C17.7853 11.9977 17.4779 12.2499 17.1183 12.3989C16.7587 12.5478 16.3629 12.5868 15.9812 12.5109C15.5994 12.435 15.2487 12.2476 14.9734 11.9723L12.5001 9.49984H7.50008Z" stroke="#212527" stroke-width="2" stroke-linecap="round" stroke-linejoin="round"/>
<path d="M7.5 1.1665L8.33333 2.83317H11.6667L12.5 1.1665" stroke="#212527" stroke-width="2" stroke-linecap="round" stroke-linejoin="round"/>
</svg>
