<svg width="14" height="16" viewBox="0 0 14 16" fill="none" xmlns="http://www.w3.org/2000/svg">
<path d="M12.75 7.25022C12.9312 7.25023 13.1063 7.31586 13.2429 7.43499C13.3795 7.55411 13.4684 7.71867 13.493 7.89822L13.5 8.00022V13.2502C13.5 13.9505 13.2329 14.6244 12.7531 15.1345C12.2733 15.6446 11.617 15.9524 10.918 15.9952L10.75 16.0002H3.25C2.54971 16.0003 1.87579 15.7331 1.3657 15.2533C0.855612 14.7735 0.547781 14.1172 0.505 13.4182L0.5 13.2502V8.00022C0.500058 7.8102 0.572245 7.62728 0.701973 7.48843C0.831701 7.34958 1.0093 7.26515 1.19888 7.25219C1.38846 7.23924 1.57589 7.29874 1.7233 7.41865C1.87071 7.53857 1.9671 7.70997 1.993 7.89822L2 8.00022V13.2502C2 13.8972 2.492 14.4302 3.122 14.4942L3.25 14.5002H10.75C11.0593 14.5001 11.3576 14.3854 11.5871 14.1781C11.8167 13.9709 11.9613 13.6859 11.993 13.3782L12 13.2502V8.00022C12 7.80131 12.079 7.61054 12.2197 7.46989C12.3603 7.32924 12.5511 7.25022 12.75 7.25022ZM2.227 4.46222L6.47 0.220221C6.59699 0.0932031 6.76534 0.0159749 6.94445 0.00257841C7.12356 -0.0108181 7.30153 0.0405069 7.446 0.147221L7.53 0.220221L11.773 4.46222C11.9089 4.59566 11.989 4.77582 11.9969 4.96612C12.0048 5.15643 11.9401 5.34262 11.8158 5.48692C11.6914 5.63122 11.5169 5.72282 11.3275 5.74311C11.1381 5.76341 10.9481 5.7109 10.796 5.59622L10.712 5.52322L7.75 2.56022V10.2502C7.74999 10.4315 7.68436 10.6066 7.56523 10.7432C7.44611 10.8797 7.28155 10.9686 7.102 10.9932L7 11.0002C6.81876 11.0002 6.64366 10.9346 6.50707 10.8155C6.37048 10.6963 6.28165 10.5318 6.257 10.3522L6.25 10.2502V2.56022L3.288 5.52322C3.16095 5.6505 2.9924 5.72789 2.81307 5.74129C2.63373 5.75469 2.45555 5.70321 2.311 5.59622L2.227 5.52322C2.09972 5.39617 2.02233 5.22762 2.00893 5.04829C1.99553 4.86895 2.04701 4.69077 2.154 4.54622L2.227 4.46222L6.47 0.220221L2.227 4.46222Z" fill="black"/>
</svg>
