<svg width="145" height="148" viewBox="0 0 145 148" fill="none" xmlns="http://www.w3.org/2000/svg">
<g clip-path="url(#clip0_628_1973)">
<path d="M31.7703 56.4709C26.8798 49.9261 17.9289 48.3465 13.481 51.6703C9.03315 54.994 8.01143 64.0257 12.902 70.5705C17.4288 76.6285 25.6303 78.2806 30.1476 76.011C30.133 76.0819 30.1321 76.1549 30.1449 76.2261L30.3996 77.4852C30.419 77.5812 30.4627 77.6706 30.5264 77.745C30.5901 77.8194 30.6717 77.8762 30.7636 77.9102C30.8554 77.9441 30.9544 77.954 31.0512 77.9389C31.1479 77.9239 31.2392 77.8843 31.3164 77.824L33.4731 76.1391C33.5502 76.0788 33.6107 75.9998 33.6488 75.9096C33.6868 75.8194 33.7012 75.7209 33.6905 75.6236C33.6798 75.5262 33.6443 75.4332 33.5876 75.3534C33.5308 75.2736 33.4546 75.2096 33.3662 75.1676L32.2061 74.6158C32.1653 74.5975 32.1224 74.584 32.0784 74.5757C35.5604 70.8945 36.307 62.5421 31.7703 56.4709Z" fill="#CCCCCC"/>
<path d="M21.0724 54.0002C23.4647 54.3802 25.6198 55.6642 27.0928 57.5872C28.5659 59.5101 29.2444 61.9252 28.9884 64.334C28.9359 64.8858 29.798 64.8821 29.8502 64.334C30.0968 61.7377 29.3528 59.1442 27.7673 57.0736C26.1818 55.003 23.8722 53.6083 21.3015 53.1692C20.759 53.077 20.5259 53.9073 21.0724 54.0002Z" fill="white"/>
<path d="M144.139 64.6654C146.77 56.9306 143.01 48.6554 137.754 46.8669C132.497 45.0785 124.471 49.3438 121.839 57.0786C119.404 64.2381 122.679 71.9364 127.106 74.3783C127.039 74.4063 126.979 74.4469 126.927 74.4977L126.033 75.4199C125.965 75.4902 125.916 75.5767 125.89 75.6713C125.865 75.7659 125.864 75.8654 125.888 75.9604C125.912 76.0553 125.96 76.1426 126.027 76.2138C126.094 76.2851 126.179 76.338 126.272 76.3676L128.881 77.1933C128.975 77.2229 129.074 77.2281 129.17 77.2084C129.266 77.1887 129.355 77.1449 129.429 77.081C129.504 77.0171 129.56 76.9353 129.594 76.8434C129.628 76.7514 129.637 76.6524 129.622 76.5557L129.421 75.2869C129.413 75.2428 129.4 75.1999 129.382 75.1589C134.387 75.9486 141.697 71.8405 144.139 64.6654Z" fill="#CCCCCC"/>
<path d="M140.126 54.4457C141.166 56.6336 141.326 59.1371 140.573 61.4395C139.82 63.7419 138.212 65.6674 136.081 66.8186C135.596 67.0873 136.087 67.7962 136.568 67.5293C138.849 66.2643 140.567 64.1839 141.378 61.7053C142.189 59.2267 142.033 56.5331 140.941 54.1647C140.71 53.6652 139.894 53.9425 140.126 54.4457Z" fill="white"/>
<path d="M82.3157 14.2707C81.9582 6.10828 75.4497 -0.236236 69.9025 0.00675241C64.3553 0.249741 58.4264 7.13905 58.784 15.3014C59.1149 22.8567 64.9631 28.8394 69.9743 29.5067C69.9224 29.5571 69.8806 29.6169 69.8511 29.683L69.3528 30.867C69.3148 30.9572 69.3005 31.0557 69.3113 31.153C69.322 31.2504 69.3575 31.3433 69.4143 31.4231C69.4711 31.5029 69.5474 31.5668 69.6358 31.6088C69.7243 31.6508 69.822 31.6695 69.9197 31.6631L72.6507 31.4847C72.7484 31.4784 72.8429 31.4471 72.9251 31.3939C73.0074 31.3408 73.0747 31.2675 73.1206 31.181C73.1666 31.0945 73.1896 30.9977 73.1877 30.8998C73.1857 30.8019 73.1587 30.7061 73.1093 30.6216L72.4611 29.5125C72.4377 29.4743 72.4098 29.4391 72.3782 29.4075C77.3283 28.3253 82.6474 21.8424 82.3157 14.2707Z" fill="#F9A826"/>
<path d="M74.8655 6.20606C76.6288 7.86692 77.6871 10.1414 77.822 12.5599C77.9569 14.9785 77.1582 17.3565 75.5906 19.2032C75.2365 19.6297 75.951 20.112 76.3028 19.6884C77.9682 17.6814 78.8132 15.1191 78.6686 12.5152C78.5239 9.91126 77.4001 7.45831 75.5227 5.64825C75.1263 5.26666 74.4662 5.82165 74.8655 6.20606Z" fill="white"/>
<path d="M82.7643 85.233C89.2295 85.233 94.4705 79.9919 94.4705 73.5267C94.4705 67.0614 89.2295 61.8203 82.7643 61.8203C76.2992 61.8203 71.0581 67.0614 71.0581 73.5267C71.0581 79.9919 76.2992 85.233 82.7643 85.233Z" fill="#F9A826"/>
<path d="M82.2321 147.753H79.0038C78.6268 147.752 78.2655 147.602 77.9989 147.336C77.7324 147.069 77.5825 146.708 77.582 146.331V119.424C77.5825 119.047 77.7324 118.685 77.9989 118.419C78.2655 118.152 78.6268 118.002 79.0038 118.002H82.232C82.609 118.002 82.9704 118.152 83.2369 118.419C83.5034 118.685 83.6533 119.047 83.6538 119.424V146.331C83.6533 146.708 83.5034 147.069 83.2369 147.336C82.9704 147.602 82.609 147.752 82.2321 147.753Z" fill="#F9A826"/>
<path d="M92.5729 147.753H89.3446C88.9677 147.752 88.6063 147.602 88.3398 147.336C88.0732 147.069 87.9233 146.708 87.9229 146.331V119.424C87.9233 119.047 88.0732 118.685 88.3398 118.419C88.6063 118.152 88.9677 118.002 89.3446 118.002H92.5729C92.9498 118.002 93.3112 118.152 93.5777 118.419C93.8442 118.685 93.9942 119.047 93.9946 119.424V146.331C93.9942 146.708 93.8442 147.069 93.5777 147.336C93.3112 147.602 92.9498 147.752 92.5729 147.753Z" fill="#F9A826"/>
<path d="M74.1607 96.2816L72.7759 99.1978C72.6138 99.5381 72.3233 99.8002 71.9682 99.9267C71.6131 100.053 71.2224 100.034 70.8817 99.8722L46.5764 88.3297C46.2361 88.1676 45.974 87.8772 45.8476 87.5221C45.7212 87.167 45.7407 86.7762 45.9021 86.4355L47.2869 83.5193C47.449 83.179 47.7395 82.9169 48.0946 82.7905C48.4497 82.664 48.8404 82.6836 49.1811 82.8449L73.4863 94.3874C73.8267 94.5495 74.0888 94.84 74.2152 95.1951C74.3416 95.5502 74.322 95.9409 74.1607 96.2816Z" fill="#F9A826"/>
<path d="M77.8225 97.8449C77.8912 98.1762 77.8385 98.5211 77.6741 98.8167L76.1138 101.643C75.9312 101.973 75.6253 102.217 75.2631 102.321C74.9009 102.426 74.5121 102.382 74.1819 102.2L62.7603 97.1653C62.4305 96.9828 62.1866 96.6768 62.0821 96.3147C61.9777 95.9525 62.0211 95.5637 62.203 95.2335L62.203 95.2334L65.0651 89.8791C65.1553 89.7156 65.2768 89.5716 65.4228 89.4551C65.5687 89.3386 65.7361 89.252 65.9155 89.2003C66.0949 89.1485 66.2827 89.1326 66.4682 89.1534C66.6538 89.1742 66.8334 89.2314 66.9968 89.3217L77.2548 96.1027C77.5872 96.2862 77.6901 97.3704 77.7956 97.7352C77.8061 97.7717 77.815 97.8083 77.8225 97.8449Z" fill="#2F2E41"/>
<path d="M91.865 94.3874L116.17 82.8449C116.511 82.6836 116.902 82.664 117.257 82.7905C117.612 82.9169 117.902 83.179 118.064 83.5193L119.449 86.4355C119.611 86.7762 119.63 87.167 119.504 87.5221C119.377 87.8772 119.115 88.1676 118.775 88.3297L94.4697 99.8722C94.129 100.034 93.7382 100.053 93.3831 99.9267C93.028 99.8002 92.7376 99.5381 92.5755 99.1978L91.1906 96.2816C91.0293 95.9409 91.0097 95.5502 91.1362 95.1951C91.2626 94.84 91.5247 94.5495 91.865 94.3874Z" fill="#F9A826"/>
<path d="M87.5558 97.7352C87.6612 97.3704 87.7641 96.2862 88.0965 96.1027L98.3546 89.3217C98.518 89.2314 98.6976 89.1742 98.8831 89.1534C99.0687 89.1326 99.2565 89.1485 99.4359 89.2003C99.6153 89.252 99.7827 89.3386 99.9286 89.4551C100.075 89.5716 100.196 89.7156 100.286 89.8791L103.148 95.2334L103.148 95.2335C103.33 95.5637 103.374 95.9525 103.269 96.3147C103.165 96.6768 102.921 96.9828 102.591 97.1653L91.1695 102.2C90.8393 102.382 90.4504 102.426 90.0883 102.321C89.7261 102.217 89.4202 101.973 89.2376 101.643L87.6773 98.8168C87.5129 98.5211 87.4602 98.1762 87.5289 97.8449C87.5364 97.8083 87.5453 97.7717 87.5558 97.7352Z" fill="#2F2E41"/>
<path d="M81.2055 77.8656L81.1934 77.4282C82.0072 77.4055 82.7247 77.3545 83.2638 76.9606C83.4167 76.8426 83.5423 76.693 83.6322 76.5221C83.7221 76.3512 83.7741 76.1629 83.7847 75.9701C83.7942 75.8523 83.7763 75.7339 83.7326 75.624C83.6889 75.5142 83.6204 75.416 83.5325 75.337C83.1746 75.0347 82.5988 75.1325 82.179 75.325L81.8171 75.491L82.5112 70.4185L82.9446 70.4778L82.3542 74.7927C82.5959 74.703 82.8561 74.6753 83.1113 74.712C83.3664 74.7487 83.6083 74.8487 83.8149 75.0029C83.9539 75.1242 84.063 75.276 84.1335 75.4465C84.2041 75.6169 84.2344 75.8014 84.2218 75.9855C84.2091 76.2445 84.1398 76.4977 84.0189 76.7271C83.898 76.9566 83.7283 77.1569 83.5219 77.3139C82.8291 77.8201 81.9289 77.8453 81.2055 77.8656Z" fill="#2F2E41"/>
<path d="M87.4444 70.8496H85.0884V71.2871H87.4444V70.8496Z" fill="#2F2E41"/>
<path d="M80.0074 70.8496H77.6514V71.2871H80.0074V70.8496Z" fill="#2F2E41"/>
<path d="M86.7995 90.7045H87.2715C87.4602 90.7048 87.6472 90.6678 87.8217 90.5957C87.9961 90.5237 88.1547 90.4179 88.2882 90.2845C88.4218 90.1511 88.5277 89.9927 88.6 89.8183C88.6723 89.644 88.7095 89.4571 88.7095 89.2683C88.7095 89.0795 88.6723 88.8926 88.6 88.7182C88.5277 88.5439 88.4218 88.3854 88.2882 88.2521C88.1547 88.1187 87.9961 88.0129 87.8217 87.9408C87.6472 87.8688 87.4602 87.8318 87.2715 87.832H78.0795C77.6989 87.8325 77.3341 87.9841 77.0651 88.2534C76.7962 88.5227 76.6451 88.8877 76.6451 89.2683C76.6451 89.6489 76.7962 90.0139 77.0651 90.2832C77.3341 90.5525 77.6989 90.7041 78.0795 90.7045H78.9429C71.5661 94.0608 66.8325 106.459 66.8325 114.185C66.8325 123.185 73.3281 126.088 82.8714 126.088C92.4147 126.088 101.392 123.185 101.392 114.185C101.392 106.459 94.7241 94.0608 86.7995 90.7045Z" fill="#2F2E41"/>
<path d="M82.2819 66.8411C81.9966 65.9744 80.9677 65.7083 80.1757 66.0353C79.2471 66.4188 78.7205 67.3687 77.8236 67.8177C76.2104 68.6253 74.0703 68.1916 72.8404 66.8971C71.4954 65.4814 71.2306 63.2723 71.9074 61.485C72.6074 59.6365 74.3439 58.2986 76.2031 57.7552C78.6737 57.0331 81.3243 57.6958 83.4642 59.0276C83.5214 59.0601 83.5852 59.0793 83.6508 59.0836C83.7165 59.0879 83.7823 59.0773 83.8432 59.0525C83.9041 59.0277 83.9587 58.9894 84.0027 58.9405C84.0466 58.8915 84.079 58.8333 84.0972 58.7701C84.6856 56.5218 87.224 55.8674 89.2636 56.1087C91.2769 56.3859 93.192 57.1502 94.843 58.3353C98.0317 60.56 100.28 64.1836 100.595 68.0848C100.746 70.0913 100.457 72.1067 99.7475 73.9898C99.0383 75.8729 97.9261 77.5783 96.4887 78.9865C95.7698 79.6801 94.9321 80.2257 94.1994 80.9016C93.5318 81.5174 92.8737 82.3274 92.887 83.2859C92.9177 85.4899 95.8178 86.0977 97.5341 86.1638C99.6646 86.259 101.757 85.575 103.42 84.2396C105.082 82.9043 106.202 81.009 106.569 78.9082C106.661 78.3968 106.708 77.8784 106.711 77.3589C106.713 76.8043 105.852 76.8036 105.849 77.3589C105.833 79.4533 105.009 81.4606 103.549 82.9622C102.798 83.7151 101.905 84.3105 100.921 84.7134C99.9369 85.1163 98.8825 85.3186 97.8194 85.3084C96.4493 85.3016 92.7371 84.652 93.9813 82.4846C94.4677 81.6371 95.3406 81.0601 96.0929 80.4704C96.8757 79.8553 97.5865 79.1536 98.2117 78.3789C99.4708 76.8241 100.399 75.0283 100.939 73.1018C101.479 71.1754 101.62 69.1589 101.352 67.1761C100.797 63.2901 98.4406 59.7789 95.2353 57.5615C92.1837 55.4503 86.5431 53.5831 83.8759 57.2409C83.5933 57.6324 83.3865 58.0734 83.2662 58.541L83.8992 58.2835C81.8375 57.0003 79.38 56.3347 76.9569 56.7059C75.914 56.8631 74.914 57.2314 74.0183 57.7883C73.1226 58.3452 72.35 59.079 71.7476 59.9448C71.17 60.8155 70.8165 61.8154 70.7184 62.8556C70.6204 63.8959 70.7807 64.9442 71.1853 65.9076C71.5816 66.8304 72.2349 67.6199 73.0672 68.1819C73.8996 68.7439 74.8759 69.0549 75.88 69.0776C76.9673 69.1213 78.0372 68.7938 78.9138 68.1491C79.4048 67.7748 79.7818 67.2449 80.313 66.9261C80.6173 66.7436 81.3012 66.6155 81.4509 67.0702C81.6235 67.5946 82.4559 67.3701 82.2819 66.8412V66.8411Z" fill="#2F2E41"/>
<path d="M101.814 24.2999C103.952 24.4346 106.028 25.0741 107.872 26.166C109.715 27.2579 111.273 28.7711 112.419 30.5816C112.74 31.0948 113.159 31.6589 112.937 32.2906C112.859 32.5328 112.702 32.7416 112.491 32.8829C112.279 33.0241 112.026 33.0894 111.773 33.0682C111.117 32.9884 110.694 32.3474 110.614 31.7331C110.522 31.0364 111.014 30.4894 111.621 30.2305C113.104 29.5979 114.6 30.5756 115.808 31.3558C118.56 33.1336 121.588 34.7414 124.923 34.944C128.009 35.1315 131.318 33.9215 133.034 31.2454C133.335 30.7772 132.589 30.3446 132.29 30.8105C130.588 33.4645 127.147 34.4177 124.155 34.0075C122.372 33.7261 120.65 33.1415 119.064 32.2791C118.242 31.8523 117.444 31.3792 116.662 30.8818C115.919 30.3629 115.131 29.911 114.307 29.5315C112.933 28.9673 111.115 29.0114 110.156 30.3104C109.261 31.5223 109.953 33.5399 111.45 33.8806C112.868 34.2035 114.111 32.8692 113.819 31.4741C113.67 30.7604 113.132 30.062 112.716 29.4787C111.467 27.7205 109.838 26.2652 107.952 25.2197C106.065 24.1743 103.967 23.5655 101.814 23.4381C101.26 23.4107 101.261 24.2725 101.814 24.2999L101.814 24.2999Z" fill="#CCCCCC"/>
<path d="M31.2902 37.8349C29.152 37.7002 27.0761 37.0606 25.2328 35.9687C23.3894 34.8768 21.8311 33.3636 20.6855 31.5531C20.3644 31.0399 19.9453 30.4759 20.1676 29.8441C20.245 29.6019 20.4023 29.3931 20.6138 29.2519C20.8252 29.1106 21.0784 29.0453 21.3318 29.0666C21.9871 29.1463 22.4099 29.7874 22.4907 30.4016C22.5822 31.0984 22.0907 31.6453 21.4838 31.9042C20.0008 32.5368 18.5046 31.5592 17.2966 30.7789C14.5441 29.0011 11.5167 27.3933 8.18138 27.1907C5.0955 27.0033 1.78636 28.2132 0.0699442 30.8893C-0.230349 31.3575 0.515243 31.7901 0.814047 31.3243C2.51631 28.6703 5.95756 27.7171 8.94968 28.1273C10.7328 28.4086 12.4545 28.9932 14.0404 29.8556C14.8628 30.2824 15.6604 30.7556 16.4419 31.2529C17.1856 31.7718 17.9738 32.2237 18.7974 32.6032C20.1709 33.1674 21.9891 33.1234 22.9485 31.8244C23.8435 30.6125 23.1518 28.5949 21.6548 28.2541C20.2361 27.9312 18.9932 29.2656 19.2852 30.6607C19.4345 31.3743 19.9719 32.0727 20.3879 32.6561C21.6377 34.4142 23.2659 35.8696 25.1528 36.915C27.0396 37.9604 29.1369 38.5692 31.2902 38.6966C31.8446 38.724 31.8431 37.8622 31.2902 37.8349L31.2902 37.8349Z" fill="#CCCCCC"/>
<path d="M130.668 148H41.0224C40.96 148 40.9001 147.975 40.856 147.931C40.8119 147.887 40.7871 147.827 40.7871 147.765C40.7871 147.702 40.8119 147.642 40.856 147.598C40.9001 147.554 40.96 147.529 41.0224 147.529H130.668C130.731 147.529 130.791 147.554 130.835 147.598C130.879 147.642 130.904 147.702 130.904 147.765C130.904 147.827 130.879 147.887 130.835 147.931C130.791 147.975 130.731 148 130.668 148Z" fill="#3F3D56"/>
</g>
<defs>
<clipPath id="clip0_628_1973">
<rect width="145" height="148" fill="white"/>
</clipPath>
</defs>
</svg>
