<svg width="174" height="93" viewBox="0 0 174 93" fill="none" xmlns="http://www.w3.org/2000/svg">
<g clip-path="url(#clip0_628_1634)">
<path d="M144.647 29.6235C144.479 29.8097 144.313 29.9959 144.15 30.1844L144.148 30.1868C141.9 32.7518 139.862 35.492 138.054 38.3811C137.912 38.605 137.772 38.8312 137.635 39.0574C133.369 46.0484 130.441 53.7667 129 61.8209C128.998 61.835 128.995 61.8468 128.993 61.861C128.671 63.6686 128.428 65.4879 128.264 67.3191C128.134 68.7402 128.054 70.1652 128.023 71.5942C127.891 77.5755 128.371 84.2403 124.465 88.784C122.998 90.4903 121.047 91.6828 118.913 92.4346C118.27 92.6604 117.615 92.8477 116.949 92.9954H106.512C106.37 92.9766 106.228 92.9554 106.084 92.9342C105.206 92.8046 104.331 92.6608 103.456 92.517L103.406 92.51L103.281 92.55L102.519 92.7975C102.519 92.7739 102.516 92.7503 102.516 92.7268C102.514 92.6844 102.512 92.6396 102.512 92.5972C102.509 92.543 102.507 92.4888 102.505 92.4346C102.502 92.3803 102.5 92.3285 102.5 92.2743C102.495 92.1847 102.49 92.0928 102.49 92.0009C101.984 77.9973 103.423 63.5107 110.155 51.2251C112.439 47.068 115.365 43.2944 118.825 40.0425C125.71 33.5828 134.59 29.3879 143.928 29.6C144.166 29.6047 144.405 29.6117 144.647 29.6235Z" fill="#F0F0F0"/>
<path d="M144.673 29.9208C134.197 35.1692 125.335 43.7859 119.984 54.2007C118.828 56.4523 117.851 58.8367 117.45 61.347C117.049 63.8583 117.401 66.2362 118.301 68.5994C119.123 70.7599 120.215 72.8749 120.496 75.1969C120.793 77.6444 119.927 79.9525 118.328 81.8C116.372 84.0606 113.718 85.4862 111.073 86.7904C108.137 88.2385 105.064 89.6963 103.013 92.34C102.764 92.6603 102.28 92.2573 102.528 91.9375C106.097 87.3379 112.327 86.3776 116.594 82.6485C118.585 80.9084 120.062 78.56 119.919 75.8406C119.794 73.4626 118.67 71.2806 117.818 69.1003C116.924 66.8109 116.457 64.5015 116.721 62.0398C116.991 59.5215 117.876 57.094 118.97 54.8228C121.49 49.6909 124.803 44.9855 128.79 40.879C133.313 36.1672 138.613 32.261 144.459 29.3295C144.821 29.1482 145.033 29.7407 144.673 29.9208L144.673 29.9208Z" fill="white"/>
<path d="M121.545 50.724C119.905 49.5721 118.729 47.8769 118.228 45.9413C117.726 44.0056 117.932 41.9555 118.808 40.157C118.987 39.7937 119.562 40.0529 119.383 40.4167C118.564 42.09 118.373 43.9997 118.843 45.8013C119.314 47.6028 120.415 49.1774 121.949 50.241C122.282 50.4725 121.876 50.9541 121.545 50.724H121.545Z" fill="white"/>
<path d="M117.739 67.5586C121.787 66.898 125.436 64.7417 127.959 61.5197C128.209 61.2002 128.693 61.6031 128.444 61.9222C125.812 65.2702 122.01 67.5065 117.796 68.1847C117.394 68.249 117.339 67.6226 117.739 67.5586Z" fill="white"/>
<path d="M133.638 36.9355C134.18 37.5129 134.857 37.9473 135.608 38.1998C136.36 38.4522 137.162 38.5147 137.944 38.3817C138.345 38.3123 138.399 38.9388 138.001 39.0078C137.137 39.1507 136.25 39.0806 135.419 38.8036C134.589 38.5265 133.838 38.0509 133.234 37.4184C133.172 37.3636 133.134 37.2873 133.126 37.205C133.119 37.1228 133.143 37.0408 133.194 36.9757C133.248 36.912 133.325 36.8721 133.408 36.8646C133.491 36.857 133.574 36.8825 133.638 36.9355Z" fill="white"/>
<path d="M173.752 68.2476C173.503 68.2971 173.259 68.3443 173.011 68.4008C173.009 68.4008 173.004 68.4032 173.002 68.4032C169.659 69.0984 166.379 70.0623 163.193 71.2854L163.191 71.2878C162.943 71.3773 162.692 71.474 162.448 71.5706H162.446C154.82 74.5955 147.822 79.0005 141.805 84.5631C141.794 84.5749 141.782 84.5843 141.77 84.5961C141.768 84.6008 141.763 84.6032 141.761 84.6055C141.753 84.6126 141.744 84.6197 141.737 84.6267C139.351 86.8454 137.137 89.2403 135.113 91.7911C134.945 92.0032 134.777 92.2177 134.609 92.4345C134.462 92.6207 134.318 92.8069 134.171 92.9954H102.235C102.287 92.92 102.346 92.8422 102.398 92.7668C102.398 92.7645 102.4 92.7645 102.4 92.7621C102.438 92.7079 102.476 92.6561 102.507 92.6042C102.509 92.6018 102.512 92.5995 102.512 92.5971C102.523 92.583 102.535 92.5665 102.545 92.5571C102.571 92.5123 102.601 92.4746 102.625 92.4345C102.631 92.4288 102.635 92.4225 102.639 92.4157C103.205 91.6238 103.773 90.832 104.354 90.0448V90.0425C104.358 90.0391 104.362 90.0351 104.364 90.0307C104.366 90.026 104.366 90.026 104.371 90.0236C108.816 83.9951 113.803 78.2848 119.504 73.5101C119.675 73.3664 119.847 73.2179 120.029 73.0789C122.61 70.9407 125.362 69.0159 128.257 67.3238C128.26 67.3214 128.262 67.3214 128.264 67.3191C129.847 66.4047 131.477 65.5665 133.154 64.8045C137.483 62.8587 142.093 61.603 146.814 61.0832C146.83 61.0809 146.844 61.0809 146.861 61.0785C146.873 61.0761 146.885 61.0761 146.896 61.0738C156.281 60.0604 165.886 62.0424 173.196 67.7998C173.383 67.9483 173.565 68.0944 173.752 68.2476Z" fill="#F0F0F0"/>
<path d="M108.232 92.4345C109.41 92.5665 110.588 92.7786 111.768 92.9954H107.463C107.004 92.9577 106.545 92.9342 106.084 92.9342C105.592 92.9263 105.1 92.9468 104.61 92.9954H102.235C102.235 92.9978 102.232 92.9978 102.232 93.0001V92.9954C102.238 92.9465 102.257 92.8999 102.286 92.86C102.315 92.82 102.353 92.788 102.398 92.7668C102.418 92.7554 102.44 92.7466 102.462 92.7409C102.481 92.7362 102.497 92.7315 102.516 92.7267C102.772 92.6584 103.025 92.5995 103.28 92.55C103.34 92.5382 103.396 92.5264 103.456 92.517C103.626 92.484 103.796 92.4581 103.964 92.4345C105.381 92.2542 106.815 92.2542 108.232 92.4345Z" fill="white"/>
<path d="M173.593 68.502C173.399 68.4667 173.205 68.4337 173.011 68.4007C168.904 67.7034 164.731 67.4615 160.57 67.6795C160.36 67.689 160.149 67.7007 159.939 67.7149C154.165 68.0665 148.48 69.3075 143.088 71.3937C143.087 71.3951 143.085 71.3959 143.083 71.3961C143.025 71.4158 142.967 71.4386 142.911 71.4644H142.908C141.654 71.9546 140.42 72.4927 139.206 73.0788C136.923 74.1841 134.702 75.5015 132.863 77.2666C131.355 78.724 130.208 80.5123 129.516 82.4891C129.443 82.6847 129.374 82.8851 129.308 83.0854C129.258 83.2456 129.209 83.4059 129.161 83.5661C128.511 85.7838 128.106 88.1287 126.926 90.1508C126.412 91.0336 125.731 91.809 124.922 92.4344C124.659 92.6366 124.385 92.8239 124.101 92.9953H122.698C123.085 92.8359 123.459 92.6484 123.817 92.4344C124.718 91.9034 125.489 91.1808 126.076 90.3181C127.413 88.3455 127.834 85.9276 128.473 83.6769C128.582 83.2951 128.698 82.9227 128.828 82.5551C129.456 80.6341 130.491 78.8699 131.863 77.3821C133.602 75.5321 135.776 74.1251 138.021 72.968C139.464 72.2256 140.949 71.554 142.466 70.953C142.662 70.8752 142.858 70.7975 143.057 70.722C152.662 67.0872 163.068 66.0783 173.196 67.7997C173.392 67.8304 173.586 67.8657 173.78 67.9011C174.178 67.9741 173.989 68.5727 173.593 68.502Z" fill="white"/>
<path d="M142.554 71.2392C141.94 69.3358 142.026 67.2772 142.796 65.431C143.565 63.5848 144.969 62.0713 146.755 61.1607C147.117 60.9777 147.42 61.5296 147.057 61.7129C145.392 62.5578 144.085 63.9678 143.372 65.6884C142.659 67.409 142.587 69.3269 143.168 71.0959C143.294 71.4805 142.679 71.6216 142.554 71.2392V71.2392Z" fill="white"/>
<path d="M129.341 82.3981C132.972 84.2987 137.189 84.7658 141.151 83.7065C141.543 83.6012 141.687 84.2135 141.295 84.3186C137.17 85.4133 132.782 84.9183 129.008 82.9323C128.648 82.7427 128.983 82.2096 129.341 82.3981Z" fill="white"/>
<path d="M160.543 67.4836C160.626 68.2693 160.904 69.0221 161.352 69.6745C161.799 70.3268 162.402 70.8581 163.107 71.2208C163.469 71.4057 163.134 71.9387 162.774 71.7549C161.998 71.3506 161.332 70.763 160.836 70.0434C160.34 69.3238 160.029 68.4941 159.929 67.6269C159.912 67.5459 159.928 67.4618 159.971 67.3916C160.015 67.3215 160.084 67.2705 160.164 67.2492C160.246 67.2306 160.331 67.2448 160.402 67.2887C160.473 67.3326 160.524 67.4027 160.543 67.4836Z" fill="white"/>
<path d="M108.596 47.2196C108.473 47.2196 108.35 47.2131 108.228 47.2001L81.0275 44.3066C80.8113 44.2837 80.6017 44.2185 80.4108 44.1148C80.2198 44.0111 80.0512 43.871 79.9147 43.7024C79.7781 43.5338 79.6762 43.3401 79.6148 43.1322C79.5533 42.9244 79.5336 42.7066 79.5567 42.4911L79.94 38.9152L79.9441 38.9157C80.0186 38.5054 80.2462 38.1383 80.5811 37.8882C80.9161 37.6381 81.3336 37.5234 81.7498 37.5673L108.951 40.4607C109.816 40.5529 110.613 40.9719 111.178 41.6317C111.742 42.2915 112.032 43.1417 111.986 44.0076C111.941 44.8734 111.564 45.6889 110.933 46.2864C110.303 46.8839 109.466 47.2179 108.596 47.2196L108.596 47.2196Z" fill="#F9A826"/>
<path d="M111.959 92.6887H108.467C108.028 92.6882 107.608 92.5142 107.297 92.205C106.987 91.8957 106.812 91.4764 106.812 91.039V62.0481C106.812 61.6108 106.987 61.1914 107.297 60.8822C107.608 60.5729 108.028 60.3989 108.467 60.3984H111.959C112.398 60.3989 112.819 60.5729 113.13 60.8822C113.44 61.1914 113.615 61.6108 113.615 62.0481V91.039C113.615 91.4764 113.44 91.8957 113.13 92.205C112.819 92.5142 112.398 92.6882 111.959 92.6887Z" fill="#F9A826"/>
<path d="M103.634 92.6887H100.142C99.7033 92.6882 99.2823 92.5142 98.9719 92.205C98.6614 91.8957 98.4868 91.4764 98.4863 91.039V62.0481C98.4868 61.6108 98.6614 61.1914 98.9719 60.8822C99.2823 60.5729 99.7033 60.3989 100.142 60.3984H103.634C104.073 60.3989 104.494 60.5729 104.804 60.8822C105.115 61.1914 105.289 61.6108 105.29 62.0481V91.039C105.289 91.4764 105.115 91.8957 104.804 92.205C104.494 92.5142 104.073 92.6882 103.634 92.6887Z" fill="#F9A826"/>
<path d="M109.252 30.2611C115.915 30.2611 121.317 24.8799 121.317 18.2419C121.317 11.6038 115.915 6.22266 109.252 6.22266C102.589 6.22266 97.1873 11.6038 97.1873 18.2419C97.1873 24.8799 102.589 30.2611 109.252 30.2611Z" fill="#F9A826"/>
<path d="M102.619 23.2874C101.837 23.2658 100.864 23.2387 100.114 22.6931C99.891 22.5239 99.7075 22.3082 99.5768 22.0609C99.446 21.8137 99.3711 21.541 99.3572 21.2619C99.3437 21.0635 99.3763 20.8647 99.4527 20.681C99.529 20.4973 99.647 20.3337 99.7973 20.203C100.189 19.8733 100.761 19.796 101.377 19.9764L100.739 15.3277L101.207 15.2637L101.958 20.7289L101.567 20.5499C101.113 20.3426 100.49 20.237 100.103 20.5629C100.008 20.6481 99.9336 20.754 99.8863 20.8724C99.839 20.9907 99.8198 21.1183 99.8301 21.2453C99.8415 21.453 99.8978 21.6559 99.995 21.84C100.092 22.0241 100.228 22.1853 100.393 22.3124C100.977 22.737 101.753 22.7918 102.633 22.8163L102.619 23.2874Z" fill="#2F2E41"/>
<path d="M98.4205 15.7285H95.8723V16.1999H98.4205V15.7285Z" fill="#2F2E41"/>
<path d="M106.464 15.7285H103.916V16.1999H106.464V15.7285Z" fill="#2F2E41"/>
<path d="M81.7553 63.5248H3.783C2.82961 63.5238 1.91558 63.146 1.24143 62.4744C0.567287 61.8028 0.188082 60.8923 0.187012 59.9425V22.0941C0.188081 21.1443 0.567286 20.2337 1.24143 19.5621C1.91558 18.8905 2.82961 18.5128 3.783 18.5117H81.7553C82.7087 18.5128 83.6227 18.8906 84.2969 19.5621C84.971 20.2337 85.3502 21.1443 85.3513 22.0941V59.9425C85.3502 60.8923 84.971 61.8028 84.2969 62.4744C83.6227 63.146 82.7087 63.5238 81.7553 63.5248Z" fill="#CACACA"/>
<path d="M73.7053 42.668H10.2628C9.85141 42.6674 9.45025 42.5404 9.11407 42.3042C8.77788 42.068 8.52306 41.7343 8.38438 41.3484L1.20388 21.2795C1.09671 20.9799 1.06329 20.6591 1.10643 20.344C1.14957 20.0289 1.26801 19.7288 1.45179 19.4687C1.63557 19.2087 1.87933 18.9965 2.16257 18.8498C2.4458 18.7031 2.76025 18.6263 3.07946 18.6259L82.3837 18.5156H82.3865C82.7165 18.5156 83.0413 18.5972 83.3318 18.7531C83.6224 18.9089 83.8696 19.1342 84.0512 19.4086C84.2329 19.6831 84.3433 19.9981 84.3727 20.3256C84.402 20.653 84.3493 20.9826 84.2193 21.2848L84.1106 21.2384L84.2193 21.2848L75.5382 41.464C75.3847 41.8215 75.1292 42.1262 74.8033 42.3403C74.4774 42.5543 74.0956 42.6683 73.7053 42.668Z" fill="#E4E4E4"/>
<path d="M28.2485 58.1813H6.37178C5.83275 58.1813 5.31579 57.968 4.93464 57.5883C4.55348 57.2086 4.33936 56.6936 4.33936 56.1566C4.33936 55.6196 4.55348 55.1046 4.93464 54.7249C5.31579 54.3452 5.83275 54.1318 6.37178 54.1318H28.2485C28.7876 54.1318 29.3045 54.3452 29.6857 54.7249C30.0668 55.1046 30.281 55.6196 30.281 56.1566C30.281 56.6936 30.0668 57.2086 29.6857 57.5883C29.3045 57.968 28.7876 58.1813 28.2485 58.1813Z" fill="#F2F2F2"/>
<path d="M114.985 70.3589H97.1172C96.2557 70.3579 95.4297 70.0166 94.8205 69.4097C94.2113 68.8028 93.8687 67.9799 93.8677 67.1217V57.7505C93.8749 51.3461 96.432 45.2061 100.978 40.6774C105.524 36.1488 111.687 33.6015 118.116 33.5942H118.234V67.1217C118.233 67.9799 117.89 68.8028 117.281 69.4097C116.672 70.0166 115.846 70.3579 114.985 70.3589Z" fill="#2F2E41"/>
<path d="M84.9521 58.9523C84.6326 58.9519 84.3201 58.8596 84.052 58.6866C83.7839 58.5136 83.5716 58.2672 83.4405 57.977L82.0114 54.8034C81.8321 54.4041 81.8192 53.9503 81.9754 53.5416C82.1316 53.1328 82.4442 52.8025 82.8446 52.6231L107.804 41.4687C108.211 41.2862 108.651 41.1855 109.098 41.1724C109.544 41.1592 109.989 41.2339 110.407 41.3922C110.825 41.5504 111.207 41.7891 111.532 42.0946C111.857 42.4001 112.119 42.7664 112.302 43.1727C112.485 43.5789 112.586 44.0171 112.598 44.4621C112.611 44.9071 112.536 45.3504 112.377 45.7664C112.218 46.1825 111.978 46.5632 111.671 46.8868C111.364 47.2105 110.996 47.4707 110.588 47.6527L85.6292 58.8069C85.4165 58.9028 85.1856 58.9524 84.9521 58.9523Z" fill="#F9A826"/>
<path d="M109.779 16.8054C109.977 16.39 110.056 15.928 110.008 15.4705C109.959 15.0131 109.784 14.578 109.502 14.2134C109.212 13.8069 108.84 13.4644 108.411 13.2073C107.981 12.9501 107.503 12.7839 107.007 12.7189C104.619 12.3764 102.303 13.8355 99.9306 13.2918C97.7608 12.7945 97.0641 10.3928 97.8594 8.5004C98.6804 6.54669 100.653 5.17073 102.619 4.5277C104.858 3.78258 107.298 3.90518 109.451 4.87107C109.706 4.98925 110.083 4.78968 109.972 4.47185C109.645 3.53143 110.058 2.53373 110.766 1.88078C111.554 1.1536 112.686 0.881251 113.726 0.775086C115.699 0.586836 117.689 0.803396 119.574 1.4114C123.389 2.6201 126.694 5.31775 128.463 8.91438C129.37 10.7894 129.881 12.8296 129.966 14.9091C130.05 16.9886 129.706 19.0634 128.955 21.0054C127.345 25.1058 123.022 28.6113 123.913 33.4225C124.103 34.3679 124.524 35.2519 125.141 35.9953C125.757 36.7387 126.549 37.3184 127.445 37.6826C128.361 38.04 129.353 38.1585 130.327 38.0269C131.302 37.8952 132.227 37.5177 133.014 36.9302C133.407 36.6399 133.761 36.3 134.066 35.9191C134.347 35.5662 133.848 35.0627 133.564 35.4192C132.961 36.203 132.139 36.7923 131.201 37.1132C130.263 37.4342 129.251 37.4726 128.291 37.2236C127.332 36.9747 126.467 36.4494 125.805 35.7135C125.144 34.9777 124.715 34.0638 124.572 33.0863C124.213 30.7691 125.334 28.5094 126.528 26.6035C127.755 24.6451 129.111 22.7875 129.864 20.5807C130.53 18.5915 130.796 16.491 130.646 14.3993C130.497 12.3077 129.935 10.2659 128.993 8.39076C127.15 4.76721 123.784 2.05289 119.933 0.784583C118.029 0.150532 116.018 -0.101755 114.016 0.042275C112.01 0.197726 109.613 1.00318 109.196 3.2549C109.103 3.72317 109.135 4.20751 109.288 4.65979L109.809 4.26056C105.884 2.44161 100.658 3.38022 97.9823 6.90267C96.7058 8.58292 96.3126 10.9943 97.7072 12.7365C99.2392 14.6504 101.902 14.1067 103.975 13.6663C105.279 13.3891 106.853 13.0722 108.065 13.8144C108.912 14.3329 109.671 15.4553 109.166 16.4485C108.96 16.8535 109.572 17.2118 109.779 16.8054L109.779 16.8054Z" fill="#2F2E41"/>
<path d="M153.693 92.715C153.693 92.7519 153.686 92.7884 153.672 92.8225C153.658 92.8566 153.637 92.8875 153.611 92.9136C153.585 92.9396 153.554 92.9603 153.52 92.9744C153.485 92.9884 153.449 92.9956 153.412 92.9955H0.281516C0.206853 92.9955 0.135248 92.9659 0.0824535 92.9133C0.0296592 92.8607 0 92.7894 0 92.715C0 92.6406 0.0296592 92.5693 0.0824535 92.5167C0.135248 92.4641 0.206853 92.4346 0.281516 92.4346H153.412C153.449 92.4345 153.485 92.4417 153.52 92.4557C153.554 92.4698 153.585 92.4904 153.611 92.5165C153.637 92.5426 153.658 92.5735 153.672 92.6076C153.686 92.6416 153.693 92.6782 153.693 92.715Z" fill="#3F3D56"/>
<path d="M42.6508 47.6169C45.3945 47.6169 47.6187 45.4011 47.6187 42.6678C47.6187 39.9345 45.3945 37.7188 42.6508 37.7188C39.9071 37.7188 37.6829 39.9345 37.6829 42.6678C37.6829 45.4011 39.9071 47.6169 42.6508 47.6169Z" fill="#3F3D56"/>
</g>
<defs>
<clipPath id="clip0_628_1634">
<rect width="174" height="93" fill="white"/>
</clipPath>
</defs>
</svg>
