<svg width="239" height="111" viewBox="0 0 239 111" fill="none" xmlns="http://www.w3.org/2000/svg">
<g clip-path="url(#clip0_628_1474)">
<path d="M21.451 105.673L21.1293 105.552C21.0586 105.525 14.0226 102.818 10.7267 96.6806C7.43063 90.5427 9.04456 83.1525 9.06124 83.0787L9.1372 82.7422L9.45876 82.8633C9.52945 82.89 16.5652 85.5969 19.8613 91.7346C23.1574 97.8725 21.5435 105.263 21.5268 105.336L21.451 105.673ZM11.2545 96.3949C14.0411 101.584 19.6011 104.244 21.0098 104.852C21.2777 103.336 22.1177 97.2047 19.3335 92.0203C16.5497 86.8364 10.9875 84.1722 9.5782 83.5634C9.31021 85.0804 8.47053 91.2108 11.2545 96.3949Z" fill="#3F3D56"/>
<path d="M13.2455 94.5274C19.1687 98.1057 21.4499 105.213 21.4499 105.213C21.4499 105.213 14.1277 106.519 8.20446 102.941C2.28122 99.3626 0 92.255 0 92.255C0 92.255 7.32224 90.949 13.2455 94.5274Z" fill="#D0CDE1"/>
<path d="M202.809 1.367H136.758V0H106.808V1.367H40.4852C39.8984 1.367 39.3175 1.48304 38.7754 1.7085C38.2333 1.93396 37.7408 2.26442 37.3259 2.68101C36.9111 3.0976 36.582 3.59217 36.3574 4.13648C36.1329 4.68078 36.0173 5.26417 36.0173 5.85332V96.6713C36.0173 97.8611 36.4881 99.0023 37.3259 99.8436C38.1638 100.685 39.3002 101.158 40.4852 101.158H202.809C203.396 101.158 203.977 101.042 204.519 100.816C205.061 100.591 205.553 100.26 205.968 99.8436C206.383 99.427 206.712 98.9325 206.937 98.3881C207.161 97.8438 207.277 97.2605 207.277 96.6713V5.85332C207.277 5.26417 207.161 4.68078 206.937 4.13647C206.712 3.59217 206.383 3.0976 205.968 2.68101C205.553 2.26441 205.061 1.93395 204.519 1.70849C203.977 1.48304 203.396 1.36699 202.809 1.367Z" fill="#3F3D56"/>
<path d="M201.287 9.29541H42.0073V99.5171H201.287V9.29541Z" fill="#FE6A07"/>
<path d="M121.511 6.83499C122.413 6.83499 123.144 6.10056 123.144 5.19459C123.144 4.28863 122.413 3.5542 121.511 3.5542C120.609 3.5542 119.877 4.28863 119.877 5.19459C119.877 6.10056 120.609 6.83499 121.511 6.83499Z" fill="#6C63FF"/>
<path d="M192.143 20.7783H184.593V13.1968H192.143V20.7783ZM184.921 20.4486H191.815V13.5264H184.921V20.4486Z" fill="#3F3D56"/>
<path d="M211.749 97.8769H196.205V96.7523C196.205 96.723 196.199 96.694 196.188 96.667C196.176 96.6399 196.16 96.6153 196.139 96.5946C196.119 96.5739 196.094 96.5575 196.067 96.5463C196.041 96.5351 196.012 96.5293 195.982 96.5293H190.653C190.624 96.5293 190.595 96.5351 190.568 96.5463C190.541 96.5575 190.516 96.5739 190.496 96.5946C190.475 96.6153 190.459 96.6399 190.448 96.667C190.437 96.694 190.431 96.723 190.431 96.7523V97.8769H187.1V96.7523C187.1 96.723 187.094 96.694 187.083 96.667C187.072 96.6399 187.055 96.6153 187.035 96.5946C187.014 96.5739 186.99 96.5575 186.963 96.5463C186.936 96.5351 186.907 96.5293 186.878 96.5293H181.548C181.519 96.5293 181.49 96.5351 181.463 96.5463C181.436 96.5575 181.412 96.5739 181.391 96.5946C181.37 96.6153 181.354 96.6399 181.343 96.667C181.332 96.694 181.326 96.723 181.326 96.7523V97.8769H177.995V96.7523C177.995 96.723 177.989 96.694 177.978 96.667C177.967 96.6399 177.951 96.6153 177.93 96.5946C177.909 96.5739 177.885 96.5575 177.858 96.5463C177.831 96.5351 177.802 96.5293 177.773 96.5293H172.443C172.414 96.5293 172.385 96.5351 172.358 96.5463C172.331 96.5575 172.307 96.5739 172.286 96.5946C172.266 96.6153 172.249 96.6399 172.238 96.667C172.227 96.694 172.221 96.723 172.221 96.7523V97.8769H168.89V96.7523C168.89 96.723 168.885 96.694 168.873 96.667C168.862 96.6399 168.846 96.6153 168.825 96.5946C168.805 96.5739 168.78 96.5575 168.753 96.5463C168.726 96.5351 168.697 96.5293 168.668 96.5293H163.339C163.31 96.5293 163.281 96.5351 163.254 96.5463C163.227 96.5575 163.202 96.5739 163.182 96.5946C163.161 96.6153 163.145 96.6399 163.134 96.667C163.122 96.694 163.117 96.723 163.117 96.7523V97.8769H159.786V96.7523C159.786 96.723 159.78 96.694 159.769 96.667C159.758 96.6399 159.741 96.6153 159.721 96.5946C159.7 96.5739 159.675 96.5575 159.649 96.5463C159.622 96.5351 159.593 96.5293 159.564 96.5293H154.234C154.205 96.5293 154.176 96.5351 154.149 96.5463C154.122 96.5575 154.098 96.5739 154.077 96.5946C154.056 96.6153 154.04 96.6399 154.029 96.667C154.018 96.694 154.012 96.723 154.012 96.7523V97.8769H150.681V96.7523C150.681 96.723 150.675 96.694 150.664 96.667C150.653 96.6399 150.636 96.6153 150.616 96.5946C150.595 96.5739 150.571 96.5575 150.544 96.5463C150.517 96.5351 150.488 96.5293 150.459 96.5293H145.129C145.1 96.5293 145.071 96.5351 145.044 96.5463C145.017 96.5575 144.993 96.5739 144.972 96.5946C144.952 96.6153 144.935 96.6399 144.924 96.667C144.913 96.694 144.907 96.723 144.907 96.7523V97.8769H141.576V96.7523C141.576 96.723 141.57 96.694 141.559 96.667C141.548 96.6399 141.532 96.6153 141.511 96.5946C141.49 96.5739 141.466 96.5575 141.439 96.5463C141.412 96.5351 141.383 96.5293 141.354 96.5293H99.6056C99.5764 96.5293 99.5475 96.5351 99.5206 96.5463C99.4936 96.5575 99.4692 96.5739 99.4485 96.5946C99.4279 96.6153 99.4116 96.6399 99.4004 96.667C99.3892 96.694 99.3835 96.723 99.3835 96.7523V97.8769H96.0525V96.7523C96.0525 96.723 96.0468 96.694 96.0356 96.667C96.0244 96.6399 96.0081 96.6153 95.9875 96.5946C95.9668 96.5739 95.9424 96.5575 95.9154 96.5463C95.8885 96.5351 95.8596 96.5293 95.8304 96.5293H90.5008C90.4717 96.5293 90.4428 96.5351 90.4158 96.5463C90.3889 96.5575 90.3644 96.5739 90.3438 96.5946C90.3232 96.6153 90.3068 96.6399 90.2957 96.667C90.2845 96.694 90.2788 96.723 90.2788 96.7523V97.8769H86.9478V96.7523C86.9478 96.723 86.942 96.694 86.9309 96.667C86.9197 96.6399 86.9033 96.6153 86.8827 96.5946C86.8621 96.5739 86.8376 96.5575 86.8107 96.5463C86.7837 96.5351 86.7549 96.5293 86.7257 96.5293H81.3961C81.3669 96.5293 81.3381 96.5351 81.3111 96.5463C81.2842 96.5575 81.2597 96.5739 81.2391 96.5946C81.2185 96.6153 81.2021 96.6399 81.1909 96.667C81.1798 96.694 81.174 96.723 81.174 96.7523V97.8769H77.843V96.7523C77.843 96.723 77.8373 96.694 77.8261 96.667C77.815 96.6399 77.7986 96.6153 77.778 96.5946C77.7574 96.5739 77.7329 96.5575 77.706 96.5463C77.679 96.5351 77.6501 96.5293 77.621 96.5293H72.2914C72.2622 96.5293 72.2333 96.5351 72.2064 96.5463C72.1794 96.5575 72.155 96.5739 72.1343 96.5946C72.1137 96.6153 72.0974 96.6399 72.0862 96.667C72.075 96.694 72.0693 96.723 72.0693 96.7523V97.8769H68.7383V96.7523C68.7383 96.723 68.7326 96.694 68.7214 96.667C68.7102 96.6399 68.6939 96.6153 68.6733 96.5946C68.6526 96.5739 68.6282 96.5575 68.6012 96.5463C68.5743 96.5351 68.5454 96.5293 68.5162 96.5293H63.1866C63.1575 96.5293 63.1286 96.5351 63.1017 96.5463C63.0747 96.5575 63.0502 96.5739 63.0296 96.5946C63.009 96.6153 62.9926 96.6399 62.9815 96.667C62.9703 96.694 62.9646 96.723 62.9646 96.7523V97.8769H59.6336V96.7523C59.6336 96.723 59.6278 96.694 59.6167 96.667C59.6055 96.6399 59.5892 96.6153 59.5685 96.5946C59.5479 96.5739 59.5234 96.5575 59.4965 96.5463C59.4695 96.5351 59.4407 96.5293 59.4115 96.5293H54.0819C54.0527 96.5293 54.0239 96.5351 53.9969 96.5463C53.97 96.5575 53.9455 96.5739 53.9249 96.5946C53.9043 96.6153 53.8879 96.6399 53.8767 96.667C53.8656 96.694 53.8598 96.723 53.8598 96.7523V97.8769H50.5288V96.7523C50.5288 96.723 50.5231 96.694 50.5119 96.667C50.5008 96.6399 50.4844 96.6153 50.4638 96.5946C50.4432 96.5739 50.4187 96.5575 50.3918 96.5463C50.3648 96.5351 50.3359 96.5293 50.3068 96.5293H44.9772C44.948 96.5293 44.9191 96.5351 44.8922 96.5463C44.8653 96.5575 44.8408 96.5739 44.8201 96.5946C44.7995 96.6153 44.7832 96.6399 44.772 96.667C44.7609 96.694 44.7551 96.723 44.7551 96.7523V97.8769H34.54C33.1265 97.8769 31.7709 98.4407 30.7715 99.4444C29.772 100.448 29.2104 101.809 29.2104 103.229V105.648C29.2105 107.068 29.772 108.429 30.7715 109.433C31.771 110.436 33.1266 111 34.54 111H211.749C213.163 111 214.518 110.436 215.518 109.433C216.517 108.429 217.079 107.068 217.079 105.648V103.229C217.079 101.809 216.517 100.448 215.518 99.4444C214.518 98.4407 213.163 97.8769 211.749 97.8769Z" fill="#3F3D56"/>
<path d="M239 105.51H7.28906V106.22H239V105.51Z" fill="#3F3D56"/>
<path d="M191.441 59.5689H140.158V30.2524H191.441V59.5689ZM140.665 59.0591H190.933V30.7623H140.665V59.0591Z" fill="#3F3D56"/>
<path d="M97.5065 65.4321H51.8088V36.8804H97.5065V65.4321ZM52.3166 64.9223H96.9988V37.3902H52.3166V64.9223Z" fill="#3F3D56"/>
<path d="M73.1584 54.4703L73.1147 53.9002C72.9838 52.7164 73.3767 51.4229 74.4683 50.1076C75.4509 48.9455 75.9967 48.0906 75.9967 47.104C75.9967 45.986 75.298 45.2407 73.9225 45.2187C73.1358 45.2155 72.3668 45.4526 71.7174 45.8984L71.1934 44.5172C71.914 43.9909 73.1584 43.6401 74.3155 43.6401C76.8264 43.6401 77.9616 45.1968 77.9616 46.8628C77.9616 48.3538 77.1319 49.428 76.0839 50.6775C75.1234 51.8174 74.774 52.7821 74.8395 53.9002L74.8613 54.4703L73.1584 54.4703ZM72.6781 57.5396C72.6663 57.3607 72.6917 57.1814 72.7525 57.0128C72.8133 56.8443 72.9082 56.6903 73.0313 56.5605C73.1544 56.4307 73.303 56.3279 73.4677 56.2587C73.6323 56.1895 73.8095 56.1553 73.988 56.1584C74.7522 56.1584 75.2762 56.7282 75.2762 57.5396C75.2834 57.7154 75.2552 57.8909 75.1931 58.0555C75.1311 58.22 75.0366 58.3703 74.9152 58.4973C74.7939 58.6243 74.6483 58.7253 74.487 58.7943C74.3258 58.8633 74.1524 58.8989 73.9771 58.8989C73.8019 58.8989 73.6285 58.8633 73.4672 58.7943C73.306 58.7253 73.1604 58.6243 73.039 58.4973C72.9177 58.3703 72.8232 58.22 72.7611 58.0555C72.6991 57.8909 72.6709 57.7154 72.6781 57.5396Z" fill="white"/>
<path d="M164.3 48.0972L164.256 47.5271C164.125 46.3434 164.518 45.0498 165.61 43.7346C166.592 42.5725 167.138 41.7176 167.138 40.731C167.138 39.613 166.44 38.8676 165.064 38.8457C164.277 38.8425 163.508 39.0795 162.859 39.5253L162.335 38.1441C163.056 37.6179 164.3 37.2671 165.457 37.2671C167.968 37.2671 169.103 38.8238 169.103 40.4898C169.103 41.9807 168.274 43.055 167.226 44.3044C166.265 45.4444 165.916 46.4091 165.981 47.5271L166.003 48.0972L164.3 48.0972ZM163.82 51.1665C163.808 50.9877 163.833 50.8083 163.894 50.6398C163.955 50.4713 164.05 50.3172 164.173 50.1874C164.296 50.0576 164.445 49.9549 164.609 49.8857C164.774 49.8165 164.951 49.7823 165.13 49.7854C165.894 49.7854 166.418 50.3552 166.418 51.1665C166.425 51.3424 166.397 51.5178 166.335 51.6824C166.273 51.847 166.178 51.9973 166.057 52.1243C165.935 52.2512 165.79 52.3523 165.629 52.4213C165.467 52.4903 165.294 52.5259 165.119 52.5259C164.944 52.5259 164.77 52.4903 164.609 52.4213C164.448 52.3523 164.302 52.2512 164.181 52.1243C164.059 51.9973 163.965 51.847 163.903 51.6824C163.841 51.5178 163.812 51.3424 163.82 51.1665Z" fill="white"/>
<path d="M122.544 88.4953C134.643 88.4953 144.452 78.6464 144.452 66.4972C144.452 54.3479 134.643 44.499 122.544 44.499C110.445 44.499 100.637 54.3479 100.637 66.4972C100.637 78.6464 110.445 88.4953 122.544 88.4953Z" fill="#2F2E41"/>
<path d="M114.083 96.6216L107.534 95.431L109.658 81.6997L116.207 82.8902L114.083 96.6216Z" fill="#2F2E41"/>
<path d="M129.305 85.271L122.756 84.0806L120.632 95.8627L127.181 97.0532L129.305 85.271Z" fill="#2F2E41"/>
<path d="M131.558 97.695C131.786 96.5644 129.536 95.1545 126.533 94.5458C123.531 93.9372 120.913 94.3603 120.685 95.4909C120.458 96.6215 122.708 98.0315 125.71 98.6401C128.713 99.2487 131.331 98.8256 131.558 97.695Z" fill="#2F2E41"/>
<path d="M117.918 97.3402C118.069 96.1968 115.729 94.9424 112.693 94.5384C109.656 94.1345 107.072 94.734 106.921 95.8774C106.77 97.0208 109.11 98.2752 112.146 98.6791C115.183 99.0831 117.767 98.4836 117.918 97.3402Z" fill="#2F2E41"/>
<path d="M124.078 68.6349C128.213 68.6349 131.565 65.2688 131.565 61.1165C131.565 56.9642 128.213 53.5981 124.078 53.5981C119.943 53.5981 116.591 56.9642 116.591 61.1165C116.591 65.2688 119.943 68.6349 124.078 68.6349Z" fill="white"/>
<path d="M127.155 60.9273C128.534 60.9273 129.651 59.8052 129.651 58.4211C129.651 57.0371 128.534 55.915 127.155 55.915C125.777 55.915 124.659 57.0371 124.659 58.4211C124.659 59.8052 125.777 60.9273 127.155 60.9273Z" fill="#3F3D56"/>
<path d="M105.262 42.5654C104.933 34.4214 111.923 27.5233 120.875 27.1582C129.827 26.793 137.351 33.0991 137.681 41.2431C138.01 49.3871 131.787 51.2375 122.835 51.6027C113.883 51.9678 105.592 50.7094 105.262 42.5654Z" fill="white"/>
<path d="M143.541 65.855C149.438 64.4977 153.874 61.8907 153.45 60.0318C153.025 58.173 147.901 57.7664 142.005 59.1236C136.108 60.4808 131.672 63.0879 132.096 64.9467C132.52 66.8055 137.644 67.2122 143.541 65.855Z" fill="#2F2E41"/>
<path d="M100.537 73.0361C106.434 71.6789 110.87 69.0718 110.446 67.213C110.022 65.3542 104.898 64.9476 99.0008 66.3048C93.1042 67.662 88.6679 70.2691 89.0923 72.1279C89.5166 73.9867 94.6407 74.3933 100.537 73.0361Z" fill="#2F2E41"/>
<path d="M116.527 75.1661C116.411 75.8138 116.422 76.4783 116.561 77.1215C116.7 77.7648 116.964 78.3742 117.337 78.9151C117.711 79.456 118.187 79.9177 118.738 80.2739C119.289 80.6301 119.905 80.8738 120.55 80.991C121.195 81.1083 121.857 81.0968 122.497 80.9573C123.138 80.8177 123.745 80.5529 124.284 80.1778C124.822 79.8027 125.282 79.3248 125.637 78.7713C125.991 78.2178 126.234 77.5995 126.351 76.9518C126.842 74.2279 124.745 73.264 122.032 72.7709C119.319 72.2778 117.018 72.4422 116.527 75.1661Z" fill="white"/>
<path d="M75.2544 3.34521H39.2327V37.7519H75.2544V3.34521Z" fill="#D0CDE1"/>
<path d="M71.1611 7.45557H43.3262V28.8292H71.1611V7.45557Z" fill="white"/>
<path d="M58.4389 31.3506H43.2986V32.1507H58.4389V31.3506Z" fill="#F2F2F2"/>
<path d="M58.4389 33.751H43.2986V34.5511H58.4389V33.751Z" fill="#F2F2F2"/>
<path d="M48.279 21.3485C50.0394 21.3485 51.4664 19.9155 51.4664 18.1479C51.4664 16.3802 50.0394 14.9473 48.279 14.9473C46.5186 14.9473 45.0916 16.3802 45.0916 18.1479C45.0916 19.9155 46.5186 21.3485 48.279 21.3485Z" fill="#3F3D56"/>
<path d="M57.2436 21.3485C59.004 21.3485 60.431 19.9155 60.431 18.1479C60.431 16.3802 59.004 14.9473 57.2436 14.9473C55.4832 14.9473 54.0562 16.3802 54.0562 18.1479C54.0562 19.9155 55.4832 21.3485 57.2436 21.3485Z" fill="#FE6A07"/>
<path d="M66.2082 21.3485C67.9686 21.3485 69.3956 19.9155 69.3956 18.1479C69.3956 16.3802 67.9686 14.9473 66.2082 14.9473C64.4478 14.9473 63.0208 16.3802 63.0208 18.1479C63.0208 19.9155 64.4478 21.3485 66.2082 21.3485Z" fill="#E6E6E6"/>
<path d="M57.2436 6.94574C58.1238 6.94574 58.8373 6.22926 58.8373 5.34543C58.8373 4.4616 58.1238 3.74512 57.2436 3.74512C56.3634 3.74512 55.6499 4.4616 55.6499 5.34543C55.6499 6.22926 56.3634 6.94574 57.2436 6.94574Z" fill="#3F3D56"/>
<path d="M92.3879 69.9668H56.3662V104.373H92.3879V69.9668Z" fill="#D0CDE1"/>
<path d="M88.2944 74.0771H60.4595V95.4507H88.2944V74.0771Z" fill="white"/>
<path d="M76.3427 77.5894H66.5845V87.3879H76.3427V77.5894Z" fill="#FE6A07"/>
<path d="M70.3201 80.04V91.9383H82.1694V80.04H70.3201ZM81.6554 91.4222H70.834V80.5561H81.6554V91.4222Z" fill="#3F3D56"/>
<path d="M75.5722 97.5723H60.4319V98.3724H75.5722V97.5723Z" fill="#F2F2F2"/>
<path d="M74.3769 73.5673C75.2571 73.5673 75.9706 72.8508 75.9706 71.967C75.9706 71.0832 75.2571 70.3667 74.3769 70.3667C73.4967 70.3667 72.7832 71.0832 72.7832 71.967C72.7832 72.8508 73.4967 73.5673 74.3769 73.5673Z" fill="#3F3D56"/>
<path d="M186.173 59.666H150.152V94.0727H186.173V59.666Z" fill="#D0CDE1"/>
<path d="M182.08 63.7764H154.245V85.15H182.08V63.7764Z" fill="white"/>
<path d="M171.157 80.5088H165.168V82.2906H171.157V80.5088Z" fill="#3F3D56"/>
<path d="M178.396 66.6357H157.929V67.3994H178.396V66.6357Z" fill="#3F3D56"/>
<path d="M178.396 69.0542H157.929V69.8178H178.396V69.0542Z" fill="#3F3D56"/>
<path d="M178.396 71.4722H157.929V72.2358H178.396V71.4722Z" fill="#3F3D56"/>
<path d="M178.396 73.8906H157.929V74.6543H178.396V73.8906Z" fill="#3F3D56"/>
<path d="M178.396 76.3086H157.929V77.0722H178.396V76.3086Z" fill="#3F3D56"/>
<path d="M169.358 87.2715H154.217V88.0716H169.358V87.2715Z" fill="#F2F2F2"/>
<path d="M175.334 89.272H154.217V90.0721H175.334V89.272Z" fill="#F2F2F2"/>
<path d="M168.163 63.267C169.043 63.267 169.756 62.5505 169.756 61.6667C169.756 60.7829 169.043 60.0664 168.163 60.0664C167.282 60.0664 166.569 60.7829 166.569 61.6667C166.569 62.5505 167.282 63.267 168.163 63.267Z" fill="#3F3D56"/>
</g>
<defs>
<clipPath id="clip0_628_1474">
<rect width="239" height="111" fill="white"/>
</clipPath>
</defs>
</svg>
