<svg xmlns="http://www.w3.org/2000/svg" width="52.721" height="53.655" viewBox="0 0 52.721 53.655"><defs><style>.a{fill:#f29c1f;}.b{fill:#e57e25;}.c{fill:#35495e;}.d{fill:#d25627;}.e{fill:#2c3e50;}.f{fill:#f0c419;}.g{fill:#fff;}</style></defs><g transform="translate(-2 -0.99)"><path class="a" d="M37.879,38.414c-.259,5.864-.3,8.805-.925,12.024-.277,1.443-.435,1.739-.435,1.85a2.775,2.775,0,0,1,1.119,2.072v.925a1.85,1.85,0,0,1-1.85,1.85h-5.55a.925.925,0,0,1-.925-.925.925.925,0,0,1-.925.925H22.84a1.85,1.85,0,0,1-1.85-1.85V54.36a2.775,2.775,0,0,1,1.091-2.044c-1.2-4.356-1.091-9.508-1.212-14.105l8.509-4.06Z" transform="translate(-1.417 -2.49)"/><path class="b" d="M37.879,38.414s-.24,5.337-.24,5.67c-3.912,2.386-13.041,2.229-16.649,0,0-.731,0,1.794-.129-5.873l8.509-4.06Z" transform="translate(-1.416 -2.49)"/><path class="c" d="M44.323,16.06a1.711,1.711,0,0,1,.758.37c2.331,1.942,5.383,7.4.629,14.105l-1.85-.472-1.23-1.628c3.08-4.366,1.591-7.316.61-8.556Z" transform="translate(-3.05 -1.131)"/><path class="a" d="M45.076,35.054l-3.385,7.89a2.544,2.544,0,0,1-2.331,1.563,2.59,2.59,0,0,1-2.534-2.479c-3.848,2.47-12.792,2.312-16.343,0a2.608,2.608,0,0,1-1.508,2.248,2.5,2.5,0,0,1-3.357-1.332l-3.385-7.89a2.664,2.664,0,0,1,.925-3.246L18.244,28.3a2.5,2.5,0,0,1,2.692-.092c.573-1.054,1.036-1.85,1.193-2.1h13.06c.157.268.62,1.036,1.2,2.1a2.5,2.5,0,0,1,2.692.092l5.087,3.505a2.664,2.664,0,0,1,.906,3.246Z" transform="translate(-0.752 -1.886)"/><path class="d" d="M31.225,25.047H26.536a11.1,11.1,0,0,1-11.1-12.024c0-.213.055-.573.62-5.485A7.4,7.4,0,0,1,23.456.99H34.315a7.4,7.4,0,0,1,7.344,6.548l.592,5.124A11.1,11.1,0,0,1,31.225,25.047Z" transform="translate(-1.006 0)"/><path class="b" d="M42.281,13.023A11.1,11.1,0,0,1,31.182,23.2H26.539a11.1,11.1,0,0,1-11.1-10.174c0-.213.055-.573.62-5.485A7.4,7.4,0,0,1,23.459.99H34.318a7.4,7.4,0,0,1,7.344,6.548C42.235,12.515,42.281,12.848,42.281,13.023Z" transform="translate(-1.009)"/><path class="e" d="M31.528,21.649H26.838a7.4,7.4,0,0,1-7.4-7.834c0-.4,0-.213.629-5.55A3.7,3.7,0,0,1,23.749,5H34.617a3.7,3.7,0,0,1,3.7,3.274l.592,5.124a7.4,7.4,0,0,1-7.381,8.25Z" transform="translate(-1.308 -0.301)"/><path class="c" d="M38.633,11.225a20.533,20.533,0,0,1-19.183,2.59c0-.4,0-.213.629-5.55A3.7,3.7,0,0,1,23.751,5H34.619a3.7,3.7,0,0,1,3.7,3.274Z" transform="translate(-1.31 -0.301)"/><path class="b" d="M41.013,36.941l-2.368,5.55a2.118,2.118,0,0,1-2.4,1.064c.1-.481,0-.213,3.071-7.4A.925.925,0,0,0,38.951,35l-1.2-.712a.925.925,0,1,1,.925-1.591l1.2.721a2.775,2.775,0,0,1,1.138,3.524Z" transform="translate(-2.571 -2.367)"/><path class="b" d="M23.367,43.6c-1.017.638-1.739,0-2.414-1.073L18.622,37.1a2.775,2.775,0,0,1,1.128-3.478l1.193-.712a.925.925,0,1,1,.925,1.591l-1.2.712a.925.925,0,0,0-.37,1.156c3.117,7.2,3,6.872,3.071,7.233Z" transform="translate(-1.231 -2.383)"/><rect class="f" width="9.249" height="8.324" rx="1" transform="translate(23.273 27.822)"/><path class="b" d="M45.332,40.754l-.731,1.7-1.961-.6a.925.925,0,0,1,.573-1.757Z" transform="translate(-3.006 -2.933)"/><path class="b" d="M47.1,36.678l-.731,1.7-1.73-.527a.925.925,0,1,1,.573-1.757Z" transform="translate(-3.15 -2.631)"/><path class="b" d="M17.092,41.854l-1.961.647L14.4,40.8l2.118-.7a.925.925,0,0,1,.573,1.757Z" transform="translate(-0.931 -2.933)"/><path class="b" d="M15.11,37.854l-1.73.573-.731-1.7L14.5,36.1a.925.925,0,0,1,.573,1.757Z" transform="translate(-0.8 -2.633)"/><path class="g" d="M24.924,9.849a.925.925,0,1,1,.86-.57A.925.925,0,0,1,24.924,9.849Z" transform="translate(-1.651 -0.526)"/><path class="g" d="M34.474,9.85h-5.55a.925.925,0,0,1,0-1.85h5.55a.925.925,0,1,1,0,1.85Z" transform="translate(-1.952 -0.526)"/><path class="a" d="M31.85,33.85h-.925a.925.925,0,0,1,0-1.85h.925a.925.925,0,0,1,0,1.85Z" transform="translate(-2.102 -2.328)"/><path class="a" d="M31.85,36.85h-.925a.925.925,0,1,1,0-1.85h.925a.925.925,0,1,1,0,1.85Z" transform="translate(-2.102 -2.553)"/><path class="b" d="M29.925,58.249A.925.925,0,0,1,29,57.324v-7.4a.925.925,0,0,1,1.85,0v7.4A.925.925,0,0,1,29.925,58.249Z" transform="translate(-2.027 -3.604)"/><path class="b" d="M24.756,52.365a.925.925,0,0,1-.925.925,4.042,4.042,0,0,0-1.646.3c-.166-.583-.314-1.193-.435-1.85a5.993,5.993,0,0,1,2.081-.3A.925.925,0,0,1,24.756,52.365Z" transform="translate(-1.483 -3.787)"/><path class="b" d="M38.006,51.753c-.12.62-.259,1.23-.435,1.85a3.848,3.848,0,0,0-1.646-.333.925.925,0,0,1,0-1.85A5.994,5.994,0,0,1,38.006,51.753Z" transform="translate(-2.477 -3.786)"/><g transform="translate(2 1.924)"><path class="f" d="M5.925,7.55A.925.925,0,0,1,5,6.625v-3.7a.925.925,0,1,1,1.85,0v3.7A.925.925,0,0,1,5.925,7.55Z" transform="translate(-2.225 -2)"/><path class="f" d="M7.625,5.85h-3.7a.925.925,0,1,1,0-1.85h3.7a.925.925,0,0,1,0,1.85Z" transform="translate(-2.075 -2.15)"/><path class="f" d="M55.925,27.55A.925.925,0,0,1,55,26.625v-3.7a.925.925,0,0,1,1.85,0v3.7A.925.925,0,0,1,55.925,27.55Z" transform="translate(-5.979 -3.502)"/><path class="f" d="M57.625,25.85h-3.7a.925.925,0,0,1,0-1.85h3.7a.925.925,0,1,1,0,1.85Z" transform="translate(-5.829 -3.652)"/><path class="f" d="M4.925,40.55A.925.925,0,0,1,4,39.625v-3.7a.925.925,0,0,1,1.85,0v3.7A.925.925,0,0,1,4.925,40.55Z" transform="translate(-2.15 -4.477)"/><path class="f" d="M6.625,38.85h-3.7a.925.925,0,1,1,0-1.85h3.7a.925.925,0,1,1,0,1.85Z" transform="translate(-2 -4.628)"/></g></g></svg>