<svg xmlns="http://www.w3.org/2000/svg" width="164" height="176.228" viewBox="0 0 164 176.228"><defs><style>.a{fill:#e57e25;}.b{fill:#d25627;}.c{fill:#f29c1f;}.d{fill:#35495e;}.e{fill:#f0c419;}.f{fill:#fff;}.g{fill:#2c3e50;}</style></defs><g transform="translate(-0.996 -0.96)"><path class="a" d="M49.454,53.172a104.914,104.914,0,0,1-15.821,32.37A10.628,10.628,0,0,1,20.971,89,11.964,11.964,0,0,1,14.2,75.916,144.116,144.116,0,0,1,25.222,43.85Z" transform="translate(26.467 87.349)"/><path class="a" d="M58.813,88.861A10.628,10.628,0,0,1,46.151,85.4,106.675,106.675,0,0,1,30.33,53.03l24.293-9.11A142.294,142.294,0,0,1,65.615,75.9,11.964,11.964,0,0,1,58.813,88.861Z" transform="translate(59.741 87.492)"/><path class="a" d="M67.813,57.272,53.086,70.754,16.647,55.905a9.11,9.11,0,0,1-5.071-5.223L1.585,24.477a9.12,9.12,0,0,1,17.066-6.438L27.123,40.51Z" transform="translate(0 22.761)"/><path class="a" d="M103.3,24.477,93.4,50.683a9.11,9.11,0,0,1-5.071,5.223L51.892,70.694,31,57.272c18.219-4.585,8.017-1,46.763-16.762l8.472-22.471A9.12,9.12,0,1,1,103.3,24.477Z" transform="translate(61.106 22.761)"/><path class="b" d="M21.925,43.884c-6.5-2.611-5.648-2.156-5.527-2.551a161.728,161.728,0,0,1,8.351-16l11.9,5.071Z" transform="translate(31.161 49.632)"/><path class="b" d="M19.4,43.85l24.293,9.322c-.638,2.065-1.306,4.039-1.974,5.921-10.871-1.063-19.191-4.16-24.87-9.292.85-2.247,1.761-4.251,2.551-5.952Z" transform="translate(32.288 87.349)"/><path class="b" d="M51.922,43.843,31,30.421c16.883-4.251,13.3-3.037,18.219-5.1,3.431,5.739,6.073,11.114,8.411,16.033C57.631,41.657,58.329,41.323,51.922,43.843Z" transform="translate(61.106 49.611)"/><path class="b" d="M54.592,43.88c.79,1.7,1.67,3.7,2.611,5.921-5.678,5.132-14.029,8.229-24.9,9.11-.668-1.852-1.336-3.826-1.974-5.891Z" transform="translate(59.741 87.41)"/><path class="c" d="M88.878,65.252c0,16.58-12.875,22.8-29.424,24.05a104.761,104.761,0,0,1-14.15,0C28.784,88,16,81.74,16,65.252c0-11.478,9.11-29.424,14.94-39.142H73.968c5.8,8.776,14.91,27.724,14.91,39.142Z" transform="translate(30.557 51.22)"/><path class="a" d="M68.585,30.877a33.159,33.159,0,0,1-4.221,1.852c-8.047,2.7-11.63,2.156-27.785,2.156A36.1,36.1,0,0,1,20,30.938c1.336-2.4,2.338-4.13,2.763-4.828H65.822C66.247,26.778,67.249,28.479,68.585,30.877Z" transform="translate(38.703 51.22)"/><path class="b" d="M65.309,79.992c-13.179,0-22.046.972-31.064-3.522A36.439,36.439,0,0,1,13.6,40.517c0-.729.364-3.522,2.035-18.037A24.293,24.293,0,0,1,39.923.98h35.5a24.293,24.293,0,0,1,24.293,21.5c1.792,15.547,2.035,17.4,2.035,18.037A36.439,36.439,0,0,1,65.309,79.992Z" transform="translate(25.4 0.041)"/><path class="a" d="M101.612,40.557A36.439,36.439,0,0,1,80.963,70.377a31.093,31.093,0,0,1-3.28,1.366C69.637,74.446,66.054,73.9,49.9,73.9A36.439,36.439,0,0,1,13.46,40.5c0-.729.364-3.522,2.035-18.037A24.293,24.293,0,0,1,39.787.96H75.437a24.293,24.293,0,0,1,24.293,21.5c1.64,15.669,1.883,17.521,1.883,18.1Z" transform="translate(25.384 0)"/><path class="d" d="M57.164,59.659H41.739a24.293,24.293,0,0,1-24.11-27.086L19.572,15.75A12.146,12.146,0,0,1,31.718,5H67.276A12.146,12.146,0,0,1,79.423,15.75l1.943,16.823a24.293,24.293,0,0,1-24.2,27.086Z" transform="translate(33.544 8.228)"/><path class="e" d="M53.366,33.037V54.293a3.037,3.037,0,0,1-3.037,3.037H26.037A3.037,3.037,0,0,1,23,54.293V33.037A3.037,3.037,0,0,1,26.037,30H50.329A3.037,3.037,0,0,1,53.366,33.037Z" transform="translate(44.813 59.143)"/><path class="f" d="M25.037,13.073a3.037,3.037,0,1,1,3.037-3.037A3.037,3.037,0,0,1,25.037,13.073Z" transform="translate(42.777 12.301)"/><path class="f" d="M47.256,13.073H29.037a3.037,3.037,0,1,1,0-6.073H47.256a3.037,3.037,0,0,1,0,6.073Z" transform="translate(50.923 12.301)"/><path class="c" d="M34.073,38.073H31.037a3.037,3.037,0,0,1,0-6.073h3.037a3.037,3.037,0,0,1,0,6.073Z" transform="translate(54.996 63.216)"/><path class="c" d="M34.073,41.073H31.037a3.037,3.037,0,0,1,0-6.073h3.037a3.037,3.037,0,0,1,0,6.073Z" transform="translate(54.996 69.326)"/><g transform="translate(1.008 4.118)"><path class="e" d="M9.037,20.219A3.037,3.037,0,0,1,6,17.183V5.037a3.037,3.037,0,1,1,6.073,0V17.183A3.037,3.037,0,0,1,9.037,20.219Z" transform="translate(9.183 -2)"/><path class="e" d="M19.183,10.073H7.037A3.037,3.037,0,0,1,7.037,4H19.183a3.037,3.037,0,1,1,0,6.073Z" transform="translate(5.11 2.073)"/><path class="e" d="M53.037,50.219A3.037,3.037,0,0,1,50,47.183V35.037a3.037,3.037,0,1,1,6.073,0V47.183A3.037,3.037,0,0,1,53.037,50.219Z" transform="translate(98.792 59.097)"/><path class="e" d="M63.183,40.073H51.037a3.037,3.037,0,0,1,0-6.073H63.183a3.037,3.037,0,0,1,0,6.073Z" transform="translate(94.719 63.171)"/><path class="e" d="M6.037,64.219A3.037,3.037,0,0,1,3,61.183V49.037a3.037,3.037,0,1,1,6.073,0V61.183A3.037,3.037,0,0,1,6.037,64.219Z" transform="translate(3.073 87.61)"/><path class="e" d="M16.183,54.073H4.037a3.037,3.037,0,0,1,0-6.073H16.183a3.037,3.037,0,1,1,0,6.073Z" transform="translate(-1 91.683)"/></g><path class="g" d="M56.914,46.479H41.488a24.293,24.293,0,0,1-23.9-19.768A67.442,67.442,0,0,1,80.478,14.565l.547,4.767a24.293,24.293,0,0,1-24.11,27.147Z" transform="translate(33.795 21.408)"/></g></svg>