<svg xmlns="http://www.w3.org/2000/svg" width="12.906" height="12.862" viewBox="0 0 12.906 12.862"><defs><style>.a{fill:#ee6002;}</style></defs><g transform="translate(-5.43 -5)"><path class="a" d="M43.574,7.149A1.074,1.074,0,1,0,42.5,6.074,1.076,1.076,0,0,0,43.574,7.149Zm0-1.433a.358.358,0,1,1-.358.358A.359.359,0,0,1,43.574,5.716Z" transform="translate(-31.759 0)"/><path class="a" d="M6.949,80.43l-.506.506-.506-.506-.506.506.506.506-.506.506.506.506.506-.506.506.506.506-.506-.506-.506.506-.506Z" transform="translate(0 -64.624)"/><path class="a" d="M80.452,82.8l-.463-.463-.507.507.97.969,1.328-1.328-.507-.507Z" transform="translate(-63.443 -65.954)"/><path class="a" d="M19.4,29.656h1.348v2.865h.716V28.94H19.4l-3.308-1.654V25h-.716v2.286L12.064,28.94H10v3.581h.716V29.656h1.348l3.666,1.833ZM15.73,27.907l2.781,1.39-2.781,1.39L12.95,29.3Z" transform="translate(-3.915 -17.135)"/></g></svg>