<svg xmlns="http://www.w3.org/2000/svg" width="15.419" height="18.316" viewBox="0 0 15.419 18.316"><defs><style>.a{fill:#e8e8e8;}</style></defs><path class="a" d="M9.695,18.316H2.862A2.865,2.865,0,0,1,0,15.454V5.76A2.865,2.865,0,0,1,2.862,2.9H9.695A2.865,2.865,0,0,1,12.557,5.76v9.695A2.865,2.865,0,0,1,9.695,18.316ZM2.862,4.329A1.433,1.433,0,0,0,1.431,5.76v9.695a1.433,1.433,0,0,0,1.431,1.431H9.695a1.433,1.433,0,0,0,1.431-1.431V5.76A1.433,1.433,0,0,0,9.695,4.329Zm12.557,9.337V2.862A2.865,2.865,0,0,0,12.557,0H4.615a.715.715,0,1,0,0,1.431h7.942a1.433,1.433,0,0,1,1.431,1.431v10.8a.715.715,0,0,0,1.431,0Zm0,0"/></svg>