<svg xmlns="http://www.w3.org/2000/svg" width="32.536" height="32.536" viewBox="0 0 32.536 32.536"><defs><style>.a{fill:#2196f3;}.b{fill:#fafafa;}</style></defs><path class="a" d="M3.389,0H29.147a3.389,3.389,0,0,1,3.389,3.389V29.147a3.389,3.389,0,0,1-3.389,3.389H3.389A3.389,3.389,0,0,1,0,29.147V3.389A3.389,3.389,0,0,1,3.389,0Z"/><path class="b" d="M224.856,69.423h2.711a.678.678,0,0,0,.678-.678V64.678a.678.678,0,0,0-.678-.678h-2.711a7.456,7.456,0,0,0-7.456,7.456v3.389h-3.389a.678.678,0,0,0-.678.678V79.59a.678.678,0,0,0,.678.678H217.4v12.2h5.423v-12.2h3.389a.678.678,0,0,0,.643-.464l1.356-4.067a.678.678,0,0,0-.643-.892h-4.745V71.456A2.034,2.034,0,0,1,224.856,69.423Z" transform="translate(-199.776 -59.933)"/></svg>