<svg xmlns="http://www.w3.org/2000/svg" width="56.052" height="55.118" viewBox="0 0 56.052 55.118"><defs><style>.a{fill:#bdc3c7;}.b{fill:#ecf0f1;}.c{fill:#547580;}.d{fill:#35495e;}.e{fill:#ffbe33;}.f{fill:#f0c419;}.g{fill:#f29c1f;}.h{fill:#e57e25;}.i{fill:#f3d55b;}.j{fill:#3f5c6c;}</style></defs><path class="a" d="M12.868,11h2.8v5.605h-2.8A1.868,1.868,0,0,1,11,14.737V12.868A1.868,1.868,0,0,1,12.868,11Z" transform="translate(-0.724 -0.724)"/><path class="a" d="M44,11h2.8a1.868,1.868,0,0,1,1.868,1.868v1.868A1.868,1.868,0,0,1,46.8,16.605H44Z" transform="translate(-2.895 -0.724)"/><path class="b" d="M43.026,34.432v7.474a4.671,4.671,0,0,1-4.671,4.671v8.408H19.671V46.576A4.671,4.671,0,0,1,15,41.905V34.432a8.408,8.408,0,0,1,6.063-8.072H36.944A8.408,8.408,0,0,1,43.026,34.432Z" transform="translate(-0.987 -1.734)"/><rect class="c" width="11" height="10" rx="1" transform="translate(23 29.873)"/><path class="d" d="M35.8,34v1.868H33.934a.934.934,0,0,1,0-1.868Z" transform="translate(-2.171 -2.237)"/><path class="d" d="M35.8,38v1.868H33.934a.934.934,0,0,1,0-1.868Z" transform="translate(-2.171 -2.5)"/><path class="d" d="M28.868,35.868h-.934a.934.934,0,0,1,0-1.868h.934a.934.934,0,1,1,0,1.868Z" transform="translate(-1.777 -2.237)"/><path class="d" d="M28.868,39.868h-.934a.934.934,0,0,1,0-1.868h.934a.934.934,0,1,1,0,1.868Z" transform="translate(-1.777 -2.5)"/><path class="a" d="M20.605,41.934a.934.934,0,0,1-.934.934H15V41h4.671A.934.934,0,0,1,20.605,41.934Z" transform="translate(-0.987 -2.698)"/><path class="a" d="M44.605,41v1.868H39.934a.934.934,0,1,1,0-1.868Z" transform="translate(-2.566 -2.698)"/><path class="a" d="M25.868,49.868h-.934a.934.934,0,1,1,0-1.868h.934a.934.934,0,1,1,0,1.868Z" transform="translate(-1.579 -3.158)"/><path class="a" d="M34.868,49.868h-.934a.934.934,0,0,1,0-1.868h.934a.934.934,0,1,1,0,1.868Z" transform="translate(-2.171 -3.158)"/><path class="e" d="M7.8,51.868H5.934a.934.934,0,0,1,0-1.868H7.8a.934.934,0,0,1,0,1.868Z" transform="translate(-0.329 -3.29)"/><path class="e" d="M19.474,51.868H12.934a.934.934,0,0,1,0-1.868h6.539a.934.934,0,0,1,0,1.868Z" transform="translate(-0.79 -3.29)"/><path class="e" d="M50.21,51.868H39.934a.934.934,0,0,1,0-1.868H50.21a.934.934,0,1,1,0,1.868Z" transform="translate(-2.566 -3.29)"/><path class="f" d="M2.934,7.605A.934.934,0,0,1,2,6.671V2.934a.934.934,0,0,1,1.868,0V6.671A.934.934,0,0,1,2.934,7.605Z" transform="translate(-0.132 -0.132)"/><path class="f" d="M4.671,5.868H.934A.934.934,0,1,1,.934,4H4.671a.934.934,0,1,1,0,1.868Z" transform="translate(0 -0.263)"/><path class="f" d="M56.934,29.605A.934.934,0,0,1,56,28.671V24.934a.934.934,0,0,1,1.868,0v3.737A.934.934,0,0,1,56.934,29.605Z" transform="translate(-3.685 -1.579)"/><path class="f" d="M58.671,27.868H54.934a.934.934,0,1,1,0-1.868h3.737a.934.934,0,1,1,0,1.868Z" transform="translate(-3.553 -1.711)"/><path class="f" d="M50.934,5.605A.934.934,0,0,1,50,4.671V.934a.934.934,0,0,1,1.868,0V4.671A.934.934,0,0,1,50.934,5.605Z" transform="translate(-3.29)"/><path class="f" d="M8.934,32.605A.934.934,0,0,1,8,31.671V27.934a.934.934,0,0,1,1.868,0v3.737A.934.934,0,0,1,8.934,32.605Z" transform="translate(-0.526 -1.777)"/><path class="f" d="M10.671,30.868H6.934a.934.934,0,0,1,0-1.868h3.737a.934.934,0,0,1,0,1.868Z" transform="translate(-0.395 -1.908)"/><path class="e" d="M12.868,55.868h-.934a.934.934,0,1,1,0-1.868h.934a.934.934,0,1,1,0,1.868Z" transform="translate(-0.724 -3.553)"/><path class="e" d="M52.605,55.868H47.934a.934.934,0,1,1,0-1.868h4.671a.934.934,0,1,1,0,1.868Z" transform="translate(-3.092 -3.553)"/><path class="a" d="M20.934,52.852A.934.934,0,0,1,20,51.918V34.934a.934.934,0,1,1,1.868,0V51.918A.934.934,0,0,1,20.934,52.852Z" transform="translate(-1.316 -2.237)"/><path class="a" d="M38.934,52.852A.934.934,0,0,1,38,51.918V34.934a.934.934,0,1,1,1.868,0V51.918A.934.934,0,0,1,38.934,52.852Z" transform="translate(-2.5 -2.237)"/><path class="a" d="M39.214,27.219a9.342,9.342,0,0,1-5.241,1.607H24.631a9.342,9.342,0,0,1-5.241-1.607,7.829,7.829,0,0,1,1.962-.859H37.233a7.829,7.829,0,0,1,1.981.859Z" transform="translate(-1.276 -1.734)"/><path class="f" d="M52.671,3.868H48.934a.934.934,0,0,1,0-1.868h3.737a.934.934,0,1,1,0,1.868Z" transform="translate(-3.158 -0.132)"/><rect class="b" width="29" height="23" rx="10" transform="translate(14 1.873)"/><path class="g" d="M39.552,10.868v5.605a5.605,5.605,0,0,1-5.605,5.605H24.605A5.605,5.605,0,0,1,19,16.474V10.868A1.868,1.868,0,0,1,20.868,9H37.684A1.868,1.868,0,0,1,39.552,10.868Z" transform="translate(-1.25 -0.592)"/><path class="h" d="M39.552,12.75v3.97a5.605,5.605,0,0,1-5.605,5.605H24.605A5.605,5.605,0,0,1,19,16.72v-.934C23.4,17.038,32.2,18.411,39.552,12.75Z" transform="translate(-1.25 -0.839)"/><path class="i" d="M22.934,14.8a.934.934,0,0,1-.663-1.6l.934-.934A.938.938,0,0,1,24.531,13.6c-.99.99-1.112,1.205-1.6,1.205Z" transform="translate(-1.447 -0.789)"/><path class="i" d="M23.934,18.539a.934.934,0,0,1-.663-1.6l4.671-4.671A.938.938,0,0,1,29.268,13.6L24.6,18.268a.934.934,0,0,1-.663.271Z" transform="translate(-1.513 -0.789)"/><path class="a" d="M29.276,59.079H19.934a.934.934,0,0,1,0-1.868h8.408V46.934a.934.934,0,1,1,1.868,0v11.21A.934.934,0,0,1,29.276,59.079Z" transform="translate(-1.995 -4.516)"/><path class="j" d="M20.8,53h5.605a2.8,2.8,0,0,1,2.8,2.8v2.8H18V55.8A2.8,2.8,0,0,1,20.8,53Z" transform="translate(-1.184 -3.487)"/><path class="d" d="M32.8,53h5.605a2.8,2.8,0,0,1,2.8,2.8v2.8H30V55.8A2.8,2.8,0,0,1,32.8,53Z" transform="translate(-1.974 -3.487)"/></svg>