<svg xmlns="http://www.w3.org/2000/svg" width="12.252" height="12.571" viewBox="0 0 12.252 12.571"><defs><style>.a{fill:#02eebe;}</style></defs><g transform="translate(-0.324 0)"><path class="a" d="M11.7,231.574a1.313,1.313,0,0,1-1.313,1.313H1.821l1.728-1.728-.619-.619L.455,233.015a.438.438,0,0,0,0,.619l2.475,2.475.619-.619-1.728-1.728h8.57a2.191,2.191,0,0,0,2.188-2.188v-1.75H11.7Zm0,0" transform="translate(-0.003 -223.539)"/><path class="a" d="M1.2,4.535A1.313,1.313,0,0,1,2.512,3.222h8.57L9.354,4.951l.619.619,2.475-2.475a.438.438,0,0,0,0-.619L9.973,0,9.354.619l1.728,1.728H2.512A2.19,2.19,0,0,0,.324,4.535v1.75H1.2Zm0,0"/></g></svg>