<svg xmlns="http://www.w3.org/2000/svg" width="15.776" height="9" viewBox="0 0 15.776 9"><defs><style>.a{fill:#0251ee;}</style></defs><g transform="translate(-5.094 -10)"><path class="a" d="M19.4,14.215a8.714,8.714,0,0,1-.374,2.691A16.983,16.983,0,0,1,18.093,19h1.166a13.931,13.931,0,0,0,1.109-2.024,7.45,7.45,0,0,0,.5-2.819,7.58,7.58,0,0,0-.109-1.255,6.812,6.812,0,0,0-.366-1.318,6.391,6.391,0,0,0-.376-.847c-.069-.121-.224-.377-.446-.736H18.367a12.775,12.775,0,0,1,.6,1.391A8.786,8.786,0,0,1,19.4,14.215Z"/><path class="a" d="M6.563,14.215a8.714,8.714,0,0,0,.374,2.691A16.938,16.938,0,0,0,7.871,19H6.7A13.931,13.931,0,0,1,5.6,16.976a7.45,7.45,0,0,1-.5-2.819A7.58,7.58,0,0,1,5.2,12.9a6.812,6.812,0,0,1,.366-1.318,6.391,6.391,0,0,1,.376-.847c.07-.122.224-.378.447-.737H7.6a12.775,12.775,0,0,0-.6,1.391A8.8,8.8,0,0,0,6.563,14.215Z"/><path class="a" d="M17.03,12.088a1.169,1.169,0,0,1-.361.9,1.252,1.252,0,0,1-.882.335,2.457,2.457,0,0,1-.615-.078q-.3-.078-.524-.156a1.885,1.885,0,0,0-.305.313c-.135.161-.286.356-.456.586q.232,1,.377,1.417c.1.279.186.563.272.85a1.213,1.213,0,0,0,.325.536,1,1,0,0,0,.678.193,1.731,1.731,0,0,0,.423-.065,3.414,3.414,0,0,0,.417-.13l-.144.589a7.952,7.952,0,0,1-1.125.4,3.429,3.429,0,0,1-.859.125,2.883,2.883,0,0,1-.541-.052,1.438,1.438,0,0,1-.487-.189,1.473,1.473,0,0,1-.407-.357,1.908,1.908,0,0,1-.283-.6,5.1,5.1,0,0,1-.144-.547c-.044-.2-.088-.385-.132-.541-.126.188-.217.326-.273.417s-.139.22-.247.385a5.794,5.794,0,0,1-.893,1.123,1.316,1.316,0,0,1-.9.335.945.945,0,0,1-.677-.267.917.917,0,0,1-.28-.7A1.19,1.19,0,0,1,9.343,16a1.257,1.257,0,0,1,.885-.335,2.371,2.371,0,0,1,.6.075q.288.075.541.166a3.1,3.1,0,0,0,.3-.307,6.247,6.247,0,0,0,.446-.566c-.145-.581-.262-1.02-.354-1.315s-.186-.588-.282-.879a1.182,1.182,0,0,0-.339-.538.989.989,0,0,0-.664-.191,1.637,1.637,0,0,0-.437.068c-.161.046-.3.088-.4.127l.143-.589a6.7,6.7,0,0,1,1.109-.394,3.712,3.712,0,0,1,.876-.131,2.858,2.858,0,0,1,.547.046,1.571,1.571,0,0,1,.887.556,1.733,1.733,0,0,1,.283.6c.054.174.1.354.146.54s.081.348.112.482l.283-.43c.1-.148.181-.278.25-.391a5.257,5.257,0,0,1,.9-1.13,1.33,1.33,0,0,1,.9-.342.931.931,0,0,1,.958.971Z"/></g></svg>