<svg width="120" height="120" viewBox="0 0 120 120" fill="none" xmlns="http://www.w3.org/2000/svg">
<path d="M120 60C120 93.1366 93.1366 120 60 120C26.8625 120 0 93.1366 0 60C0 26.8625 26.8625 0 60 0C93.1366 0 120 26.8625 120 60Z" fill="#F8DB46"/>
<path d="M89.5587 105.37V112.225C80.8347 117.174 70.7474 120 59.9991 120C53.6636 120 47.5607 119.018 41.8277 117.199C37.836 115.932 34.0228 114.257 30.4404 112.225V105.37C30.4404 93.6714 39.4501 84.074 50.9134 83.1484C51.5158 83.0989 52.1228 83.0742 52.738 83.0742H67.2583C68.9749 83.0742 70.6448 83.2656 72.2488 83.6327C82.1622 85.9005 89.5587 94.7737 89.5587 105.37V105.37Z" fill="#512375"/>
<path d="M89.5597 105.369V112.224C84.2332 115.246 78.4003 117.477 72.2169 118.753C68.7534 119.471 65.1801 119.889 61.5262 119.98C61.02 119.992 60.51 119.999 60.001 119.999C53.6655 119.999 47.5626 119.018 41.8296 117.198V105.369C41.8296 103.79 41.9935 102.247 42.3075 100.76C42.9438 97.7234 44.1999 94.9174 45.9366 92.4729C46.6782 91.4274 47.5114 90.4478 48.4196 89.5469L53.7342 93.6979L60.0037 88.7998L66.2723 93.6979L72.54 88.7998L78.8087 93.6979L83.4696 90.0587C87.2462 94.0504 89.5597 99.4401 89.5597 105.369V105.369Z" fill="#673389"/>
<path d="M61.5354 88.1948V119.98C61.0236 119.993 60.5146 120 60.0001 120C59.4855 120 58.9738 119.993 58.4647 119.978V88.1948H61.5354Z" fill="#512375"/>
<path d="M59.9973 92.202L49.9595 97.7803L46.9053 83.5768L53.1428 79.9028" fill="#512375"/>
<path d="M59.9973 92.202L70.0352 97.7803L73.0894 83.5768L66.8519 79.9028" fill="#512375"/>
<path d="M67.9542 74.4844V84.2476C67.9542 87.8218 65.5976 90.843 62.3511 91.8464C61.6086 92.0762 60.8167 92.2017 59.9973 92.2017C55.6046 92.2017 52.0432 88.6403 52.0432 84.2476V74.4844H67.9542Z" fill="#EAA27F"/>
<path d="M91.3449 89.9431L85.0781 85.045L78.8086 89.9431L72.54 85.045L66.2723 89.9431L60.0037 85.045L53.7341 89.9431L47.4646 85.045L41.1923 89.9431L34.9237 85.045L34.5364 85.3462L28.6514 89.9431C31.5784 64.8 31.5784 39.6587 28.6514 14.5146C30.4193 14.2162 32.1899 13.9442 33.9587 13.6998C53.0896 11.0201 72.2168 11.2947 91.3449 14.5146C88.4216 39.6587 88.4216 64.8 91.3449 89.9431Z" fill="#FF5D00"/>
<path d="M58.5856 56.6005L55.6907 57.1754L48.2996 58.643L44.4132 59.4139L41.1851 48.1025L48.0332 47.3948L52.7985 46.905L56.5824 46.5132L58.5856 56.6005Z" fill="#EAA27F"/>
<path d="M78.8113 48.1025L75.5841 59.4139L71.6995 58.643L64.3057 57.1754L61.4117 56.6005L63.4149 46.5132L67.1988 46.905L71.9669 47.3948L78.8113 48.1025Z" fill="#EAA27F"/>
<path d="M57.3194 52.9514C57.3194 54.5728 56.7023 56.0569 55.6907 57.1757L48.2996 58.6432L44.4132 59.4141L41.1851 48.1028L48.0332 47.3951L52.7985 46.9053C55.4087 47.6743 57.3194 50.0931 57.3194 52.9514Z" fill="#F6BA97"/>
<path d="M54.137 52.9506C54.137 54.6754 52.739 56.0734 51.0141 56.0734C49.2892 56.0734 47.8912 54.6754 47.8912 52.9506C47.8912 51.2257 49.2892 49.8286 51.0141 49.8286C52.739 49.8286 54.137 51.2257 54.137 52.9506Z" fill="#2F373B"/>
<path d="M75.2902 52.9512C75.2902 55.457 73.8208 57.6268 71.6995 58.643L64.3057 57.1754L61.4117 56.6005L63.4149 46.5132L67.1988 46.905L71.9669 47.3948C73.9426 48.4596 75.2902 50.5516 75.2902 52.9512Z" fill="#F6BA97"/>
<path d="M72.106 52.9506C72.106 54.6754 70.708 56.0734 68.9832 56.0734C67.2583 56.0734 65.8612 54.6754 65.8612 52.9506C65.8612 51.2257 67.2583 49.8286 68.9832 49.8286C70.708 49.8286 72.106 51.2257 72.106 52.9506V52.9506Z" fill="#2F373B"/>
<path d="M53.4998 52.3991C53.4998 53.1379 52.901 53.7376 52.1622 53.7376C51.4233 53.7376 50.8246 53.1379 50.8246 52.3991C50.8246 51.6603 51.4233 51.0615 52.1622 51.0615C52.901 51.0615 53.4998 51.6603 53.4998 52.3991Z" fill="white"/>
<path d="M71.6226 52.3991C71.6226 53.1379 71.0239 53.7376 70.285 53.7376C69.5453 53.7376 68.9465 53.1379 68.9465 52.3991C68.9465 51.6603 69.5453 51.0615 70.285 51.0615C71.0239 51.0615 71.6226 51.6603 71.6226 52.3991Z" fill="white"/>
<path d="M34.5364 85.3466L28.6514 89.9435C31.5784 64.8004 31.5784 39.6591 28.6514 14.515C30.4193 14.2166 32.1899 13.9446 33.9587 13.7002C36.3583 27.228 38.9932 61.0192 34.5364 85.3466V85.3466Z" fill="#D65A05"/>
</svg>
