<svg width="120" height="120" viewBox="0 0 120 120" fill="none" xmlns="http://www.w3.org/2000/svg">
<path d="M60 120C93.1371 120 120 93.1371 120 60C120 26.8629 93.1371 0 60 0C26.8629 0 0 26.8629 0 60C0 93.1371 26.8629 120 60 120Z" fill="#F9A826"/>
<path d="M54.0538 82.8882C52.704 82.8905 51.39 82.4538 50.31 81.644L50.2431 81.5938L36.1423 70.8071C35.4892 70.3064 34.9411 69.682 34.5294 68.9696C34.1176 68.2571 33.8502 67.4705 33.7424 66.6547C33.6347 65.8388 33.6887 65.0098 33.9013 64.2148C34.114 63.4199 34.4811 62.6746 34.9818 62.0215C35.4824 61.3685 36.1068 60.8204 36.8193 60.4086C37.5318 59.9969 38.3184 59.7295 39.1342 59.6217C39.95 59.514 40.7791 59.568 41.5741 59.7806C42.369 59.9933 43.1143 60.3604 43.7673 60.8611L52.9007 67.865L74.4834 39.708C74.9839 39.0552 75.608 38.5074 76.3202 38.0958C77.0324 37.6842 77.8187 37.4169 78.6341 37.3092C79.4496 37.2015 80.2783 37.2555 81.0729 37.468C81.8675 37.6806 82.6125 38.0476 83.2653 38.548L83.2672 38.5494L83.1332 38.7354L83.2707 38.5494C84.5877 39.5616 85.4494 41.0549 85.6666 42.7016C85.8838 44.3484 85.4389 46.014 84.4294 47.3331L59.0435 80.437C58.4562 81.1997 57.7011 81.8169 56.8367 82.2407C55.9724 82.6645 55.0219 82.8835 54.0593 82.8807L54.0538 82.8882Z" fill="white"/>
</svg>
