<svg width="281" height="253" viewBox="0 0 281 253" fill="none" xmlns="http://www.w3.org/2000/svg">
<g clip-path="url(#clip0_202_1134)">
<path d="M69.6221 64.1778C64.7903 49.7434 49.8693 41.721 40.0534 45.0027C30.2375 48.2844 23.1503 63.6647 27.9821 78.0991C32.4545 91.4598 46.0065 99.173 55.3293 97.7966C55.262 97.9134 55.2178 98.042 55.1989 98.1755L54.9138 100.552C54.8921 100.733 54.917 100.916 54.9863 101.085C55.0556 101.254 55.1669 101.402 55.3097 101.516C55.4524 101.63 55.6219 101.705 55.802 101.735C55.982 101.765 56.1668 101.748 56.3386 101.687L61.1409 99.9656C61.3128 99.904 61.466 99.7996 61.5861 99.6622C61.7062 99.5248 61.7891 99.359 61.8271 99.1805C61.865 99.0021 61.8567 98.8169 61.8028 98.6426C61.749 98.4682 61.6515 98.3106 61.5196 98.1845L59.7885 96.5308C59.727 96.4745 59.659 96.4257 59.586 96.3853C67.901 91.9071 74.1042 77.5676 69.6221 64.1778Z" fill="#F2F2F2"/>
<path d="M52.1305 53.558C56.1431 55.6275 59.2075 59.1577 60.6911 63.4198C62.1747 67.6819 61.9643 72.3506 60.1033 76.4622C59.6878 77.4076 61.2159 77.9047 61.6287 76.9655C63.5826 72.5168 63.7814 67.4943 62.1851 62.9053C60.5888 58.3162 57.3155 54.4999 53.0217 52.2218C52.1154 51.7418 51.2175 53.0744 52.1305 53.558Z" fill="white"/>
<path d="M265.243 43.1377C260.411 28.7034 245.49 20.681 235.674 23.9627C225.859 27.2444 218.771 42.6246 223.603 57.059C228.076 70.4198 241.628 78.133 250.95 76.7565C250.883 76.8734 250.839 77.002 250.82 77.1355L250.535 79.5116C250.513 79.6927 250.538 79.8764 250.607 80.0452C250.677 80.214 250.788 80.3622 250.931 80.4759C251.074 80.5896 251.243 80.665 251.423 80.6948C251.603 80.7247 251.788 80.708 251.96 80.6465L256.762 78.9256C256.934 78.864 257.087 78.7596 257.207 78.6222C257.327 78.4847 257.41 78.3189 257.448 78.1405C257.486 77.962 257.478 77.7768 257.424 77.6025C257.37 77.4282 257.273 77.2705 257.141 77.1444L255.41 75.4908C255.348 75.4345 255.28 75.3856 255.207 75.3453C263.522 70.867 269.725 56.5276 265.243 43.1377Z" fill="#F2F2F2"/>
<path d="M247.752 32.5179C251.764 34.5875 254.829 38.1177 256.312 42.3798C257.796 46.6419 257.585 51.3106 255.724 55.4221C255.309 56.3675 256.837 56.8647 257.25 55.9255C259.204 51.4768 259.402 46.4543 257.806 41.8652C256.21 37.2762 252.937 33.4599 248.643 31.1817C247.737 30.7018 246.839 32.0344 247.752 32.5179Z" fill="white"/>
<path d="M151.643 19.9053C146.811 5.47095 131.89 -2.55145 122.074 0.730251C112.258 4.01195 105.171 19.3922 110.003 33.8266C114.475 47.1874 128.027 54.9006 137.35 53.5241C137.283 53.641 137.238 53.7696 137.219 53.903L136.934 56.2792C136.913 56.4603 136.938 56.644 137.007 56.8128C137.076 56.9815 137.187 57.1298 137.33 57.2435C137.473 57.3572 137.642 57.4326 137.822 57.4624C138.003 57.4923 138.187 57.4756 138.359 57.414L143.161 55.6931C143.333 55.6316 143.487 55.5271 143.607 55.3897C143.727 55.2523 143.81 55.0865 143.848 54.9081C143.886 54.7296 143.877 54.5444 143.823 54.3701C143.77 54.1958 143.672 54.0381 143.54 53.912L141.809 52.2583C141.747 52.202 141.679 52.1532 141.606 52.1129C149.922 47.6346 156.125 33.2951 151.643 19.9053Z" fill="#F2F2F2"/>
<path d="M134.151 9.28549C138.164 11.3551 141.228 14.8853 142.712 19.1474C144.195 23.4095 143.985 28.0782 142.124 32.1897C141.708 33.1351 143.236 33.6323 143.649 32.6931C145.603 28.2443 145.802 23.2218 144.206 18.6328C142.609 14.0437 139.336 10.2275 135.042 7.9493C134.136 7.46935 133.238 8.80197 134.151 9.28549Z" fill="white"/>
<path d="M127.409 89.3604C128.045 89.3604 128.561 88.8453 128.561 88.21C128.561 87.5746 128.045 87.0596 127.409 87.0596C126.774 87.0596 126.258 87.5746 126.258 88.21C126.258 88.8453 126.774 89.3604 127.409 89.3604Z" fill="#CCCCCC"/>
<path d="M124.955 135.509C126.211 135.509 127.229 134.492 127.229 133.236C127.229 131.981 126.211 130.964 124.955 130.964C123.699 130.964 122.681 131.981 122.681 133.236C122.681 134.492 123.699 135.509 124.955 135.509Z" fill="#CCCCCC"/>
<path d="M86.8858 126.758C87.6115 126.758 88.1998 126.17 88.1998 125.445C88.1998 124.72 87.6115 124.132 86.8858 124.132C86.1601 124.132 85.5718 124.72 85.5718 125.445C85.5718 126.17 86.1601 126.758 86.8858 126.758Z" fill="#CCCCCC"/>
<path d="M106.848 105.255C107.634 105.255 108.271 104.619 108.271 103.833C108.271 103.048 107.634 102.411 106.848 102.411C106.062 102.411 105.425 103.048 105.425 103.833C105.425 104.619 106.062 105.255 106.848 105.255Z" fill="#CCCCCC"/>
<path d="M176.871 188.517C177.507 188.517 178.022 188.002 178.022 187.366C178.022 186.731 177.507 186.216 176.871 186.216C176.235 186.216 175.72 186.731 175.72 187.366C175.72 188.002 176.235 188.517 176.871 188.517Z" fill="#CCCCCC"/>
<path d="M139.172 164.862C140.428 164.862 141.446 163.844 141.446 162.589C141.446 161.334 140.428 160.316 139.172 160.316C137.917 160.316 136.898 161.334 136.898 162.589C136.898 163.844 137.917 164.862 139.172 164.862Z" fill="#CCCCCC"/>
<path d="M165.066 134.946C165.792 134.946 166.38 134.358 166.38 133.633C166.38 132.907 165.792 132.319 165.066 132.319C164.341 132.319 163.752 132.907 163.752 133.633C163.752 134.358 164.341 134.946 165.066 134.946Z" fill="#CCCCCC"/>
<path d="M173.709 163.17C174.495 163.17 175.132 162.534 175.132 161.748C175.132 160.963 174.495 160.326 173.709 160.326C172.923 160.326 172.286 160.963 172.286 161.748C172.286 162.534 172.923 163.17 173.709 163.17Z" fill="#CCCCCC"/>
<path d="M250.354 236.414C251.61 235.363 249.913 231.272 246.564 227.275C243.216 223.277 239.483 220.889 238.228 221.94C236.972 222.99 238.669 227.082 242.017 231.079C245.366 235.076 249.099 237.465 250.354 236.414Z" fill="#2F2E41"/>
<path d="M224.199 244.778C234.632 244.778 243.089 236.326 243.089 225.9C243.089 215.473 234.632 207.021 224.199 207.021C213.766 207.021 205.309 215.473 205.309 225.9C205.309 236.326 213.766 244.778 224.199 244.778Z" fill="#2F2E41"/>
<path d="M232.195 240.715H226.457V250.99H232.195V240.715Z" fill="#2F2E41"/>
<path d="M220.717 240.715H214.978V250.99H220.717V240.715Z" fill="#2F2E41"/>
<path d="M227.413 252.902C230.054 252.902 232.195 252.099 232.195 251.11C232.195 250.12 230.054 249.317 227.413 249.317C224.772 249.317 222.631 250.12 222.631 251.11C222.631 252.099 224.772 252.902 227.413 252.902Z" fill="#2F2E41"/>
<path d="M215.935 252.664C218.576 252.664 220.717 251.861 220.717 250.871C220.717 249.882 218.576 249.079 215.935 249.079C213.293 249.079 211.152 249.882 211.152 250.871C211.152 251.861 213.293 252.664 215.935 252.664Z" fill="#2F2E41"/>
<path d="M218.268 202.169C219.954 195.381 227.4 191.386 234.897 193.247C242.395 195.107 247.106 202.119 245.419 208.907C243.733 215.696 238.137 215.718 230.639 213.857C223.141 211.996 216.581 208.958 218.268 202.169Z" fill="#E6E6E6"/>
<path d="M211.457 221.185C212.159 219.706 208.907 216.697 204.194 214.463C199.481 212.229 195.091 211.616 194.389 213.095C193.688 214.574 196.939 217.583 201.652 219.817C206.365 222.051 210.755 222.664 211.457 221.185Z" fill="#2F2E41"/>
<path d="M221.375 228.21C224.853 228.21 227.673 225.392 227.673 221.916C227.673 218.44 224.853 215.622 221.375 215.622C217.897 215.622 215.077 218.44 215.077 221.916C215.077 225.392 217.897 228.21 221.375 228.21Z" fill="white"/>
<path d="M218.787 221.757C219.947 221.757 220.887 220.818 220.887 219.66C220.887 218.501 219.947 217.562 218.787 217.562C217.628 217.562 216.688 218.501 216.688 219.66C216.688 220.818 217.628 221.757 218.787 221.757Z" fill="#3F3D56"/>
<path d="M225.326 235.029C225.424 235.571 225.415 236.127 225.299 236.666C225.183 237.204 224.961 237.715 224.647 238.168C224.334 238.621 223.934 239.008 223.47 239.306C223.007 239.605 222.489 239.81 221.947 239.908C221.404 240.007 220.848 239.998 220.309 239.882C219.77 239.765 219.259 239.544 218.806 239.231C218.352 238.917 217.965 238.517 217.666 238.054C217.368 237.591 217.163 237.074 217.064 236.532L217.063 236.523C216.65 234.243 218.414 233.436 220.696 233.023C222.977 232.611 224.913 232.748 225.326 235.029Z" fill="white"/>
<path d="M68.8977 212.701C70.7601 207.832 71.0298 203.411 69.5002 202.826C67.9706 202.242 65.2208 205.716 63.3584 210.585C61.4961 215.455 61.2263 219.876 62.756 220.46C64.2856 221.045 67.0353 217.571 68.8977 212.701Z" fill="#2F2E41"/>
<path d="M48.6677 244.778C59.1003 244.778 67.5576 236.326 67.5576 225.9C67.5576 215.473 59.1003 207.021 48.6677 207.021C38.2351 207.021 29.7778 215.473 29.7778 225.9C29.7778 236.326 38.2351 244.778 48.6677 244.778Z" fill="#2F2E41"/>
<path d="M45.7983 240.715H40.0596V250.99H45.7983V240.715Z" fill="#2F2E41"/>
<path d="M57.2753 240.715H51.5366V250.99H57.2753V240.715Z" fill="#2F2E41"/>
<path d="M44.8418 252.902C47.483 252.902 49.6241 252.099 49.6241 251.11C49.6241 250.12 47.483 249.317 44.8418 249.317C42.2007 249.317 40.0596 250.12 40.0596 251.11C40.0596 252.099 42.2007 252.902 44.8418 252.902Z" fill="#2F2E41"/>
<path d="M56.3189 252.664C58.96 252.664 61.1011 251.861 61.1011 250.871C61.1011 249.882 58.96 249.079 56.3189 249.079C53.6777 249.079 51.5366 249.882 51.5366 250.871C51.5366 251.861 53.6777 252.664 56.3189 252.664Z" fill="#2F2E41"/>
<path d="M49.1464 227.572C52.712 227.572 55.6025 224.683 55.6025 221.12C55.6025 217.557 52.712 214.668 49.1464 214.668C45.5809 214.668 42.6904 217.557 42.6904 221.12C42.6904 224.683 45.5809 227.572 49.1464 227.572Z" fill="white"/>
<path d="M49.1466 223.271C50.3352 223.271 51.2987 222.308 51.2987 221.12C51.2987 219.933 50.3352 218.97 49.1466 218.97C47.9581 218.97 46.9946 219.933 46.9946 221.12C46.9946 222.308 47.9581 223.271 49.1466 223.271Z" fill="#3F3D56"/>
<path d="M30.3447 208.343C28.8194 201.517 33.6951 194.619 41.2348 192.936C48.7745 191.254 56.1232 195.424 57.6484 202.251C59.1737 209.077 54.1768 211.595 46.6371 213.277C39.0974 214.96 31.87 215.17 30.3447 208.343Z" fill="#E6E6E6"/>
<path d="M35.9255 221.185C36.6273 219.706 33.3755 216.697 28.6624 214.463C23.9493 212.229 19.5598 211.616 18.858 213.095C18.1563 214.574 21.4081 217.583 26.1212 219.817C30.8342 222.051 35.2238 222.664 35.9255 221.185Z" fill="#2F2E41"/>
<path d="M39.3892 232.71C39.3892 234.557 44.1495 238.206 49.4319 238.206C54.7142 238.206 59.667 233.004 59.667 231.156C59.667 229.309 54.7142 231.515 49.4319 231.515C44.1496 231.515 39.3892 230.862 39.3892 232.71Z" fill="white"/>
<path d="M138.899 226.805C149.331 226.805 157.788 218.353 157.788 207.927C157.788 197.501 149.331 189.049 138.899 189.049C128.466 189.049 120.009 197.501 120.009 207.927C120.009 218.353 128.466 226.805 138.899 226.805Z" fill="#2F2E41"/>
<path d="M136.03 222.743H130.291V233.019H136.03V222.743Z" fill="#2F2E41"/>
<path d="M147.507 222.743H141.768V233.019H147.507V222.743Z" fill="#2F2E41"/>
<path d="M135.073 234.93C137.714 234.93 139.856 234.128 139.856 233.138C139.856 232.148 137.714 231.346 135.073 231.346C132.432 231.346 130.291 232.148 130.291 233.138C130.291 234.128 132.432 234.93 135.073 234.93Z" fill="#2F2E41"/>
<path d="M146.55 234.691C149.192 234.691 151.333 233.889 151.333 232.899C151.333 231.909 149.192 231.106 146.55 231.106C143.909 231.106 141.768 231.909 141.768 232.899C141.768 233.889 143.909 234.691 146.55 234.691Z" fill="#2F2E41"/>
<path d="M120.575 190.372C119.049 183.545 123.925 176.647 131.465 174.965C139.005 173.282 146.353 177.452 147.878 184.279C149.404 191.105 144.407 193.623 136.867 195.306C129.327 196.988 122.1 197.198 120.575 190.372Z" fill="#FFBC04"/>
<path d="M159.255 199.678C163.346 195.586 165.62 191.229 164.335 189.946C163.05 188.662 158.692 190.939 154.601 195.03C150.51 199.122 148.235 203.479 149.521 204.762C150.806 206.046 155.164 203.769 159.255 199.678Z" fill="#2F2E41"/>
<path d="M123.673 206.078C124.958 204.794 122.684 200.437 118.593 196.346C114.502 192.254 110.144 189.978 108.858 191.261C107.573 192.545 109.848 196.902 113.939 200.993C118.029 205.085 122.388 207.361 123.673 206.078Z" fill="#2F2E41"/>
<path d="M253.74 88.1157C253.113 68.7588 239.847 53.4797 224.109 53.9889C189.085 55.0261 188.229 119.214 222.045 123.825L221.329 129.513L231.772 129.175L230.69 123.545C244.293 120.541 254.308 105.665 253.74 88.1157Z" fill="#FF6584"/>
<path d="M206.694 98.8475L202.748 98.9751C201.201 91.6269 200.956 84.0644 202.024 76.6316L205.97 76.5039C204.512 84.2845 204.754 91.7324 206.694 98.8475Z" fill="white"/>
<path d="M232.285 123.457L220.449 123.84L220.534 126.469L232.37 126.086L232.285 123.457Z" fill="#3F3D56"/>
<path d="M197.906 224.111L196.714 223.554L226.018 124.238L227.21 124.796L197.906 224.111Z" fill="#3F3D56"/>
<path d="M277.994 104.484C285.15 86.4861 279.09 67.185 264.457 61.374C231.93 48.3529 205.508 106.864 234.67 124.582L231.742 129.511L241.453 133.367L242.709 127.774C256.381 130.445 271.506 120.802 277.994 104.484Z" fill="#FFBC04"/>
<path d="M230.571 95.5562L226.902 94.0993C228.419 86.7448 231.215 79.7133 235.163 73.3242L238.832 74.7811C234.388 81.3337 231.634 88.2587 230.571 95.5562Z" fill="white"/>
<path d="M233.201 123.958L232.229 126.402L243.235 130.773L244.207 128.329L233.201 123.958Z" fill="#3F3D56"/>
<path d="M197.674 221.497L196.531 220.846L237.444 127.538L238.587 128.188L197.674 221.497Z" fill="#3F3D56"/>
<path d="M55.6126 89.3658C47.8698 71.6118 29.8918 62.316 15.4577 68.6031C-16.7021 82.5063 6.24644 142.464 39.3717 134.255L40.8103 139.804L50.3892 135.632L47.301 130.801C58.829 122.984 62.6324 105.462 55.6126 89.3658Z" fill="#FFBC04"/>
<path d="M15.8677 116.719L12.249 118.295C8.09378 112.039 5.06879 105.103 3.31152 97.8018L6.93026 96.2256C8.45431 103.993 11.4335 110.825 15.8677 116.719Z" fill="white"/>
<path d="M48.7493 130.131L37.8931 134.859L38.9445 137.27L49.8007 132.542L48.7493 130.131Z" fill="#3F3D56"/>
<path d="M73.8678 224.365C73.6985 224.407 73.5194 224.38 73.37 224.29C73.2205 224.2 73.113 224.055 73.071 223.885L44.4702 133.317L45.7473 133.001L74.348 223.569C74.3688 223.653 74.3729 223.74 74.36 223.825C74.3472 223.91 74.3176 223.992 74.273 224.066C74.2284 224.14 74.1697 224.205 74.1002 224.256C74.0306 224.307 73.9517 224.344 73.8678 224.365Z" fill="#3F3D56"/>
<path d="M81.5116 253H12.6495C12.5332 253 12.4217 252.954 12.3394 252.871C12.2572 252.789 12.2109 252.678 12.2109 252.561C12.2109 252.445 12.2572 252.334 12.3394 252.251C12.4217 252.169 12.5332 252.123 12.6495 252.123H81.5116C81.628 252.123 81.7395 252.169 81.8218 252.251C81.9041 252.334 81.9503 252.445 81.9503 252.561C81.9503 252.678 81.9041 252.789 81.8218 252.871C81.7395 252.954 81.628 253 81.5116 253Z" fill="#CCCCCC"/>
<path d="M256.518 253H187.656C187.54 253 187.428 252.954 187.346 252.871C187.263 252.789 187.217 252.678 187.217 252.561C187.217 252.445 187.263 252.334 187.346 252.251C187.428 252.169 187.54 252.123 187.656 252.123H256.518C256.634 252.123 256.746 252.169 256.828 252.251C256.91 252.334 256.957 252.445 256.957 252.561C256.957 252.678 256.91 252.789 256.828 252.871C256.746 252.954 256.634 253 256.518 253Z" fill="#CCCCCC"/>
<path d="M174.497 235.028H105.635C105.519 235.028 105.407 234.982 105.325 234.9C105.243 234.817 105.197 234.706 105.197 234.59C105.197 234.473 105.243 234.362 105.325 234.28C105.407 234.198 105.519 234.151 105.635 234.151H174.497C174.614 234.151 174.725 234.198 174.808 234.28C174.89 234.362 174.936 234.473 174.936 234.59C174.936 234.706 174.89 234.817 174.808 234.9C174.725 234.982 174.614 235.028 174.497 235.028Z" fill="#CCCCCC"/>
<path d="M138.104 211.704C141.67 211.704 144.561 208.815 144.561 205.252C144.561 201.688 141.67 198.8 138.104 198.8C134.539 198.8 131.648 201.688 131.648 205.252C131.648 208.815 134.539 211.704 138.104 211.704Z" fill="white"/>
<path d="M138.105 207.403C139.293 207.403 140.257 206.44 140.257 205.252C140.257 204.064 139.293 203.102 138.105 203.102C136.916 203.102 135.953 204.064 135.953 205.252C135.953 206.44 136.916 207.403 138.105 207.403Z" fill="#3F3D56"/>
<path d="M143.229 217.185C143.429 218.28 143.185 219.409 142.551 220.324C141.918 221.239 140.946 221.865 139.851 222.065C138.755 222.264 137.625 222.02 136.71 221.387C135.794 220.754 135.167 219.783 134.968 218.688L134.967 218.68C134.553 216.399 136.318 215.593 138.599 215.18C140.881 214.767 142.816 214.905 143.229 217.185Z" fill="white"/>
</g>
<defs>
<clipPath id="clip0_202_1134">
<rect width="281" height="253" fill="white"/>
</clipPath>
</defs>
</svg>
