<svg width="306" height="296" viewBox="0 0 306 296" fill="none" xmlns="http://www.w3.org/2000/svg">
<g clip-path="url(#clip0_131_4085)">
<path d="M187.602 261.309H196.245L200.357 228.212L187.601 228.213L187.602 261.309Z" fill="#FFB7B7"/>
<path d="M185.397 258.508L202.418 258.507H202.419C205.296 258.507 208.055 259.642 210.089 261.661C212.123 263.681 213.266 266.42 213.266 269.276V269.626L185.397 269.627L185.397 258.508Z" fill="#2F2E41"/>
<path d="M140.805 261.309H149.449L153.56 228.212L140.804 228.213L140.805 261.309Z" fill="#FFB7B7"/>
<path d="M138.601 258.508L155.622 258.507H155.623C158.499 258.507 161.258 259.642 163.293 261.661C165.327 263.681 166.47 266.42 166.47 269.276V269.626L138.601 269.627L138.601 258.508Z" fill="#2F2E41"/>
<path d="M137.283 111.304V198.692L139.512 255.107H157.896L164.024 148.914L176.28 192.608L184.08 254L206.364 252.894L191.322 111.304H137.283Z" fill="#2F2E41"/>
<path d="M158.655 32.765C166.039 32.765 172.025 26.822 172.025 19.4909C172.025 12.1598 166.039 6.2168 158.655 6.2168C151.27 6.2168 145.284 12.1598 145.284 19.4909C145.284 26.822 151.27 32.765 158.655 32.765Z" fill="#FFB8B8"/>
<path d="M153.1 36.2236L149.541 39.9558L146.198 114.623L185.752 113.516L176.281 48.2524L167.925 40.3018L163.685 36.2236H153.1Z" fill="#F9A826"/>
<path d="M146.753 44.3799L149.755 39.542L150.652 49.9108C150.652 49.9108 157.895 73.1405 157.337 93.6047C156.78 114.069 160.123 162.188 155.666 162.741C151.209 163.294 132.268 164.4 132.268 160.528C132.268 156.657 131.154 53.7823 131.154 53.7823L146.753 44.3799Z" fill="#3F3D56"/>
<path d="M167.026 39.542L174.608 45.486L191.321 51.57C191.321 51.57 191.321 122.365 194.664 138.958C198.006 155.551 204.135 157.21 196.335 157.763C188.536 158.316 189.093 155.551 189.093 155.551C189.093 155.551 194.664 127.896 187.422 122.365C180.179 116.834 166.252 84.7553 167.366 67.0565C168.48 49.3576 165.911 39.542 167.026 39.542Z" fill="#3F3D56"/>
<path d="M146.004 23.6442C146.004 23.6442 147.14 21.6636 146.876 15.047C146.612 8.43042 156.761 12.1727 165.241 11.5415C173.721 10.9103 171.926 22.588 171.926 22.588C171.926 22.588 172.538 21.8939 173.848 16.2578C175.157 10.6218 172.183 5.0053 172.183 5.0053C171.307 -0.917113 166.587 0.981027 166.587 0.981027C168.86 1.85964 168.424 3.73832 168.424 3.73832C166.499 0.388778 161.779 2.28693 161.779 2.28693C155.483 -1.63538 149.102 3.52981 149.102 3.52981C141.497 5.24349 145.957 11.2484 145.957 11.2484C138.308 15.0859 146.004 23.6442 146.004 23.6442Z" fill="#2F2E41"/>
<path d="M132.288 152.531C132.855 151.936 133.284 151.226 133.544 150.449C133.804 149.672 133.889 148.848 133.794 148.035C133.698 147.222 133.425 146.44 132.992 145.743C132.559 145.046 131.977 144.452 131.288 144.003L133.697 131.432L126.359 128.116L123.209 145.915C122.525 147.115 122.309 148.521 122.6 149.869C122.891 151.217 123.67 152.411 124.789 153.227C125.908 154.042 127.29 154.422 128.672 154.294C130.054 154.165 131.341 153.538 132.288 152.531Z" fill="#FFB7B7"/>
<path d="M133.94 53.7825L132.461 52.9951C132.461 52.9951 124.47 55.9949 125.027 58.2072C125.584 60.4196 120.57 137.852 122.241 140.617C123.912 143.383 137.283 141.17 137.283 141.17L133.94 53.7825Z" fill="#3F3D56"/>
<path d="M197.539 147.318C196.895 146.807 196.371 146.162 196.005 145.428C195.64 144.694 195.44 143.89 195.421 143.072C195.402 142.253 195.565 141.441 195.896 140.691C196.228 139.942 196.721 139.274 197.341 138.734L193.204 126.615L200.008 122.323L205.609 139.518C206.453 140.612 206.864 141.976 206.763 143.35C206.663 144.725 206.058 146.015 205.063 146.977C204.068 147.938 202.753 148.504 201.366 148.567C199.98 148.629 198.618 148.185 197.539 147.318V147.318Z" fill="#FFB7B7"/>
<path d="M191.008 136.753C191.008 136.753 204.558 137.108 205.828 134.139C207.098 131.171 191.341 55.172 191.584 52.9044C191.828 50.6368 183.495 48.7637 183.495 48.7637L182.14 49.7467L191.008 136.753Z" fill="#3F3D56"/>
<path d="M250.896 140.172L242.507 99.3614L238.821 69.2188L230.657 74.4622L231.785 107.679L244.816 142.096C244.397 142.888 244.225 143.785 244.321 144.675C244.418 145.564 244.778 146.405 245.357 147.09C245.936 147.775 246.707 148.274 247.573 148.523C248.438 148.772 249.358 148.76 250.217 148.489C251.075 148.217 251.833 147.698 252.393 146.998C252.954 146.298 253.292 145.448 253.365 144.556C253.438 143.665 253.242 142.772 252.802 141.991C252.362 141.211 251.699 140.577 250.896 140.172H250.896Z" fill="#FFB7B7"/>
<path d="M172.433 143.328L174.755 101.74L173.986 71.3857L184.779 75.3948L186.581 108.422L178.73 144.354C179.26 145.077 179.562 145.94 179.597 146.834C179.632 147.727 179.398 148.611 178.926 149.373C178.453 150.134 177.764 150.739 176.944 151.111C176.124 151.482 175.212 151.603 174.323 151.458C173.434 151.313 172.608 150.909 171.951 150.297C171.294 149.686 170.835 148.894 170.632 148.022C170.43 147.151 170.493 146.239 170.814 145.403C171.134 144.567 171.698 143.845 172.433 143.328Z" fill="#FFB7B7"/>
<path d="M195.038 264.239H200.553L203.177 243.119L195.037 243.12L195.038 264.239Z" fill="#FFB7B7"/>
<path d="M193.633 262.452L204.494 262.451H204.494C206.33 262.451 208.09 263.175 209.388 264.464C210.686 265.753 211.416 267.5 211.416 269.323V269.546L193.633 269.547L193.633 262.452Z" fill="#2F2E41"/>
<path d="M215.928 261.816L221.378 262.653L227.224 242.18L219.18 240.945L215.928 261.816Z" fill="#FFB7B7"/>
<path d="M214.813 259.836L225.547 261.484L225.547 261.484C227.361 261.763 228.989 262.746 230.074 264.216C231.158 265.687 231.609 267.525 231.329 269.326L231.294 269.547L213.721 266.848L214.813 259.836Z" fill="#2F2E41"/>
<path d="M193.42 257.933L193.391 257.78L173.426 150.612C171.841 142.008 173.105 133.127 177.029 125.296L189.114 101.302L225.172 106.152L229.427 136.7L244.592 194.976L244.577 195.023L225.148 256.296L212.414 257.128L223.694 202.433L203.04 155.859L204.496 257.1L193.42 257.933Z" fill="#2F2E41"/>
<path d="M226.011 110.061L225.773 109.691C225.73 109.624 221.35 103.073 209.431 107.447C197.264 111.913 187.836 103.287 187.742 103.199L187.695 103.156L184.94 78.7729L181.687 58.9788L192.042 57.1752L197.132 54.143L217.376 53.7852L222.703 57.9448L231.449 58.891L232.249 76.927L232.246 76.9466L226.011 110.061Z" fill="#F9A826"/>
<path d="M228.911 78.6714V63.2277L231.37 58.7716L231.47 58.7686C233.406 58.8402 235.236 59.6657 236.564 61.0663C239.038 63.5616 240.158 67.719 239.895 73.4229L239.89 73.5273L228.911 78.6714Z" fill="#F9A826"/>
<path d="M186.044 76.9926L173.509 75.4991L173.499 75.3558C173.071 69.1499 174.163 64.5431 176.742 61.6639C178.037 60.124 179.873 59.1312 181.879 58.8872L181.951 58.8838L185.344 61.9464L186.044 76.9926Z" fill="#F9A826"/>
<path d="M222.331 47.5619H189.346C188.667 47.5611 188.017 47.2932 187.537 46.8168C187.057 46.3405 186.787 45.6947 186.787 45.0211V33.1641C186.782 30.6776 187.272 28.2146 188.228 25.9161C189.183 23.6176 190.586 21.5287 192.356 19.769C194.125 18.0092 196.227 16.6131 198.54 15.6606C200.854 14.7081 203.334 14.2178 205.839 14.2178C208.343 14.2178 210.823 14.7081 213.137 15.6606C215.45 16.6131 217.552 18.0092 219.321 19.769C221.091 21.5287 222.494 23.6176 223.449 25.9161C224.405 28.2146 224.895 30.6776 224.89 33.1641V45.0211C224.89 45.6947 224.62 46.3405 224.14 46.8169C223.66 47.2932 223.01 47.5611 222.331 47.5619Z" fill="#2F2E41"/>
<path d="M206.605 47.4451C214.319 47.4451 220.573 41.2364 220.573 33.5775C220.573 25.9187 214.319 19.71 206.605 19.71C198.89 19.71 192.637 25.9187 192.637 33.5775C192.637 41.2364 198.89 47.4451 206.605 47.4451Z" fill="#FFB7B7"/>
<path d="M219.881 34.0113H201.439C201.093 34.0109 200.758 33.885 200.499 33.6573C200.239 33.4297 200.072 33.1158 200.028 32.7745L199.79 30.8783C199.767 30.696 199.685 30.526 199.556 30.394C199.427 30.262 199.259 30.1752 199.076 30.1466C198.893 30.1181 198.706 30.1493 198.542 30.2356C198.379 30.322 198.248 30.4587 198.17 30.6252L196.961 33.1969C196.846 33.4399 196.664 33.6454 196.436 33.7896C196.208 33.9337 195.943 34.0106 195.673 34.0113H192.872C192.673 34.0113 192.477 33.9702 192.296 33.8907C192.115 33.8111 191.953 33.6948 191.819 33.5492C191.686 33.4036 191.585 33.232 191.522 33.0453C191.46 32.8586 191.437 32.661 191.456 32.4652L192.561 21.0113C192.584 20.7663 192.672 20.5315 192.814 20.33C192.957 20.1285 193.149 19.9671 193.373 19.8617C201.819 15.9474 210.383 15.9524 218.829 19.8766C219.043 19.9765 219.229 20.128 219.369 20.3171C219.51 20.5063 219.601 20.7273 219.633 20.9601L221.288 32.3991C221.317 32.5993 221.302 32.8035 221.245 32.9976C221.187 33.1918 221.089 33.3714 220.955 33.5243C220.822 33.6773 220.657 33.7999 220.471 33.8839C220.286 33.9679 220.084 34.0114 219.881 34.0113H219.881Z" fill="#2F2E41"/>
<path d="M227.469 141.469C228.172 141.222 228.812 140.825 229.344 140.306C229.875 139.787 230.286 139.158 230.547 138.464C230.807 137.77 230.912 137.028 230.852 136.29C230.792 135.552 230.571 134.836 230.202 134.192L242.158 120.661L232.825 119.383L222.903 132.428C221.854 133.114 221.096 134.158 220.771 135.363C220.446 136.567 220.578 137.848 221.141 138.962C221.704 140.077 222.659 140.947 223.825 141.409C224.991 141.871 226.288 141.893 227.469 141.469Z" fill="#9F616A"/>
<path d="M241.888 261.389L233.55 261.388L229.583 229.457L241.89 229.458L241.888 261.389Z" fill="#9F616A"/>
<path d="M244.013 269.413L217.126 269.412V269.074C217.127 266.319 218.229 263.676 220.192 261.728C222.154 259.779 224.816 258.685 227.591 258.685H227.592L244.014 258.685L244.013 269.413Z" fill="#2F2E41"/>
<path d="M285.538 254.461L277.574 256.915L264.248 227.588L276.002 223.966L285.538 254.461Z" fill="#9F616A"/>
<path d="M289.964 261.498L264.287 269.413L264.186 269.09C263.363 266.459 263.627 263.61 264.919 261.172C266.211 258.733 268.426 256.904 271.077 256.087L271.077 256.087L286.76 251.253L289.964 261.498Z" fill="#2F2E41"/>
<path d="M235.502 114.174L223.152 128.215L232.82 129.079L235.502 114.174Z" fill="#E6E6E6"/>
<path d="M230.677 132.273C230.677 132.273 226.387 134.402 225.851 143.984C225.315 153.566 227.46 178.588 227.46 178.588C227.46 178.588 225.315 189.767 227.46 199.881C229.605 209.995 225.315 246.724 227.996 246.724C230.677 246.724 244.618 248.321 245.154 246.724C245.69 245.127 246.227 221.172 246.227 221.172C246.227 221.172 250.516 208.928 246.227 201.478C246.227 201.478 261.204 227.442 270.891 247.258C273.011 251.595 289.122 246.725 286.441 241.934C283.76 237.143 277.326 215.318 277.326 215.318C277.326 215.318 272.5 199.348 263.921 192.428L268.211 158.359C268.211 158.359 277.326 135.468 271.965 132.274C266.604 129.081 230.677 132.273 230.677 132.273Z" fill="#2F2E41"/>
<path d="M246.763 45.5021C254.462 45.5021 260.703 39.3055 260.703 31.6617C260.703 24.0179 254.462 17.8213 246.763 17.8213C239.063 17.8213 232.822 24.0179 232.822 31.6617C232.822 39.3055 239.063 45.5021 246.763 45.5021Z" fill="#A0616A"/>
<path d="M262.312 46.5674L244.981 56.6815C244.981 56.6815 238.345 60.3917 235.866 66.7956C233.223 73.6206 234.759 83.23 235.866 85.4271C238.01 89.6858 234.966 100.332 234.966 100.332L232.285 124.819C232.285 124.819 222.634 133.869 230.141 134.933C237.648 135.998 251.052 134.401 259.095 134.933C267.138 135.466 276.253 136.531 273.572 131.206C270.891 125.882 267.674 122.156 270.891 111.512C273.409 103.181 273.3 72.0309 273.133 58.8761C273.11 57.0695 272.622 55.2989 271.716 53.7325C270.809 52.1661 269.513 50.8561 267.953 49.927L262.312 46.5674Z" fill="#E5E5E5"/>
<path opacity="0.1" d="M254.539 63.3359L256.147 95.8079L240.558 127.149L237.915 126.15L254.001 96.8722L254.539 63.3359Z" fill="black"/>
<path opacity="0.1" d="M272.232 102.727V99L254.003 128.811L272.232 102.727Z" fill="black"/>
<path d="M236.868 18.8405L234.565 17.9258C234.565 17.9258 239.385 12.6587 246.089 13.1166L244.203 11.0555C244.203 11.0555 248.812 9.22354 253.003 14.0323C255.206 16.5603 257.754 19.5321 259.344 22.8791H261.813L260.783 25.1311L264.388 27.3831L260.687 26.9802C261.038 28.9243 260.918 30.9233 260.337 32.8124L260.439 34.5924C260.439 34.5924 256.147 27.9996 256.147 27.0849V29.3752C256.147 29.3752 253.842 27.3141 253.842 25.94L252.585 27.5433L251.956 25.0248L244.204 27.5433L245.46 25.4812L240.641 26.1682L242.526 23.6498C242.526 23.6498 237.079 26.6266 236.87 29.146C236.66 31.6655 233.937 34.871 233.937 34.871L232.679 32.5807C232.679 32.5807 230.794 22.2757 236.868 18.8405Z" fill="#2F2E41"/>
<path d="M245.886 142.975C246.534 142.608 247.092 142.105 247.523 141.5C247.953 140.895 248.245 140.204 248.378 139.476C248.51 138.747 248.48 137.998 248.289 137.282C248.099 136.567 247.753 135.901 247.275 135.332L256.622 119.909L247.208 120.296L239.776 134.883C238.867 135.743 238.307 136.904 238.203 138.146C238.099 139.389 238.457 140.626 239.21 141.623C239.963 142.621 241.059 143.31 242.289 143.559C243.52 143.808 244.799 143.6 245.886 142.975Z" fill="#9F616A"/>
<path d="M267.138 53.4888L271.16 52.6904C271.16 52.6904 283.224 61.4738 279.471 79.0405C275.717 96.6072 259.096 123.224 259.096 123.224C259.096 123.224 255.341 128.015 254.27 129.079C253.198 130.143 251.053 129.079 252.125 130.676C253.198 132.274 250.516 133.338 250.516 133.338C250.516 133.338 238.72 133.338 239.793 129.079C240.865 124.82 259.096 94.4756 259.096 94.4756L256.415 66.2624C256.415 66.2624 254.269 52.424 267.138 53.4888Z" fill="#E5E5E5"/>
<path d="M455.53 270.682H92.7324C92.575 270.682 92.4239 270.62 92.3126 270.509C92.2012 270.399 92.1387 270.249 92.1387 270.092C92.1387 269.936 92.2012 269.786 92.3126 269.676C92.4239 269.565 92.575 269.503 92.7324 269.503H455.53C455.687 269.503 455.838 269.565 455.95 269.676C456.061 269.786 456.123 269.936 456.123 270.092C456.123 270.249 456.061 270.399 455.95 270.509C455.838 270.62 455.687 270.682 455.53 270.682Z" fill="#CACACA"/>
<path d="M10.3787 25.3145V25.5173H4.78028C3.92091 25.5173 3.09674 25.8563 2.48908 26.4596C1.88142 27.0628 1.54004 27.8811 1.54004 28.7342V40.5099C1.54004 41.363 1.88142 42.1813 2.48908 42.7846C3.09674 43.3878 3.92091 43.7268 4.78028 43.7268H35.4937C36.3531 43.7268 37.1772 43.3878 37.7849 42.7846C38.3925 42.1813 38.7339 41.363 38.7339 40.5099V28.7342C38.7339 27.8811 38.3925 27.0628 37.7849 26.4596C37.1772 25.8563 36.3531 25.5173 35.4937 25.5173H14.3638V25.3145L10.3787 25.3145Z" fill="#3F3D56"/>
<path d="M91.786 74.2244C91.9161 91.6029 80.7316 88.9747 67.0952 88.9747C53.4588 88.9747 43.5933 91.5632 42.4044 74.2244C40.5152 46.6725 47.8042 26.04 67.0952 26.04C87.0508 26.04 91.5799 46.6725 91.786 74.2244Z" fill="#2F2E41"/>
<path d="M17.1027 37.3629C17.5433 38.248 17.7831 39.2182 17.8052 40.2052C17.8273 41.1923 17.6311 42.1721 17.2305 43.0758C16.8298 43.9794 16.2345 44.7848 15.4865 45.4354C14.7384 46.0859 13.8557 46.5656 12.9007 46.8409L11.6564 70.8082L1.53955 63.4157L4.27216 41.7893C3.91281 40.1658 4.1658 38.4678 4.98318 37.0171C5.80057 35.5664 7.12555 34.4638 8.70708 33.9182C10.2886 33.3726 12.0168 33.4219 13.5641 34.0568C15.1115 34.6916 16.3705 35.868 17.1027 37.3629V37.3629Z" fill="#A0616A"/>
<path d="M108.331 172.812C108.88 171.988 109.241 171.056 109.387 170.079C109.534 169.103 109.463 168.106 109.18 167.16C108.897 166.213 108.408 165.34 107.748 164.602C107.088 163.863 106.273 163.277 105.36 162.885L107.154 138.952L96.1826 145.026L96.1614 166.822C95.5998 168.388 95.6362 170.104 96.2639 171.645C96.8915 173.186 98.0668 174.445 99.5669 175.184C101.067 175.922 102.788 176.088 104.403 175.651C106.018 175.214 107.416 174.203 108.331 172.812H108.331Z" fill="#A0616A"/>
<path d="M57.8079 288.018L66.1012 288.018L70.0463 256.26L57.8062 256.26L57.8079 288.018Z" fill="#A0616A"/>
<path d="M55.6914 285.331L72.0237 285.33H72.0244C73.3912 285.33 74.7447 285.597 76.0075 286.117C77.2703 286.636 78.4177 287.397 79.3842 288.357C80.3508 289.316 81.1174 290.455 81.6405 291.709C82.1636 292.963 82.4328 294.306 82.4327 295.663V295.999L55.6919 296L55.6914 285.331Z" fill="#2F2E41"/>
<path d="M110.571 288.018L118.865 288.018L122.81 256.26L110.57 256.26L110.571 288.018Z" fill="#A0616A"/>
<path d="M108.455 285.331L124.787 285.33H124.788C126.155 285.33 127.508 285.597 128.771 286.117C130.034 286.636 131.181 287.397 132.148 288.357C133.114 289.316 133.881 290.455 134.404 291.709C134.927 292.963 135.196 294.306 135.196 295.663V295.999L108.456 296L108.455 285.331Z" fill="#2F2E41"/>
<path d="M105.838 159.625L105.477 159.56C102.456 159.017 99.399 158.468 96.7109 157.894L96.4448 157.837L96.4438 157.567C96.3977 145.393 96.3515 133.222 96.2836 120.941C89.8631 108.093 87.1638 93.7261 88.487 79.4439L88.5021 79.293L88.6268 79.2045C89.7969 78.3977 91.1623 77.915 92.5827 77.8059C94.003 77.6969 95.427 77.9655 96.708 78.584C97.9613 79.2641 99.0326 80.2319 99.8327 81.4065C100.633 82.5811 101.138 83.9286 101.307 85.3367C103.752 98.5639 106.283 112.261 109.105 125.759L109.116 125.808L109.111 125.858C108.065 136.866 106.984 148.249 105.874 159.263L105.838 159.625Z" fill="#F9A826"/>
<path d="M100.433 276.7L100.367 276.39C96.4874 258.171 92.7422 243.334 89.1203 228.986C84.7799 211.791 80.6668 195.497 76.5144 174.412C77.0847 201.002 78.4092 220.105 79.9317 242.064C80.6192 251.979 81.3301 262.232 82.0513 274.201L82.0734 274.566L81.7051 274.557C68.7255 274.227 55.4273 273.431 42.5668 272.662L42.2266 272.641L42.2497 272.304C44.6845 236.673 45.4475 213.521 46.0046 196.615C47.18 160.948 47.3606 155.465 60.7429 125.28C61.2501 124.135 64.2764 120.751 67.6038 121.267L93.9331 125.335L93.9792 125.565C94.7223 129.281 98.4092 140.555 103.512 156.159C114.421 189.516 130.906 239.926 136.056 269.974L136.114 270.314L135.77 270.363C128.29 271.418 122.906 272.517 117.7 273.58C112.774 274.586 107.681 275.626 100.748 276.653L100.433 276.7Z" fill="#2F2E41"/>
<path d="M77.5494 134.764C70.522 134.765 63.576 132.344 58.5967 127.631C57.8185 127.181 57.1604 126.553 56.6779 125.798C56.1955 125.043 55.9026 124.185 55.8242 123.294C55.6964 122.479 55.7501 121.645 55.9813 120.852C56.2125 120.059 56.6158 119.326 57.1627 118.704C52.2808 112.837 47.2404 106.774 42.4155 100.6L42.2822 100.429L42.4366 100.137C45.5933 94.149 48.8576 87.9578 51.9923 81.84C52.2105 81.3068 52.5696 80.8419 53.0318 80.4944C53.494 80.147 54.0421 79.9298 54.6182 79.8659C55.1187 79.772 55.6332 79.7804 56.1303 79.8907C56.6274 80.001 57.0966 80.2108 57.5092 80.5074L57.5155 80.3585C57.6464 77.2616 57.7776 74.1647 57.9122 71.2291L57.9265 70.9156L58.2426 70.9084C64.27 70.7765 70.5025 70.6395 76.6245 70.2794L76.8576 70.2656L79.8939 76.9901C84.8256 76.5146 89.7878 77.5145 94.1425 79.8614L94.343 79.9676L94.3197 80.1919C93.0984 91.7486 93.364 103.413 95.1101 114.903C95.0153 120.149 94.9134 125.511 93.8413 129.785L93.81 129.91L93.7027 129.982C88.9169 133.135 83.293 134.8 77.5494 134.764Z" fill="#F9A826"/>
<path d="M51.6816 105.591L51.2771 105.407C46.5553 103.055 41.8186 100.446 37.2379 97.9231L36.605 97.8004C24.5442 95.3968 17.9004 94.0733 7.01942 87.7384L6.93585 87.6892L6.89094 87.604C1.44259 77.2711 -0.0771406 68.2387 1.28354 54.2783L1.31079 53.9983L1.59287 53.976C2.77239 53.8809 4.69492 53.8172 6.55403 53.7556C8.36277 53.6959 10.2331 53.6336 11.3798 53.5444L11.6458 53.5234L11.7281 53.7753C13.1538 58.1465 14.365 62.2246 15.6474 66.542C16.9655 70.9802 18.3279 75.5672 19.9873 80.6638C26.0631 82.3972 42.3508 81.8791 47.4152 81.1944C48.9299 81.0837 50.4483 81.3528 51.8309 81.9769C53.2135 82.601 54.4159 83.5601 55.3276 84.7661L55.4216 84.8828L55.3973 85.0304C54.2824 91.7856 53.0021 98.5809 51.7641 105.152L51.6816 105.591Z" fill="#F9A826"/>
<path d="M81.3711 59.784C85.7724 51.7904 82.8134 41.7681 74.7619 37.3985C66.7104 33.0288 56.6153 35.9665 52.214 43.9601C47.8126 51.9536 50.7717 61.9759 58.8232 66.3455C66.8747 70.7152 76.9697 67.7775 81.3711 59.784Z" fill="#A0616A"/>
<path d="M47.8164 50.889H54.3878L57.2869 42.83L57.8665 50.889H61.0074L62.6985 46.1879L63.0368 50.889H86.3747C86.3747 46.258 84.5217 41.8167 81.2233 38.542C77.9249 35.2674 73.4513 33.4277 68.7867 33.4277H65.4044C60.7398 33.4277 56.2662 35.2674 52.9678 38.542C49.6694 41.8167 47.8164 46.258 47.8164 50.889Z" fill="#2F2E41"/>
</g>
<defs>
<clipPath id="clip0_131_4085">
<rect width="455.309" height="295.309" fill="white" transform="translate(0.814453 0.691406)"/>
</clipPath>
</defs>
</svg>
