<svg width="160" height="176" viewBox="0 0 160 176" fill="none" xmlns="http://www.w3.org/2000/svg">
<g clip-path="url(#clip0_282_2093)">
<path d="M111.103 35.7065C100.011 33.9332 87.3809 32.9869 74.227 32.9869C62.1889 32.9869 50.5909 33.7782 40.2111 35.2703C40.2135 35.1106 40.2158 34.951 40.2229 34.7913C40.4981 25.5215 44.3814 16.7273 51.0429 10.2883C57.7044 3.8493 66.6156 0.276284 75.8718 0.332939C85.128 0.389594 93.995 4.07143 100.577 10.5915C107.16 17.1116 110.936 25.9527 111.098 35.2251C111.1 35.3871 111.103 35.5468 111.103 35.7065Z" fill="#F9A826"/>
<g opacity="0.1">
<path opacity="0.1" d="M80.3056 0.319712C75.3826 -0.346504 70.3748 0.0310877 65.6067 1.42801C60.8387 2.82494 56.4168 5.21003 52.6277 8.4287C48.8385 11.6474 45.7667 15.6278 43.6113 20.112C41.4559 24.5962 40.265 29.4842 40.1157 34.459C40.1085 34.6187 40.1062 34.7784 40.1039 34.9381C43.1876 34.4948 46.381 34.1149 49.6594 33.7977C50.0604 25.5099 53.3448 17.6241 58.9427 11.509C64.5406 5.39378 72.0988 1.43505 80.3056 0.319712Z" fill="white"/>
</g>
<path d="M126.609 38.524C121.504 37.1373 116.325 36.036 111.098 35.2251C102.53 33.8949 93.892 33.0632 85.2279 32.7343C81.6187 32.5865 77.9431 32.5103 74.227 32.5103C71.2817 32.5103 68.3602 32.5579 65.4791 32.6533C57.0278 32.9034 48.5964 33.6172 40.2229 34.7913C34.0244 35.6464 27.8861 36.8931 21.8446 38.524C7.75811 42.4258 0 47.6553 0 53.2472C0 58.839 7.75812 64.0685 21.8446 67.9704C31.7511 70.7162 43.9652 72.5873 57.2738 73.4454C62.767 73.8029 68.4459 73.9841 74.227 73.9841C80.0271 73.9841 85.7251 73.8005 91.235 73.443C103.347 72.6588 114.552 71.0356 123.931 68.6759C123.98 68.6616 124.028 68.6497 124.078 68.6377C124.711 68.4804 125.334 68.316 125.95 68.1515C126.172 68.0895 126.39 68.0299 126.609 67.9704C126.622 67.9653 126.634 67.9613 126.647 67.9584C126.857 67.9012 127.064 67.8416 127.271 67.7844C127.685 67.6653 128.094 67.5485 128.496 67.4269C128.515 67.4221 128.532 67.4174 128.548 67.4126C128.898 67.3077 129.241 67.2029 129.581 67.098C129.859 67.0098 130.135 66.924 130.409 66.8358C130.609 66.7714 130.806 66.7071 131.001 66.6427C131.144 66.595 131.284 66.5498 131.422 66.5021C131.61 66.4401 131.798 66.3758 131.984 66.3114C132.062 66.2852 132.141 66.259 132.217 66.2304C132.395 66.1708 132.569 66.1088 132.743 66.0468C132.931 65.9801 133.119 65.911 133.304 65.8442C133.459 65.7894 133.613 65.7322 133.766 65.675C133.894 65.6249 134.02 65.5773 134.149 65.5296C134.498 65.3985 134.841 65.2626 135.179 65.1292C135.348 65.06 135.517 64.9933 135.683 64.9242C135.847 64.8574 136.014 64.7883 136.176 64.7192C136.442 64.6072 136.704 64.4951 136.961 64.3831C137.084 64.3259 137.211 64.2711 137.332 64.2187C137.425 64.1758 137.515 64.1352 137.608 64.0923C137.674 64.0637 137.741 64.0327 137.805 64.0018C138.046 63.8921 138.283 63.7801 138.517 63.6681C139.411 63.239 140.246 62.8004 141.022 62.3523C145.887 59.5612 148.454 56.465 148.454 53.2472C148.454 47.6553 140.696 42.4258 126.609 38.524ZM126.481 67.5127C116.563 70.2609 104.315 72.132 90.9709 72.983C85.5442 73.3286 79.9345 73.5073 74.227 73.5073C68.5386 73.5073 62.9478 73.331 57.5378 72.9853C44.1722 72.1368 31.9057 70.2657 21.9731 67.5127C8.11022 63.6704 0.475814 58.6054 0.475814 53.2472C0.476589 52.7737 0.535738 52.3022 0.651921 51.8432C1.86515 47.0094 9.32833 42.4854 21.9731 38.9816C27.9689 37.3635 34.0602 36.124 40.2111 35.2704C48.6349 34.0896 57.1172 33.3735 65.6195 33.1252C68.4554 33.0322 71.3246 32.9862 74.227 32.987C77.8932 32.987 81.5188 33.0609 85.0827 33.2039C93.7972 33.5299 102.485 34.3655 111.103 35.7066C116.285 36.5138 121.419 37.6072 126.481 38.9816C139.123 42.4854 146.584 47.007 147.8 51.8385C147.918 52.2987 147.978 52.772 147.978 53.2472C147.978 58.6054 140.344 63.6704 126.481 67.5127Z" fill="#3F3D56"/>
<path d="M148.318 53.464C148.318 56.6484 145.699 59.6612 141.022 62.3523C140.244 62.8004 139.406 63.2389 138.517 63.668C138.283 63.78 138.046 63.892 137.805 64.0017C137.741 64.0327 137.674 64.0636 137.608 64.0922C137.515 64.1352 137.425 64.1757 137.332 64.2186C137.211 64.271 137.084 64.3258 136.961 64.383C136.704 64.4951 136.442 64.6071 136.176 64.7191C136.014 64.7882 135.847 64.8574 135.683 64.9241C135.517 64.9932 135.348 65.06 135.179 65.1291C134.841 65.2626 134.498 65.3984 134.149 65.5295C134.02 65.5772 133.894 65.6249 133.766 65.6749C133.613 65.7321 133.459 65.7893 133.304 65.8441C133.118 65.9109 132.931 65.98 132.743 66.0468C132.569 66.1087 132.395 66.1707 132.217 66.2303C132.141 66.2589 132.062 66.2851 131.984 66.3113C131.798 66.3757 131.61 66.44 131.422 66.502C131.284 66.5497 131.144 66.595 131.001 66.6426C130.806 66.707 130.609 66.7713 130.409 66.8357C130.135 66.9239 129.859 67.0097 129.581 67.0979C129.241 67.2028 128.898 67.3077 128.548 67.4125C128.532 67.4173 128.515 67.4221 128.496 67.4268C128.094 67.5484 127.685 67.6652 127.271 67.7844C127.064 67.8416 126.857 67.9011 126.647 67.9584C126.634 67.9612 126.622 67.9652 126.609 67.9703C126.39 68.0299 126.172 68.0895 125.95 68.1514C125.337 68.3135 124.711 68.478 124.078 68.6377C124.028 68.6496 123.98 68.6615 123.93 68.6758C114.807 70.9592 103.613 72.623 91.2255 73.4262C85.7988 73.7766 80.1413 73.9625 74.3293 73.9625C68.4649 73.9625 62.7598 73.7742 57.2904 73.4167C24.64 71.2834 0.34021 63.1603 0.34021 53.464C0.342781 52.874 0.432543 52.2876 0.606578 51.724C0.620866 51.7645 0.635153 51.8027 0.651882 51.8432C4.0467 60.7767 28.1397 67.9965 59.4006 69.7579C64.1897 70.0297 69.1501 70.1703 74.227 70.1703C79.3254 70.1703 84.3047 70.0273 89.1128 69.7556C120.348 67.987 144.417 60.7648 147.8 51.8384C147.857 51.6954 147.907 51.5524 147.95 51.4094C148.191 52.0676 148.316 52.7628 148.318 53.464Z" fill="#3F3D56"/>
<path d="M21.8087 50.8983C17.8493 50.8983 13.6412 50.0449 13.6412 48.4631C13.6412 46.8813 17.8493 46.0279 21.8087 46.0279C25.7682 46.0279 29.9763 46.8813 29.9763 48.4631C29.9763 50.0449 25.7682 50.8983 21.8087 50.8983ZM21.8087 46.5046C17.2759 46.5046 14.117 47.5368 14.117 48.4631C14.117 49.3894 17.2759 50.4216 21.8087 50.4216C26.3416 50.4216 29.5004 49.3894 29.5004 48.4631C29.5004 47.5368 26.3416 46.5046 21.8087 46.5046Z" fill="#3F3D56"/>
<path d="M38.7002 62.101C34.7408 62.101 30.5327 61.2476 30.5327 59.6658C30.5327 58.084 34.7408 57.2306 38.7002 57.2306C42.6596 57.2306 46.8677 58.084 46.8677 59.6658C46.8677 61.2476 42.6596 62.101 38.7002 62.101ZM38.7002 57.7073C34.1674 57.7073 31.0085 58.7395 31.0085 59.6658C31.0085 60.5921 34.1674 61.6243 38.7002 61.6243C43.233 61.6243 46.3919 60.5921 46.3919 59.6658C46.3919 58.7395 43.233 57.7073 38.7002 57.7073Z" fill="#3F3D56"/>
<path d="M126.488 50.8983C122.529 50.8983 118.32 50.0449 118.32 48.4631C118.32 46.8813 122.529 46.0279 126.488 46.0279C130.447 46.0279 134.655 46.8813 134.655 48.4631C134.655 50.0449 130.447 50.8983 126.488 50.8983ZM126.488 46.5046C121.955 46.5046 118.796 47.5368 118.796 48.4631C118.796 49.3894 121.955 50.4216 126.488 50.4216C131.021 50.4216 134.18 49.3894 134.18 48.4631C134.18 47.5368 131.021 46.5046 126.488 46.5046Z" fill="#3F3D56"/>
<path d="M109.596 62.101C105.637 62.101 101.429 61.2476 101.429 59.6658C101.429 58.084 105.637 57.2306 109.596 57.2306C113.556 57.2306 117.764 58.084 117.764 59.6658C117.764 61.2476 113.556 62.101 109.596 62.101ZM109.596 57.7073C105.064 57.7073 101.905 58.7395 101.905 59.6658C101.905 60.5921 105.064 61.6243 109.596 61.6243C114.129 61.6243 117.288 60.5921 117.288 59.6658C117.288 58.7395 114.129 57.7073 109.596 57.7073Z" fill="#3F3D56"/>
<path d="M74.1483 67.3449C70.1889 67.3449 65.9808 66.4914 65.9808 64.9097C65.9808 63.3279 70.1889 62.4744 74.1483 62.4744C78.1078 62.4744 82.3159 63.3279 82.3159 64.9097C82.3159 66.4914 78.1078 67.3449 74.1483 67.3449ZM74.1483 62.9511C69.6155 62.9511 66.4566 63.9833 66.4566 64.9097C66.4566 65.836 69.6155 66.8682 74.1483 66.8682C78.6812 66.8682 81.84 65.836 81.84 64.9097C81.84 63.9833 78.6812 62.9511 74.1483 62.9511Z" fill="#3F3D56"/>
<path d="M80.1693 117.442C85.6894 117.442 90.1644 112.958 90.1644 107.428C90.1644 101.897 85.6894 97.4138 80.1693 97.4138C74.6492 97.4138 70.1743 101.897 70.1743 107.428C70.1743 112.958 74.6492 117.442 80.1693 117.442Z" fill="#2F2E41"/>
<path d="M76.3686 114.007L71.5042 116.447L72.8638 119.168L77.7283 116.727L76.3686 114.007Z" fill="#2F2E41"/>
<path d="M73.5052 118.892C73.7937 118.453 73.0817 117.473 71.915 116.702C70.7483 115.932 69.5686 115.662 69.2801 116.101C68.9917 116.539 69.7036 117.519 70.8703 118.29C72.0371 119.06 73.2167 119.33 73.5052 118.892Z" fill="#2F2E41"/>
<path d="M83.9703 114.007L82.6106 116.727L87.4751 119.168L88.8347 116.448L83.9703 114.007Z" fill="#2F2E41"/>
<path d="M89.4685 118.29C90.6352 117.519 91.3471 116.539 91.0587 116.101C90.7702 115.662 89.5905 115.932 88.4238 116.702C87.2571 117.473 86.5451 118.453 86.8336 118.892C87.1221 119.33 88.3017 119.06 89.4685 118.29Z" fill="#2F2E41"/>
<path d="M79.4697 108.401C81.3564 108.401 82.8858 106.868 82.8858 104.978C82.8858 103.088 81.3564 101.556 79.4697 101.556C77.5831 101.556 76.0537 103.088 76.0537 104.978C76.0537 106.868 77.5831 108.401 79.4697 108.401Z" fill="white"/>
<path d="M80.3007 104.322C80.7435 103.878 80.741 103.157 80.295 102.71C79.849 102.263 79.1285 102.26 78.6857 102.704C78.2429 103.148 78.2454 103.87 78.6914 104.316C79.1374 104.763 79.8579 104.766 80.3007 104.322Z" fill="#3F3D56"/>
<path d="M88.0541 96.5337C88.2044 92.8264 85.0153 89.6863 80.931 89.5201C76.8466 89.3539 73.4138 92.2245 73.2635 95.9318C73.1132 99.639 75.9523 100.481 80.0366 100.648C84.1209 100.814 87.9037 100.241 88.0541 96.5337Z" fill="#F9A826"/>
<path d="M93.8155 112.671C94.473 112.106 93.5485 109.947 91.7507 107.848C89.9528 105.75 87.9625 104.508 87.305 105.073C86.6476 105.639 87.572 107.798 89.3699 109.896C91.1677 111.994 93.1581 113.237 93.8155 112.671Z" fill="#2F2E41"/>
<path d="M70.9969 109.896C72.7947 107.798 73.7192 105.639 73.0617 105.073C72.4043 104.508 70.4139 105.75 68.6161 107.848C66.8183 109.947 65.8938 112.106 66.5512 112.671C67.2087 113.237 69.1991 111.994 70.9969 109.896Z" fill="#2F2E41"/>
<path d="M82.9144 111.374C83.0226 111.969 82.8903 112.583 82.5466 113.081C82.2029 113.579 81.676 113.919 81.0818 114.027C80.4876 114.136 79.8747 114.003 79.378 113.659C78.8814 113.315 78.5416 112.787 78.4334 112.191L78.4326 112.187C78.2085 110.947 79.1654 110.508 80.4031 110.284C81.6407 110.059 82.6904 110.134 82.9144 111.374Z" fill="white"/>
<path d="M63.2833 118.08C63.1571 118.08 63.0361 118.029 62.9469 117.94C62.8576 117.851 62.8075 117.729 62.8075 117.603V89.4771C62.8075 89.3506 62.8576 89.2294 62.9469 89.14C63.0361 89.0506 63.1571 89.0004 63.2833 89.0004C63.4095 89.0004 63.5305 89.0506 63.6198 89.14C63.709 89.2294 63.7591 89.3506 63.7591 89.4771V117.603C63.7591 117.729 63.709 117.851 63.6198 117.94C63.5305 118.029 63.4095 118.08 63.2833 118.08Z" fill="#CCCCCC"/>
<path d="M56.1461 143.345C56.0199 143.345 55.8989 143.295 55.8097 143.206C55.7204 143.116 55.6703 142.995 55.6703 142.869V122.37C55.6703 122.244 55.7204 122.122 55.8097 122.033C55.8989 121.944 56.0199 121.893 56.1461 121.893C56.2723 121.893 56.3933 121.944 56.4826 122.033C56.5718 122.122 56.6219 122.244 56.6219 122.37V142.869C56.6219 142.995 56.5718 143.116 56.4825 143.206C56.3933 143.295 56.2723 143.345 56.1461 143.345Z" fill="#CCCCCC"/>
<path d="M74.465 126.422C74.3388 126.422 74.2177 126.372 74.1285 126.282C74.0393 126.193 73.9891 126.072 73.9891 125.945V97.8195C73.9891 97.6931 74.0393 97.5718 74.1285 97.4824C74.2177 97.393 74.3388 97.3428 74.465 97.3428C74.5911 97.3428 74.7122 97.393 74.8014 97.4824C74.8906 97.5718 74.9408 97.6931 74.9408 97.8195V125.945C74.9408 126.072 74.8906 126.193 74.8014 126.282C74.7122 126.372 74.5911 126.422 74.465 126.422Z" fill="#CCCCCC"/>
<path d="M67.5657 146.682C67.4395 146.682 67.3184 146.632 67.2292 146.543C67.14 146.453 67.0899 146.332 67.0898 146.206V134.765C67.0898 134.638 67.14 134.517 67.2292 134.427C67.3184 134.338 67.4395 134.288 67.5657 134.288C67.6919 134.288 67.8129 134.338 67.9021 134.427C67.9913 134.517 68.0415 134.638 68.0415 134.765V146.206C68.0415 146.332 67.9913 146.453 67.9021 146.543C67.8129 146.632 67.6919 146.682 67.5657 146.682Z" fill="#CCCCCC"/>
<path d="M77.3198 88.0469C77.1936 88.0469 77.0726 87.9967 76.9834 87.9073C76.8941 87.8179 76.844 87.6967 76.844 87.5702V76.1292C76.844 76.0027 76.8941 75.8815 76.9833 75.7921C77.0726 75.7027 77.1936 75.6525 77.3198 75.6525C77.446 75.6525 77.567 75.7027 77.6563 75.7921C77.7455 75.8815 77.7956 76.0027 77.7956 76.1292V87.5702C77.7956 87.6967 77.7455 87.8179 77.6563 87.9073C77.567 87.9967 77.446 88.0469 77.3198 88.0469Z" fill="#CCCCCC"/>
<path d="M53.529 93.0524C53.4028 93.0524 53.2818 93.0022 53.1926 92.9128C53.1034 92.8234 53.0532 92.7021 53.0532 92.5757V81.1347C53.0532 81.0082 53.1034 80.887 53.1926 80.7976C53.2818 80.7082 53.4028 80.658 53.529 80.658C53.6552 80.658 53.7763 80.7082 53.8655 80.7976C53.9547 80.887 54.0048 81.0082 54.0048 81.1347V92.5757C54.0048 92.7021 53.9547 92.8234 53.8655 92.9128C53.7762 93.0022 53.6552 93.0524 53.529 93.0524Z" fill="#CCCCCC"/>
<path d="M94.9249 94.2442C94.7987 94.2442 94.6777 94.194 94.5885 94.1046C94.4992 94.0152 94.4491 93.8939 94.4491 93.7675V82.3264C94.4491 82.2 94.4992 82.0788 94.5885 81.9894C94.6777 81.9 94.7987 81.8497 94.9249 81.8497C95.0511 81.8497 95.1721 81.9 95.2613 81.9894C95.3506 82.0788 95.4007 82.2 95.4007 82.3264V93.7675C95.4007 93.8939 95.3506 94.0152 95.2613 94.1046C95.1721 94.194 95.0511 94.2442 94.9249 94.2442Z" fill="#CCCCCC"/>
<path d="M93.9733 129.997C93.8471 129.997 93.726 129.947 93.6368 129.858C93.5476 129.768 93.4974 129.647 93.4974 129.521V115.696C93.4974 115.57 93.5476 115.448 93.6368 115.359C93.726 115.27 93.8471 115.219 93.9733 115.219C94.0995 115.219 94.2205 115.27 94.3097 115.359C94.3989 115.448 94.4491 115.57 94.4491 115.696V129.521C94.4491 129.647 94.3989 129.768 94.3097 129.858C94.2205 129.947 94.0994 129.997 93.9733 129.997Z" fill="#CCCCCC"/>
<path d="M84.457 142.154C84.3308 142.154 84.2098 142.103 84.1206 142.014C84.0313 141.925 83.9812 141.803 83.9812 141.677V121.178C83.9812 121.052 84.0313 120.931 84.1206 120.841C84.2098 120.752 84.3308 120.702 84.457 120.702C84.5832 120.702 84.7042 120.752 84.7935 120.841C84.8827 120.931 84.9328 121.052 84.9328 121.178V141.677C84.9328 141.803 84.8827 141.925 84.7935 142.014C84.7042 142.103 84.5832 142.154 84.457 142.154Z" fill="#CCCCCC"/>
<path d="M86.3603 107.115C86.2341 107.115 86.1131 107.065 86.0239 106.976C85.9347 106.886 85.8845 106.765 85.8845 106.639V78.5127C85.8845 78.3863 85.9346 78.265 86.0239 78.1756C86.1131 78.0862 86.2341 78.036 86.3603 78.036C86.4865 78.036 86.6075 78.0862 86.6968 78.1756C86.786 78.265 86.8361 78.3863 86.8361 78.5127V106.639C86.8361 106.765 86.786 106.886 86.6968 106.976C86.6075 107.065 86.4865 107.115 86.3603 107.115Z" fill="#CCCCCC"/>
<path d="M144.694 166.966C145.375 166.394 144.454 164.169 142.638 161.996C140.821 159.822 138.797 158.524 138.116 159.095C137.435 159.666 138.355 161.891 140.172 164.065C141.988 166.238 144.012 167.537 144.694 166.966Z" fill="#2F2E41"/>
<path d="M140.227 164.494C142.017 159.116 139.115 153.302 133.747 151.509C128.379 149.716 122.576 152.623 120.787 158.002C118.997 163.38 121.898 169.194 127.267 170.986C132.635 172.779 138.438 169.872 140.227 164.494Z" fill="#2F2E41"/>
<path d="M134.844 169.304H131.731V174.892H134.844V169.304Z" fill="#2F2E41"/>
<path d="M128.618 169.304H125.505V174.892H128.618V169.304Z" fill="#2F2E41"/>
<path d="M132.25 175.931C133.682 175.931 134.844 175.495 134.844 174.957C134.844 174.418 133.682 173.982 132.25 173.982C130.817 173.982 129.656 174.418 129.656 174.957C129.656 175.495 130.817 175.931 132.25 175.931Z" fill="#2F2E41"/>
<path d="M126.024 175.801C127.457 175.801 128.618 175.365 128.618 174.827C128.618 174.288 127.457 173.852 126.024 173.852C124.592 173.852 123.43 174.288 123.43 174.827C123.43 175.365 124.592 175.801 126.024 175.801Z" fill="#2F2E41"/>
<path d="M127.29 148.344C128.205 144.653 132.243 142.48 136.31 143.492C140.377 144.504 142.932 148.316 142.017 152.008C141.102 155.699 138.067 155.711 134 154.699C129.933 153.688 126.375 152.035 127.29 148.344Z" fill="#CCCCCC"/>
<path d="M123.595 158.684C123.976 157.88 122.212 156.244 119.656 155.029C117.099 153.814 114.718 153.481 114.338 154.285C113.957 155.089 115.721 156.726 118.277 157.94C120.834 159.155 123.215 159.488 123.595 158.684Z" fill="#2F2E41"/>
<path d="M128.975 162.504C130.862 162.504 132.391 160.972 132.391 159.082C132.391 157.192 130.862 155.659 128.975 155.659C127.088 155.659 125.559 157.192 125.559 159.082C125.559 160.972 127.088 162.504 128.975 162.504Z" fill="white"/>
<path d="M127.571 158.996C128.2 158.996 128.71 158.485 128.71 157.855C128.71 157.225 128.2 156.714 127.571 156.714C126.942 156.714 126.432 157.225 126.432 157.855C126.432 158.485 126.942 158.996 127.571 158.996Z" fill="#3F3D56"/>
<path d="M128.946 167.658C129.734 167.658 130.373 167.017 130.373 166.227C130.373 165.438 129.734 164.797 128.946 164.797C128.157 164.797 127.518 165.438 127.518 166.227C127.518 167.017 128.157 167.658 128.946 167.658Z" fill="white"/>
<path d="M159.762 176H103.616C103.553 176 103.492 175.975 103.448 175.93C103.403 175.886 103.378 175.825 103.378 175.762C103.378 175.698 103.403 175.638 103.448 175.593C103.492 175.548 103.553 175.523 103.616 175.523H159.762C159.825 175.523 159.886 175.548 159.93 175.593C159.975 175.638 160 175.698 160 175.762C160 175.825 159.975 175.886 159.93 175.93C159.886 175.975 159.825 176 159.762 176Z" fill="#3F3D56"/>
</g>
<defs>
<clipPath id="clip0_282_2093">
<rect width="160" height="176" fill="white"/>
</clipPath>
</defs>
</svg>
