<svg width="20" height="20" viewBox="0 0 20 20" fill="none" xmlns="http://www.w3.org/2000/svg">
<path d="M19.5 10C19.5 15.2467 15.2467 19.5 10 19.5C4.75329 19.5 0.5 15.2467 0.5 10C0.5 4.75329 4.75329 0.5 10 0.5C15.2467 0.5 19.5 4.75329 19.5 10Z" fill="white" stroke="#0012CB"/>
<path d="M18.5 9.5C18.5 14.1944 14.6944 18 10 18C5.30558 18 1.5 14.1944 1.5 9.5C1.5 4.80558 5.30558 1 10 1C14.6944 1 18.5 4.80558 18.5 9.5Z" fill="white" stroke="#C7CCFF" stroke-width="2"/>
<path d="M12.6797 11.9652H7.17171C6.95426 11.9655 6.74116 11.9042 6.55709 11.7884C6.37302 11.6727 6.22549 11.5071 6.1316 11.311C6.02168 11.0783 5.97934 10.8194 6.00941 10.5638C6.03948 10.3082 6.14075 10.0662 6.30168 9.86532L9.05568 6.52911C9.16376 6.40441 9.29738 6.3044 9.44749 6.23585C9.5976 6.16731 9.7607 6.13184 9.92572 6.13184C10.0907 6.13184 10.2538 6.16731 10.4039 6.23585C10.554 6.3044 10.6877 6.40441 10.7957 6.52911L13.5498 9.86532C13.7107 10.0662 13.812 10.3082 13.842 10.5638C13.8721 10.8194 13.8298 11.0783 13.7198 11.311C13.6259 11.5071 13.4784 11.6727 13.2943 11.7884C13.1103 11.9042 12.8972 11.9655 12.6797 11.9652Z" fill="#0012CB"/>
</svg>
