<svg width="14" height="14" viewBox="0 0 14 14" fill="none" xmlns="http://www.w3.org/2000/svg">
<path d="M6.19363 1.10215C6.26796 0.951591 6.38294 0.824828 6.52555 0.736193C6.66816 0.647558 6.83272 0.600586 7.00063 0.600586C7.16854 0.600586 7.3331 0.647558 7.47571 0.736193C7.61832 0.824828 7.73329 0.951591 7.80763 1.10215L9.32863 4.18415L12.7296 4.67815C12.8959 4.70213 13.0521 4.77216 13.1807 4.88033C13.3092 4.98849 13.4049 5.13046 13.4569 5.29019C13.5089 5.44991 13.5152 5.62101 13.475 5.78412C13.4349 5.94723 13.3499 6.09585 13.2296 6.21315L10.7676 8.61315L11.3486 12.0002C11.3769 12.1656 11.3583 12.3357 11.2949 12.4912C11.2316 12.6466 11.126 12.7813 10.9901 12.8799C10.8543 12.9785 10.6936 13.0372 10.5261 13.0492C10.3587 13.0613 10.1912 13.0263 10.0426 12.9482L7.00063 11.3502L3.95863 12.9501C3.80988 13.0284 3.64217 13.0635 3.47452 13.0514C3.30686 13.0393 3.14594 12.9804 3.01001 12.8816C2.87407 12.7827 2.76854 12.6477 2.70538 12.4919C2.64221 12.3361 2.62394 12.1658 2.65263 12.0002L3.23263 8.61315L0.772628 6.21415C0.652405 6.09691 0.56738 5.94838 0.527165 5.78534C0.486951 5.6223 0.493152 5.45126 0.545066 5.29157C0.596981 5.13187 0.692539 4.98988 0.820936 4.88165C0.949333 4.77343 1.10545 4.70328 1.27163 4.67915L4.67163 4.18515L6.19363 1.10315V1.10215Z" fill="#FE6A07"/>
</svg>
