<svg xmlns="http://www.w3.org/2000/svg" xmlns:xlink="http://www.w3.org/1999/xlink" width="72.602" height="63.781" viewBox="0 0 72.602 63.781"><defs><style>.a{fill:#ff382e;}.b{clip-path:url(#a);}.c{fill:#ffc2bf;}.d{fill:#c9edff;}.e{fill:#e6f6ff;}</style><clipPath id="a"><path class="a" d="M1.065,391.3s8.095-10.11,34.536-8.446,31.66,19.893,31.66,19.893,2.9.768,4.13-1.61,1.891-12.183.1-16.105c-3.147-6.872-13.418-15.671-34.328-18.888A40.257,40.257,0,0,0,3.146,377.093S-2.247,391.113,1.065,391.3Z" transform="translate(0.011 -365.664)"/></clipPath></defs><g transform="translate(0 0)"><g transform="translate(0 0)"><path class="a" d="M63.492,192.554s11.23-7.878,24.9-8.871,34.077,10.878,37.89,21.634c4.822,3.371-1.08-33.053-10.132-46.3C105.8,145.5,49.4,186.91,63.492,192.554Z" transform="translate(-59.728 -144.5)"/><path class="a" d="M1.065,391.3s8.095-10.11,34.536-8.446,31.66,19.893,31.66,19.893,2.9.768,4.13-1.61,1.891-12.183.1-16.105c-3.147-6.872-13.418-15.671-34.328-18.888A40.257,40.257,0,0,0,3.146,377.093S-2.247,391.113,1.065,391.3Z" transform="translate(0.011 -339.079)"/><g class="b" transform="translate(0 26.585)"><path class="c" d="M772.982,329.376c-.622-.287-.653-1.2-.665-1.8A7.946,7.946,0,0,1,772.75,325a28.382,28.382,0,0,1,2.56-5.209c1.944-3.386,4.108-6.661,5.784-10.2a31.167,31.167,0,0,0,2.23-6.235c.329-1.4-1.862-1.812-2.187-.416a40.249,40.249,0,0,1-5.026,11.146c-1.062,1.792-2.156,3.566-3.174,5.382a24.289,24.289,0,0,0-2.518,5.613c-.542,2.046-.679,5.25,1.608,6.306a1.117,1.117,0,0,0,.957-2.017Z" transform="translate(-765.081 -306.566)"/><path class="c" d="M624.42,311.95a9.3,9.3,0,0,1,.555-5.014,41.838,41.838,0,0,1,2.208-5.257,73.573,73.573,0,0,1,5.875-9.643c1.254-1.784,2.55-3.538,3.85-5.291.852-1.147-.846-2.6-1.7-1.439-4.773,6.434-9.688,13.08-12.27,20.758a11.818,11.818,0,0,0-.614,6.631,1.12,1.12,0,0,0,1.423.679,1.144,1.144,0,0,0,.677-1.426Z" transform="translate(-608.422 -290.579)"/><path class="c" d="M559.246,358.836a4.343,4.343,0,0,1-.264-2.547,20.556,20.556,0,0,1,.533-2.7,26.97,26.97,0,0,1,1.9-4.972,68.659,68.659,0,0,1,5.773-9.252,1.15,1.15,0,0,0-.134-1.574,1.122,1.122,0,0,0-1.57.134c-3.55,5.044-7.2,10.328-8.448,16.483a8.221,8.221,0,0,0,.382,5.706,1.12,1.12,0,0,0,1.552.274,1.138,1.138,0,0,0,.274-1.552Z" transform="translate(-534.108 -339.522)"/><path class="c" d="M42.086,524.929c3.316-1.452,4.645-5.38,5.22-8.693a29.6,29.6,0,0,0-.478-11.207c-.48-2.233-1.115-4.424-1.8-6.6-.433-1.371-2.532-.621-2.1.748,2,6.335,3.809,13.5,1.292,19.972-.559,1.438-1.39,3.025-2.875,3.675a1.145,1.145,0,0,0-.677,1.426,1.126,1.126,0,0,0,1.423.678Z" transform="translate(22.092 -488.386)"/><path class="c" d="M148.914,461.186c3.33-5.766,2.215-12.648,1.333-18.9a57.132,57.132,0,0,1-.6-6.075c-.047-1.44-2.269-1.27-2.223.162.251,7.789,3.692,16.552-.525,23.852a1.115,1.115,0,1,0,2.013.959Z" transform="translate(-88.914 -430.307)"/><path class="c" d="M267.575,365.023a11.153,11.153,0,0,0,.449-5.636q-.347-3.286-.833-6.554-.988-6.631-2.526-13.162a1.122,1.122,0,0,0-1.423-.678,1.144,1.144,0,0,0-.677,1.426q1.438,6.129,2.371,12.361.466,3.1.808,6.23c.18,1.649.49,3.474-.18,5.054C265,365.385,267.013,366.349,267.575,365.023Z" transform="translate(-214.091 -340.82)"/><path class="c" d="M389.017,307.061c1.644-2.7,1.363-6.175,1.395-9.209q.057-5.563-.019-11.126-.044-3.139-.13-6.278c-.039-1.441-2.262-1.27-2.223.162q.187,6.883.171,13.769c-.006,2.223-.013,4.444-.066,6.67A9.943,9.943,0,0,1,387,306.1a1.125,1.125,0,0,0,.528,1.488,1.139,1.139,0,0,0,1.485-.528Z" transform="translate(-345.127 -285.53)"/><path class="c" d="M431.07,297.492c1.02-7.941,4.129-15.358,7.216-22.675.557-1.322-1.452-2.286-2.013-.959-3.158,7.478-6.349,15.1-7.393,23.217-.183,1.423,2.006,1.844,2.187.416Z" transform="translate(-396.035 -279.744)"/></g><ellipse class="d" cx="11.452" cy="11.477" rx="11.452" ry="11.477" transform="matrix(-1, -0.025, 0.025, -1, 67.282, 24.031)"/><ellipse class="e" cx="4.569" cy="6.218" rx="4.569" ry="6.218" transform="translate(50.176 12.797) rotate(-109.71)"/></g></g></svg>