<svg xmlns="http://www.w3.org/2000/svg" width="178.885" height="133.49" viewBox="0 0 178.885 133.49"><defs><style>.a,.b{fill:#e0d6e2;}.a{opacity:0.4;}.c{fill:#f4d34d;}.d,.i,.n,.o{fill:none;}.d{stroke:#e0d6e2;}.d,.i,.m,.n,.o{stroke-miterlimit:10;}.e,.m{fill:#fc543d;}.f{fill:#edb2a2;}.g{fill:#fff;}.h{fill:#5a3b8f;}.i{stroke:#5a3b8f;}.j{fill:#967cf2;}.k{fill:#a6b5ff;}.l{fill:#553ef9;}.m{stroke:#9595fc;stroke-width:23px;}.n{stroke:#553ef9;}.o{stroke:#fff;stroke-width:3px;}</style></defs><g transform="translate(0 0)"><g transform="translate(0 0)"><path class="a" d="M72.19,344.071S82.61,283.1,123.107,286.75c19.679,1.776,32.983,14.816,41.46,27.764a53.43,53.43,0,0,1,26.484-5.6c37.207,1.6,57.041,32.954,57.041,32.954l-104.456.655Z" transform="translate(-72.19 -252.637)"/><ellipse class="a" cx="87.289" cy="12.539" rx="87.289" ry="12.539" transform="translate(4.308 96.585)"/><ellipse class="b" cx="1.212" cy="1.212" rx="1.212" ry="1.212" transform="translate(9.753 6.712)"/><ellipse class="b" cx="1.212" cy="1.212" rx="1.212" ry="1.212" transform="translate(33.85 19.72)"/><ellipse class="b" cx="1.636" cy="1.636" rx="1.636" ry="1.636" transform="translate(112.736 15.841)"/><ellipse class="b" cx="1.636" cy="1.636" rx="1.636" ry="1.636" transform="translate(48.186 0)"/><ellipse class="b" cx="1.133" cy="1.133" rx="1.133" ry="1.133" transform="translate(135.252 0.281)"/><path class="c" d="M456,188.86h2.653v-3.47h.611v3.47h2.483v.611h-2.483v3.653h-.611v-3.653H456Z" transform="translate(-359.634 -154.178)"/><path class="c" d="M585.9,34.663l1.2-4.674,0-.1.222.4,1.192,4.372,4.17.943L588.6,36.831l-1.31,4.586-.081-.286-1.273-4.3-4.323-1.343Z" transform="translate(-511.719 -24.858)"/><path class="c" d="M45.318,47.011l.973-3.791,0-.079.18.325.966,3.546,3.382.764-3.315.993-1.062,3.719-.066-.232-1.032-3.487L41.84,47.679Z" transform="translate(121.019 -35.877)"/><path class="d" d="M1056.07,155.15" transform="translate(-1045.812 -143.325)"/></g><g transform="translate(2.108 33.923)"><rect class="e" width="23.668" height="21.715" rx="7.32" transform="translate(37.368 12.706)"/><rect class="c" width="3.123" height="22.161" transform="translate(47.378 12.408)"/><path class="f" d="M928.162,307.53l.963,3.184-4.576,1.426-.909-3.369Z" transform="translate(-907.849 -289.677)"/><ellipse class="f" cx="6.47" cy="6.47" rx="6.47" ry="6.47" transform="translate(10.452 6.832)"/><path class="f" d="M956.42,354.63l2.645,3.227a.158.158,0,0,1-.1.259l-3.184.359Z" transform="translate(-934.066 -343.143)"/><path class="g" d="M978.707,356.271a3.426,3.426,0,0,0-5,.635.14.14,0,0,0,.022.2c.492.362,2.483,1.559,4.98-.623a.14.14,0,0,0-.007-.215Z" transform="translate(-956.74 -343.835)"/><ellipse class="h" cx="1.126" cy="1.126" rx="1.126" ry="1.126" transform="translate(18.336 11.637)"/><path class="i" d="M976.706,388.264a2.322,2.322,0,0,1-1.226-.594" transform="translate(-954.987 -370.62)"/><path class="e" d="M974.055,313.454a3.087,3.087,0,0,1,2.921-1.3,1.883,1.883,0,0,1,1.317,1.089,2.715,2.715,0,0,1-.03,2.234,5.861,5.861,0,0,1-1.375,1.83,10.1,10.1,0,0,1-6.768,2.367,4.617,4.617,0,0,1,.463,3.921,4.816,4.816,0,0,1-2.217,2.546.89.89,0,0,1-.411.133.917.917,0,0,1-.455-.168,6.049,6.049,0,0,1-2.766-4.288,7.026,7.026,0,0,1,1.813-5.448,9.058,9.058,0,0,1,4.283-2.731A6.157,6.157,0,0,1,974.055,313.454Z" transform="translate(-954.983 -307.797)"/><path class="j" d="M892.058,412.453l10.421,18.589-18.157,6.978-6.229-24.737a3.03,3.03,0,0,1,1.869-3.578l4.253-1.606a4.714,4.714,0,0,1,4.665.781A14.244,14.244,0,0,1,892.058,412.453Z" transform="translate(-864.349 -387.36)"/><path class="k" d="M629.393,538.456l11.135-7.758a1.629,1.629,0,0,1,1.793.168h0a1.464,1.464,0,0,1,.66,1.913l-10.093,14.6a.575.575,0,0,1-.793.024l-6.014-4.157Z" transform="translate(-562.601 -489.403)"/><path class="l" d="M719.227,467.671l21.233,16.193-7.012,9.347-14.9-12.805a2.768,2.768,0,0,0-3.391-.4L702.9,489.556a5.788,5.788,0,0,1-7.955-1.254h0a5.788,5.788,0,0,1,1.38-8.273l19.22-12.826A2.993,2.993,0,0,1,719.227,467.671Z" transform="translate(-671.315 -436.399)"/><ellipse class="f" cx="4.066" cy="4.066" rx="4.066" ry="4.066" transform="translate(48.132 19.179)"/><path class="e" d="M634.759,531.335l-10.5,14.976a1.113,1.113,0,0,1-1.593.242l-.362-.278a1.116,1.116,0,0,1-.216-1.546l10.863-14.7a1.114,1.114,0,0,1,1.606-.2h0A1.114,1.114,0,0,1,634.759,531.335Z" transform="translate(-553.709 -488.639)"/><path class="j" d="M806.94,414.769l10.1,6.229,10.4-6.106,4.433,6.795-15.208,9.689a2.719,2.719,0,0,1-3.061-.079l-11.953-8.6a4.766,4.766,0,0,1-1.179-6.512h0a4.768,4.768,0,0,1,6.468-1.416Z" transform="translate(-780.554 -392.567)"/><path class="l" d="M1002,305s-5.428-4.77-9.071-2.306c-3.411,2.306-1.5,7.588-.337,9.74C992.595,312.425,1000.241,307.711,1002,305Z" transform="translate(-982.895 -299.361)"/><ellipse class="j" cx="1.997" cy="1.997" rx="1.997" ry="1.997" transform="translate(6.965)"/><path class="k" d="M799.026,413.378l4.647,7.019a1.209,1.209,0,0,1-.284,1.636l-2.62,1.955a1.209,1.209,0,0,1-1.761-.35l-4.392-7.356a1.212,1.212,0,0,1,.355-1.62l2.365-1.616a1.207,1.207,0,0,1,1.69.332Z" transform="translate(-751.677 -391.548)"/><path class="k" d="M951.251,405.4l-12.686-.14a.673.673,0,0,1-.631-.756l.239-2.18a.648.648,0,0,1,.673-.593l8.135.269a.957.957,0,0,1,.535.185l3.854,2.825a.215.215,0,0,1-.12.389Z" transform="translate(-923.418 -382.31)"/><path class="m" d="M519.28,729" transform="translate(-420.757 -654.485)"/><path class="e" d="M653.8,640.64l5.426,14.08a1.438,1.438,0,0,1-1.347,1.956h0a1.439,1.439,0,0,1-1.347-.929l-5.724-15.107Z" transform="translate(-582.94 -581.001)"/><path class="e" d="M944.727,632.549l-4.66,14.351a1.438,1.438,0,0,1-2.274.673h0a1.438,1.438,0,0,1-.46-1.569l5.081-15.334Z" transform="translate(-916.574 -572.709)"/><path class="e" d="M582.644,586.125a1.705,1.705,0,0,0,.168,2.125,8.846,8.846,0,0,1,1.328,1.914,11.765,11.765,0,0,1-10.123,17.255H486.236a1.746,1.746,0,0,0-1.761,1.593,1.707,1.707,0,0,0,1.7,1.822h87.883a15.178,15.178,0,0,0,13.083-22.26,12.291,12.291,0,0,0-1.852-2.653,1.707,1.707,0,0,0-2.655.207Z" transform="translate(-484.471 -535.045)"/><path class="e" d="M493,643.54" transform="translate(-390.052 -583.412)"/><path class="c" d="M691.712,458.5l-3.93,7.083a3.692,3.692,0,0,1-3.227,1.9H629.106a8,8,0,0,1-7.709-5.867l-6.535-23.569a9.26,9.26,0,0,1,8.837-11.731h0a9.26,9.26,0,0,1,8.963,6.638l7.137,24.191a1.933,1.933,0,0,0,1.852,1.382l39.9.168,2.99-4.727a4.024,4.024,0,0,1,3.4-1.872h0a4.315,4.315,0,0,1,3.771,6.4Z" transform="translate(-609.763 -402.762)"/><path class="n" d="M981,877.8" transform="translate(-960.211 -778.233)"/><path class="c" d="M707.88,246.04l9.327-6.26v6.26Z" transform="translate(-659.606 -233.334)"/><path class="c" d="M764.927,245.67l-9.327-6.26v6.26Z" transform="translate(-715.36 -233.026)"/></g><g transform="translate(110.602 20.451)"><path class="c" d="M413.188,425.46a9.623,9.623,0,0,1-5.34-3.332,5.53,5.53,0,0,1-1.234-2.535v-.029a.941.941,0,0,0-1.744-.36,8.48,8.48,0,0,0-1.064,3.116,9.156,9.156,0,0,0,.685,5.2,6.279,6.279,0,0,0,3.889,3.391Z" transform="translate(-403.7 -382.989)"/><path class="b" d="M204.967,206.417a1.278,1.278,0,0,1,.965,1.529,12.688,12.688,0,0,0-.044,5.283,16.373,16.373,0,0,1,4.467-3.985,1.279,1.279,0,1,1,1.325,2.189,13.854,13.854,0,0,0-3.79,3.389,4.3,4.3,0,0,0-.909,1.732.389.389,0,0,1-.013.061,20.7,20.7,0,0,0,1.347,2.551,1.281,1.281,0,0,1,.31.487,25.2,25.2,0,0,0,4.15,4.891,1.278,1.278,0,0,1-1.655,1.948,22.977,22.977,0,0,1-1.919-1.9,28.351,28.351,0,0,1-2.509-3.184,11.063,11.063,0,0,1-6.492-1.838,1.232,1.232,0,0,1-.234-.2,1.278,1.278,0,0,1,1.657-1.921,8.428,8.428,0,0,0,3.512,1.332,16.758,16.758,0,0,1-1.7-11.394A1.281,1.281,0,0,1,204.967,206.417Z" transform="translate(-169.38 -206.386)"/><path class="c" d="M137.14,332.561a15.676,15.676,0,0,1,5.43-1.985c8.241-1.374,20.583-2.012,22.659-3.732,1.485-1.229,1.864-3.7,1.958-5.014a9.29,9.29,0,0,1-1.8-4.106c-1.411-6.477,2.3-8.755,5.893-9.482,3.872-.781,7.766,3.834,9.174,4.5a7.593,7.593,0,0,0,3.569.365l.894,1.317-.1.168c-.645,1.1-2.566,1.877-3.807,2.158,0,0,.734.882-.261,2.424a10.732,10.732,0,0,1-3.33,1.992A5.254,5.254,0,0,0,174.4,326.4c.268,3.03.852,6.566.852,8.5,0,3.3,5.712,32.7,7.281,40.714a1.684,1.684,0,0,1-1.653,2.007h-2.357a1.684,1.684,0,0,1-1.647-1.322l-6.308-30.5c-.056-.269-.522-.271-.495,0,.348,3.507.47,15.952.47,15.952a3.5,3.5,0,0,1-.221,1.328l-5.142,13.721a1.483,1.483,0,0,1-1.987.875l-2.66-1.14a1.483,1.483,0,0,1-.842-1.781l4.2-12.979a3.492,3.492,0,0,0,.168-1.179l-.471-14.553a.638.638,0,0,0-.673-.618l-19.28.781s-.589,6.95-5.089,10.224a2.386,2.386,0,0,0-.82,2.808l5.32,16.029c.471,1.192-.067,2.142-1.347,2.142H139.4c-.746,0-1.416-.115-1.684-.81l-4.556-14.509a45.931,45.931,0,0,1-3.3-14.555l-.061-1.269C129.9,340.649,132.315,335.418,137.14,332.561Z" transform="translate(-129.31 -291.02)"/><path class="c" d="M337.193,502s4.967,12.654-2.189,19.467a1.655,1.655,0,0,0-.465,1.759l4.6,13.322c.436,1.211-.266,1.658-1.552,1.658h-2.03c-.785,0-1.485.359-1.749-.38L326.231,516.6l.914-13.278Z" transform="translate(-316.743 -452.231)"/><path class="g" d="M181.839,333.523c-.756-.579-3.81-2.549-6.749.86a.189.189,0,0,0,.029.274c.663.488,3.357,2.106,6.734-.842a.189.189,0,0,0-.013-.293Z" transform="translate(-133.932 -311.21)"/><ellipse class="h" cx="1.522" cy="1.522" rx="1.522" ry="1.522" transform="translate(42.993 21.234)"/><path class="c" d="M233.193,303.01s-2.5-5.01-7.317-5.01a6.238,6.238,0,0,0,5.438,6.517Z" transform="translate(-193.766 -282.576)"/><path class="c" d="M211.086,281.053s1.773-5.3-1.636-8.713a6.237,6.237,0,0,0-.764,8.455Z" transform="translate(-169.004 -261.236)"/><path class="b" d="M238.462,259.174a1.28,1.28,0,0,1,1.667.7,12.649,12.649,0,0,0,2.985,4.357,16.413,16.413,0,0,1,1.384-5.823,1.278,1.278,0,1,1,2.337,1.034,13.828,13.828,0,0,0-1.17,4.946,4.292,4.292,0,0,0,.246,1.941l.024.059a20.943,20.943,0,0,0,2.562,1.322,1.266,1.266,0,0,1,.532.222,25.214,25.214,0,0,0,6.2,1.636,1.278,1.278,0,1,1-.251,2.544,22.5,22.5,0,0,1-2.66-.456,28.621,28.621,0,0,1-3.872-1.179,11.069,11.069,0,0,1-6.372,2.212,1.325,1.325,0,0,1-.306-.032,1.278,1.278,0,0,1,.259-2.525,8.446,8.446,0,0,0,3.642-.921,16.813,16.813,0,0,1-7.913-8.374A1.279,1.279,0,0,1,238.462,259.174Z" transform="translate(-218.941 -249.018)"/><path class="j" d="M147.97,689.4l.941,4.815a.4.4,0,0,1-.389.471h-5a.4.4,0,0,1-.387-.313l-1.01-4.77Z" transform="translate(-95.392 -608.081)"/><path class="j" d="M246.835,684.558l-5.579-2.288-1.7,4.633a.793.793,0,0,0,.471,1.019l4.126,1.515a.793.793,0,0,0,1.01-.465Z" transform="translate(-209.704 -602.151)"/><path class="j" d="M328.456,685.3l1.953,5.448a.3.3,0,0,1-.288.407h-5.387a.3.3,0,0,1-.288-.205l-1.852-5.411Z" transform="translate(-307.284 -604.671)"/><path class="j" d="M379.346,686.3l1.953,5.448a.3.3,0,0,1-.288.407h-5.387a.3.3,0,0,1-.288-.205l-1.852-5.411Z" transform="translate(-366.742 -605.503)"/><path class="e" d="M191.747,402a17.96,17.96,0,0,0,7.534,1.662l.436,4.086s-6.67.828-9.957-2.618Z" transform="translate(-154.21 -369.067)"/><ellipse class="e" cx="1.803" cy="1.803" rx="1.803" ry="1.803" transform="translate(53.797 20.613)"/><path class="o" d="M383.84,532.57c.177,5.194-1.766,8.224-4.906,11.474" transform="translate(-370.193 -477.654)"/><path class="o" d="M150.451,359.36a9.313,9.313,0,0,1-3.451.485" transform="translate(-97.746 -333.605)"/></g></g></svg>