<svg xmlns="http://www.w3.org/2000/svg" width="211" height="293.549" viewBox="0 0 211 293.549"><defs><style>.a{opacity:0.08;}.b{fill:#ed3624;}.c{fill:#383838;}.d{fill:#fffaef;}.e{fill:#f6d0ca;}.f{fill:#f6c356;}.g{fill:#97211f;}.h{fill:#ffb691;}.i{fill:#f28750;}.j{fill:#f73011;}.k{fill:#fffbf0;}.l{fill:#ff8b6e;}.m{fill:#f82f11;}.n{fill:#991d0a;}.o{fill:#ffa578;}.p{fill:#c7622d;}.q{fill:#fff;opacity:0.5;}.r{fill:#cc6f58;}</style></defs><g transform="translate(0 0)"><g transform="translate(0 0)"><path class="a" d="M1265.749,818.143a107.755,107.755,0,0,1,21.573-10.07c1.112-8.177,3.7-16.612,6.164-24.1l-.095-.026c-.042-.011-.083-.022-.124-.034q-.235-.066-.466-.146l-.019-.007q-.256-.088-.5-.19l-.032-.014c-.149-.064-.3-.131-.441-.2l-.076-.038c-.141-.07-.278-.143-.415-.221l-.042-.023a9.178,9.178,0,0,1-.9-.591h0c-.141-.105-.278-.216-.413-.329l-.026-.021a8.891,8.891,0,0,1,.906-14.262,32.942,32.942,0,0,1,1.577-9.525,20.639,20.639,0,0,1,2.02-4.05,77.968,77.968,0,0,1-1.054-7.862v0c-.117-1.435-.2-2.945-.219-4.494a30.507,30.507,0,0,1-4.433,2.45,7.209,7.209,0,1,1-9.746-5.883,7.234,7.234,0,0,1,2.808-.475c10.2-20.4,27.144-24.418,27.868-24.755l-.013.138c18.951-5.214,46.085,10.607,45.711,10.788a62.331,62.331,0,0,1,6.2,1.092c12.483,2.418,20.258,11.217,20.86,20.543a20.964,20.964,0,0,1-2.331,9.771l-.027-.038q.57.967,1.1,1.967c.006-.01.01-.022.017-.032,1.546-2.725,6.715,1.294,4.078,9.25a58.063,58.063,0,0,1,5.812,8c.557-3.605,2.388-6.529,3.245-9.229-3.059,2.3-1.911-10.574.95-14.615.885-1.252,2.417-1.815,4.427-1.942a13.262,13.262,0,0,1-1.33-4.709c-.516-8.424-3.325-14.108.644-15.778,3.23-1.055,5.352.651,6.731,3.03q.533-1.354,1.156-2.676c4.994-10.571,22.451-9.405,27.413,3.2,3.961,10.062-.789,20.466-2.868,24.257a16.04,16.04,0,0,1,5.035,4c1.179,1.8,1.057,5.534-2.577,12.2s-6.263,2.907-6.263,2.907h0c-15.476,35.7-30.811,49.971-39.757,56.446a160.323,160.323,0,0,1-.11,24.1,91.064,91.064,0,0,1-3.1,17.366l.36-.028c-.789,2.565-1.649,5.12-2.572,7.64l-.245.044a129.442,129.442,0,0,1-5.415,12.677l.1-.011a1.577,1.577,0,0,1,1.573,1.741H1265.749Z" transform="translate(-1226.138 -694.159)"/><path class="b" d="M2038.751,2145.826c-16.843,28.1-43.393,52.99-81.979,83.1l-13-7.841,40.519-102.306C2004.972,2084.312,2055.021,2113.686,2038.751,2145.826Z" transform="translate(-1895.364 -1952.958)"/><path class="c" d="M2663.8,3246.434l26.843,24.511s11.129-5.18,1.558-17.052a36.15,36.15,0,0,0-12.222-8.845l-9.679-9.768Z" transform="translate(-2617.899 -2977.396)"/><path class="c" d="M1433.2,2633.266l-22-14.876-7.381,20.409,13.238,8.283Z" transform="translate(-1355.568 -2369.636)"/><path class="d" d="M2621.277,3072.342c1.773,1.967-.557,8.825-6.886,5.452-6.513-4.075-22-14.876-22-14.876-2.41-2.169-1.57-8.774,2.868-7.932C2599.292,3057.042,2621.277,3072.342,2621.277,3072.342Z" transform="translate(-2536.762 -2814.164)"/><path class="b" d="M2521.86,1933.527c-16.843,28.1-43.394,52.99-81.979,83.1l-13-7.839L2467.4,1906.48C2488.084,1872.012,2538.129,1901.386,2521.86,1933.527Z" transform="translate(-2424.369 -1760.828)"/><path class="c" d="M3146.906,3034.134l26.843,24.511s11.129-5.18,1.558-17.052a36.15,36.15,0,0,0-12.222-8.845l-9.679-9.768Z" transform="translate(-3146.906 -2785.264)"/><path class="c" d="M1916.307,2420.966l-22-14.876-7.381,20.409,13.238,8.283Z" transform="translate(-1884.575 -2177.505)"/><path class="d" d="M3104.387,2860.042c1.773,1.967-.557,8.825-6.887,5.452-6.512-4.075-22-14.876-22-14.876-2.41-2.169-1.571-8.774,2.868-7.932C3082.4,2844.74,3104.387,2860.042,3104.387,2860.042Z" transform="translate(-3065.769 -2622.033)"/><path class="b" d="M1792.7,1433.416c16.4,11.135,35.071,17.2,54.2,21.78,9.629,2.306,19.016,4.33,28.976,3.9,10.013-.44,19.8-2.741,29.538-4.953,7.649-14.156,13.193-28.6,14.447-44.758a151.869,151.869,0,0,0-2.174-41.32c-26.646-7.683-52.677-17.257-79.285-25.01-10.6,11.663-19.856,24.232-26.816,38.422C1803.452,1398.043,1798.258,1415.865,1792.7,1433.416Z" transform="translate(-1759.432 -1264.933)"/><path class="e" d="M2120.219,1476.876c3.776,39.129-2.33,62.255-16.2,91.078-3.825-.36-7.642-.754-11.457-1.206,13.037-30.35,19.509-58.789,14.272-93.939Q2113.514,1474.883,2120.219,1476.876Z" transform="translate(-1988.865 -1382.365)"/><path class="c" d="M1944.673,1994.931c-39.711,3.261-80.443-1.814-114.4-24.131q-1.71,4.3-3.456,8.583c32.651,21.963,76.572,30.434,115.288,23.231Q1943.489,1998.813,1944.673,1994.931Z" transform="translate(-1786.976 -1833.045)"/><path class="f" d="M2101.877,2198.81a7.57,7.57,0,0,1,6.707-3.426c4.672.219,9.345.439,14.016.695a5.13,5.13,0,0,1,2.137.561,2.818,2.818,0,0,1,1.57,3.106,3.481,3.481,0,0,1-.225.716q-1.453,3.353-3.006,6.665a4.65,4.65,0,0,1-.355.627,8.256,8.256,0,0,1-4.2,2.988,7.752,7.752,0,0,1-2.446.414c-4.521-.011-9.042-.008-13.562-.03-2.678-.018-4.246-1.773-3.75-3.955a4.092,4.092,0,0,1,.148-.5q1.33-3.593,2.653-7.19A4.123,4.123,0,0,1,2101.877,2198.81Zm2.035,8.74c4.569.065,9.139.115,13.707.183a1.4,1.4,0,0,0,1.235-.713q1.515-3.37,2.957-6.774a.5.5,0,0,0-.068-.544.769.769,0,0,0-.549-.225q-6.983-.3-13.956-.551a1.429,1.429,0,0,0-.813.234,1.069,1.069,0,0,0-.428.492q-1.351,3.563-2.725,7.115a.527.527,0,0,0,.273.7.89.89,0,0,0,.366.081Z" transform="translate(-1994.492 -2036.289)"/><path class="d" d="M2014.687,2201.929c-16.035,1.966-39.465,2.048-59.405-3.045-18.4-4.7-46.361-15.63-53.467-21.879-1.3-1.147-6.166,8.035-6.143,12.875,2.957,5.32,12.438,8.512,17.6,10.7,12.3,5.21,25.338,8.821,38.253,11.85,13.317,3.123,25.948,4.9,39.681,3.342,6.2-.7,14.113-.975,18.5-2.883C2011.775,2211.986,2019.545,2202.631,2014.687,2201.929Z" transform="translate(-1865.102 -2019.571)"/><path class="b" d="M2790.927,1509.08s-28.173,3.39-59.8,35.637c-9.078,15.8,9.68,35.634,21.471,33.492,23.413-17.535,36.925-41.047,39.641-50.124S2790.927,1509.08,2790.927,1509.08Z" transform="translate(-2721.168 -1415.189)"/><path class="g" d="M2839.644,1917.2a.748.748,0,0,0,.548-.238,98.271,98.271,0,0,0,7.436-8.922.752.752,0,0,0-1.211-.891,96.427,96.427,0,0,1-7.322,8.784.752.752,0,0,0,.549,1.266Z" transform="translate(-2786.226 -1775.166)"/><path class="h" d="M1405.292,598.348s5.678-14.8-1.85-26.114-24.787-8.7-27.389,2.766c-1.962,8.631-1.451,17.847,3.957,24.562C1386.378,607.468,1401.152,608.072,1405.292,598.348Z" transform="translate(-1206.725 -560.758)"/><path class="h" d="M1503.305,686.142s-4.213-13.332-11.34-9.106c-3.515,2.5.442,7.478,2.745,15.643,1.958,6.944,13.034,14.6,21.448,14.167S1518.864,684.359,1503.305,686.142Z" transform="translate(-1330.398 -661.443)"/><path class="i" d="M1433.313,714.186a.394.394,0,0,0,.332-.18,13.043,13.043,0,0,1,5.085-4.067c4.548-2.115,10.2-1.79,16.349.94a.4.4,0,0,0,.321-.722,25.286,25.286,0,0,0-10.059-2.4h-.083a16.124,16.124,0,0,0-6.9,1.482,13.563,13.563,0,0,0-5.371,4.333.4.4,0,0,0,.331.611Z" transform="translate(-1260.507 -689.997)"/><path class="i" d="M1539.038,581.513a.381.381,0,0,0,.146-.029.393.393,0,0,0,.22-.513,17.93,17.93,0,0,1-.454-13.075.4.4,0,0,0-.72-.327,14.148,14.148,0,0,0-.956,3.947,20.18,20.18,0,0,0,1.4,9.748A.4.4,0,0,0,1539.038,581.513Z" transform="translate(-1354.218 -562.914)"/><path class="i" d="M1466.646,605.953a.4.4,0,0,0,.366-.542,14.746,14.746,0,0,1-1.01-8.593,8.41,8.41,0,0,1,1.212-3.033.4.4,0,0,0-.631-.475,8.938,8.938,0,0,0-1.344,3.295,15.487,15.487,0,0,0,1.038,9.1A.4.4,0,0,0,1466.646,605.953Z" transform="translate(-1275.21 -586.289)"/><path class="i" d="M1609.789,598.543a.4.4,0,0,0,.334-.606h0c-.027-.043-2.667-4.348-2.346-12.9a.4.4,0,0,0-.791-.029c-.331,8.826,2.354,13.175,2.47,13.356A.394.394,0,0,0,1609.789,598.543Z" transform="translate(-1431.6 -578.557)"/><path class="i" d="M1663.153,717a.385.385,0,0,0,.38-.374,14.158,14.158,0,0,0-3.616-9.888.385.385,0,1,0-.577.509,13.378,13.378,0,0,1,3.42,9.358.38.38,0,0,0,.374.4Z" transform="translate(-1489.921 -688.957)"/><path class="j" d="M1381.863,1030.248c.791-.536,38.318-22.289,44.259-78.128-12.462-7.557-35.651-1.962-35.651-1.962s.27,35.678-16.108,63.242C1363.127,1032.307,1375.052,1034.871,1381.863,1030.248Z" transform="translate(-1225.001 -907.562)"/><path class="k" d="M1318.294,900.511s10.116-2.247,18.893-1.224a69.418,69.418,0,0,1,15.671,3.74s3.362,3.126,5.48-4.207,1.437-11.029-.095-12.54-8.5-4.94-19.363-4.426-20.865-.5-22.785,4.092S1315.807,903.428,1318.294,900.511Z" transform="translate(-1153.377 -847.505)"/><path class="h" d="M1813.852,795.162a44.912,44.912,0,1,0,3.312-22.343A44.859,44.859,0,0,0,1813.852,795.162Z" transform="translate(-1744.316 -724.111)"/><ellipse class="l" cx="1.79" cy="3.598" rx="1.79" ry="3.598" transform="translate(99.257 77.298) rotate(-96.11)"/><ellipse class="l" cx="1.79" cy="3.598" rx="1.79" ry="3.598" transform="translate(140.307 72.183) rotate(-96.11)"/><ellipse class="k" cx="7.183" cy="7.201" rx="7.183" ry="7.201" transform="translate(47.335 25.819)"/><path class="m" d="M2200.2,532.7c.565-.085-28.891-17.45-47.864-10.1-21.75,8.42-11.99,44.556-11.99,44.556S2160.611,538.626,2200.2,532.7Z" transform="translate(-2072.094 -520.786)"/><path class="m" d="M2647.183,530.52c-.752.354-19.12,4.739-29.095,27.669-.3.877.051,4.035,2.7,4.665,2.574.612,7.355-1.218,13.49-6.088C2645.784,547.639,2647.183,530.52,2647.183,530.52Z" transform="translate(-2564.651 -529.595)"/><path class="k" d="M1862.123,699.448a11.418,11.418,0,0,0,1.585.139c-.733-10.981,3.654-27.342,31.4-37.051,32.526-11.378,47.814,10.869,47.814,10.869a21.279,21.279,0,0,0,2.325-9.831c-.6-9.382-8.354-18.235-20.806-20.667-39.728-9.143-66.164,24.652-68.96,33.26C1852.826,684.345,1852.636,697.918,1862.123,699.448Z" transform="translate(-1790.149 -629.898)"/><path class="n" d="M2751.6,668.454a20.658,20.658,0,0,0-1.389,3.174,34.621,34.621,0,0,0-1.064,3.771c-.3,1.354-.545,2.723-.73,4.1q-.285,2.1-.4,4.223c-.078,1.379-.106,2.762-.078,4.143,0,.167.008.335.012.5.01.332-.5.332-.515,0-.042-1.384-.026-2.771.041-4.154q.1-2.135.366-4.258c.176-1.412.4-2.817.7-4.208a35.9,35.9,0,0,1,1.029-3.84,22.852,22.852,0,0,1,1.387-3.348q.1-.182.195-.364A.258.258,0,0,1,2751.6,668.454Z" transform="translate(-2681.401 -654.077)"/><ellipse class="h" cx="8.961" cy="8.982" rx="8.961" ry="8.982" transform="translate(59.709 54.385)"/><path class="o" d="M2674.085,1107.155a8.734,8.734,0,0,0,4.384-5.161,10.784,10.784,0,0,0-.687-7.159c-.095-.211-.2-.414-.311-.614a8.981,8.981,0,1,1-8.247,14.56A15.753,15.753,0,0,0,2674.085,1107.155Z" transform="translate(-2607.502 -1039.742)"/><path class="p" d="M2714.869,1154.235a3.332,3.332,0,0,1,2.45-.42,7.9,7.9,0,0,1,2.19.634,8.512,8.512,0,0,1,3.451,2.881,7.849,7.849,0,0,1,1.1,2.3.257.257,0,0,1-.5.137,7.659,7.659,0,0,0-2.244-3.526,7.741,7.741,0,0,0-3.733-1.871,3.139,3.139,0,0,0-2.459.3.26.26,0,0,1-.353-.095.262.262,0,0,1,.1-.352Z" transform="translate(-2650.731 -1093.624)"/><path class="o" d="M1937.513,898s3.8,3.955.594,5.579c-6.165-2.162-15.607-.8-18.793,1s-4.18-6.692-1.5-8.992S1934.2,893.441,1937.513,898Z" transform="translate(-1790.193 -858.659)"/><path class="o" d="M2321.677,936.456s-2.881,4.668.593,5.579c5.572-3.42,15.087-4.085,18.582-2.992s2.68-7.425-.42-9.108S2323.959,931.3,2321.677,936.456Z" transform="translate(-2232.345 -890.644)"/><path class="k" d="M1938.885,885.886s3.8,3.955.594,5.579c-6.165-2.162-15.607-.8-18.794,1s-4.18-6.692-1.5-8.991S1935.57,881.332,1938.885,885.886Z" transform="translate(-1791.695 -847.702)"/><path class="k" d="M2323.047,924.328s-2.881,4.667.594,5.578c5.571-3.415,15.086-4.085,18.581-2.992s2.68-7.425-.42-9.107S2325.33,919.174,2323.047,924.328Z" transform="translate(-2233.845 -879.669)"/><path class="k" d="M1779.908,1000.017c14.733,17.2,16.734,39.319,9.483,53.315-14.387,27.773-46.61,39.765-46.61,39.765s-42.086-7.517-56.343-26.336c-10.554-15.017-1.064-40.091,4.362-56.751-2.477-9.938,4.806-12.573,7.812-10.69,0,0,1.413-.267,3.84,12.021,1.584,8.013,13.269,16.467,20.109,16.4,5.865-.059,13.974-6.3,23.614-6.27,12.861.034,17.146,2.85,22.667-1.953,11.891-10.355,4.434-24.231,7-28.8C1777.382,987.972,1782.538,992.013,1779.908,1000.017Z" transform="translate(-1621.977 -945.295)"/><path class="h" d="M2048.534,1216.78s10.539,5.018,8.864,11.13-17.276,8.525-20.506-1.995Z" transform="translate(-1919.838 -1150.659)"/><ellipse class="q" cx="2.149" cy="2.368" rx="2.149" ry="2.368" transform="translate(128.76 77.839) rotate(-96.23)"/><path class="r" d="M2043.745,1229.751h.23a14.312,14.312,0,0,0,6.365-1.551,6.866,6.866,0,0,0,3.64-3.99c.731-2.667-.631-5.53-3.938-8.282a27.416,27.416,0,0,0-5.146-3.325.412.412,0,0,0-.354.744c.1.049,10.208,4.94,8.645,10.65-.753,2.745-4.719,4.867-9.226,4.94h-.232c-5.093,0-8.918-2.582-10.26-6.941a.412.412,0,1,0-.788.241,9.994,9.994,0,0,0,4.538,5.855A12.9,12.9,0,0,0,2043.745,1229.751Z" transform="translate(-1916.031 -1146.847)"/><ellipse cx="2.528" cy="2.435" rx="2.528" ry="2.435" transform="matrix(-0.1, -0.995, 0.995, -0.1, 137.663, 59.201)"/><ellipse cx="2.516" cy="2.423" rx="2.516" ry="2.423" transform="translate(93.453 64.848) rotate(-95.7)"/><path class="p" d="M2154.441,1485.591s-20.826,5.707-32.871-4.611C2125.7,1487.849,2140.815,1492.151,2154.441,1485.591Z" transform="translate(-2024.746 -1389.759)"/><path class="p" d="M2442.153,1442.52s-6.579-2.2-7.763,2.311C2434.379,1441.252,2438.775,1439.732,2442.153,1442.52Z" transform="translate(-2342.177 -1353.648)"/></g></g></svg>