<svg xmlns="http://www.w3.org/2000/svg" width="266.472" height="200.123" viewBox="0 0 266.472 200.123"><defs><style>.a{fill:#a6b5ff;}.b{fill:#f4d34d;}.c{fill:#fc543d;}.d{fill:#d7dff9;}.e{fill:#553ef9;}.f{fill:none;stroke:#a6b5ff;stroke-miterlimit:10;stroke-width:7px;}.g{fill:#fcbdb6;}</style></defs><path class="a" d="M259.374,142.272c-1.905-11.245-1.127-22.645,5.427-32.937.874-1.349,2.788-2.4,4.2-1.634h0c1.427.775,1.48,3,.551,4.431a54.452,54.452,0,0,0-5.486,10.488c-2.3,5.826-3.72,15.574-4.14,19.629a.291.291,0,0,1-.554.023Z" transform="translate(-213.672 -89.557)"/><path class="a" d="M165.414,249.994c-12.008,1.244-23.469,4.952-32.267,13.646-1.165,1.136-1.722,3.167-.562,4.247h0c1.165,1.1,3.464.551,4.682-.67a58.191,58.191,0,0,1,9.276-7.758c5.357-3.627,14.954-7.5,18.994-8.958a.262.262,0,0,0-.122-.507Z" transform="translate(-124.008 -190.58)"/><path class="b" d="M140.4,228.285c-4.661-.271-19.842-.708-31.594,4.079a2.938,2.938,0,0,1-4.079-2.063h0a2.913,2.913,0,0,1,2.24-3.248,58.457,58.457,0,0,1,33.52.874.192.192,0,0,1-.087.358Z" transform="translate(-104.701 -172.882)"/><path class="b" d="M220.877,127.512c-1.192-4.268-4.6-18.237-1.914-30.05a2.792,2.792,0,0,0-2.934-3.368h0a3.015,3.015,0,0,0-2.939,2.7,50.015,50.015,0,0,0,7.417,30.88.2.2,0,0,0,.37-.16Z" transform="translate(-181.388 -80.097)"/><path class="c" d="M174.16,180.645,145.467,163.9a3.053,3.053,0,0,1-.938-4.591h0a3.5,3.5,0,0,1,5-.5l24.78,21.637Z" transform="translate(-132.454 -125.372)"/><path class="d" d="M546.111,142.9c6.3,2.995,11.781,7.3,14.744,13.946a1.952,1.952,0,0,1-.6,2.537h0c-.874.4-2.01-.341-2.415-1.273a33.134,33.134,0,0,0-3.423-6.205,57.653,57.653,0,0,0-8.48-8.74.16.16,0,0,1,.175-.265Z" transform="translate(-417.356 -114.676)"/><path class="e" d="M502.141,82.254c-1.821-6.738-5.081-12.9-11.088-17a1.954,1.954,0,0,0-2.6.137h0A2.04,2.04,0,0,0,489.271,68a33.065,33.065,0,0,1,5.494,4.472,57.475,57.475,0,0,1,7.082,9.9.16.16,0,0,0,.294-.122Z" transform="translate(-376.494 -59.359)"/><path class="c" d="M546.316,66.72c.385-2.683,1.358-11.429-1.008-18.385a1.719,1.719,0,0,1,1.457-2.275h0a1.748,1.748,0,0,1,1.882,1.39,32.294,32.294,0,0,1-2.095,19.321.121.121,0,1,1-.236-.05Z" transform="translate(-416.882 -46.051)"/><path class="c" d="M465.169,121.794c-2.7-.236-11.49-.737-18.3,2a1.722,1.722,0,0,1-2.354-1.323h0a1.748,1.748,0,0,1,1.293-1.955,32.3,32.3,0,0,1,19.405,1.043.117.117,0,0,1-.041.23Z" transform="translate(-345.503 -98.104)"/><path class="c" d="M561.329,132.016c2.689.335,11.385,1.693,17.479,5.8a1.722,1.722,0,0,0,2.578-.8h0a1.748,1.748,0,0,0-.874-2.179,32.308,32.308,0,0,0-19.192-3.056.117.117,0,0,0,.009.23Z" transform="translate(-428.23 -106.56)"/><path class="c" d="M531.942,161.238c.061,2.709,0,11.51-3.2,18.132A1.722,1.722,0,0,0,529.9,181.8h0a1.748,1.748,0,0,0,2.039-1.165,32.338,32.338,0,0,0,.23-19.434.117.117,0,0,0-.23.035Z" transform="translate(-405.083 -127.59)"/><path class="b" d="M560.76,85.375,575.23,72a1.94,1.94,0,0,1,2.864.189h0a1.943,1.943,0,0,1-.5,2.864L560.85,85.491Z" transform="translate(-427.9 -64.056)"/><path class="b" d="M484.875,142.912,471.71,155.7a2.039,2.039,0,0,1-3.021-.2h0a3.012,3.012,0,0,1-.291-2.84l16.39-9.87Z" transform="translate(-362.284 -114.608)"/><path class="f" d="M750.718,70.852A8.33,8.33,0,0,0,739.9,68.184a5.337,5.337,0,0,0-2.057,1.981c-1.148,2.089-.227,4.693.964,6.756a11.494,11.494,0,0,0,3.091,3.854c2.5,1.853,5.984-1.165,4.014-3.557-.02-.023-6.022-5.564-12.862-.306a6.725,6.725,0,0,0-2.287,3.394,8.818,8.818,0,0,0-.026,4.918A14.228,14.228,0,0,0,733.74,91.4a8.062,8.062,0,0,0,3.5,2.476,2.278,2.278,0,0,0,2.083-.344c1.113-.891.941-2.986.344-4.189a7.753,7.753,0,0,0-5.923-4.588c-2.762-.428-6.409,1.02-7.74,3.47a8.274,8.274,0,0,0,.108,7.321,21.936,21.936,0,0,0,4.606,5.99" transform="translate(-544.43 -61.029)"/><circle class="c" cx="3.808" cy="3.808" r="3.808" transform="translate(167.033 10.799)"/><path class="b" d="M362.818,92.858l-4.233-.618a.291.291,0,0,0-.291.44l2.278,3.764a.291.291,0,0,1-.023.335l-2.8,3.5a.291.291,0,0,0,.291.463l4.635-1.247a.291.291,0,0,1,.291.084l3.286,3.58a.291.291,0,0,0,.507-.218l-.315-4.329a.291.291,0,0,1,.2-.291l4.079-1.372a.291.291,0,0,0,.047-.536l-3.959-2.153a.291.291,0,0,1-.154-.236l-.315-4.009a.291.291,0,0,0-.5-.178l-2.759,2.934A.291.291,0,0,1,362.818,92.858Z" transform="translate(-283.989 -77.013)"/><g transform="translate(-43 23)"><circle class="e" cx="3.54" cy="3.54" r="3.54" transform="translate(43.419 130.92)"/><rect class="c" width="5.337" height="13.101" transform="matrix(0.657, 0.754, -0.754, 0.657, 253.132, 120.566)"/><rect class="e" width="4.128" height="10.135" transform="translate(158.867 104.145) rotate(126.16)"/><circle class="d" cx="6.587" cy="6.587" r="6.587" transform="translate(264.396 99.754)"/><circle class="g" cx="4.789" cy="4.789" r="4.789" transform="translate(128.683 115.736)"/><path class="b" d="M638.037,459.18a13.614,13.614,0,0,1-6.8,9.751,11.273,11.273,0,0,1,6.205,9.451s2.068-7.385,7.385-9.451C644.83,468.931,640.1,467.454,638.037,459.18Z" transform="translate(-477.847 -338.826)"/><path class="c" d="M553.513,538.762c-5.2.291-9.258-4.026-10.826-8.18a34.35,34.35,0,0,1-1.681-9.287c-.1-1.151-.2-2.331-.35-3.5-.629-4.909-2.261-8.335-4.848-10.176-1.99-1.416-4.5-1.917-7.164-2.447a25.178,25.178,0,0,1-6.992-2.118,12.916,12.916,0,0,1-6.805-11.667l2.747.09a10.2,10.2,0,0,0,5.369,9.2,22.77,22.77,0,0,0,6.237,1.85c2.832.565,5.759,1.148,8.23,2.913,3.225,2.3,5.244,6.339,5.958,12.014.154,1.2.259,2.424.361,3.6a31.743,31.743,0,0,0,1.521,8.579c1.267,3.359,4.451,6.648,8.087,6.432Z" transform="translate(-395.356 -361.653)"/><path class="e" d="M971.639,271.587a17.575,17.575,0,0,1-12.413,7.42,33.341,33.341,0,0,1-4.935.061,30.511,30.511,0,0,0-4.51.044c-7.3.8-13.456,8.209-12.917,15.533l-2.855.21c-.658-8.923,6.564-17.61,15.461-18.589a33.255,33.255,0,0,1,4.929-.061,30.554,30.554,0,0,0,4.513-.044,14.54,14.54,0,0,0,12.25-18.886l2.727-.874a17.564,17.564,0,0,1-1.972,14.776C971.825,271.313,971.732,271.45,971.639,271.587Z" transform="translate(-872.383 -145.121)"/><path class="b" d="M985.208,524.76l.271,2.427a22.14,22.14,0,0,0-16.192,10.377c-.207.344-.39.679-.556,1.005a10.974,10.974,0,0,1,9.322,1.165,6.39,6.39,0,0,1,3.088,5.171,5.057,5.057,0,0,1-1.646,3.636,7.883,7.883,0,0,1-5.535,2.057c-4.419-.134-8.3-3.525-8.684-7.574a11.071,11.071,0,0,0-.9.778c-3.583,3.478-5.177,8.7-6.161,12.85l-2.377-.562c1.063-4.481,2.8-10.126,6.858-14.045a14.273,14.273,0,0,1,2.913-2.15,14.429,14.429,0,0,1,1.608-3.589A24.611,24.611,0,0,1,985.208,524.76Zm-14.217,22.557a6.89,6.89,0,0,0,3.062.845,5.442,5.442,0,0,0,3.761-1.378,2.622,2.622,0,0,0,.894-1.9,4.125,4.125,0,0,0-2.01-3.123c-2.622-1.748-6.057-1.535-8.949-.221a5.7,5.7,0,0,0-.029,1.194A6.044,6.044,0,0,0,970.992,547.317Z" transform="translate(-707.884 -385.301)"/></g><path class="g" d="M940.028,230.851a60.867,60.867,0,0,1,16.5,5.436,1.978,1.978,0,0,0,2.287-.355h0a2.039,2.039,0,0,0-.51-3.251,29.077,29.077,0,0,0-7.038-1.972c-2.459-.533-7.761-.507-11.2-.422a.291.291,0,0,0-.044.565Z" transform="translate(-696.535 -176.581)"/><path class="g" d="M882.178,136.919a60.608,60.608,0,0,0-8.466-15.172,1.969,1.969,0,0,1-.084-2.31h0a2.039,2.039,0,0,1,3.286-.119,29.02,29.02,0,0,1,3.272,6.537c.99,2.313,1.972,7.525,2.537,10.916a.291.291,0,0,1-.545.149Z" transform="translate(-649.386 -97.425)"/><path class="b" d="M934.516,202.668a.606.606,0,0,0,.527.128,43.453,43.453,0,0,1,15.895-1.119c2.06.2,3.971.874,5.984.408,1.063-.248,2.226-.9,2.162-2.092a1.838,1.838,0,0,0-.658-1.276,4.4,4.4,0,0,0-2.87-.822c-7.1-.23-14.047,1.768-20.832,3.915C934.256,201.96,934.14,202.356,934.516,202.668Z" transform="translate(-692.613 -153.647)"/><path class="b" d="M916.4,131.166a.62.62,0,0,1-.064-.539,43.57,43.57,0,0,0,2.954-15.659c.041-2.071-.417-4.046.291-5.993.373-1.025,1.165-2.106,2.331-1.905a1.856,1.856,0,0,1,1.192.8,4.306,4.306,0,0,1,.484,2.945c-.583,7.076-3.385,13.748-6.3,20.238-.2.446-.609.516-.874.108Z" transform="translate(-679.864 -89.277)"/><path class="g" d="M927.245,155.32c.326.2,1.165-.46,1.439-.737,1.224-1.267,8.134-9.832,18.627-13.87,1.425-.548,2.974-1.748,2.281-3.085h0a2.255,2.255,0,0,0-2.785-1.063,18.744,18.744,0,0,0-5.378,2.622c-3.263,2.383-11.236,11.251-13.625,14.254-.291.382-1.317,1.4-.559,1.867Z" transform="translate(-687.425 -110.113)"/></svg>