<svg xmlns="http://www.w3.org/2000/svg" width="1476.92" height="284.094" viewBox="0 0 1476.92 284.094"><defs><style>.a{fill:#e9e9e9;}</style></defs><path class="a" d="M1084.62,200.132a1.809,1.809,0,1,1,.432,1.32A1.809,1.809,0,0,1,1084.62,200.132Z" transform="translate(55.999 10.247)"/><path class="a" d="M1084.62,200.132a1.809,1.809,0,1,1,.432,1.32A1.809,1.809,0,0,1,1084.62,200.132Z" transform="translate(375.999 20.247)"/><path class="a" d="M1093.671,184.794a3.407,3.407,0,1,1,.821,2.479A3.4,3.4,0,0,1,1093.671,184.794Z" transform="translate(56.466 9.379)"/><path class="a" d="M1093.671,184.794a3.407,3.407,0,1,1,.821,2.479A3.4,3.4,0,0,1,1093.671,184.794Z" transform="translate(376.466 19.379)"/><path class="a" d="M1060.19,200.515a1.64,1.64,0,1,1,1.514,1.756A1.64,1.64,0,0,1,1060.19,200.515Z" transform="translate(54.738 10.274)"/><path class="a" d="M1060.19,200.515a1.64,1.64,0,1,1,1.514,1.756A1.64,1.64,0,0,1,1060.19,200.515Z" transform="translate(374.738 20.274)"/><path class="a" d="M1075.47,177.4a3.733,3.733,0,1,1,3.46,4.017,3.733,3.733,0,0,1-3.46-4.017Z" transform="translate(55.527 8.982)"/><path class="a" d="M1075.47,177.4a3.733,3.733,0,1,1,3.46,4.017,3.733,3.733,0,0,1-3.46-4.017Z" transform="translate(375.527 18.982)"/><path class="a" d="M1072.1,175.686a2.1,2.1,0,1,1,2.2-1.914,2.1,2.1,0,0,1-2.2,1.914Z" transform="translate(55.249 8.854)"/><path class="a" d="M1072.1,175.686a2.1,2.1,0,1,1,2.2-1.914,2.1,2.1,0,0,1-2.2,1.914Z" transform="translate(375.249 18.854)"/><path class="a" d="M1062.51,169.649a.652.652,0,1,1,.6.7.641.641,0,0,1-.6-.7Z" transform="translate(54.858 8.728)"/><path class="a" d="M1062.51,169.649a.652.652,0,1,1,.6.7.641.641,0,0,1-.6-.7Z" transform="translate(374.858 18.728)"/><path class="a" d="M1039.5,178.09a2.7,2.7,0,1,1-2.871,2.5A2.7,2.7,0,0,1,1039.5,178.09Z" transform="translate(53.521 9.195)"/><path class="a" d="M1039.5,178.09a2.7,2.7,0,1,1-2.871,2.5A2.7,2.7,0,0,1,1039.5,178.09Z" transform="translate(373.521 19.195)"/><path class="a" d="M1036,161.725a2.755,2.755,0,1,1,.656,2.022A2.766,2.766,0,0,1,1036,161.725Z" transform="translate(53.489 8.218)"/><path class="a" d="M1036,161.725a2.755,2.755,0,1,1,.656,2.022A2.766,2.766,0,0,1,1036,161.725Z" transform="translate(373.489 18.218)"/><path class="a" d="M1027.6,162.8a3.838,3.838,0,1,1,.92,2.8A3.838,3.838,0,0,1,1027.6,162.8Z" transform="translate(53.055 8.223)"/><path class="a" d="M1027.6,162.8a3.838,3.838,0,1,1,.92,2.8A3.838,3.838,0,0,1,1027.6,162.8Z" transform="translate(373.055 18.223)"/><path class="a" d="M1037.61,126.891a1.977,1.977,0,1,1,1.83,2.1A1.977,1.977,0,0,1,1037.61,126.891Z" transform="translate(53.572 6.456)"/><path class="a" d="M1037.61,126.891a1.977,1.977,0,1,1,1.83,2.1A1.977,1.977,0,0,1,1037.61,126.891Z" transform="translate(373.572 16.456)"/><path class="a" d="M1020.5,127.727a2.787,2.787,0,1,1,2.577,2.987A2.787,2.787,0,0,1,1020.5,127.727Z" transform="translate(52.688 6.461)"/><path class="a" d="M1020.5,127.727a2.787,2.787,0,1,1,2.577,2.987A2.787,2.787,0,0,1,1020.5,127.727Z" transform="translate(372.688 16.461)"/><path class="a" d="M1008.3,139.5a2.692,2.692,0,1,1,2.492,2.892,2.692,2.692,0,0,1-2.492-2.892Z" transform="translate(52.059 7.074)"/><path class="a" d="M1008.3,139.5a2.692,2.692,0,1,1,2.492,2.892,2.692,2.692,0,0,1-2.492-2.892Z" transform="translate(372.059 17.074)"/><path class="a" d="M1008.66,111.78a.936.936,0,1,1,.2.711.936.936,0,0,1-.2-.711Z" transform="translate(52.077 5.729)"/><path class="a" d="M1008.66,111.78a.936.936,0,1,1,.2.711.936.936,0,0,1-.2-.711Z" transform="translate(372.077 15.729)"/><path class="a" d="M995.07,122.289a1.924,1.924,0,0,1,2.1-1.8,1.946,1.946,0,1,1-2.1,1.8Z" transform="translate(51.376 6.221)"/><path class="a" d="M995.07,122.289a1.924,1.924,0,0,1,2.1-1.8,1.946,1.946,0,1,1-2.1,1.8Z" transform="translate(371.376 16.221)"/><path class="a" d="M986.02,138.563a3.292,3.292,0,1,1,3.512-3.05A3.292,3.292,0,0,1,986.02,138.563Z" transform="translate(50.751 6.815)"/><path class="a" d="M986.02,138.563a3.292,3.292,0,1,1,3.512-3.05A3.292,3.292,0,0,1,986.02,138.563Z" transform="translate(370.751 16.815)"/><path class="a" d="M978.664,135.74a.652.652,0,1,1-.691.609A.652.652,0,0,1,978.664,135.74Z" transform="translate(50.493 7.008)"/><path class="a" d="M978.664,135.74a.652.652,0,1,1-.691.609A.652.652,0,0,1,978.664,135.74Z" transform="translate(370.493 17.008)"/><path class="a" d="M972.739,139.337a3.155,3.155,0,1,1-.754-2.3,3.155,3.155,0,0,1,.754,2.3Z" transform="translate(49.898 7.019)"/><path class="a" d="M972.739,139.337a3.155,3.155,0,1,1-.754-2.3,3.155,3.155,0,0,1,.754,2.3Z" transform="translate(369.898 17.019)"/><path class="a" d="M958.27,129.284a1.415,1.415,0,1,1,1.3,1.514,1.413,1.413,0,0,1-1.3-1.514Z" transform="translate(49.476 6.607)"/><path class="a" d="M958.27,129.284a1.415,1.415,0,1,1,1.3,1.514,1.413,1.413,0,0,1-1.3-1.514Z" transform="translate(369.476 16.607)"/><path class="a" d="M950.3,139.431a3.775,3.775,0,1,1,.9,2.756A3.775,3.775,0,0,1,950.3,139.431Z" transform="translate(49.064 7.019)"/><path class="a" d="M950.3,139.431a3.775,3.775,0,1,1,.9,2.756A3.775,3.775,0,0,1,950.3,139.431Z" transform="translate(369.064 17.019)"/><path class="a" d="M947.4,109.387a.6.6,0,1,1,.547.642.589.589,0,0,1-.547-.642Z" transform="translate(48.914 5.619)"/><path class="a" d="M947.4,109.387a.6.6,0,1,1,.547.642.589.589,0,0,1-.547-.642Z" transform="translate(368.914 15.619)"/><path class="a" d="M941.27,148.572a1.114,1.114,0,1,1,1.031,1.178,1.115,1.115,0,0,1-1.031-1.178Z" transform="translate(48.598 7.616)"/><path class="a" d="M941.27,148.572a1.114,1.114,0,1,1,1.031,1.178,1.115,1.115,0,0,1-1.031-1.178Z" transform="translate(368.598 17.616)"/><path class="a" d="M935.06,149.252a1.378,1.378,0,1,1,1.283,1.483,1.378,1.378,0,0,1-1.283-1.483Z" transform="translate(48.277 7.64)"/><path class="a" d="M935.06,149.252a1.378,1.378,0,1,1,1.283,1.483,1.378,1.378,0,0,1-1.283-1.483Z" transform="translate(368.277 17.64)"/><path class="a" d="M921.821,104.179a2.892,2.892,0,1,1,.676,2.143A2.892,2.892,0,0,1,921.821,104.179Z" transform="translate(47.593 5.243)"/><path class="a" d="M921.821,104.179a2.892,2.892,0,1,1,.676,2.143A2.892,2.892,0,0,1,921.821,104.179Z" transform="translate(367.593 15.243)"/><path class="a" d="M916.31,118.524a1.42,1.42,0,1,1,1.315,1.525A1.42,1.42,0,0,1,916.31,118.524Z" transform="translate(47.309 6.052)"/><path class="a" d="M916.31,118.524a1.42,1.42,0,1,1,1.315,1.525A1.42,1.42,0,0,1,916.31,118.524Z" transform="translate(367.309 16.052)"/><path class="a" d="M911.74,124.477a.6.6,0,1,1,.145.437A.6.6,0,0,1,911.74,124.477Z" transform="translate(47.073 6.398)"/><path class="a" d="M911.74,124.477a.6.6,0,1,1,.145.437A.6.6,0,0,1,911.74,124.477Z" transform="translate(367.073 16.398)"/><path class="a" d="M899.078,133.968a3.228,3.228,0,1,1,2.346-.783A3.239,3.239,0,0,1,899.078,133.968Z" transform="translate(46.264 6.583)"/><path class="a" d="M899.078,133.968a3.228,3.228,0,1,1,2.346-.783A3.239,3.239,0,0,1,899.078,133.968Z" transform="translate(366.264 16.583)"/><path class="a" d="M891.023,124.54a1.756,1.756,0,1,1-1.28.424,1.767,1.767,0,0,1,1.28-.424Z" transform="translate(45.906 6.43)"/><path class="a" d="M891.023,124.54a1.756,1.756,0,1,1-1.28.424,1.767,1.767,0,0,1,1.28-.424Z" transform="translate(365.906 16.43)"/><path class="a" d="M875.81,112.215a2.534,2.534,0,1,1,.61,1.843,2.534,2.534,0,0,1-.61-1.843Z" transform="translate(45.218 5.672)"/><path class="a" d="M875.81,112.215a2.534,2.534,0,1,1,.61,1.843,2.534,2.534,0,0,1-.61-1.843Z" transform="translate(365.218 15.672)"/><path class="a" d="M871.277,120.668a1.294,1.294,0,1,1-.311-.943A1.293,1.293,0,0,1,871.277,120.668Z" transform="translate(44.851 6.158)"/><path class="a" d="M871.277,120.668a1.294,1.294,0,1,1-.311-.943A1.293,1.293,0,0,1,871.277,120.668Z" transform="translate(364.851 16.158)"/><path class="a" d="M866.773,131.252a3.807,3.807,0,1,1-.911-2.788,3.807,3.807,0,0,1,.911,2.788Z" transform="translate(44.359 6.564)"/><path class="a" d="M866.773,131.252a3.807,3.807,0,1,1-.911-2.788,3.807,3.807,0,0,1,.911,2.788Z" transform="translate(364.359 16.564)"/><path class="a" d="M857.41,155.419a3.534,3.534,0,1,1,.842,2.575A3.523,3.523,0,0,1,857.41,155.419Z" transform="translate(44.268 7.857)"/><path class="a" d="M857.41,155.419a3.534,3.534,0,1,1,.842,2.575A3.523,3.523,0,0,1,857.41,155.419Z" transform="translate(364.268 17.857)"/><path class="a" d="M846.154,121.06a1.945,1.945,0,1,1-1.427.46A1.946,1.946,0,0,1,846.154,121.06Z" transform="translate(43.578 6.25)"/><path class="a" d="M846.154,121.06a1.945,1.945,0,1,1-1.427.46A1.946,1.946,0,0,1,846.154,121.06Z" transform="translate(363.578 16.25)"/><path class="a" d="M840.092,139.189a3.586,3.586,0,1,1-3.323-3.849A3.586,3.586,0,0,1,840.092,139.189Z" transform="translate(43.004 6.987)"/><path class="a" d="M840.092,139.189a3.586,3.586,0,1,1-3.323-3.849A3.586,3.586,0,0,1,840.092,139.189Z" transform="translate(363.005 16.987)"/><path class="a" d="M827.986,142.811a1.462,1.462,0,0,1-1.336-1.556,1.441,1.441,0,1,1,1.336,1.556Z" transform="translate(42.68 7.225)"/><path class="a" d="M827.986,142.811a1.462,1.462,0,0,1-1.336-1.556,1.441,1.441,0,1,1,1.336,1.556Z" transform="translate(362.68 17.225)"/><path class="a" d="M816.244,131.272a2.492,2.492,0,1,1-.594-1.82A2.492,2.492,0,0,1,816.244,131.272Z" transform="translate(41.886 6.639)"/><path class="a" d="M803.73,151.043a.946.946,0,0,1,1.052-.873.925.925,0,0,1,.873,1.052.946.946,0,1,1-1.882-.137Z" transform="translate(41.497 7.753)"/><path class="a" d="M789.075,137a2.913,2.913,0,1,1-2.147.694,2.934,2.934,0,0,1,2.147-.694Z" transform="translate(40.577 7.073)"/><path class="a" d="M782.07,148.24a1.525,1.525,0,1,1,1.62-1.409A1.525,1.525,0,0,1,782.07,148.24Z" transform="translate(40.305 7.496)"/><path class="a" d="M767.318,138.27a.736.736,0,1,1-.778.684.726.726,0,0,1,.778-.684Z" transform="translate(39.577 7.139)"/><path class="a" d="M765.73,167.123a.736.736,0,1,1,.178.536.736.736,0,0,1-.178-.536Z" transform="translate(39.535 8.593)"/><path class="a" d="M761,185.828a3.481,3.481,0,1,1,3.218,3.744A3.481,3.481,0,0,1,761,185.828Z" transform="translate(39.29 9.429)"/><path class="a" d="M752.311,181.583a1.052,1.052,0,1,1,1.052-.957A1.052,1.052,0,0,1,752.311,181.583Z" transform="translate(38.788 9.267)"/><path class="a" d="M737.741,172.428a1.819,1.819,0,1,1,1.9-1.686A1.819,1.819,0,0,1,737.741,172.428Z" transform="translate(38.005 8.715)"/><path class="a" d="M733.55,191.808a3.723,3.723,0,1,1,.89,2.712A3.712,3.712,0,0,1,733.55,191.808Z" transform="translate(37.873 9.727)"/><path class="a" d="M717.25,181.09a1.967,1.967,0,1,1,1.83,2.1A1.988,1.988,0,0,1,717.25,181.09Z" transform="translate(37.032 9.255)"/><path class="a" d="M706.041,167.435a2.356,2.356,0,1,1-.561-1.72,2.356,2.356,0,0,1,.561,1.72Z" transform="translate(36.21 8.514)"/><path class="a" d="M694.9,163.247a2.789,2.789,0,1,1-2.576-2.987A2.789,2.789,0,0,1,694.9,163.247Z" transform="translate(35.591 8.274)"/><path class="a" d="M684.19,207.943a3.386,3.386,0,1,1,.822,2.471A3.376,3.376,0,0,1,684.19,207.943Z" transform="translate(35.325 10.575)"/><path class="a" d="M665.728,171.74a2.1,2.1,0,1,1-2.2,1.9,2.05,2.05,0,0,1,2.2-1.9Z" transform="translate(34.258 8.867)"/><path class="a" d="M654.536,183.165a1.683,1.683,0,1,1,1.228-.4A1.683,1.683,0,0,1,654.536,183.165Z" transform="translate(33.714 9.283)"/><path class="a" d="M645.935,183.959a1.935,1.935,0,1,1,1.427-.453A1.924,1.924,0,0,1,645.935,183.959Z" transform="translate(33.26 9.3)"/><path class="a" d="M635.708,206.8a2.8,2.8,0,1,1,2.976-2.587,2.8,2.8,0,0,1-2.976,2.587Z" transform="translate(32.687 10.389)"/><path class="a" d="M624.271,199.636a3.523,3.523,0,1,1,3.754-3.26,3.523,3.523,0,0,1-3.754,3.26Z" transform="translate(32.062 9.944)"/><path class="a" d="M615.765,173.811a2.913,2.913,0,1,1-2.144.69A2.924,2.924,0,0,1,615.765,173.811Z" transform="translate(31.629 8.973)"/><path class="a" d="M602.28,211.865a2.1,2.1,0,1,1,.5,1.535A2.1,2.1,0,0,1,602.28,211.865Z" transform="translate(31.096 10.839)"/><path class="a" d="M594.35,216.193a2.282,2.282,0,1,1,.544,1.661,2.282,2.282,0,0,1-.544-1.661Z" transform="translate(30.686 11.053)"/><path class="a" d="M591.223,212.25a3.4,3.4,0,1,1-3.155-3.649A3.4,3.4,0,0,1,591.223,212.25Z" transform="translate(30.175 10.77)"/><path class="a" d="M574.678,207.85a1.472,1.472,0,1,1-1.577,1.357A1.472,1.472,0,0,1,574.678,207.85Z" transform="translate(29.589 10.731)"/><path class="a" d="M564.28,191.922a1.819,1.819,0,1,1,1.683,1.967A1.84,1.84,0,0,1,564.28,191.922Z" transform="translate(29.134 9.823)"/><path class="a" d="M562.041,181.1a3.481,3.481,0,1,1-.831-2.541A3.481,3.481,0,0,1,562.041,181.1Z" transform="translate(28.66 9.157)"/><path class="a" d="M548.677,205.11a1.052,1.052,0,1,1-.82.264A1.052,1.052,0,0,1,548.677,205.11Z" transform="translate(28.268 10.59)"/><path class="a" d="M538.694,182.661a3.408,3.408,0,1,1-.813-2.493,3.407,3.407,0,0,1,.813,2.493Z" transform="translate(27.462 9.241)"/><path class="a" d="M526.89,225.723a.652.652,0,1,1,.6.63.652.652,0,0,1-.6-.63Z" transform="translate(27.204 11.619)"/><path class="a" d="M514.352,217.681a2.661,2.661,0,1,1,2.829-2.461A2.661,2.661,0,0,1,514.352,217.681Z" transform="translate(26.428 10.965)"/><path class="a" d="M509.922,183.451a2.661,2.661,0,1,1,2.829-2.461,2.661,2.661,0,0,1-2.829,2.461Z" transform="translate(26.199 9.197)"/><path class="a" d="M497.677,197.19a2.229,2.229,0,1,1-1.628.555,2.24,2.24,0,0,1,1.628-.555Z" transform="translate(25.572 10.181)"/><path class="a" d="M489.438,209.26a1.487,1.487,0,1,1-1.588,1.378A1.487,1.487,0,0,1,489.438,209.26Z" transform="translate(25.188 10.804)"/><path class="a" d="M476.362,186.407a1.809,1.809,0,1,1,1.317-.439,1.809,1.809,0,0,1-1.317.439Z" transform="translate(24.508 9.438)"/><path class="a" d="M460,215.2a1.346,1.346,0,1,1-.984.33A1.357,1.357,0,0,1,460,215.2Z" transform="translate(23.675 11.111)"/><path class="a" d="M458.44,194.842a1.735,1.735,0,1,1-1.609-1.872,1.735,1.735,0,0,1,1.609,1.872Z" transform="translate(23.491 9.963)"/><path class="a" d="M447,183.977A2.808,2.808,0,1,1,449.6,187,2.808,2.808,0,0,1,447,183.977Z" transform="translate(23.078 9.365)"/><path class="a" d="M434.488,212.963a1.052,1.052,0,1,1,.766-.255A1.052,1.052,0,0,1,434.488,212.963Z" transform="translate(22.382 10.887)"/><path class="a" d="M423.418,209.57A3.218,3.218,0,1,1,420,212.546,3.218,3.218,0,0,1,423.418,209.57Z" transform="translate(21.684 10.82)"/><path class="a" d="M413.932,205.53a2.7,2.7,0,1,1-1.968.656,2.713,2.713,0,0,1,1.968-.656Z" transform="translate(21.222 10.611)"/><path class="a" d="M406.744,169.13a3.292,3.292,0,1,1-2.408.8A3.313,3.313,0,0,1,406.744,169.13Z" transform="translate(20.817 8.732)"/><path class="a" d="M389.611,203.865a2.966,2.966,0,1,1-2.745-3.155A2.966,2.966,0,0,1,389.611,203.865Z" transform="translate(19.81 10.362)"/><path class="a" d="M384.335,179.77a3.712,3.712,0,1,1-3.954,3.439,3.712,3.712,0,0,1,3.954-3.439Z" transform="translate(19.639 9.281)"/><path class="a" d="M369.718,195.085a1.609,1.609,0,1,1-.384-1.18A1.609,1.609,0,0,1,369.718,195.085Z" transform="translate(18.923 9.983)"/><path class="a" d="M357.32,196.873a1.525,1.525,0,1,1-.642-1.422,1.525,1.525,0,0,1,.642,1.422Z" transform="translate(18.291 10.077)"/><path class="a" d="M355.762,160.179a3.386,3.386,0,1,1-.818-2.478A3.386,3.386,0,0,1,355.762,160.179Z" transform="translate(18.019 8.082)"/><path class="a" d="M338.52,185.262a1.735,1.735,0,1,1-1.609-1.861,1.735,1.735,0,0,1,1.609,1.861Z" transform="translate(17.299 9.469)"/><path class="a" d="M328.77,147.661a1.993,1.993,0,1,1,1.872,2.135,1.993,1.993,0,0,1-1.872-2.135Z" transform="translate(16.974 7.528)"/><path class="a" d="M307.689,189.588a3.155,3.155,0,1,1-.75-2.325,3.155,3.155,0,0,1,.75,2.325Z" transform="translate(15.561 9.612)"/><path class="a" d="M302.711,158.414a2.156,2.156,0,1,1-.518-1.572A2.156,2.156,0,0,1,302.711,158.414Z" transform="translate(15.407 8.059)"/><path class="a" d="M286.267,177.78a1.861,1.861,0,1,1-1.977,1.725,1.861,1.861,0,0,1,1.977-1.725Z" transform="translate(14.678 9.179)"/><path class="a" d="M288.848,140.92a1.5,1.5,0,1,1-.357-1.109,1.514,1.514,0,0,1,.357,1.109Z" transform="translate(14.757 7.191)"/><path class="a" d="M271.989,167.243a1.154,1.154,0,1,1,1.209-1.062,1.157,1.157,0,0,1-1.209,1.062Z" transform="translate(13.991 8.516)"/><path class="a" d="M263.7,178.658a1.052,1.052,0,1,1-.26-.827A1.052,1.052,0,0,1,263.7,178.658Z" transform="translate(13.507 9.163)"/><path class="a" d="M262.22,156.74a2.86,2.86,0,1,1,3.06-2.587A2.86,2.86,0,0,1,262.22,156.74Z" transform="translate(13.402 7.798)"/><path class="a" d="M253.843,163.821a1.052,1.052,0,1,1-1.02-1.046A1.052,1.052,0,0,1,253.843,163.821Z" transform="translate(12.997 8.404)"/><path class="a" d="M242.856,160.222a2.272,2.272,0,1,1,2.284-2.108,2.272,2.272,0,0,1-2.284,2.108Z" transform="translate(12.437 8.039)"/><path class="a" d="M230.49,167.254a3.67,3.67,0,1,1-.882-2.671,3.67,3.67,0,0,1,.882,2.671Z" transform="translate(11.522 8.432)"/><path class="a" d="M229.849,123.235a.862.862,0,1,1,.921-.8.862.862,0,0,1-.921.8Z" transform="translate(11.826 6.274)"/><path class="a" d="M210.151,160.236a2.766,2.766,0,1,1-2.566-2.966,2.766,2.766,0,0,1,2.566,2.966Z" transform="translate(10.565 8.12)"/><path class="a" d="M201.285,154.542a3.828,3.828,0,1,1-3.544-4.112,3.828,3.828,0,0,1,3.544,4.112Z" transform="translate(9.998 7.766)"/><path class="a" d="M198.266,135.182a.978.978,0,1,1-.234-.714A.978.978,0,0,1,198.266,135.182Z" transform="translate(10.136 6.925)"/><path class="a" d="M183.866,150.2a3.407,3.407,0,1,1,3.628-3.155A3.407,3.407,0,0,1,183.866,150.2Z" transform="translate(9.329 7.404)"/><path class="a" d="M174.147,144.492a3.439,3.439,0,1,1-3.155-3.7,3.439,3.439,0,0,1,3.155,3.7Z" transform="translate(8.637 7.269)"/><path class="a" d="M160.89,135.646a1.451,1.451,0,1,1,1.347,1.55A1.451,1.451,0,0,1,160.89,135.646Z" transform="translate(8.307 6.934)"/><path class="a" d="M149.552,138.935a2.366,2.366,0,1,1-2.2-2.545,2.366,2.366,0,0,1,2.2,2.545Z" transform="translate(7.477 7.042)"/><path class="a" d="M141.61,111.728A3.05,3.05,0,1,1,144.429,115a3.05,3.05,0,0,1-2.818-3.271Z" transform="translate(7.311 5.623)"/><path class="a" d="M137.58,119.5a3.05,3.05,0,1,1,3.25-2.829A3.05,3.05,0,0,1,137.58,119.5Z" transform="translate(6.957 5.855)"/><path class="a" d="M127.539,112.228a1.115,1.115,0,1,1-1.052-1.188A1.115,1.115,0,0,1,127.539,112.228Z" transform="translate(6.47 5.733)"/><path class="a" d="M113.857,109.763a1.052,1.052,0,1,1,.806-.272A1.052,1.052,0,0,1,113.857,109.763Z" transform="translate(5.829 5.559)"/><path class="a" d="M103.451,133.842a3.081,3.081,0,1,1-.74-2.242,3.071,3.071,0,0,1,.74,2.242Z" transform="translate(5.025 6.739)"/><path class="a" d="M96.1,122.841a3.06,3.06,0,1,1-2.829-3.281,3.06,3.06,0,0,1,2.829,3.281Z" transform="translate(4.646 6.173)"/><path class="a" d="M88.122,114.57a2.881,2.881,0,0,1-2.492,2.65v-5.7A2.871,2.871,0,0,1,88.122,114.57Z" transform="translate(4.421 5.758)"/><path class="a" d="M88.07,134c0,7.1-6.078,20.265-12.62,27.342,6.541-7.1,18.687-7.1,25.239,0C94.137,154.307,88.07,141.141,88.07,134Z" transform="translate(3.896 6.918)"/><path class="a" d="M88.379,142.4c0,9.212-9.118,26.291-18.929,35.566,9.8-9.223,28.026-9.223,37.859,0C97.486,168.743,88.379,151.612,88.379,142.4Z" transform="translate(3.586 7.352)"/><path class="a" d="M88.751,150.57c0,11.989-12.756,34.252-26.491,46.272,13.734-11.989,39.236-11.989,52.971,0C101.5,184.822,88.751,162.59,88.751,150.57Z" transform="translate(3.215 7.774)"/><path class="a" d="M89.27,159.84c0,15.585-17.878,44.537-37.08,60.122,19.224-15.585,54.927-15.585,74.161,0C107.117,204.377,89.27,175.425,89.27,159.84Z" transform="translate(2.695 8.253)"/><path class="a" d="M90,168.78c0,20.254-25,57.892-51.919,78.147,26.922-20.254,76.916-20.254,103.827,0C115,226.672,90,188.992,90,168.78Z" transform="translate(1.966 8.714)"/><path class="a" d="M90.184,206.56,37.95,244.124H142.429Z" transform="translate(1.959 10.665)"/><g transform="translate(1241.596 122.978)"><path class="a" d="M1018.864,230.026l-1.07-.82h1.56l-10.272-7.374c-21.952-20.32-40.329-50.146-40.329-67.211,0,17.414-19.152,48.148-41.7,68.46l-8.542,6.143H919.7l-1.061.82c.375-.285.776-.544,1.159-.82h97.9C1018.088,229.482,1018.481,229.74,1018.864,230.026Z" transform="translate(-918.51 -101.461)"/><path class="a" d="M969.065,133.7c0,19.794-22.674,56.565-47.105,76.36,24.431-19.794,69.789-19.794,94.219,0C991.748,190.265,969.065,153.494,969.065,133.7Z" transform="translate(-918.883 -99.194)"/><path class="a" d="M970.7,119.8c0,15.229-16.192,43.512-33.641,58.741,17.449-15.229,49.843-15.229,67.292,0C986.938,163.312,970.7,135.029,970.7,119.8Z" transform="translate(-920.52 -97.688)"/><path class="a" d="M971.87,107.56c0,11.716-11.591,33.472-24.03,45.188,12.483-11.716,35.6-11.716,48.068,0C983.443,141.032,971.87,119.276,971.87,107.56Z" transform="translate(-921.688 -96.361)"/><path class="a" d="M972.839,95c0,9.006-7.713,25.741-16.049,34.774,8.31-9.014,23.744-9.014,32.046,0C980.561,120.777,972.839,104.041,972.839,95Z" transform="translate(-922.658 -95)"/></g><path class="a" d="M1065.78,210.077a127.367,127.367,0,0,1-19.34-18,53.623,53.623,0,0,1,19.741,9.7c-10.414-8.435-20.427-20.641-27.641-32.687a38.341,38.341,0,0,1,16.629,8.123c-7.784-6.794-15.256-16.754-20.454-26.437a26.856,26.856,0,0,1,12.59,6.411c-6.179-5.8-12.082-14.614-15.782-22.8a17.306,17.306,0,0,1,9.22,5.127c-6.8-7.374-13.116-21.069-13.116-28.443,0,7.374-6.313,21.069-13.116,28.443a17.333,17.333,0,0,1,9.228-5.127c-3.7,8.185-9.612,16.995-15.773,22.8a26.751,26.751,0,0,1,12.572-6.411c-5.189,9.683-12.67,19.616-20.445,26.437a38.34,38.34,0,0,1,16.62-8.123c-7.213,12.046-17.227,24.252-27.641,32.687a54.186,54.186,0,0,1,21.016-10.031,128.182,128.182,0,0,1-22.4,20.383c.562-.41,1.141-.811,1.721-1.195l-1.641,1.195c26.339,16.807,54.916,16.807,81.255,0C1067.937,211.45,1066.849,210.773,1065.78,210.077Z" transform="translate(315.59 26.236)"/><path class="a" d="M95.583,236.508A156.473,156.473,0,0,1,71.91,214.476,65.474,65.474,0,0,1,96.1,226.349c-12.735-10.327-25-25.239-33.831-39.962a46.693,46.693,0,0,1,20.349,9.938c-9.528-8.318-18.677-20.517-25.029-32.359a32.674,32.674,0,0,1,15.375,7.8c-7.551-7.109-14.723-17.878-19.308-27.9a21.033,21.033,0,0,1,11.284,6.31C56.62,141.156,48.89,124.393,48.89,115.36c0,9.034-7.729,25.8-16.048,34.819a21.033,21.033,0,0,1,11.284-6.31c-4.533,10.022-11.757,20.791-19.308,27.9a32.716,32.716,0,0,1,15.4-7.845c-6.362,11.841-15.5,24.04-25.029,32.359a46.692,46.692,0,0,1,20.349-9.938c-8.834,14.723-21.1,29.677-33.841,39.962a66.252,66.252,0,0,1,25.733-12.272A156.759,156.759,0,0,1,0,239.011q1.052-.736,2.1-1.451L.095,239.074c32.243,20.57,67.231,20.57,99.474,0C98.233,238.19,96.9,237.36,95.583,236.508Z" transform="translate(0 5.956)"/><path class="a" d="M166.3,208.6a65.907,65.907,0,0,1-10.034-9.341,27.769,27.769,0,0,1,10.246,5.038,66.7,66.7,0,0,1-14.337-16.959,19.785,19.785,0,0,1,8.621,4.24,51.116,51.116,0,0,1-10.6-13.715,13.906,13.906,0,0,1,6.529,3.321,39.57,39.57,0,0,1-8.168-11.843,8.924,8.924,0,0,1,4.784,2.657c-3.533-3.823-6.8-10.931-6.8-14.754,0,3.823-3.279,10.931-6.8,14.754a8.924,8.924,0,0,1,4.784-2.657,39.662,39.662,0,0,1-8.183,11.822,13.85,13.85,0,0,1,6.522-3.321,51.116,51.116,0,0,1-10.6,13.715,19.785,19.785,0,0,1,8.621-4.24,66.7,66.7,0,0,1-14.337,16.959,28.045,28.045,0,0,1,10.9-5.2,66.775,66.775,0,0,1-11.624,10.564c.3-.2.594-.417.9-.615l-.855.622c13.666,8.72,28.49,8.72,42.156,0C167.428,209.31,166.863,208.957,166.3,208.6Z" transform="translate(6.497 38.61)"/><path class="a" d="M221.934,212.04a69.186,69.186,0,0,1-10.493-9.765,29.028,29.028,0,0,1,10.712,5.3,69.831,69.831,0,0,1-14.994-17.729,20.788,20.788,0,0,1,9.016,4.4,53.222,53.222,0,0,1-11.087-14.337,14.549,14.549,0,0,1,6.819,3.477,41.414,41.414,0,0,1-8.55-12.366,9.356,9.356,0,0,1,5,2.784c-3.689-4-7.108-11.426-7.108-15.425,0,4-3.427,11.426-7.116,15.425a9.4,9.4,0,0,1,5-2.784,41.308,41.308,0,0,1-8.557,12.366,14.542,14.542,0,0,1,6.826-3.477,53.242,53.242,0,0,1-11.094,14.337,20.831,20.831,0,0,1,9.016-4.4,69.949,69.949,0,0,1-14.987,17.729,29.289,29.289,0,0,1,11.4-5.441,69.65,69.65,0,0,1-12.154,11.044l.94-.643-.9.65c14.288,9.115,29.791,9.115,44.071,0C223.1,212.789,222.514,212.414,221.934,212.04Z" transform="translate(-9.273 38.275)"/><path class="a" d="M762.732,253.356a225.056,225.056,0,0,1-33.957-31.612c13,3.512,24.987,9.191,34.7,17.036-18.277-14.807-35.861-36.229-48.533-57.377,10.99,2.524,21.19,7.267,29.193,14.25-13.671-11.925-26.785-29.446-35.9-46.419a47.165,47.165,0,0,1,22.084,11.252c-10.832-10.18-21.2-25.649-27.689-40.025a30.34,30.34,0,0,1,16.132,8.991c-11.936-12.956-23.031-37-23.031-49.952,0,12.956-11.084,37-23.02,49.952A30.34,30.34,0,0,1,688.9,120.44c-6.489,14.376-16.826,29.845-27.689,40.025a47.165,47.165,0,0,1,22.084-11.252c-9.118,16.994-22.242,34.493-35.9,46.419,8-6.983,18.2-11.726,29.183-14.25-12.62,21.148-30.245,42.57-48.522,57.377,10.232-8.287,23.041-14.144,36.9-17.6A225.548,225.548,0,0,1,625.61,256.91c1-.7,2.019-1.409,3.039-2.1-1.052.736-2,1.441-2.9,2.1,46.272,29.5,96.435,29.5,142.675,0Q765.55,255.164,762.732,253.356Z" transform="translate(112.3 4.105)"/><path class="a" d="M557.848,254.746a215.967,215.967,0,0,1-32.769-30.5c12.546,3.4,24.114,8.865,33.452,16.447-17.636-14.292-34.6-34.967-46.829-55.379,10.6,2.44,20.444,7.014,28.163,13.755-13.177-11.5-25.839-28.394-34.641-44.789a45.4,45.4,0,0,1,21.317,10.863c-10.516-9.833-20.454-24.766-26.722-38.626a29.267,29.267,0,0,1,15.6,8.686c-11.5-12.451-22.2-35.692-22.2-48.207,0,12.5-10.7,35.7-22.21,48.2a29.267,29.267,0,0,1,15.617-8.686c-6.31,13.86-16.269,28.794-26.722,38.626A45.358,45.358,0,0,1,481.215,154.3c-8.8,16.395-21.464,33.284-34.7,44.789,7.719-6.741,17.562-11.316,28.163-13.755-12.22,20.412-29.193,41.087-46.829,55.379,9.885-8.013,22.231-13.671,35.608-16.994A217.571,217.571,0,0,1,425.5,258.237c.957-.684,1.935-1.357,2.924-2.009l-2.8,2.019c44.631,28.468,93.059,28.478,137.679,0Q560.634,256.512,557.848,254.746Z" transform="translate(101.969 4.492)"/><g transform="translate(80)"><path class="a" d="M708.208,273.678c-.778-.578-1.546-1.2-2.314-1.788h3.386l-22.337-16.058C639.242,211.663,599.3,146.841,599.3,109.75c0,37.859-41.624,104.606-90.619,148.785L490.11,271.89h2.608c-.778.589-1.535,1.209-2.314,1.788.81-.62,1.683-1.188,2.513-1.788H705.684C706.525,272.49,707.387,273.016,708.208,273.678Z" transform="translate(25.305 5.667)"/><path class="a" d="M598.857,71.24c0,43.033-49.3,122.936-102.387,165.958,53.086-43.022,151.677-43.022,204.763,0C648.147,194.176,598.857,114.273,598.857,71.24Z" transform="translate(25.633 3.678)"/><path class="a" d="M597.42,45.64c0,33.095-35.209,94.552-73.13,127.657,37.922-33.105,108.318-33.105,146.25,0C632.629,140.192,597.42,78.735,597.42,45.64Z" transform="translate(27.069 2.356)"/><path class="a" d="M596.394,23.07c0,25.47-25.155,72.752-52.234,98.212,27.079-25.46,77.379-25.46,104.458,0C621.539,95.822,596.394,48.54,596.394,23.07Z" transform="translate(28.095 1.191)"/><path class="a" d="M595.54,0c0,19.592-16.826,55.957-34.83,75.539,18.056-19.581,51.593-19.581,69.649,0C612.3,55.957,595.54,19.592,595.54,0Z" transform="translate(28.949)"/></g></svg>