<svg xmlns="http://www.w3.org/2000/svg" width="550.105" height="489.43" viewBox="0 0 550.105 489.43"><defs><style>.a{fill:#4361ee;}.b{fill:#edb2a2;}.c{fill:#fff;}.d,.g,.i{fill:none;}.d,.f,.g{stroke:#fff;}.d,.f,.g,.i{stroke-miterlimit:10;}.d{stroke-width:5px;}.e,.f{fill:#f4d34d;}.h{fill:#fc543d;}.i{stroke:#d9e0f9;stroke-width:8px;}.j{fill:#553ef9;}.k{fill:#d9e0f9;}</style></defs><g transform="translate(0 0)"><g transform="translate(0 0)"><path class="a" d="M635.694,292.226c-9.138-33.293-31.535-66.245-60.747-85.4-23.067-15.123-54.279-19.045-75.306-36.815-23.073-19.5-46.67-60.688-67.032-82.908-22.615-24.7-33.516-32.4-65.95-41.748-31.576-9.143-73.165-5.621-103.982,5.88-33.822,12.619-74.288,42.924-74.871,92.275-.335,28.483,2.464,43.877-2.9,54.684-20.427,41.2-62.764,42.907-83.655,94.028a159.315,159.315,0,0,0,2.67,125.48c11.413,24.743,26.237,41.278,48.8,56.9,38.22,26.46,65.345,27.2,99.961,29.4,42.436,2.7,80.556-15.876,119.365-32.928,27.719-12.166,53.2-24.385,82.908-30.576,29.606-6.174,41.16,17.052,95.333,7.973,1.6-.265,3.263-.347,4.933-.588,42.677-6.368,72.324-37.715,81.633-83.608C641.174,342.936,640.639,310.255,635.694,292.226Z" transform="translate(-89.674 -40.162)"/></g><g transform="translate(98.814 163.993)"><path class="b" d="M570.2,497.9H367.73V674.636a3.846,3.846,0,0,0,3.846,3.845H566.358a3.845,3.845,0,0,0,3.845-3.845V497.9Z" transform="translate(-335.137 -369.127)"/><rect class="b" width="239.994" height="78.175" rx="15.46" transform="translate(14.612 83.432)"/><ellipse class="c" cx="39.39" cy="28.06" rx="39.39" ry="28.06" transform="translate(188.684 58.259)"/><ellipse class="c" cx="39.39" cy="28.06" rx="39.39" ry="28.06" transform="translate(150.564 58.259)"/><ellipse class="c" cx="39.39" cy="28.06" rx="39.39" ry="28.06" transform="translate(100.378 57.53)"/><ellipse class="c" cx="39.39" cy="28.06" rx="39.39" ry="28.06" transform="translate(50.186 56.801)"/><ellipse class="c" cx="39.39" cy="28.06" rx="39.39" ry="28.06" transform="translate(0 56.072)"/><line class="d" x2="57.16" transform="translate(115.137 266.918)"/><line class="d" y2="24.173" transform="translate(143.714 266.266)"/><line class="d" x1="50.251" transform="translate(132.095 208.124)"/><line class="d" y1="19.775" transform="translate(157.532 189.002)"/><line class="d" x1="51.509" transform="translate(96.921 243.398)"/><line class="d" y2="22.985" transform="translate(123.463 243.28)"/><line class="d" x1="47.111" transform="translate(58.606 208.471)"/><path class="d" d="M717.44,695.587v-22" transform="translate(-635.278 -465.125)"/><path class="b" d="M639.835,351.544c.958-.529,1.934-1.029,2.9-1.535a57.03,57.03,0,0,0,8.491-5.039c4.586-3.475,7.427-7.879,8-12.413.776-6.115-2.94-11.925-8.485-13.224a12.412,12.412,0,0,0-9.067,1.576,20.768,20.768,0,0,0-5.968,5.521,37.408,37.408,0,0,0-7.591,19.433l6.527.553a30.777,30.777,0,0,1,6.256-15.988,14.489,14.489,0,0,1,4.075-3.857,5.992,5.992,0,0,1,4.269-.858c2.434.588,3.787,3.634,3.487,6.021-.476,3.734-3.622,6.621-5.457,8.014a52,52,0,0,1-7.544,4.445c-1.017.523-2.029,1.047-3.034,1.593Z" transform="translate(-524.645 -319.063)"/><path class="b" d="M690,351.541l3.14-5.757c-1-.547-2.017-1.07-3.028-1.593a52.077,52.077,0,0,1-7.55-4.445c-1.835-1.394-4.98-4.281-5.457-8.014-.3-2.387,1.058-5.451,3.487-6.021a5.986,5.986,0,0,1,4.269.858,14.582,14.582,0,0,1,4.081,3.857,30.753,30.753,0,0,1,6.251,15.988l6.527-.553a37.345,37.345,0,0,0-7.591-19.434,20.774,20.774,0,0,0-5.968-5.521,12.4,12.4,0,0,0-9.085-1.576c-5.533,1.3-9.261,7.109-8.485,13.224.588,4.534,3.416,8.938,8,12.413a57,57,0,0,0,8.485,5.039C688.073,350.512,689.044,351.012,690,351.541Z" transform="translate(-591.952 -319.06)"/><ellipse class="b" cx="6.762" cy="6.762" rx="6.762" ry="6.762" transform="translate(78.304 42.301)"/><ellipse class="b" cx="8.52" cy="4.257" rx="8.52" ry="4.257" transform="translate(97.926 20.815)"/><rect class="e" width="78.622" height="43.242" rx="6.92" transform="translate(66.48 25.402)"/><ellipse class="b" cx="6.762" cy="6.762" rx="6.762" ry="6.762" transform="translate(121.229 47.593)"/><ellipse class="b" cx="6.762" cy="6.762" rx="6.762" ry="6.762" transform="translate(97.709 31.717)"/><ellipse class="b" cx="6.762" cy="6.762" rx="6.762" ry="6.762" transform="translate(77.716 46.417)"/></g><g transform="translate(30.194 30.775)"><ellipse class="b" cx="3.234" cy="3.234" rx="3.234" ry="3.234" transform="translate(423.874 240.788)"/><ellipse class="e" cx="3.234" cy="3.234" rx="3.234" ry="3.234" transform="translate(48.728 348.98)"/><ellipse class="e" cx="4.069" cy="4.069" rx="4.069" ry="4.069" transform="translate(94.004 72.771)"/><path class="e" d="M745.29,220.189h0a1.5,1.5,0,0,0,0-.159v.312c.194,1.588,2.211,15.218,14.559,20.245,0,0-12.148,5.345-14.112,22.344v-.153c-2.317-16.958-14.577-22.032-14.577-22.032C743.408,235.453,745.131,221.776,745.29,220.189Z" transform="translate(-617.134 -145.042)"/><path class="e" d="M946.35,562.123h0a.947.947,0,0,0,0-.123v.247c.153,1.258,1.764,12.1,11.572,16.094,0,0-9.655,4.251-11.172,17.764v-.123c-1.84-13.477-11.59-17.511-11.59-17.511C944.856,574.26,946.226,563.394,946.35,562.123Z" transform="translate(-935.16 -285.932)"/><path class="e" d="M164.379,494.124h0a.9.9,0,0,0,0-.123v.247c.153,1.258,1.764,12.1,11.572,16.094,0,0-9.655,4.251-11.2,17.764v-.123c-1.84-13.477-11.59-17.511-11.59-17.511C162.886,506.26,164.256,495.394,164.379,494.124Z" transform="translate(306.629 -257.917)"/><line class="f" y2="13.524" transform="translate(461.506 202.567)"/><line class="f" x1="12.125" transform="translate(455.444 209.1)"/><line class="f" y2="9.996" transform="translate(154.974 51.45)"/><line class="f" x1="8.961" transform="translate(150.494 56.278)"/><line class="f" y2="13.524" transform="translate(42.848 252.548)"/><line class="f" x1="12.125" transform="translate(36.785 259.08)"/><ellipse class="c" cx="3.822" cy="3.822" rx="3.822" ry="3.822" transform="translate(221.601 19.11)"/><ellipse class="g" cx="7.056" cy="7.056" rx="7.056" ry="7.056" transform="translate(194.847)"/><rect class="h" width="16.464" height="8.82" rx="4.41" transform="translate(212.84 239.518) rotate(-167.73)"/><path class="i" d="M816.812,436.728c-11.172-1.764-25.484,2.246-28.812,17.052" transform="translate(-707.52 -234.161)"/></g><g transform="translate(229.646 97.437)"><path class="b" d="M431.63,267.7l9.537,8.826,10.243-10.7L440.9,256.39Z" transform="translate(-384.75 -203.07)"/><path class="b" d="M535.73,255.575a22.374,22.374,0,0,0,.906,33.375,3.694,3.694,0,0,1,1.105,1.658l2.428,7.421a.553.553,0,0,0,.953.182l3.375-4.569a23.426,23.426,0,0,0,21.821-5.38,22.377,22.377,0,1,0-30.579-32.678Z" transform="translate(-511.1 -223.864)"/><path class="c" d="M566.073,301.413c-.212-2.428-.253-11.76,11.172-13.377a.482.482,0,0,1,.553.447c.141,2.1-.082,10.137-11.084,13.354a.482.482,0,0,1-.641-.423Z" transform="translate(-537.456 -239.72)"/><ellipse class="j" cx="3.893" cy="3.893" rx="3.893" ry="3.893" transform="translate(30.363 51.097)"/><path class="k" d="M536.773,278.414c-.8,3.087-5.768,5.545-8.873,4.81a7.611,7.611,0,0,1-5.533-6.991,9.408,9.408,0,0,1,4.351-8.044c-.723-3.557-.629-7.427,1.117-10.584s5.421-5.451,9-4.8a12.262,12.262,0,0,1,6.333-8.526c3.316-1.552,7.744-.882,10,2.029a10.149,10.149,0,0,1,11.219-1.3,10.5,10.5,0,0,1,4.98,10.378c4.216,1.811,8.82,5.145,9.349,9.7s-3.863,9.62-8.456,9.508c-4.163-.106-7.3-3.987-8.62-7.938.635,1.905-6.15,5.151-7.779,5.333-5.715.635-7.35-2.9-7.35-2.9S545.028,278.32,536.773,278.414Z" transform="translate(-512.719 -221.36)"/><path class="e" d="M245.639,291.849c24.285-.241,49.1.811,71.8,9.408s43.248,26.031,50.092,49.328a43.259,43.259,0,0,1,1.911,15.217c-1.023,14.512-11.966,27.272-25.525,32.552s-29.147,3.746-42.513-2.005-24.731-15.406-34.528-26.16a175.289,175.289,0,0,1-37.232-64.316Z" transform="translate(-131.35 -241.281)"/><path class="e" d="M464.593,284.146,453.421,266.4a2.558,2.558,0,0,0-4.263-.106L422.2,304.709a4.222,4.222,0,0,0,2.6,6.556L442.984,315Z" transform="translate(-339.214 -230.315)"/><path class="h" d="M347.165,293.82s77.8,5.186,105.082,93.675L359.6,428.655s-22.756-70.449-52.185-99.114Z" transform="translate(-259.818 -242.105)"/><path class="h" d="M408.638,726.46l19.663,32.7a8.873,8.873,0,0,1-2.452,11.8l-43.083,30.752a12.619,12.619,0,0,1-17.74-2.428h0a12.613,12.613,0,0,1,2.47-17.64l13.077-9.884a12.442,12.442,0,0,0,3.258-16.17l-6-10.349Z" transform="translate(-269.529 -420.351)"/><path class="h" d="M358.354,632.9c-17.052-30.459-24.743-60.459-19.757-95s30.412-66.827,59.118-86.7l33.845,42.019s-68.426,35.086-26.29,118.453Z" transform="translate(-256.59 -306.945)"/><rect class="c" width="25.919" height="68.549" rx="12.96" transform="matrix(-0.435, -0.9, 0.9, -0.435, 98.842, 335.578)"/><path class="h" d="M239.43,454.493c-11.266,52.115,11.1,91.729,30.811,109.645s60.976,26.972,60.417,26.337l14.071-52.685s-64.475-2.276-63.575-84.02Z" transform="translate(-110.547 -308.004)"/><path class="h" d="M171.553,611l38.455,6.6a9.067,9.067,0,0,1,7.5,9.767l-4.951,53.908a12.9,12.9,0,0,1-13.724,12.119h0a12.9,12.9,0,0,1-12.036-13.7l1.076-16.723a12.724,12.724,0,0,0-10.349-13.318l-12.007-2.258Z" transform="translate(58.32 -372.782)"/><rect class="c" width="26.501" height="70.084" rx="13.251" transform="matrix(-0.966, -0.258, 0.258, -0.966, 225.795, 289.069)"/><rect class="c" width="116.154" height="34.275" rx="17.137" transform="matrix(-0.897, 0.441, -0.441, -0.897, 204.927, 149.521)"/><ellipse class="h" cx="17.793" cy="17.793" rx="17.793" ry="17.793" transform="translate(0.875 163.247)"/><path class="h" d="M521.576,324.68A18.087,18.087,0,0,1,539.4,340.868a89.377,89.377,0,0,1-57.1,92.9l-25.731-25.037s41.007-32.064,46.9-68.661a18.169,18.169,0,0,1,18.11-15.365Z" transform="translate(-435.171 -254.819)"/><rect class="k" width="28.818" height="49.163" rx="14.409" transform="translate(62.382 175.982) rotate(137.74)"/><rect class="c" width="71.049" height="17.14" rx="8.57" transform="translate(93.649 47.282) rotate(126.1)"/><path class="h" d="M467.87,248.23a46.164,46.164,0,0,1,31.164-39.573c9.608-3.3,20.268-3.41,30.106-1.682s18.975,8.032,27.86,11.76c-33.693-.312-37.8,4.969-45.118,19.051Z" transform="translate(-458.922 -205.87)"/><ellipse class="c" cx="9.584" cy="13.071" rx="9.584" ry="13.071" transform="translate(38.111 40.878) rotate(-92.2)"/><ellipse class="c" cx="9.585" cy="13.071" rx="9.585" ry="13.071" transform="translate(24.043 43.785) rotate(-103.39)"/><ellipse class="c" cx="9.584" cy="13.071" rx="9.584" ry="13.071" transform="matrix(-0.623, -0.782, 0.782, -0.623, 11.946, 53.6)"/><ellipse class="c" cx="9.878" cy="9.878" rx="9.878" ry="9.878" transform="translate(85.289 3.628)"/><path class="k" d="M542.256,283a75.308,75.308,0,0,1,10,15.876c3.528,7.644.588,14.7-.588,17.64-.876,2.181-5.292,12.936-7.056,19.4-2.411,8.867-4.228,13.977-11.172,19.992-3.11,2.693-10.208,4.828-14.112,3.528-7.056-2.352-9.338-6.115-10.049-10.772a13.71,13.71,0,0,1,5.2-12.448,10.4,10.4,0,0,1-4.892-10.584c.676-4.369,3.975-7.156,7.421-9.514-4.116-3.14-4.116-8.432-3.528-9.02l6.339-6.868a.641.641,0,0,1,1.076.223l.059,1.176a7,7,0,0,0,1.905,4.886s.588-.418.588-.588c.335-1.811,1.811-6.039,7.056-11.76C537.787,286.216,542.256,283,542.256,283Z" transform="translate(-480.123 -237.647)"/><path class="h" d="M564.171,314.374a12.2,12.2,0,0,1-4.6,5.827,2.352,2.352,0,0,1-3.193-.676h0a2.352,2.352,0,0,1,.764-3.352c1.693-.994,3.969-2.352,5.292-3.21a1.176,1.176,0,0,1,1.423.094h0A1.176,1.176,0,0,1,564.171,314.374Z" transform="translate(-517.978 -249.911)"/><rect class="e" width="80.515" height="13.506" rx="6.753" transform="matrix(-0.85, 0.526, -0.526, -0.85, 169.344, 349.613)"/><rect class="e" width="80.515" height="13.506" rx="6.753" transform="translate(281.288 243.837) rotate(95.22)"/></g></g></svg>