<svg xmlns="http://www.w3.org/2000/svg" width="151.424" height="152.001" viewBox="0 0 151.424 152.001"><defs><style>.a{fill:#ff8533;}.b{fill:#ff6700;}.c{fill:#e8efff;}.d{fill:#ccdfff;}.e{fill:#ffbe33;}.f{fill:#fc1a40;}.g{fill:#c60034;}.h{fill:#fe9923;}.i{fill:#fe8821;}.j{fill:#ff3e75;}.k{fill:#fcbf29;}</style></defs><g transform="translate(-868.016 -316.591)"><g transform="translate(868.016 316.591)"><path class="a" d="M150.132,185.116,132.319,167.3a4.458,4.458,0,0,0-3.15-1.3H22.294a4.458,4.458,0,0,0-3.15,1.3L1.331,185.116a4.444,4.444,0,0,0-1.277,3.631c.131.072,75.623,42.447,75.755,42.522.13-.074,75.468-42.45,75.6-42.522a4.444,4.444,0,0,0-1.277-3.631Zm0,0" transform="translate(-0.02 -116.718)"/><path class="b" d="M329.428,185.116c-1.956-1.956-16.1-16.1-17.813-17.813a4.458,4.458,0,0,0-3.15-1.3H255.028v65.224a.559.559,0,0,0,.078.045c.088-.051,35.491-19.963,57.813-32.517,10.252-5.768,17.744-9.981,17.786-10a4.447,4.447,0,0,0-1.277-3.631Zm0,0" transform="translate(-179.316 -116.718)"/><path class="c" d="M159.481,0H76.355A16.346,16.346,0,0,0,60.027,16.328v65.9l57.241,32.131a1.491,1.491,0,0,0,1.455,0l57.086-32.11V16.327A16.346,16.346,0,0,0,159.481,0Zm0,0" transform="translate(-42.206 0.001)"/><path class="d" d="M296.59,0H255.027V114.547c.584.066-3.023,1.967,57.891-32.3V16.328A16.346,16.346,0,0,0,296.59,0Zm0,0" transform="translate(-179.315 0)"/><path class="e" d="M151.309,237.77,75.789,280.248.115,237.77c-.159.7-.107-3.564-.107,65.084a16.346,16.346,0,0,0,16.328,16.328H135.087a16.346,16.346,0,0,0,16.328-16.328c0-68.649.052-64.389-.107-65.084Zm0,0" transform="translate(0 -167.181)"/><path class="e" d="M330.645,237.844a.677.677,0,0,1-.021-.074l-17.706,9.96-57.813,32.517-.078-.045v38.98H314.4a16.346,16.346,0,0,0,16.328-16.328c0-65.121.049-64.665-.086-65.01Zm0,0" transform="translate(-179.316 -167.181)"/></g><g transform="translate(906.569 324.477)"><path class="f" d="M37.028,243.991l7.818-2.847a2.257,2.257,0,0,1,.82-.145H95.759a2.389,2.389,0,0,1,2.413,2.413v33.942a7.229,7.229,0,0,1-7.239,7.239H42.674a7.229,7.229,0,0,1-7.239-7.239v-31.1A2.394,2.394,0,0,1,37.028,243.991Z" transform="translate(-26.735 -202.231)"/><path class="g" d="M230.435,246.259v31.1a7.229,7.229,0,0,0,7.239,7.239H261.8V241H240.666a2.256,2.256,0,0,0-.82.145l-7.818,2.847A2.394,2.394,0,0,0,230.435,246.259Z" transform="translate(-221.735 -202.231)"/><path class="h" d="M158.165,15.731a9.769,9.769,0,0,1,6.612-7,9.615,9.615,0,0,1,9.362,2.027l5.6,4.923,1.11-7.384A9.776,9.776,0,0,1,186.782.722a9.163,9.163,0,0,1,1.882-.531,9.6,9.6,0,0,1,7.625,1.689,9.743,9.743,0,0,1-2.413,17.084l-5.212,1.882-6.418,2.365H182.2l-11.148,4.1a10.354,10.354,0,0,1-3.378.579,9.834,9.834,0,0,1-9.507-12.162Z" transform="translate(-148.596 0)"/><path class="i" d="M233.711,26.379a9.759,9.759,0,0,0,6.515,2.51,10.356,10.356,0,0,0,3.378-.579l11.148-4.1h.048l6.418-2.365V1.187a9.173,9.173,0,0,0-1.882.531A9.776,9.776,0,0,0,253.4,9.295l-1.11,7.384-5.6-4.923a9.615,9.615,0,0,0-9.362-2.027,9.779,9.779,0,0,0-3.62,16.65Z" transform="translate(-221.151 -0.996)"/><path class="j" d="M32.93,79.965l3.282,9.073a2.444,2.444,0,0,0,2.268,1.544,2.256,2.256,0,0,0,.82-.145l24.95-9.073,2.268-7.48,6.032,1.351,5.308,1.206,24.95-9.073a2.456,2.456,0,0,0,1.448-3.089l-3.33-9.072a7.194,7.194,0,0,0-9.266-4.344L72.551,57.814l-1.3.482s-5.212,9.459-5.357,9.459c-.1,0-2.172-1.158-4.2-2.268s-4.053-2.268-4.053-2.268L37.273,70.651a7.315,7.315,0,0,0-4.1,3.764A7.143,7.143,0,0,0,32.93,79.965Z" transform="translate(-32.482 -42.307)"/><path class="f" d="M230.882,118.55l3.282,9.073a2.444,2.444,0,0,0,2.268,1.544,2.256,2.256,0,0,0,.82-.145l24.95-9.073,2.268-7.48,6.032,1.351V96.4l-1.3.482s-5.212,9.459-5.357,9.459c-.1,0-2.172-1.158-4.2-2.268s-4.054-2.268-4.054-2.268l-20.365,7.432a7.315,7.315,0,0,0-4.1,3.764A7.143,7.143,0,0,0,230.882,118.55Z" transform="translate(-230.435 -80.892)"/><g transform="translate(25.156 15.99)"><path class="k" d="M199.913,241v43.594H185.435V241Z" transform="translate(-177.762 -218.22)"/><path class="k" d="M211.044,99.4l1.3,3.571,5.308,14.575-5.308,1.931-6.032,2.172-2.268.82-6.612-18.146Z" transform="translate(-197.435 -99.398)"/></g><g transform="translate(25.156 15.99)"><rect class="e" width="7.239" height="43.594" transform="translate(7.673 22.779)"/><path class="e" d="M230.435,104.321l6.612,18.146,2.268-.82,6.032-2.172v-16.5l-1.3-3.571Z" transform="translate(-230.435 -99.398)"/></g></g></g></svg>