<svg xmlns="http://www.w3.org/2000/svg" width="1363.918" height="916.99" viewBox="0 0 1363.918 916.99"><defs><style>.a{opacity:0.13;}.b{opacity:0.5;}.c{fill:#f00025;}</style></defs><g class="a" transform="translate(1363.918 916.99) rotate(180)"><g class="b" transform="translate(10.744 468.608)"><path class="c" d="M268.688,588.82H263.4C265.455,588.856,267.2,588.82,268.688,588.82Z" transform="translate(42.412 -349.781)"/><path class="c" d="M281.84,588.653h5.288C285.073,588.617,283.33,588.653,281.84,588.653Z" transform="translate(46.133 -349.818)"/><path class="c" d="M274.9,595.76c0,1.478,0,3.221.06,5.276C274.936,598.981,274.9,597.25,274.9,595.76Z" transform="translate(44.732 -348.38)"/><path class="c" d="M276.333,598.6c-.072-3.521-.3-5.576-1.3-6.766a13.64,13.64,0,0,0-2.632,2.247,14.035,14.035,0,0,0,2.187-2.692c-1.2-.961-3.281-1.2-6.79-1.13,3.509-.084,5.576-.312,6.754-1.3a13.485,13.485,0,0,0-2.235-2.644A13.218,13.218,0,0,0,275,588.5c.961-1.2,1.142-3.269,1.142-6.79.072,3.521.3,5.576,1.3,6.766a14.008,14.008,0,0,0,2.632-2.247,13.339,13.339,0,0,0-2.187,2.692c1.2.961,3.281,1.142,6.79,1.13-3.509.072-5.576.313-6.766,1.3a14.083,14.083,0,0,0,2.247,2.632,14.14,14.14,0,0,0-2.68-2.187C276.513,593.007,276.333,595.074,276.333,598.6Z" transform="translate(43.3 -351.215)"/><path class="c" d="M274.75,582.6c0-1.49,0-3.221-.06-5.276C274.714,579.339,274.738,581.106,274.75,582.6Z" transform="translate(44.69 -352.101)"/><path class="c" d="M271.974,585.944c-.709-.661-1.5-1.466-2.464-2.4Z" transform="translate(43.645 -350.846)"/><path class="c" d="M272.034,592l-2.4,2.4C270.567,593.5,271.349,592.685,272.034,592Z" transform="translate(43.669 -349.139)"/><path class="c" d="M278.08,591.92c.709.673,1.5,1.466,2.464,2.4C279.582,593.386,278.765,592.605,278.08,591.92Z" transform="translate(45.374 -349.155)"/><path class="c" d="M278,585.874l2.4-2.4C279.478,584.371,278.7,585.189,278,585.874Z" transform="translate(45.358 -350.86)"/><path class="c" d="M46.448,609.031c-19.818-.649-18.8.445-18.135-19.361-.661,19.806.445,18.784-19.373,18.135,19.818.649,18.784-.445,18.135,19.361C27.724,607.361,26.631,608.382,46.448,609.031Z" transform="translate(-8.94 -349.609)"/><path class="c" d="M245.414,516.071c-9.927-.325-9.41.216-9.086-9.711-.324,9.927.228,9.422-9.7,9.086,9.927.337,9.41-.216,9.086,9.711C236.04,515.229,235.487,515.746,245.414,516.071Z" transform="translate(34.991 -366.422)"/><path class="c" d="M70.264,427.2c-21.633-.709-20.539.493-19.83-21.164-.709,21.633.493,20.527-21.164,19.818,21.633.709,20.539-.481,19.83,21.176C49.809,425.377,48.607,426.495,70.264,427.2Z" transform="translate(-4.837 -386.667)"/><path class="c" d="M564.816,618.3c-16.2-.529-15.359.361-14.83-15.828-.529,16.188.373,15.359-15.816,14.83,16.188.529,15.347-.373,14.818,15.816C549.517,616.928,548.616,617.769,564.816,618.3Z" transform="translate(97.055 -347.026)"/><path class="c" d="M153.142,595.313c-16.825-.541-15.912.385-15.359-16.393-.553,16.825.385,15.912-16.393,15.359,16.825.553,15.9-.385,15.359,16.393C137.29,593.895,136.365,594.772,153.142,595.313Z" transform="translate(13.753 -351.779)"/><circle class="c" cx="11.489" cy="11.489" r="11.489" transform="translate(1316.158 240.181)"/><path class="c" d="M618.866,472.786c-4.363-.144-4.134.1-3.99-4.266-.144,4.363.1,4.134-4.266,3.99,4.363.144,4.134-.1,3.99,4.266C614.744,472.414,614.5,472.7,618.866,472.786Z" transform="translate(112.481 -374.058)"/><path class="c" d="M73.462,541.307c-28.134-.925-26.68.637-25.755-27.5-.925,28.134.637,26.68-27.5,25.755,28.134.925,26.68-.637,25.755,27.485C46.89,538.928,45.328,540.382,73.462,541.307Z" transform="translate(-6.666 -364.918)"/><path class="c" d="M1021.022,532.267c-28.134-.925-26.68.637-25.755-27.5-.925,28.134.637,26.668-27.5,25.755,28.134.913,26.68-.637,25.755,27.485C994.486,529.888,992.888,531.342,1021.022,532.267Z" transform="translate(184.558 -366.743)"/><path class="c" d="M724.45,714.907c-28.122-.925-26.668.637-25.743-27.5-.925,28.134.637,26.668-27.5,25.755,28.134.913,26.668-.637,25.755,27.485C697.878,712.528,696.328,713.982,724.45,714.907Z" transform="translate(124.71 -329.885)"/><circle class="c" cx="26.632" cy="26.632" r="26.632" transform="translate(718.296 298.3)"/><path class="c" d="M819.923,626.652c-16.525-.541-15.623.373-15.131-16.152-.541,16.525.373,15.624-16.152,15.131,16.525.541,15.624-.373,15.131,16.152C804.312,625.258,803.4,626.112,819.923,626.652Z" transform="translate(148.409 -345.405)"/><path class="c" d="M893.663,536.271c-11.525-.385-10.924.252-10.552-11.261-.373,11.513.264,10.924-11.261,10.54,11.525.385,10.924-.252,10.552,11.261C882.847,535.3,882.174,535.886,893.663,536.271Z" transform="translate(165.201 -362.658)"/><path class="c" d="M1116.928,517.125c-15.5-.5-14.7.348-14.193-15.155-.5,15.5.349,14.7-15.155,14.193,15.5.5,14.7-.348,14.193,15.155C1102.278,515.815,1101.425,516.62,1116.928,517.125Z" transform="translate(208.737 -367.308)"/><path class="c" d="M1029.743,637.651c-24.144-.793-22.894.553-22.1-23.591-.793,24.144.553,22.894-23.591,22.1,24.144.793,22.894-.553,22.1,23.591C1006.944,635.62,1005.623,636.822,1029.743,637.651Z" transform="translate(187.844 -344.687)"/><path class="c" d="M862.023,748.582c-24.132-.793-22.834.541-22.089-23.592-.793,24.132.541,22.834-23.6,22.1,24.144.781,22.834-.553,22.1,23.591C839.224,746.538,837.891,747.836,862.023,748.582Z" transform="translate(153.997 -322.301)"/><path class="c" d="M133.517,637.565c-23.676-.781-22.45.529-21.633-23.135-.781,23.664.541,22.438-23.135,21.633,23.676.769,22.438-.541,21.633,23.135C111.152,635.546,109.842,636.748,133.517,637.565Z" transform="translate(7.166 -344.612)"/><path class="c" d="M736.83,483.48c-2.92-.1-2.776.072-2.68-2.86-.1,2.932.072,2.776-2.86,2.68,2.932.1,2.776-.06,2.68,2.86C734.066,483.276,733.91,483.48,736.83,483.48Z" transform="translate(136.835 -371.616)"/><path class="c" d="M430.438,522.811c-10.492-.337-9.951.24-9.614-10.251-.349,10.492.228,9.951-10.263,9.614,10.492.349,9.951-.24,9.614,10.263C420.523,521.922,419.946,522.475,430.438,522.811Z" transform="translate(72.11 -365.17)"/><path class="c" d="M476.217,434.391c-7.331-.24-6.946.168-6.706-7.211-.24,7.331.156,6.946-7.211,6.706,7.319.24,6.946-.156,6.706,7.211C469.295,433.778,468.886,434.174,476.217,434.391Z" transform="translate(82.551 -382.401)"/><path class="c" d="M484.36,623.278c-21.873-.709-20.743.493-20.022-21.368-.721,21.861.493,20.731-21.368,20.022,21.861.709,20.731-.493,20.01,21.368C463.7,621.439,462.487,622.569,484.36,623.278Z" transform="translate(78.65 -347.139)"/><path class="c" d="M728.751,623.91c-13.652-.445-12.943.313-12.5-13.34-.445,13.653.312,12.943-13.352,12.5,13.664.445,12.956-.312,12.511,13.34C715.856,622.756,715.1,623.465,728.751,623.91Z" transform="translate(131.106 -345.391)"/><circle class="c" cx="15.083" cy="15.083" r="15.083" transform="translate(1038.541 254.242)"/><path class="c" d="M1125.3,408.969c-19.493-.637-18.484.445-17.835-19.049-.649,19.493.433,18.484-19.061,17.847,19.493.637,18.484-.445,17.847,19.049C1106.884,407.322,1105.8,408.332,1125.3,408.969Z" transform="translate(208.902 -389.92)"/><circle class="c" cx="27.185" cy="27.185" r="27.185" transform="translate(417.556 338.717)"/><path class="c" d="M164.718,724.141c-21.128-.7-20.034.469-19.349-20.671-.685,21.14.481,20.046-20.659,19.361,21.14.685,20.046-.481,19.349,20.659C144.78,722.35,143.614,723.444,164.718,724.141Z" transform="translate(14.423 -326.644)"/></g><g class="b" transform="translate(0.024 69.837)"><path class="c" d="M855.43,232.293h5.288C858.663,232.257,856.92,232.293,855.43,232.293Z" transform="translate(172.607 -22.962)"/><path class="c" d="M842.278,232.46H836.99C839.057,232.5,840.788,232.46,842.278,232.46Z" transform="translate(168.886 -22.925)"/><path class="c" d="M848.34,226.248c0-1.49,0-3.233-.06-5.288C848.3,223.015,848.34,224.758,848.34,226.248Z" transform="translate(171.164 -25.246)"/><path class="c" d="M849.739,225.36c.072,3.509.3,5.564,1.3,6.754a13.645,13.645,0,0,0,2.632-2.247,14.53,14.53,0,0,0-2.187,2.692c1.2.961,3.281,1.2,6.79,1.13-3.509.084-5.564.312-6.754,1.3a13.638,13.638,0,0,0,2.247,2.644,13.58,13.58,0,0,0-2.692-2.187c-.961,1.2-1.2,3.269-1.2,6.79-.072-3.521-.3-5.576-1.286-6.766a13.643,13.643,0,0,0-2.644,2.247,12.933,12.933,0,0,0,2.2-2.692c-1.2-.961-3.269-1.2-6.79-1.13,3.521-.072,5.576-.312,6.766-1.3a13.638,13.638,0,0,0-2.247-2.632,14.155,14.155,0,0,0,2.68,2.187C849.57,230.936,849.751,228.869,849.739,225.36Z" transform="translate(169.766 -24.358)"/><path class="c" d="M848.49,239.4c0,1.49,0,3.221.072,5.276C848.538,242.621,848.5,240.89,848.49,239.4Z" transform="translate(171.207 -21.524)"/><path class="c" d="M851.68,235.57c.7.661,1.5,1.466,2.4,2.4Z" transform="translate(171.851 -22.297)"/><path class="c" d="M851.6,229.514l2.4-2.4C853.066,228.011,852.285,228.829,851.6,229.514Z" transform="translate(171.834 -24.005)"/><path class="c" d="M845.554,229.594l-2.4-2.4C844.051,228.163,844.869,228.909,845.554,229.594Z" transform="translate(170.129 -23.989)"/><path class="c" d="M845.624,235.64c-.661.7-1.466,1.5-2.4,2.464Z" transform="translate(170.143 -22.283)"/><path class="c" d="M1083.08,218.375c19.818.649,18.8-.445,18.147,19.373.649-19.818-.457-18.8,19.361-18.147-19.818-.649-18.784.445-18.135-19.361C1101.8,220.046,1102.9,219.024,1083.08,218.375Z" transform="translate(218.549 -29.427)"/><path class="c" d="M881,308.194c9.927.336,9.41-.216,9.086,9.711.324-9.927-.228-9.422,9.7-9.086-9.927-.336-9.41.216-9.086-9.7C890.338,309.035,890.891,308.59,881,308.194Z" transform="translate(177.768 -9.473)"/><path class="c" d="M1059.85,400.79c21.633.709,20.539-.493,19.83,21.164.709-21.633-.493-20.527,21.164-19.818-21.633-.709-20.539.481-19.83-21.176C1080.3,402.641,1081.507,401.5,1059.85,400.79Z" transform="translate(213.861 7.043)"/><path class="c" d="M563.56,207.958c16.2.529,15.359-.361,14.83,15.828.529-16.188-.373-15.347,15.816-14.83-16.188-.517-15.347.373-14.818-15.816C578.859,209.328,579.712,208.487,563.56,207.958Z" transform="translate(113.706 -30.86)"/><path class="c" d="M975.42,231.129c16.825.541,15.912-.385,15.359,16.393.553-16.825-.373-15.912,16.4-15.359-16.825-.553-15.912.385-15.359-16.393C991.272,232.547,992.2,231.67,975.42,231.129Z" transform="translate(196.822 -26.293)"/><circle class="c" cx="11.489" cy="11.489" r="11.489" transform="translate(0 185.21)"/><path class="c" d="M505.75,349.67c4.363.144,4.134-.1,3.99,4.266.144-4.363-.1-4.134,4.266-3.99-4.363-.144-4.134.1-3.99-4.266C509.872,350.091,510.113,349.862,505.75,349.67Z" transform="translate(102.04 -0.076)"/><path class="c" d="M1058.71,288.743c28.134.925,26.68-.637,25.755,27.5.925-28.134-.637-26.668,27.5-25.755-28.134-.913-26.668.637-25.755-27.485C1085.294,291.122,1086.844,289.668,1058.71,288.743Z" transform="translate(213.631 -16.762)"/><path class="c" d="M111.15,297.783c28.134.925,26.68-.625,25.755,27.5.925-28.122-.637-26.668,27.5-25.755-28.134-.913-26.668.637-25.755-27.485C137.734,300.162,139.284,298.708,111.15,297.783Z" transform="translate(22.407 -14.938)"/><path class="c" d="M407.72,115.143c28.122.925,26.668-.637,25.755,27.5.913-28.134-.637-26.668,27.485-25.743-28.122-.925-26.668.625-25.743-27.5C434.292,117.522,435.842,116.068,407.72,115.143Z" transform="translate(82.257 -51.795)"/><circle class="c" cx="26.632" cy="26.632" r="26.632" transform="translate(567.577 96.806)"/><path class="c" d="M308.56,199.711c16.525.541,15.623-.373,15.131,16.152.541-16.525-.373-15.623,16.152-15.131-16.525-.541-15.623.373-15.119-16.152C324.184,201.1,325.085,200.252,308.56,199.711Z" transform="translate(62.245 -32.588)"/><path class="c" d="M233.2,288.5c11.525.385,10.924-.252,10.552,11.261.373-11.513-.264-10.924,11.261-10.54-11.525-.385-10.924.252-10.552-11.261C244.088,289.473,244.725,288.884,233.2,288.5Z" transform="translate(47.037 -13.743)"/><path class="c" d="M11.23,308.913c15.5.5,14.7-.349,14.193,15.155.5-15.5-.349-14.7,15.155-14.193-15.5-.5-14.7.349-14.193-15.155C25.88,310.223,26.733,309.478,11.23,308.913Z" transform="translate(2.242 -10.361)"/><path class="c" d="M101.16,191.131c24.144.793,22.834-.553,22.1,23.591.793-24.144-.553-22.894,23.591-22.1-24.144-.793-22.834.553-22.1-23.591C123.97,193.174,125.3,191.924,101.16,191.131Z" transform="translate(20.391 -35.726)"/><path class="c" d="M268.88,80.2c24.144.793,22.894-.541,22.1,23.591.793-24.132-.553-22.834,23.591-22.089-24.144-.793-22.834.541-22.1-23.591C291.678,82.242,293.06,80.992,268.88,80.2Z" transform="translate(54.238 -58.11)"/><path class="c" d="M997.23,191.063c23.676.781,22.45-.529,21.632,23.135.781-23.664-.529-22.438,23.135-21.633-23.664-.769-22.438.541-21.633-23.135C1019.6,193.07,1020.906,191.844,997.23,191.063Z" transform="translate(201.224 -35.645)"/><path class="c" d="M387.33,338.528c2.932.1,2.776-.06,2.68,2.86.1-2.92-.072-2.776,2.86-2.68-2.932-.1-2.776,0-2.68-2.848C390.094,338.768,390.262,338.624,387.33,338.528Z" transform="translate(78.142 -2.058)"/><path class="c" d="M696.13,301.614c10.492.337,9.951-.24,9.614,10.263.337-10.5-.24-9.963,10.251-9.614-10.492-.349-9.951.24-9.614-10.263C706.045,302.528,706.622,301.975,696.13,301.614Z" transform="translate(140.46 -10.909)"/><path class="c" d="M649.35,389.056c7.331.24,6.947-.168,6.718,7.211.228-7.331-.168-6.946,7.151-6.706-7.319-.24-6.946.156-6.706-7.211C656.272,389.669,656.681,389.3,649.35,389.056Z" transform="translate(131.019 7.324)"/><path class="c" d="M645.82,204.782c21.873.709,20.743-.493,20.022,21.368.721-21.861-.493-20.731,21.368-20.022-21.861-.709-20.731.493-20.01-21.368C666.467,206.681,667.669,205.479,645.82,204.782Z" transform="translate(130.307 -32.551)"/><path class="c" d="M398.82,201.539c13.653.445,12.943-.312,12.5,13.34.445-13.653-.312-12.943,13.352-12.5-13.665-.445-12.955.312-12.511-13.34C411.715,202.693,412.473,201.983,398.82,201.539Z" transform="translate(80.46 -31.687)"/><circle class="c" cx="15.083" cy="15.083" r="15.083" transform="translate(270.431 163.962)"/><path class="c" d="M4.13,418.337c19.493.637,18.484-.445,17.847,19.049.637-19.493-.445-18.484,19.049-17.847-19.493-.637-18.484.445-17.847-19.049C22.542,419.983,23.623,418.974,4.13,418.337Z" transform="translate(0.809 10.985)"/><circle class="c" cx="27.185" cy="27.185" r="27.185" transform="translate(867.212 55.283)"/><path class="c" d="M965.21,103.689c21.14.7,20.046-.469,19.349,20.671.7-21.14-.481-20.046,20.659-19.361-21.14-.685-20.046.481-19.349-20.659C985.172,105.48,986.35,104.362,965.21,103.689Z" transform="translate(194.762 -52.817)"/></g><g class="b" transform="translate(727.754 56.088)"><path class="c" d="M715.018,63.416l-14.83,1.154-5.216-14.35,1.31,17.042.12-.024-29.192,45.32,2.86,1.839,29.12-45.212Z" transform="translate(-593.107 -45.954)"/><path class="c" d="M704.312,59.317l-.252-9.687L695.13,53.4l.252,9.7Z" transform="translate(-587.472 -46.073)"/><path class="c" d="M630.04,152.709l14.83-1.142,5.216,14.35-1.31-17.042-.12.024,29.192-45.32-2.86-1.839-29.12,45.2Z" transform="translate(-600.608 -35.557)"/><path class="c" d="M634.26,148.294l.252,9.7,8.929-3.786-.252-9.687Z" transform="translate(-599.756 -26.923)"/><path class="c" d="M655.444,48.62l-6.43,13.412L633.98,59.388,649.4,66.767l.036-.12,24.649,47.94,3.029-1.55L652.524,65.2Z" transform="translate(-599.813 -46.276)"/><path class="c" d="M648.323,51.3,639.8,46.67,638.6,56.3l8.521,4.627Z" transform="translate(-598.88 -46.67)"/><path class="c" d="M688.829,167.817l6.43-13.424,15.035,2.656-15.419-7.379-.036.12-24.649-47.94-3.029,1.55,24.6,47.82Z" transform="translate(-593.117 -35.534)"/><path class="c" d="M690.35,156.444l8.509,4.627,1.2-9.614-8.521-4.627Z" transform="translate(-588.437 -26.457)"/><path class="c" d="M613.6,90.09l8.413,12.27-9.819,11.694,14.1-9.651-.084-.1,53.841,2.62.168-3.389-53.709-2.62Z" transform="translate(-604.21 -37.908)"/><path class="c" d="M613.818,95.5l-8.268,5.072,7.74,5.841,8.268-5.06Z" transform="translate(-605.55 -36.816)"/><path class="c" d="M734.856,119.284l-8.413-12.258,9.819-11.706-14.1,9.663.084.1-53.841-2.632-.168,3.4,53.709,2.62Z" transform="translate(-592.899 -36.852)"/><path class="c" d="M725.9,111.682l8.268-5.06-7.74-5.853-8.268,5.072Z" transform="translate(-582.825 -35.752)"/><path class="c" d="M701.646,111.3l11.393-20.9-23.627-2.9-12.4-20.3L662.695,86.187l-23.784.589,9.29,21.9-11.381,20.9,23.615,2.9,12.4,20.311,14.325-19.013,23.784-.589Zm-19.373,12.967-8.593,11.405-7.439-12.234-14.181-1.731,6.838-12.535-5.576-13.148,14.266-.349,8.593-11.405,7.439,12.186L697.788,98.2l-6.826,12.547,5.576,13.136Z" transform="translate(-599.24 -42.525)"/></g><g class="b" transform="translate(1052.686 70.294)"><path class="c" d="M1000.1,106.062l-14.494-5.588,1.526-15.864-6.418,16.657.12.024-47.868,29.6,1.863,3.017,47.76-29.528Z" transform="translate(-864.407 -53.219)"/><path class="c" d="M988.117,98.879l4.122-9.242L982.12,89.18l-4.11,9.254Z" transform="translate(-855.318 -52.297)"/><path class="c" d="M879.04,150.736l14.494,5.588-1.526,15.864,6.418-16.645-.132-.036,47.868-29.6L944.3,122.89l-47.76,29.528Z" transform="translate(-875.29 -45.494)"/><path class="c" d="M882.13,151.27l-4.11,9.254,10.107.445,4.122-9.242Z" transform="translate(-875.496 -39.766)"/><path class="c" d="M946.71,65.82l-12.078,9.759L921.64,66.325l11.225,13.881.084-.1,1.695,56.257,3.545-.108-1.682-56.112Z" transform="translate(-866.693 -57.011)"/><path class="c" d="M938.705,66.674l-5.949-8.184L927.3,67.011l5.961,8.2Z" transform="translate(-865.551 -58.49)"/><path class="c" d="M925.37,194.546l12.078-9.759,12.979,9.254L939.215,180.16l-.1.1L937.424,124l-3.545.108,1.695,56.124Z" transform="translate(-865.941 -45.27)"/><path class="c" d="M931.08,184.651l5.949,8.2,5.444-8.533-5.949-8.184Z" transform="translate(-864.788 -34.749)"/><path class="c" d="M889.642,87.62l2.4,15.347-14.506,6.61,17.63-2.764-.036-.132L944.7,133.337l1.682-3.125-49.442-26.584Z" transform="translate(-875.593 -52.611)"/><path class="c" d="M885.991,92.31,875.92,93.368l4.663,8.99,10.071-1.07Z" transform="translate(-875.92 -51.665)"/><path class="c" d="M989.789,168.577l-2.416-15.347,14.506-6.61-17.63,2.776.048.12L934.723,122.86l-1.683,3.125,49.454,26.6Z" transform="translate(-864.393 -45.5)"/><path class="c" d="M984.353,157.9l10.059-1.058-4.663-8.978-10.059,1.058Z" transform="translate(-854.979 -40.455)"/><path class="c" d="M964.919,169.064l-22.69-10.131L920.2,170.41,917.64,145.7l-20.959-13.34,20.106-14.578,1.082-24.817L940.546,103.1,962.575,91.62l2.572,24.7,20.96,13.34-20.118,14.59Zm-9.41-15.227.649-14.89,12.018-8.749-12.583-8-1.538-14.818-13.22,6.886-13.6-6.081-.649,14.89-12.018,8.749,12.547,8,1.55,14.83,13.22-6.886Z" transform="translate(-871.731 -51.804)"/></g><g class="b" transform="translate(1210.219 207.6)"><path class="c" d="M1044.418,176.893l-6.31,4.266-5.949-5.06,4.9,7.247.048-.048-1.526,27.533,1.743.1,1.514-27.473Z" transform="translate(-1001.923 -172.062)"/><path class="c" d="M1040.526,176.982l-2.56-4.242-3.017,3.93,2.56,4.254Z" transform="translate(-1001.359 -172.74)"/><path class="c" d="M1029.12,238.813l6.31-4.254,5.949,5.048-4.9-7.235-.048.036,1.526-27.521-1.743-.1-1.514,27.461Z" transform="translate(-1002.536 -166.272)"/><path class="c" d="M1031.89,234.25l2.56,4.242,3.017-3.93-2.572-4.242Z" transform="translate(-1001.977 -161.12)"/><path class="c" d="M1015.806,185.11l.529,7.6-7.355,2.62,8.725-.613-.012-.06,23.075,15.071.949-1.454L1018.7,193.234Z" transform="translate(-1006.6 -170.244)"/><path class="c" d="M1013.684,187.26l-4.964.1,1.9,4.591,4.963-.108Z" transform="translate(-1006.653 -169.81)"/><path class="c" d="M1061.171,228.883l-.529-7.6,7.355-2.62-8.725.613.012.06-23.075-15.071-.949,1.454,23.027,15.047Z" transform="translate(-1001.297 -166.377)"/><path class="c" d="M1058.949,223.385l4.964-.1-1.9-4.579-4.964.1Z" transform="translate(-996.9 -163.463)"/><path class="c" d="M1008.04,215.1l6.838,3.329-1.406,7.68,3.822-7.86-.06-.012,24.6-12.451-.781-1.55-24.541,12.415Z" transform="translate(-1006.79 -166.383)"/><path class="c" d="M1009.392,215.92,1007,220.271l4.915.637,2.392-4.339Z" transform="translate(-1007 -164.026)"/><path class="c" d="M1069.115,198.429l-6.838-3.329,1.406-7.68-3.822,7.86.06.012-24.6,12.451.781,1.55,24.541-12.415Z" transform="translate(-1001.285 -169.777)"/><path class="c" d="M1063.315,194.778l2.392-4.351-4.915-.637-2.392,4.339Z" transform="translate(-996.627 -169.299)"/><path class="c" d="M1061.34,209.485l-10.432,6.285-1.562,12.018L1038.7,221.9l-11.225,4.687-.228-12.174-9.615-7.391,10.432-6.273,1.562-12.018,10.648,5.889,11.225-4.687.228,12.174Zm-8.749-.481-5.8-4.435-.144-7.295-6.73,2.812-6.394-3.533-.937,7.211-6.249,3.774,5.8,4.423.132,7.307,6.73-2.812,6.394,3.533.938-7.211Z" transform="translate(-1004.855 -169.513)"/></g><g class="b" transform="translate(923.624 184.489)"><path class="c" d="M801.144,155.61l-4.735,7.1L788.08,160l8.172,5.432.024-.06L806.432,194.6l1.839-.637-10.119-29.168Z" transform="translate(-764.585 -153.086)"/><path class="c" d="M796.865,156.827l-4.471-3.317-1.454,5.372,4.471,3.317Z" transform="translate(-764.008 -153.51)"/><path class="c" d="M810.409,226.277l4.723-7.1,8.341,2.716-8.172-5.432-.036.06L805.121,187.29l-1.851.637L813.4,217.095Z" transform="translate(-761.519 -146.693)"/><path class="c" d="M812.29,219.972l4.471,3.3,1.454-5.372-4.471-3.3Z" transform="translate(-759.699 -141.182)"/><path class="c" d="M774.208,176.08l3.786,7.655-6.514,5.853,8.785-4.351-.036-.06,30.382,5.817.373-1.911-30.322-5.817Z" transform="translate(-767.935 -148.955)"/><path class="c" d="M773.638,179.08,768.53,181.3l3.93,3.942,5.108-2.223Z" transform="translate(-768.53 -148.35)"/><path class="c" d="M840.585,201.764l-3.786-7.656,6.514-5.853-8.785,4.351.036.06-30.382-5.817-.373,1.911,30.31,5.817Z" transform="translate(-761.41 -146.782)"/><path class="c" d="M836.04,197.3l5.1-2.223-3.918-3.942-5.108,2.211Z" transform="translate(-755.699 -145.918)"/><path class="c" d="M778.88,212.408l8.509.529,1.815,8.581.625-9.795-.072.012,20.239-23.411-1.478-1.274L788.338,210.4Z" transform="translate(-766.441 -146.741)"/><path class="c" d="M781.1,210.72l-.637,5.528,5.384-1.43.637-5.528Z" transform="translate(-766.122 -142.253)"/><path class="c" d="M834.5,168.72l-8.521-.541-1.815-8.569-.625,9.795.072-.012L803.39,192.8l1.466,1.274,20.19-23.351Z" transform="translate(-761.495 -152.279)"/><path class="c" d="M828.062,165.788l.637-5.528-5.372,1.43-.637,5.528Z" transform="translate(-757.6 -152.148)"/><path class="c" d="M831.28,183.7l-8.148,10.96,3.521,13.22-13.568-1.586L803.47,215.9l-5.42-12.535-13.22-3.545,8.16-10.96-3.533-13.22,13.6,1.61,9.615-9.614,5.408,12.547Zm-9.3,3.221-7.908-2.127-3.245-7.523-5.8,5.793-8.136-.949L799,190.03l-4.891,6.574,7.908,2.127,3.257,7.523,5.793-5.793,8.136.949-2.1-7.908Z" transform="translate(-765.241 -150.658)"/></g><g class="b" transform="translate(867.945 184.766)"><path class="c" d="M752.138,184.636l-.324-4.194,4.05-1.466-4.819.373.012.024-12.8-8.232-.517.805,12.763,8.22Z" transform="translate(-719.064 -150.229)"/><path class="c" d="M750.89,181.6l2.728-.072-1.057-2.512-2.74.072Z" transform="translate(-716.626 -148.638)"/><path class="c" d="M726.926,160.65l.324,4.182-4.05,1.478,4.807-.373V165.9l12.787,8.232.517-.805-12.763-8.208Z" transform="translate(-721.998 -152.346)"/><path class="c" d="M725.77,161.84l-2.74.072,1.07,2.524,2.74-.072Z" transform="translate(-722.033 -152.105)"/><path class="c" d="M756.4,167.817,752.612,166l.745-4.242-2.091,4.351.036.012-13.532,6.958.445.853,13.5-6.946Z" transform="translate(-719.058 -152.122)"/><path class="c" d="M753.186,165.8l1.31-2.4-2.728-.337-1.3,2.4Z" transform="translate(-716.495 -151.859)"/><path class="c" d="M722.75,177.247l3.786,1.8-.745,4.254,2.079-4.363h-.024l13.52-6.958-.433-.853-13.5,6.934Z" transform="translate(-722.089 -150.231)"/><path class="c" d="M723.51,177.67l-1.31,2.4,2.716.337,1.31-2.4Z" transform="translate(-722.2 -148.911)"/><path class="c" d="M742.7,156.007l-3.461,2.368-3.3-2.764,2.728,3.978.024-.024-.733,15.2.949.048.745-15.167Z" transform="translate(-719.429 -153.363)"/><path class="c" d="M740.547,156.072l-1.43-2.331-1.647,2.175,1.43,2.332Z" transform="translate(-719.118 -153.74)"/><path class="c" d="M734.46,190.226l3.461-2.368,3.3,2.776-2.728-3.99-.036.024.745-15.191-.961-.048-.733,15.155Z" transform="translate(-719.726 -150.17)"/><path class="c" d="M735.99,187.707l1.418,2.332,1.659-2.187-1.43-2.331Z" transform="translate(-719.417 -147.327)"/><path class="c" d="M733.448,183.524l-.168-6.718-5.36-4.1,5.733-3.5.817-6.67,5.889,3.209,6.189-2.62.168,6.718,5.336,4.062-5.733,3.5-.817,6.67-5.9-3.209Zm2.62-4.062,3.714-1.574,3.533,1.923.493-4,3.437-2.139-3.221-2.4-.1-4.038-3.714,1.586-3.533-1.935-.493,4-3.437,2.1,3.221,2.4Z" transform="translate(-721.046 -151.964)"/></g><g class="b" transform="translate(331.158 105.915)"><path class="c" d="M306.51,89.42l-4.038,8.172L293.29,95.85l9.386,4.639.024-.072,14.722,29.552,1.863-.925L304.6,99.563Z" transform="translate(-271.97 -87.87)"/><path class="c" d="M302.125,91.038l-5.18-2.908-.805,5.889,5.18,2.9Z" transform="translate(-271.395 -88.13)"/><path class="c" d="M326.023,162.709l4.038-8.16,9.194,1.743-9.386-4.651-.024.072L315.123,122.16l-1.863.925,14.686,29.492Z" transform="translate(-267.94 -81.263)"/><path class="c" d="M327.05,155.769l5.18,2.9.817-5.889-5.192-2.9Z" transform="translate(-265.157 -75.668)"/><path class="c" d="M280.576,114.52l5.06,7.583-6.105,7.091,8.713-5.8-.048-.06,32.954,2.019.132-2.067L288.4,121.25Z" transform="translate(-274.747 -82.804)"/><path class="c" d="M280.646,117.83l-5.1,3.041,4.687,3.641,5.108-3.041Z" transform="translate(-275.55 -82.136)"/><path class="c" d="M354.6,133.264l-5.048-7.583,6.093-7.091-8.713,5.817.06.048-32.966-2.019-.12,2.079,32.869,2.019Z" transform="translate(-267.809 -81.983)"/><path class="c" d="M349.167,128.61l5.108-3.041-4.7-3.629-5.1,3.029Z" transform="translate(-261.639 -81.307)"/><path class="c" d="M290.2,152.942l9.086-.577,3.089,8.821-.673-10.444-.072.012,18.231-27.533-1.731-1.142-18.2,27.461Z" transform="translate(-272.594 -81.279)"/><path class="c" d="M292.76,150.327l.072,5.937,5.5-2.247-.084-5.937Z" transform="translate(-272.077 -76.032)"/><path class="c" d="M342.961,98.944l-9.1.589L330.774,90.7l.673,10.456.084-.024L313.3,128.665l1.731,1.154,18.183-27.473Z" transform="translate(-267.932 -87.611)"/><path class="c" d="M336.356,96.377l-.084-5.937-5.492,2.235.072,5.937Z" transform="translate(-264.404 -87.664)"/><path class="c" d="M341.595,115.442l-7.139,12.715,5.528,13.484-14.566.168-8.929,11.537-7.427-12.535-14.422-1.959,7.127-12.715-5.492-13.532,14.566-.18,8.917-11.525,7.439,12.535Zm-9.4,4.687-8.665-1.2-4.423-7.547-5.348,6.922-8.749.1,3.281,8.1-4.278,7.619,8.665,1.2,4.459,7.523,5.348-6.922,8.749-.108-3.317-8.088Z" transform="translate(-271.698 -85.553)"/></g><g class="b" transform="translate(259.386 266.056)"><path class="c" d="M257.454,249.864l-2.127-4.471,3.846-3.341-5.156,2.44.036.036L236.47,240.85l-.24,1.106,17.546,3.678Z" transform="translate(-211.713 -217.451)"/><path class="c" d="M254.857,247.217l2.98-1.238L255.6,243.66l-2.993,1.226Z" transform="translate(-208.408 -216.884)"/><path class="c" d="M219.2,234.29l2.115,4.483L217.47,242.1l5.156-2.44-.024-.036,17.582,3.69.228-1.106-17.534-3.678Z" transform="translate(-215.499 -218.775)"/><path class="c" d="M218.811,236.02l-2.98,1.238,2.235,2.332,2.992-1.238Z" transform="translate(-215.83 -218.426)"/><path class="c" d="M254.3,230.6l-4.939-.4-.973-5-.457,5.685.048-.012L236,244.261l.841.757L248.8,231.666Z" transform="translate(-211.76 -220.609)"/><path class="c" d="M250.557,228.847l.421-3.2-3.137.769-.421,3.209Z" transform="translate(-209.455 -220.518)"/><path class="c" d="M221.56,255.382l4.939.4.973,4.987.457-5.673h-.048l11.982-13.376-.841-.757-11.946,13.352Z" transform="translate(-214.674 -217.429)"/><path class="c" d="M222.843,254.459l-.433,3.209,3.137-.781.433-3.2Z" transform="translate(-214.502 -214.86)"/><path class="c" d="M235.021,222.66l-2.812,4.074-4.819-1.659,4.687,3.245.024-.048,5.6,17.078,1.082-.361-5.588-17.03Z" transform="translate(-213.497 -221.122)"/><path class="c" d="M232.519,223.339l-2.56-1.959-.889,3.1,2.56,1.971Z" transform="translate(-213.158 -221.38)"/><path class="c" d="M239.68,263.8l2.824-4.086,4.807,1.671-4.687-3.245-.024.036L237,241.11l-1.07.349,5.588,17.03Z" transform="translate(-211.774 -217.398)"/><path class="c" d="M240.85,260.151l2.56,1.971.9-3.1-2.572-1.971Z" transform="translate(-210.781 -214.182)"/><path class="c" d="M235.706,257.694l-3.017-7.331-7.619-2.187,4.807-6.285-1.911-7.692,7.86,1.046,5.709-5.5,3.017,7.343,7.619,2.187-4.807,6.273,1.911,7.7-7.86-1.058Zm1.2-5.588,3.425-3.3,4.723.637-1.2-4.615,2.908-3.774-4.567-1.382-1.8-4.4L237,238.6l-4.723-.625,1.2,4.615-2.908,3.774,4.579,1.31Z" transform="translate(-213.965 -219.693)"/></g><g class="b" transform="translate(1022.016 233.992)"><path class="c" d="M892.024,223.2l-2.127-4.471,3.846-3.341-5.144,2.44.024.036-17.583-3.69-.24,1.118,17.546,3.665Z" transform="translate(-846.283 -190.771)"/><path class="c" d="M889.425,220.549l2.981-1.238-2.235-2.332-2.98,1.238Z" transform="translate(-842.976 -190.204)"/><path class="c" d="M853.769,207.62l2.115,4.471-3.834,3.341,5.144-2.44-.024-.036,17.583,3.69.228-1.118-17.534-3.665Z" transform="translate(-850.067 -192.093)"/><path class="c" d="M853.393,209.35l-2.992,1.238,2.247,2.332,2.98-1.238Z" transform="translate(-850.4 -191.744)"/><path class="c" d="M888.874,203.926l-4.939-.409-.961-4.987L882.5,204.2h.048L870.57,217.591l.841.757L883.369,205Z" transform="translate(-846.33 -193.927)"/><path class="c" d="M885.127,202.179l.421-3.209-3.137.781-.421,3.2Z" transform="translate(-844.025 -193.838)"/><path class="c" d="M856.13,228.7l4.939.409.974,4.988.457-5.673h-.036l11.982-13.388-.853-.757-11.946,13.352Z" transform="translate(-849.244 -190.749)"/><path class="c" d="M857.411,227.791l-.421,3.2,3.137-.769.421-3.209Z" transform="translate(-849.07 -188.18)"/><path class="c" d="M869.59,195.99l-2.812,4.074-4.807-1.659,4.687,3.233.012-.036,5.6,17.066,1.082-.349-5.588-17.03Z" transform="translate(-848.065 -194.44)"/><path class="c" d="M867.1,196.671l-2.572-1.971-.889,3.113,2.56,1.971Z" transform="translate(-847.728 -194.7)"/><path class="c" d="M874.262,237.118l2.812-4.074,4.807,1.658-4.687-3.233-.024.036-5.6-17.066-1.07.349,5.588,17.03Z" transform="translate(-846.344 -190.716)"/><path class="c" d="M875.42,233.481l2.56,1.971.9-3.113-2.56-1.959Z" transform="translate(-845.351 -187.5)"/><path class="c" d="M870.272,230.994l-2.993-7.331-7.619-2.2,4.807-6.273-1.923-7.692,7.86,1.046,5.708-5.5,3.017,7.331,7.62,2.2-4.807,6.273,1.911,7.692-7.86-1.046Zm1.2-5.588,3.425-3.3,4.723.625-1.2-4.615,2.908-3.762-4.567-1.322-1.815-4.4-3.425,3.3-4.723-.625,1.2,4.615-2.908,3.762,4.591,1.334Z" transform="translate(-848.531 -193.017)"/></g><g class="b" transform="translate(55.067 318.01)"><path class="c" d="M76.025,268.108l-4.9,2.728L67.06,266.75l3.149,5.636.036-.036-2.86,20.142,1.274.18,2.848-20.094Z" transform="translate(-41.534 -264.178)"/><path class="c" d="M73.206,267.891l-1.622-3.281-2.464,2.7,1.622,3.281Z" transform="translate(-41.118 -264.61)"/><path class="c" d="M61.22,312.575l4.9-2.728,4.05,4.1-3.137-5.636-.036.024,2.86-20.142-1.274-.18L65.739,308.1Z" transform="translate(-42.712 -259.888)"/><path class="c" d="M63.22,309.444l1.61,3.281,2.464-2.7-1.61-3.281Z" transform="translate(-42.309 -256.108)"/><path class="c" d="M54.581,272.26l-.1,5.612-5.564,1.466,6.442.1v-.048L71.37,291.934l.793-1L56.191,278.413Z" transform="translate(-45.194 -263.066)"/><path class="c" d="M52.773,273.77l-3.653-.24,1.106,3.485,3.653.24Z" transform="translate(-45.154 -262.81)"/><path class="c" d="M85.062,307.374l.084-5.612,5.576-1.466-6.454-.1.012.048L68.273,287.7l-.793,1.01L83.452,301.22Z" transform="translate(-41.449 -259.95)"/><path class="c" d="M83.766,303.185l3.641.252-1.106-3.5-3.641-.24Z" transform="translate(-38.385 -257.529)"/><path class="c" d="M46.98,293.541l4.807,2.884-1.514,5.552,3.3-5.54-.036-.012,18.868-7.6-.481-1.19-18.82,7.571Z" transform="translate(-45.586 -259.962)"/><path class="c" d="M47.851,294.55l-2.031,3.041,3.569.781,2.031-3.041Z" transform="translate(-45.82 -258.568)"/><path class="c" d="M93.03,285.2l-4.819-2.872,1.526-5.564L86.42,282.3l.048.012-18.868,7.6.469,1.19L86.9,283.526Z" transform="translate(-41.425 -262.158)"/><path class="c" d="M88.819,282.422l2.043-3.041-3.581-.781-2.031,3.041Z" transform="translate(-37.863 -261.787)"/><path class="c" d="M86.586,293.006l-8.052,3.954-1.911,8.773-7.463-5-8.545,2.728.6-8.953L54.57,288.5l8.064-4.026,1.911-8.773,7.463,5,8.545-2.728-.6,8.965Zm-6.394-.9L76.2,288.5l.361-5.372-5.132,1.634-4.471-3-1.142,5.264-4.807,2.4L65,293.03l-.361,5.384,5.132-1.646,4.471,3,1.2-5.264Z" transform="translate(-44.054 -262.372)"/></g><g class="b" transform="translate(178.564 105.627)"><path class="c" d="M216.077,94.17l-11.057,10.768-13.7-7.956,12.391,12.7.072-.108,6.886,55.5,3.5-.433L207.3,109.277Z" transform="translate(-139.955 -86.623)"/><path class="c" d="M208.109,95.449l-6.646-7.559-4.6,8.941,6.646,7.559Z" transform="translate(-138.837 -87.89)"/><path class="c" d="M205.77,223.3l11.057-10.768,13.7,7.956-12.391-12.7-.072.108-6.886-55.511-3.5.445,6.862,55.367Z" transform="translate(-137.039 -74.875)"/><path class="c" d="M211.47,212.881l6.646,7.547,4.6-8.941-6.646-7.547Z" transform="translate(-135.888 -64.47)"/><path class="c" d="M161.289,120.81l3.81,14.95-13.749,7.9,17.2-4.375-.06-.12L220,160.95l1.382-3.245L169.99,135.965Z" transform="translate(-148.021 -81.247)"/><path class="c" d="M158.435,125.75l-9.855,1.983,5.444,8.461,9.855-1.983Z" transform="translate(-148.58 -80.25)"/><path class="c" d="M268.16,191.492l-3.8-14.95,13.737-7.9-17.2,4.375.06.12-51.509-21.8-1.382,3.245,51.389,21.753Z" transform="translate(-136.575 -75.085)"/><path class="c" d="M261.824,181.564l9.855-1.983-5.444-8.461L256.38,173.1Z" transform="translate(-126.825 -71.094)"/><path class="c" d="M156.55,185.058l14.854,4.182-.048,15.84,4.819-17.066-.132-.012,44.623-33.711-2.127-2.812-44.515,33.627Z" transform="translate(-146.972 -75.057)"/><path class="c" d="M159.951,184.431l-3.221,9.53,10.047-.481L170,183.95Z" transform="translate(-146.935 -68.504)"/><path class="c" d="M271.906,129.5l-14.854-4.194.048-15.84-4.807,17.066.12.024L207.79,160.27l2.127,2.812,44.515-33.627Z" transform="translate(-136.631 -83.535)"/><path class="c" d="M259.967,122.8l3.221-9.518-10.047.481-3.221,9.53Z" transform="translate(-128.129 -82.766)"/><path class="c" d="M260.479,154.287l-18.556,16.284,1.2,24.661L219.749,187.3l-20.743,13.388-4.807-24.2L172.23,165.224l18.556-16.284-1.2-24.661,23.387,7.932,20.731-13.4,4.807,24.216Zm-17.619,2.187-13.22-6.754-2.884-14.53-12.451,8.04-14.025-4.807.745,14.794-11.141,9.771,13.22,6.754,2.9,14.53,12.439-8.04,14.025,4.807-.733-14.794Z" transform="translate(-143.807 -81.65)"/></g><g class="b" transform="translate(422.05 8.905)"><path class="c" d="M509.823,85.964,497.012,73.188,506.1,57,491.423,71.722l.12.084-64.934,9,.565,4.1,64.789-8.978Z" transform="translate(-335.958 2.598)"/><path class="c" d="M497.514,76.63l8.737-7.92-10.564-5.24-8.737,7.908Z" transform="translate(-323.781 3.903)"/><path class="c" d="M358.34,75.86l12.811,12.775-9.086,16.188L376.74,90.1l-.132-.1,64.946-8.99-.565-4.1L376.2,85.9Z" transform="translate(-349.735 6.404)"/><path class="c" d="M359.917,82.54l-8.737,7.92,10.564,5.24,8.737-7.92Z" transform="translate(-351.18 7.752)"/><path class="c" d="M471.475,22.131l-17.462,4.711L444.531,10.87l5.408,20.082.144-.072L425.41,91.619l3.822,1.562,24.625-60.6Z" transform="translate(-336.2 -6.712)"/><path class="c" d="M459.966,18.935,457.479,7.41l-9.819,6.526,2.488,11.525Z" transform="translate(-331.71 -7.41)"/><path class="c" d="M390.45,148.639l17.462-4.711,9.482,15.972-5.42-20.07-.132.06L436.515,79.15l-3.822-1.55-24.625,60.583Z" transform="translate(-343.255 6.755)"/><path class="c" d="M396.29,141.056l2.488,11.525,9.819-6.526-2.488-11.525Z" transform="translate(-342.077 18.244)"/><path class="c" d="M398.879,17.63,394.228,35.1l-18.568.216,20.094,5.36.012-.156,40.261,51.738,3.269-2.536L399.131,38.109Z" transform="translate(-346.24 -5.348)"/><path class="c" d="M391.133,21.665,379.92,18.06l.733,11.766,11.225,3.605Z" transform="translate(-345.38 -5.261)"/><path class="c" d="M465.985,151.864l4.663-17.486,18.568-.216-20.094-5.348-.012.156L428.849,77.22l-3.269,2.536,40.164,51.63Z" transform="translate(-336.166 6.678)"/><path class="c" d="M465.053,137.866l11.225,3.617-.733-11.766L464.32,126.1Z" transform="translate(-328.348 16.542)"/><path class="c" d="M442.229,138.885l-19.4-21.476-28.843,1.863,8.905-27.545L386.85,67.69l28.291-6.069L427.892,35.65l19.4,21.476,28.843-1.863L467.239,82.8l16.044,24.036-28.3,6.009Zm-2.86-20.647,7.692-15.623,16.982-3.605-9.615-14.422,5.336-16.525-17.33,1.118L430.8,56.3l-7.7,15.623-16.982,3.605,9.614,14.422-5.348,16.525,17.33-1.118Z" transform="translate(-343.982 -1.711)"/></g><g class="b" transform="translate(97.166 203.995)"><path class="c" d="M128.819,175.136l-7.992,5.156-7.307-6.5L119.445,183l.06-.06-2.656,34.408,2.175.168,2.644-34.324Z" transform="translate(-74.257 -168.923)"/><path class="c" d="M123.98,175.112l-3.1-5.372-3.87,4.831,3.089,5.384Z" transform="translate(-73.553 -169.74)"/><path class="c" d="M108.15,252.136l8-5.156,7.307,6.49-5.925-9.194-.06.06,2.656-34.408-2.175-.168-2.644,34.324Z" transform="translate(-75.341 -161.664)"/><path class="c" d="M111.6,246.533l3.089,5.372,3.882-4.843-3.089-5.372Z" transform="translate(-74.644 -155.22)"/><path class="c" d="M92.849,184.6l.457,9.506-9.266,3.077,10.924-.529-.012-.084,28.459,19.505,1.238-1.8L96.238,194.827Z" transform="translate(-80.206 -166.741)"/><path class="c" d="M90.081,187.244l-6.2-.024,2.259,5.793h6.2Z" transform="translate(-80.239 -166.212)"/><path class="c" d="M148.38,240.615l-.457-9.506,9.266-3.077-10.924.529.012.084L117.818,209.14l-1.238,1.8,28.4,19.445Z" transform="translate(-73.639 -161.789)"/><path class="c" d="M145.737,233.661l6.213.024-2.259-5.793-6.2-.012Z" transform="translate(-68.209 -158.007)"/><path class="c" d="M82.32,221.793l8.461,4.351L88.81,235.71l5.012-9.723-.084-.024,31.127-14.914-.949-1.959L92.872,223.956Z" transform="translate(-80.553 -161.799)"/><path class="c" d="M83.963,222.99l-3.113,5.36,6.129.937,3.113-5.36Z" transform="translate(-80.85 -158.994)"/><path class="c" d="M159.234,202.607l-8.461-4.351,1.959-9.566-5,9.723.084.036-31.127,14.9.937,1.959,31.055-14.866Z" transform="translate(-73.617 -165.916)"/><path class="c" d="M152,198l3.113-5.372-6.129-.925-3.125,5.36Z" transform="translate(-67.731 -165.308)"/><path class="c" d="M149.2,216.3l-13.22,7.571L133.7,238.926l-13.22-7.668L106.3,236.823V221.584L94.4,212.09l13.22-7.571L109.9,189.46l13.16,7.656,14.181-5.552-.06,15.227Zm-10.936-.841-7.091-5.7v-9.146l-8.509,3.329-7.9-4.591-1.37,9.038-7.944,4.555,7.139,5.7v9.134l8.509-3.329,7.9,4.6,1.37-9.038Z" transform="translate(-78.116 -165.76)"/></g><g class="b" transform="translate(623.738 99.906)"><path class="c" d="M590.171,163.958l.9-10.36,10.492-1.971-11.9-1.034v.084l-27.918-25.3-1.6,1.767,27.858,25.238Z" transform="translate(-510.696 -74.604)"/><path class="c" d="M588.306,156.078l6.706.925-1.586-6.586-6.706-.937Z" transform="translate(-505.334 -69.74)"/><path class="c" d="M538.613,94.95l-.9,10.36-10.492,1.959,11.91,1.046v-.1l27.918,25.3,1.6-1.755-27.858-25.238Z" transform="translate(-517.341 -80.745)"/><path class="c" d="M534.928,97.615l-6.718-.925,1.586,6.586,6.718.925Z" transform="translate(-517.141 -80.394)"/><path class="c" d="M608.1,123.56l-8.521-5.949,3.545-10.071-6.85,9.795.084.036L560.48,128.908l.721,2.259,35.79-11.513Z" transform="translate(-510.629 -78.204)"/><path class="c" d="M600.472,118.319l4.158-5.348-6.5-1.911-4.158,5.348Z" transform="translate(-503.871 -77.494)"/><path class="c" d="M521.73,132.825l8.521,5.961-3.533,10.071,6.838-9.795-.072-.036,35.874-11.537-.733-2.259-35.778,11.5Z" transform="translate(-518.449 -74.634)"/><path class="c" d="M523.158,135.32,519,140.668l6.49,1.923,4.17-5.348Z" transform="translate(-519 -72.598)"/><path class="c" d="M579.1,90.232l-9.41,4.4-6.946-8.1,5.048,10.828.072-.048-7.944,36.835,2.319.493L570.171,97.9Z" transform="translate(-510.742 -82.444)"/><path class="c" d="M573.513,89.4l-2.56-6.273-4.9,4.663,2.548,6.285Z" transform="translate(-509.505 -83.13)"/><path class="c" d="M545.95,170.279l9.422-4.4,6.946,8.1-5.06-10.828-.072.048,7.944-36.835-2.319-.5-7.92,36.751Z" transform="translate(-513.561 -74.507)"/><path class="c" d="M549.58,164.853l2.548,6.285,4.915-4.675L554.5,160.19Z" transform="translate(-512.829 -67.579)"/><path class="c" d="M545.632,153.186l2.3-16.441L536.45,124.727l15.419-6.237,4.687-15.96,13.124,10.179,16.164-3.906-2.3,16.465,11.465,12.018-15.419,6.237-4.687,15.96L561.8,149.256Zm8.04-8.881,9.7-2.4,7.872,6.141,2.812-9.614,9.254-3.738-6.886-7.211,1.382-9.891-9.7,2.4-7.872-6.081-2.812,9.614-9.254,3.738,6.886,7.211Z" transform="translate(-515.479 -79.215)"/></g><g class="b" transform="translate(764.373 224.257)"><path class="c" d="M656.136,191.03l-2.62-.12-.6-2.62-.132,3.017.024-.012L646.75,198.6l.457.385,6.045-7.283Z" transform="translate(-633.855 -186.259)"/><path class="c" d="M654.177,190.145l.156-1.695-1.635.469-.168,1.707Z" transform="translate(-632.688 -186.227)"/><path class="c" d="M639.36,204.776l2.62.108.6,2.62.132-3h-.024l6.057-7.307-.457-.373-6.045,7.283Z" transform="translate(-635.346 -184.538)"/><path class="c" d="M640.046,204.219l-.156,1.707,1.634-.481.168-1.695Z" transform="translate(-635.239 -183.139)"/><path class="c" d="M645.858,187.2l-1.406,2.211-2.572-.781,2.536,1.622.012-.024,3.293,8.893.565-.2-3.293-8.881Z" transform="translate(-634.837 -186.479)"/><path class="c" d="M644.553,187.6l-1.394-1-.409,1.658,1.382.985Z" transform="translate(-634.662 -186.6)"/><path class="c" d="M649.138,208.814l1.406-2.211,2.572.781-2.536-1.622-.012.024-3.293-8.905-.565.216L650,205.966Z" transform="translate(-633.863 -184.525)"/><path class="c" d="M649.67,206.859l1.394.985.409-1.646-1.382-1Z" transform="translate(-633.265 -182.846)"/><path class="c" d="M637.705,193.64l1.214,2.32L636.96,197.8l2.668-1.394-.012-.012,9.362,1.586.1-.589-9.338-1.586Z" transform="translate(-635.83 -185.179)"/><path class="c" d="M637.57,194.57l-1.55.709,1.226,1.178,1.55-.709Z" transform="translate(-636.02 -184.992)"/><path class="c" d="M658.249,201.1l-1.214-2.319,1.959-1.839-2.668,1.382.012.024-9.35-1.6-.108.589,9.338,1.6Z" transform="translate(-633.828 -184.552)"/><path class="c" d="M656.816,199.759l1.55-.709-1.226-1.19-1.55.721Z" transform="translate(-632.071 -184.328)"/><path class="c" d="M653.953,203.058l-4.17-.409-2.908,3.029-1.731-3.822-4.074-1,2.4-3.413-1.2-4.026,4.17.4,2.9-3.017,1.743,3.81,4.074,1.01-2.4,3.413Zm-2.319-1.935-.7-2.4,1.454-2.043-2.4-.6-1.046-2.283-1.743,1.8-2.5-.24.7,2.4-1.454,2.055,2.4.6,1.046,2.283,1.743-1.815Z" transform="translate(-635.001 -185.752)"/></g><g class="b" transform="translate(518.676 212.203)"><path class="c" d="M476.406,181.955l-6.79,2.572-4.411-6,2.956,7.788.048-.024-7.439,25.214,1.586.469,7.427-25.154Z" transform="translate(-425.689 -176.174)"/><path class="c" d="M472.178,181.065l-1.454-4.495-3.654,2.992,1.442,4.495Z" transform="translate(-424.418 -176.57)"/><path class="c" d="M449.14,235.8l6.778-2.572,4.411,6-2.944-7.8-.06.036,7.451-25.226-1.6-.457-7.427,25.154Z" transform="translate(-428.036 -170.675)"/><path class="c" d="M451.6,232.323l1.442,4.507,3.666-2.993-1.454-4.507Z" transform="translate(-427.54 -165.923)"/><path class="c" d="M447.679,183.05l-1.166,7.163-7.4.817,8.22,1.346v-.06l18.123,19.061,1.2-1.154-18.075-19Z" transform="translate(-430.06 -175.262)"/><path class="c" d="M444.855,184.818l-4.615-1,.757,4.663,4.627,1Z" transform="translate(-429.832 -175.107)"/><path class="c" d="M479.867,233.835l1.166-7.163,7.4-.817-8.232-1.346v.072L462.092,205.52l-1.2,1.142,18.063,19.013Z" transform="translate(-425.665 -170.728)"/><path class="c" d="M478.957,228.263l4.627,1-.769-4.663-4.615-1Z" transform="translate(-422.172 -167.079)"/><path class="c" d="M433.92,208.218l5.612,4.591-2.992,6.826,5.276-6.454-.048-.036,25.562-6.153-.4-1.622-25.49,6.153Z" transform="translate(-431.108 -170.758)"/><path class="c" d="M434.753,210.4l-3.173,3.509L436,215.58l3.173-3.5Z" transform="translate(-431.58 -169.743)"/><path class="c" d="M494.61,206.305l-5.624-4.591,2.992-6.814-5.276,6.454.048.036-25.55,6.153.385,1.61,25.5-6.141Z" transform="translate(-425.603 -172.871)"/><path class="c" d="M489.433,202.6l3.173-3.509-4.423-1.671-3.173,3.509Z" transform="translate(-420.797 -172.362)"/><path class="c" d="M484.884,215.478l-11.009,3.533-4.086,10.816-8.593-7.812L449.743,223.9l2.464-11.345-7.367-8.965,11.057-3.605,4.1-10.816,8.593,7.8,11.453-1.887-2.4,11.345Zm-8.016-2.4-4.411-5.4,1.466-6.8-6.862,1.13-5.2-4.627-2.4,6.5-6.622,2.127,4.411,5.384-1.478,6.8,6.874-1.13,5.156,4.675,2.4-6.514Z" transform="translate(-428.904 -174.027)"/></g><g class="b" transform="translate(352.91 209.235)"><path class="c" d="M322.832,177.375l-4.891,3.209-4.531-3.954,3.7,5.624.036-.036-1.442,21.152,1.334.084,1.43-21.092Z" transform="translate(-289.662 -173.589)"/><path class="c" d="M319.85,177.393l-1.935-3.293-2.356,3,1.923,3.281Z" transform="translate(-289.228 -174.1)"/><path class="c" d="M310.52,224.811l4.891-3.221,4.519,3.954-3.69-5.624-.036.036,1.43-21.152-1.334-.084-1.43,21.092Z" transform="translate(-290.246 -169.132)"/><path class="c" d="M312.64,221.333l1.935,3.293,2.356-3L315,218.34Z" transform="translate(-289.818 -165.172)"/><path class="c" d="M300.768,183.4l.336,5.829-5.685,1.947,6.718-.385-.012-.048,17.594,11.814.745-1.106-17.558-11.79Z" transform="translate(-293.293 -172.223)"/><path class="c" d="M299.09,185.03l-3.81.024L296.7,188.6l3.81-.036Z" transform="translate(-293.321 -171.894)"/><path class="c" d="M335.21,217.5l-.337-5.841,5.673-1.947-6.706.385.012.048L316.257,198.33l-.757,1.106,17.558,11.79Z" transform="translate(-289.241 -169.21)"/><path class="c" d="M333.548,213.239l3.81-.024-1.418-3.545-3.81.036Z" transform="translate(-285.884 -166.922)"/><path class="c" d="M294.5,206.34l5.228,2.62-1.154,5.889,3.017-6-.048-.024,19.037-9.326-.589-1.2L301,207.6Z" transform="translate(-293.478 -169.216)"/><path class="c" d="M295.525,207.03l-1.875,3.3,3.774.553,1.875-3.317Z" transform="translate(-293.65 -167.455)"/><path class="c" d="M341.639,194.121l-5.228-2.632,1.166-5.889-3.029,6,.048.024-19.037,9.326.589,1.2,19-9.3Z" transform="translate(-289.228 -171.779)"/><path class="c" d="M337.184,191.3l1.887-3.317-3.774-.541-1.887,3.3Z" transform="translate(-285.626 -171.408)"/><path class="c" d="M335.545,202.562l-8.076,4.723-1.322,9.266-8.124-4.639-8.677,3.5-.06-9.362-7.355-5.769,8.076-4.723,1.31-9.266,8.136,4.639,8.677-3.5v9.362Zm-6.718-.457-4.423-3.461v-5.612l-5.2,2.091-4.879-2.776-.793,5.552-4.807,2.836,4.423,3.461v5.612l5.216-2.091,4.879,2.776.781-5.552Z" transform="translate(-291.979 -171.64)"/></g><g class="b" transform="translate(1150.634 252.019)"><path class="c" d="M977.523,212.5l-2.74.276-1.033-2.644.312,3.161.024-.012-5.216,8.533.541.337,5.2-8.509Z" transform="translate(-955.109 -209.613)"/><path class="c" d="M975.561,211.773l-.084-1.8-1.646.745.1,1.791Z" transform="translate(-954.108 -209.646)"/><path class="c" d="M962.16,229.441l2.74-.276,1.034,2.632-.324-3.149h-.024l5.228-8.533-.541-.324-5.2,8.509Z" transform="translate(-956.464 -207.664)"/><path class="c" d="M962.96,228.573l.084,1.791,1.635-.733-.084-1.791Z" transform="translate(-956.302 -206.039)"/><path class="c" d="M966.44,210l-1.13,2.524-2.8-.433,2.9,1.31v-.024l4.783,8.785.553-.3-4.771-8.773Z" transform="translate(-956.393 -209.639)"/><path class="c" d="M965.139,210.517l-1.6-.817-.18,1.791,1.6.817Z" transform="translate(-956.221 -209.7)"/><path class="c" d="M973.161,231.95l1.13-2.512,2.8.421-2.884-1.3-.012.024-4.771-8.785-.553.3,4.759,8.761Z" transform="translate(-955.109 -207.662)"/><path class="c" d="M973.39,229.841l1.6.817.18-1.791-1.6-.817Z" transform="translate(-954.197 -205.997)"/><path class="c" d="M958.856,217.86l1.61,2.247-1.767,2.211,2.572-1.851-.012-.024,9.987.252.024-.625-9.975-.252Z" transform="translate(-957.162 -208.053)"/><path class="c" d="M958.934,218.87l-1.514.973,1.466,1.058,1.5-.973Z" transform="translate(-957.42 -207.849)"/><path class="c" d="M981.485,222.8l-1.61-2.235,1.767-2.211-2.572,1.851.012.024-10-.264-.012.637,9.975.252Z" transform="translate(-955.069 -207.954)"/><path class="c" d="M979.8,221.379l1.5-.973-1.454-1.046-1.514.973Z" transform="translate(-953.2 -207.751)"/><path class="c" d="M977.073,225.472l-4.411.2-2.572,3.605-2.4-3.714-4.387-.433,2.019-3.93-1.827-4.026,4.411-.2,2.572-3.605,2.4,3.714,4.4.433-2.031,3.93Zm-2.716-1.671-1.094-2.4,1.2-2.4-2.632-.264-1.418-2.2-1.55,2.151-2.644.12,1.094,2.4-1.2,2.4,2.632.264,1.406,2.271,1.538-2.151Z" transform="translate(-956.233 -208.959)"/></g><g class="b" transform="translate(1171.786 57.266)"><path class="c" d="M1034.557,50.54l-8.028,14.854-16.909-3.846,17.078,9.23.048-.132,25.262,55.74,3.521-1.586-25.214-55.608Z" transform="translate(-968.038 -47.067)"/><path class="c" d="M1026.317,53.371l-9.4-5.721-1.9,10.84,9.41,5.721Z" transform="translate(-966.948 -47.65)"/><path class="c" d="M1065.66,187.746l8.04-14.854,16.9,3.846-17.066-9.23-.048.132-25.274-55.74-3.509,1.586,25.2,55.608Z" transform="translate(-960.958 -34.684)"/><path class="c" d="M1068.09,174.96l9.4,5.721,1.9-10.84-9.41-5.721Z" transform="translate(-956.238 -24.146)"/><path class="c" d="M984.914,95.41,993.76,109.8l-11.79,12.715,16.537-10.167-.1-.108,60.907,5.985.385-3.834-60.763-5.973Z" transform="translate(-973.618 -38.012)"/><path class="c" d="M984.682,101.5l-9.662,5.276,8.449,7.067,9.663-5.288Z" transform="translate(-975.02 -36.783)"/><path class="c" d="M1120.646,134.681,1111.8,120.3l11.79-12.715-16.525,10.167.084.108-60.907-5.985-.373,3.846,60.751,5.973Z" transform="translate(-960.722 -35.556)"/><path class="c" d="M1110.867,126.123l9.663-5.288-8.449-7.055-9.65,5.276Z" transform="translate(-949.308 -34.305)"/><path class="c" d="M1000.3,166.933l16.885-.469,5.12,16.561-.541-19.4-.144.012,35.646-49.743-3.137-2.247-35.561,49.635Z" transform="translate(-969.918 -34.734)"/><path class="c" d="M1004.932,162.506l-.252,11,10.336-3.786.264-11Z" transform="translate(-969.034 -25.235)"/><path class="c" d="M1101.776,70.6l-16.885.469-5.12-16.561.541,19.4.144-.024-35.646,49.755,3.137,2.247,35.561-49.635Z" transform="translate(-960.936 -46.266)"/><path class="c" d="M1089.356,65.527l.252-11L1079.272,58.3l-.252,11.009Z" transform="translate(-954.032 -46.262)"/><path class="c" d="M1098.139,100.887l-14.073,23.063,9.314,25.358-27-.673-17.294,20.755-12.931-23.724-26.62-4.6L1023.6,118l-9.314-25.358,27,.673L1058.6,72.56l12.919,23.724Zm-17.715,8.04-15.972-2.764-7.764-14.229-10.384,12.4-16.2-.4,5.6,15.215-8.413,13.833,15.984,2.764L1050.956,150l10.384-12.451,16.2.4-5.589-15.215Z" transform="translate(-968.056 -42.623)"/></g><g class="b" transform="translate(874.627 4.23)"><path class="c" d="M868.584,103.285l-6.826-15.479L875.17,76.785l-17.787,7.848.072.12L797.821,70.56l-.9,3.762,59.5,14.157Z" transform="translate(-713.803 10.009)"/><path class="c" d="M859.967,93.958l10.3-3.93-7.427-8.148-10.3,3.93Z" transform="translate(-702.579 12.294)"/><path class="c" d="M739.606,46.58l6.826,15.467L733.02,73.08l17.787-7.86-.072-.12,59.634,14.193.9-3.762-59.5-14.157Z" transform="translate(-726.699 5.17)"/><path class="c" d="M738.06,52.43l-10.3,3.942,7.427,8.148,10.3-3.93Z" transform="translate(-727.76 6.35)"/><path class="c" d="M859.92,37.052l-16.825-1.827L840.258,18.1l-2.091,19.325.144-.012L796.2,81.976l2.8,2.656,42.015-44.443Z" transform="translate(-713.948 -0.578)"/><path class="c" d="M847.04,30.888,848.783,20,838,22.356,836.26,33.244Z" transform="translate(-705.864 -0.194)"/><path class="c" d="M745.84,118.49l16.813,1.815,2.836,17.138,2.091-19.325h-.132L809.56,73.566l-2.812-2.656-42.015,44.443Z" transform="translate(-724.111 10.08)"/><path class="c" d="M750.123,115.694l-1.743,10.888,10.768-2.344,1.743-10.888Z" transform="translate(-723.599 18.644)"/><path class="c" d="M794.6,8.26,784.61,21.913l-16.26-6.105,15.7,11.477.072-.12L801.64,85.909l3.7-1.106L787.855,26.191Z" transform="translate(-719.569 -2.563)"/><path class="c" d="M786.028,10.478,777.471,3.52,774.13,14.036l8.557,6.946Z" transform="translate(-718.402 -3.52)"/><path class="c" d="M806.664,149.137l9.987-13.653,16.26,6.105-15.7-11.465-.072.12L799.622,71.5l-3.7,1.106,17.486,58.6Z" transform="translate(-714.005 10.199)"/><path class="c" d="M811.02,136.814l8.557,6.958,3.341-10.5-8.557-6.958Z" transform="translate(-710.958 21.26)"/><path class="c" d="M793.945,127.611l-9.615-25.238L758.54,94.188l17.09-20.972-5.817-26.44,26.7,4.29L816.5,32.8l9.614,25.3,25.8,8.184L834.807,87.254l5.817,26.44-26.716-4.314Zm4.519-18.952L810.482,97.7l15.984,2.644L822.981,84.49l10.251-12.595-15.467-4.9-5.793-15.227L799.954,62.713,783.97,60.129l3.485,15.852L777.2,88.564l15.539,4.915Z" transform="translate(-721.548 2.389)"/></g><g class="b" transform="translate(1194.031)"><path class="c" d="M1097.184,24.872l-13.3-1.082-2.6-13.46-1.25,15.287h.108l-32.292,36.03,2.271,2.031,32.221-35.934Z" transform="translate(-982.568 2.085)"/><path class="c" d="M1087.069,20.169l1.154-8.629-8.449,2.079-1.154,8.629Z" transform="translate(-976.358 2.329)"/><path class="c" d="M1008.94,91.556l13.3,1.094,2.6,13.448,1.25-15.287-.108.012,32.293-36.03L1056,52.75,1023.782,88.7Z" transform="translate(-990.42 10.645)"/><path class="c" d="M1012.372,89.1l-1.142,8.629,8.449-2.079,1.154-8.629Z" transform="translate(-989.958 17.561)"/><path class="c" d="M1045.251,3.46l-7.6,10.985L1024.7,9.962l12.619,8.725.048-.1,15.059,45.981,2.9-.949-15.011-45.873Z" transform="translate(-987.24 0.698)"/><path class="c" d="M1038.524,5.312,1031.626,0l-2.416,8.365,6.9,5.3Z" transform="translate(-986.33)"/><path class="c" d="M1057.731,114.282l7.6-10.985,12.955,4.483-12.619-8.737-.048.108L1050.556,53.17l-2.9.937,15.01,45.885Z" transform="translate(-982.606 10.73)"/><path class="c" d="M1060.88,104.465l6.9,5.3,2.416-8.353-6.9-5.312Z" transform="translate(-979.938 19.394)"/><path class="c" d="M1002.6,34.77l5.708,12.066L997.95,55.814l13.869-6.574-.06-.084,47.351,9.951.625-2.993L1012.5,46.187Z" transform="translate(-992.638 7.017)"/><path class="c" d="M1001.582,39.43l-8.052,3.317,6.033,6.285,8.04-3.317Z" transform="translate(-993.53 7.957)"/><path class="c" d="M1105.614,76.8l-5.709-12.066,10.348-8.977L1096.4,62.315l.06.1L1049.1,52.46l-.625,2.98,47.231,9.927Z" transform="translate(-982.441 10.587)"/><path class="c" d="M1098.621,69.65l8.052-3.317-6.033-6.273-8.04,3.317Z" transform="translate(-973.537 12.121)"/><path class="c" d="M1083.686,85.851,1062.522,83l-15.383,14.818-8.124-19.758L1018.5,72.151l13.052-16.909-5.144-20.731,21.164,2.848,15.383-14.818,8.124,19.782,20.515,5.913-13.04,16.921Zm-11.453-10.263-3.089-12.439,7.836-10.143L1064.661,49.4l-4.867-11.85-9.23,8.893-12.7-1.707,3.089,12.439-7.836,10.143,12.318,3.545,4.807,11.85,9.23-8.881Z" transform="translate(-988.491 4.549)"/></g><g class="b" transform="translate(1315.702 234.521)"><path class="c" d="M1129.17,228.881l.817.733,6.057-1.911V225.72l-6.634,2.091Z" transform="translate(-1087.828 -188.969)"/><path class="c" d="M1119.56,231.76l-13.713,4.339-8.857-3.161,6.778,4.783-2.872,8.028,5.516-7.788-.06-.036,13.833-4.375.144-.973Z" transform="translate(-1094.322 -187.75)"/><path class="c" d="M1128.839,229.025l-.817-.745-7.511,2.38.769.817-.144.973,7.463-2.356Z" transform="translate(-1089.576 -188.452)"/><path class="c" d="M1098.111,235.75,1094.77,240l5.18,1.562,3.353-4.254Z" transform="translate(-1094.77 -186.945)"/><path class="c" d="M1129.54,196.93l3.99,8.677.06-.048-3.161,14.326.793.625,1.07-.252,3.137-14.217.541-.457v-2.572l-.913.421Z" transform="translate(-1087.753 -194.779)"/><path class="c" d="M1128.936,229.389h0l.5.469.24-1.07,1.658-7.523-1.058.252-.793-.637-1.658,7.5Z" transform="translate(-1088.098 -189.945)"/><path class="c" d="M1134.567,202.8l.793-.733V195.14l-2.8,2.632Z" transform="translate(-1087.144 -195.14)"/><path class="c" d="M1128.27,229.357h0l-.5-.457-.24,1.07-1.695,7.656.986-.228.865.673,1.695-7.692Z" transform="translate(-1088.502 -188.327)"/><path class="c" d="M1126.485,241.06l-3.113,14.085-7.163,6.081,7.535-3.473,5.516,6.49-3.99-8.665-.06.036,3.113-14.109-.853-.685Z" transform="translate(-1090.443 -185.921)"/><path class="c" d="M1119.1,259.444l2.007,5.024,3.942-3.714-2.007-5.024Z" transform="translate(-1089.86 -182.913)"/><path class="c" d="M1122.98,222.573l-10.672-9.759-1.683-9.254-.769,8.268-8.377,1.526,9.494.877v-.072l10.792,9.867.877-.349Z" transform="translate(-1093.416 -193.441)"/><path class="c" d="M1128.534,230.145l.5.457h0l-.2-.18,1.274-1.406-1.106-1.01-5.757-5.276-.337,1.118-.889.349,5.7,5.2Z" transform="translate(-1089.271 -189.572)"/><path class="c" d="M1108.9,210.955l-1.238-5.276-5.36-.769,1.238,5.276Z" transform="translate(-1093.25 -193.168)"/><path class="c" d="M1129.469,228.429l-.5-.469h0l-1.274,1.406.2.18,1.106,1.022,5.721,5.228.264-.913,1.082-.421-5.781-5.3Z" transform="translate(-1088.127 -188.517)"/><path class="c" d="M1135.4,217.93l-.793-.625-9.639-7.6-3.473,11.621-.336,1.106-.877.349-11.453,4.579,8.341,8.845.769.817-.144.973-1.755,12.174,11.934-2.836.985-.24.854.685,9.578,7.547.757-2.512V238.025l-.276.12-1.082.421-.264.913-2.019,6.73-5.4-4.266-.865-.673-.986.228-6.766,1.61,1-6.91.144-.973-.769-.817-4.7-4.987,6.514-2.6.889-.349.336-1.118,1.947-6.526,5.468,4.3.793.637,1.058-.252,4.976-1.178v-5.528l-3.677.865Z" transform="translate(-1091.933 -192.2)"/></g><g class="b" transform="translate(0 98.224)"><path class="c" d="M33.057,128.458,49.75,111.464l15.287-2.319-13.556-1.61L49.354,93.87l-1.875,15.371.108-.012L30.87,126.247l.637,1.707Z" transform="translate(6.23 -79.28)"/><path class="c" d="M18.313,137.318l1.755.433,8.785-8.941-1.55-.5-.625-1.695-8.857,9Z" transform="translate(3.596 -72.673)"/><path class="c" d="M48.87,105.94l8.725-1.767,1.514-8.653-8.725,1.767Z" transform="translate(9.862 -78.947)"/><path class="c" d="M17.958,137.723l-1.743-.433L7.19,146.472l1.755.565.553,1.5,8.953-9.11Z" transform="translate(1.451 -70.518)"/><path class="c" d="M3.557,151.285l-1.743-.565L0,152.559v4.423L4.11,152.8Z" transform="translate(0 -67.807)"/><path class="c" d="M5.648,100.568l6.61,22.87,1.646.288,1.346-1.178L8.677,99.835,14.289,85.63,6.093,96.4,0,94.055v2.488l5.588,4.122Z" transform="translate(0 -80.943)"/><path class="c" d="M18.3,137.56h0l1.094.264-.493-1.707L15.43,124.1l-1.346,1.178L12.45,125l3.461,11.97Z" transform="translate(2.512 -73.179)"/><path class="c" d="M8.3,87.342,1.466,81.73,0,86.081v5.084l5.5,4.519Z" transform="translate(0 -81.73)"/><path class="c" d="M17.244,137.914h0l-1.094-.264.493,1.707,3.545,12.234,1.238-1.094,1.779.3-3.557-12.282Z" transform="translate(3.259 -70.445)"/><path class="c" d="M21.75,157.194l6.5,22.486-5.612,14.205,8.2-10.768L43.9,188.14,31.34,178.85l-.048.1L24.767,156.4,23,156.1Z" transform="translate(4.389 -66.722)"/><path class="c" d="M27.47,188.169l6.85,5.612,2.8-8.329-6.838-5.612Z" transform="translate(5.544 -61.931)"/><path class="c" d="M18.511,138.742l1.094.264h0l-.445-.108.757-2.98-2.392-.589L5.063,132.24l.385,1.839-1,1.178,12.319,3.053Z" transform="translate(0.898 -71.537)"/><path class="c" d="M37.322,143.441l23.171,5.733,9.675,11.9-5.36-12.391,10.936-8.641-14.434,6.081.06.1L38.224,140.5l-1.214,1.442Z" transform="translate(7.469 -69.963)"/><path class="c" d="M18.541,135.564l-1.094-.264h0l-.757,2.98.445.108,2.4.6,12.355,3.053-.312-1.514,1.214-1.43L20.3,136Z" transform="translate(3.368 -70.919)"/><path class="c" d="M61.49,147.951l5.913,6.562,8.353-3.041-5.913-6.562Z" transform="translate(12.409 -68.98)"/><path class="c" d="M3.557,160.431l.553,1.514,6.958,18.724,15.071-13.244,1.25-1.094,1.767.3,19.758,3.389-4.122-19.589-.312-1.5,1.214-1.442L58.48,132.393l-19.193-6.261-1.55-.5L37.1,123.92,30.213,105.4,15.251,118.56,13.9,119.738l-1.646-.288L0,117.346v29.637l5.348-6.309,1-1.178-.385-1.839L3.69,126.84l11.273,1.935,1.634.276,1.346-1.178,8.449-7.427,3.882,10.444.625,1.695,1.55.5,10.9,3.557-7.187,8.485-1.214,1.43.312,1.514L37.6,159.229l-11.141-1.923-1.779-.3L23.447,158.1,14.9,165.611l-3.954-10.636-.553-1.5-1.755-.565L0,150.083v9.194l1.815.589Z" transform="translate(0 -76.953)"/></g><g class="b" transform="translate(0.036 253.834)"><path class="c" d="M10.187,243.994l1.046-.2,2.392-7.043-.949.12-.769-.757L9.49,243.2Z" transform="translate(1.879 -206.185)"/><path class="c" d="M14.769,235.906l4.543-13.388,7.559-5.1-7.643,2.548-4.615-6.85,2.92,8.773.06-.036L13.05,235.269l.769.757Z" transform="translate(2.598 -210.825)"/><path class="c" d="M17.21,214.359l1.406,5.048,4.194-3.149L21.4,211.21Z" transform="translate(3.437 -211.21)"/><path class="c" d="M10.1,244.35l-1.046.2L6.6,251.777l1.07-.132.685.673,2.44-7.175Z" transform="translate(1.296 -204.522)"/><path class="c" d="M6.291,277.718l-2.932-8.773-.06.036,4.519-13.328-.673-.673-1.082.132L1.58,268.32.03,269.366v2.055l1.634-.553Z" transform="translate(-0.03 -202.377)"/><path class="c" d="M1.436,268.99.03,270.048v6.105l2.812-2.115Z" transform="translate(-0.03 -199.55)"/><path class="c" d="M10.594,243.878h0l.649-.132-.7-.793L5.63,237.34l-.421.973-.949.264,4.9,5.588Z" transform="translate(0.824 -205.937)"/><path class="c" d="M2.253,235.2l.409-.973L.03,231.21V234L1.3,235.464Z" transform="translate(-0.03 -207.174)"/><path class="c" d="M17.44,253.59l9.206,10.5.649,9.086,1.61-7.884,8.232-.577-9.062-1.851v.072l-9.23-10.54-1.022.276Z" transform="translate(3.483 -202.898)"/><path class="c" d="M10.159,244.288h0l-.649.132.7.793,5.012,5.721.385-.913,1.022-.276L11.589,244Z" transform="translate(1.883 -204.593)"/><path class="c" d="M27.56,263.69l.637,5.2,5.072,1.31-.625-5.2Z" transform="translate(5.526 -200.619)"/><path class="c" d="M10.991,244.667l.649-.132h0l-.264.048-.361-1.8-1.43.288L2.17,244.547l.673.889-.228.889,7.331-1.454Z" transform="translate(0.402 -204.839)"/><path class="c" d="M22.183,243.773l13.8-2.74,8.2,3.99-6.021-5.336,3.617-7.427-6.141,6.922.06.036-13.785,2.74-.276,1.082Z" transform="translate(4.329 -206.962)"/><path class="c" d="M10.179,242.953l-.649.132h0l.361,1.8.264-.048,1.43-.288,7.355-1.466-.553-.733.288-1.082-7.451,1.478Z" transform="translate(1.887 -205.144)"/><path class="c" d="M36.15,238.838l4.831,2.055,3.666-3.75L39.828,235.1Z" transform="translate(7.259 -206.389)"/><path class="c" d="M7.145,261.1l.673.673,8.5,8.365,4.639-10.948.385-.913L22.36,258l11.381-3.149-7.2-9.542-.553-.733.276-1.082,2.956-11.369L17.4,233.577l-.949.12-.769-.757-8.4-8.28L2.662,235.548l-.409.973-.949.264-1.274.349v5.408l5.084-1.406.949-.264.421-.973,2.6-6.141,4.735,4.663.769.757.949-.12,6.718-.829-1.658,6.394L20.3,245.7l.553.733,4.1,5.432-6.418,1.779-1.022.276-.385.913-2.632,6.2-4.819-4.747L9,255.619l-1.07.132-6.586.817,1.707-6.586.228-.889L2.6,248.2.03,244.79v17.186l6.033-.745Z" transform="translate(-0.03 -208.496)"/></g></g></svg>