<svg width="21" height="15" viewBox="0 0 21 15" fill="none" xmlns="http://www.w3.org/2000/svg">
<path d="M6.64005 1.22982C6.539 1.14562 6.42234 1.08218 6.29673 1.04313C6.17113 1.00409 6.03906 0.990207 5.90808 1.00228C5.7771 1.01436 5.6498 1.05216 5.53345 1.11351C5.4171 1.17486 5.314 1.25856 5.23005 1.35982L0.230051 7.35982C0.0829695 7.53875 0.00256348 7.7632 0.00256348 7.99482C0.00256348 8.22645 0.0829695 8.45089 0.230051 8.62982L5.06005 14.6298C5.15417 14.7458 5.27309 14.8393 5.40807 14.9033C5.54305 14.9674 5.69066 15.0003 5.84005 14.9998C6.02929 15.0005 6.21482 14.9474 6.3751 14.8468C6.53538 14.7462 6.66382 14.6022 6.7455 14.4315C6.82719 14.2608 6.85876 14.0704 6.83655 13.8825C6.81435 13.6946 6.73927 13.5168 6.62005 13.3698L2.29005 7.99982L6.77005 2.63982C6.85425 2.53877 6.91769 2.42211 6.95674 2.2965C6.99578 2.1709 7.00966 2.03883 6.99759 1.90785C6.98551 1.77687 6.94772 1.64956 6.88636 1.53322C6.82501 1.41687 6.74131 1.31377 6.64005 1.22982ZM19.7801 7.36982L15.0001 1.36982C14.9175 1.26709 14.8155 1.18169 14.6999 1.11852C14.5842 1.05534 14.4573 1.01564 14.3262 1.0017C14.1952 0.987766 14.0627 0.99986 13.9364 1.03729C13.81 1.07472 13.6923 1.13675 13.5901 1.21982C13.4873 1.30234 13.4019 1.40435 13.3387 1.51999C13.2756 1.63563 13.2359 1.76261 13.2219 1.89364C13.208 2.02467 13.2201 2.15716 13.2575 2.2835C13.295 2.40984 13.357 2.52753 13.4401 2.62982L17.7101 7.99982L13.2301 13.3698C13.1458 13.4709 13.0824 13.5875 13.0434 13.7131C13.0043 13.8387 12.9904 13.9708 13.0025 14.1018C13.0146 14.2328 13.0524 14.3601 13.1137 14.4764C13.1751 14.5928 13.2588 14.6959 13.3601 14.7798C13.5413 14.9253 13.7676 15.0031 14.0001 14.9998C14.147 15.0001 14.2921 14.9679 14.4252 14.9057C14.5583 14.8435 14.676 14.7527 14.7701 14.6398L19.7701 8.63982C19.9185 8.46205 20.0007 8.23824 20.0025 8.00661C20.0044 7.77498 19.9257 7.54991 19.7801 7.36982Z" fill="white"/>
</svg>
