<svg width="22" height="22" viewBox="0 0 22 22" fill="none" xmlns="http://www.w3.org/2000/svg">
<path d="M21.0361 0.964472C20.0993 0.0276444 18.4631 0.0259893 17.5246 0.964472L15.7693 2.71978L15.761 2.72806H3.54753C1.72187 2.72806 0.237183 4.21275 0.237183 6.0384V18.4522C0.237183 20.2779 1.72187 21.7625 3.54753 21.7625H15.9613C17.787 21.7625 19.2717 20.2779 19.2717 18.4522V6.23868L19.2799 6.2304L21.0353 4.47509C21.5037 4.00668 21.7627 3.38268 21.7627 2.71978C21.7627 2.05606 21.5037 1.43206 21.0361 0.964472ZM11.849 11.3209L10.3859 11.6139L10.6788 10.1507L16.9387 3.89082L18.1089 5.06102L11.849 11.3209ZM3.54753 4.38323H14.1059L10.7955 7.69358H1.89235V6.0384C1.89235 5.12558 2.63553 4.38323 3.54753 4.38323ZM15.9613 20.1074H3.54753C2.6347 20.1074 1.89235 19.365 1.89235 18.4522V9.34875H9.19001C9.1507 9.42116 9.12226 9.49896 9.1056 9.57965L8.52049 12.5052C8.49434 12.6386 8.50141 12.7764 8.54106 12.9065C8.58072 13.0365 8.65174 13.1549 8.74789 13.251C8.84404 13.3472 8.96236 13.4182 9.09242 13.4578C9.22248 13.4975 9.3603 13.5046 9.49374 13.4784L12.4193 12.8933C12.5793 12.8609 12.7263 12.7824 12.8421 12.6674L16.1616 9.34792H17.6165V18.4514C17.6161 18.8903 17.4416 19.3111 17.1313 19.6216C16.821 19.932 16.4002 20.1067 15.9613 20.1074ZM19.865 3.30489L19.2799 3.88999L18.1097 2.71978L18.6948 2.13468C18.8525 1.98414 19.0621 1.90022 19.2801 1.90037C19.4981 1.90053 19.7076 1.98475 19.865 2.13551C19.942 2.21217 20.0031 2.30329 20.0448 2.40362C20.0865 2.50396 20.108 2.61154 20.108 2.7202C20.108 2.82885 20.0865 2.93643 20.0448 3.03677C20.0031 3.13711 19.942 3.22822 19.865 3.30489Z" fill="white"/>
</svg>
