<svg width="20" height="14" viewBox="0 0 20 14" fill="none" xmlns="http://www.w3.org/2000/svg">
<path d="M7.49984 9.50033L5.0265 11.9737C4.75123 12.2489 4.40053 12.4363 4.01875 12.5122C3.63698 12.5881 3.24126 12.5492 2.88163 12.4002C2.522 12.2513 2.21461 11.999 1.99833 11.6754C1.78204 11.3517 1.66657 10.9712 1.6665 10.582V9.50033L2.79734 3.84699C2.94837 3.09134 3.35656 2.41137 3.95243 1.92275C4.54831 1.43414 5.29508 1.16707 6.06567 1.16699H13.934C14.7046 1.16707 15.4514 1.43414 16.0472 1.92275C16.6431 2.41137 17.0513 3.09134 17.2023 3.84699L18.3332 9.50033V10.5812C18.3331 10.9704 18.2176 11.3509 18.0013 11.6745C17.7851 11.9982 17.4777 12.2504 17.118 12.3994C16.7584 12.5483 16.3627 12.5873 15.9809 12.5114C15.5991 12.4355 15.2484 12.248 14.9732 11.9728L12.4998 9.50033H7.49984Z" stroke="#212527" stroke-width="2" stroke-linecap="round" stroke-linejoin="round"/>
<path d="M7.5 1.16699L8.33333 2.83366H11.6667L12.5 1.16699" stroke="#212527" stroke-width="2" stroke-linecap="round" stroke-linejoin="round"/>
</svg>
