<svg width="12" height="8" viewBox="0 0 12 8" fill="none" xmlns="http://www.w3.org/2000/svg">
<path d="M11.0198 0.27302C11.2125 0.455165 11.3249 0.706372 11.3324 0.971405C11.3399 1.23644 11.2419 1.4936 11.0598 1.68635L5.39313 7.68635C5.30129 7.78342 5.19092 7.8611 5.06856 7.91479C4.94619 7.96849 4.8143 7.99712 4.68068 7.99898C4.54707 8.00084 4.41443 7.97591 4.29061 7.92565C4.1668 7.87539 4.05431 7.80082 3.95979 7.70635L0.959795 4.70635C0.783155 4.51679 0.686991 4.26606 0.691562 4.00699C0.696133 3.74792 0.801082 3.50074 0.9843 3.31752C1.16752 3.13431 1.4147 3.02936 1.67377 3.02479C1.93283 3.02022 2.18356 3.11638 2.37313 3.29302L4.64646 5.56502L9.60646 0.31302C9.78861 0.120349 10.0398 0.00790167 10.3048 0.000400724C10.5699 -0.00710022 10.827 0.0909596 11.0198 0.27302Z" fill="black"/>
</svg>
