<svg xmlns="http://www.w3.org/2000/svg" width="24.544" height="24.544" viewBox="0 0 24.544 24.544"><defs><style>.a{fill:#fdbf00;}.b{fill:#ff9100;}.c{fill:#ffda2d;}</style></defs><path class="a" d="M12.272,0A12.272,12.272,0,1,0,24.544,12.272,12.314,12.314,0,0,0,12.272,0Z"/><path class="a" d="M268.272,12.272A12.314,12.314,0,0,1,256,24.544V0A12.314,12.314,0,0,1,268.272,12.272Z" transform="translate(-243.728)"/><g transform="translate(2.876 2.876)"><path class="b" d="M69.4,60a9.4,9.4,0,1,0,9.4,9.4A9.448,9.448,0,0,0,69.4,60Z" transform="translate(-60 -60)"/></g><path class="b" d="M265.4,69.4a9.448,9.448,0,0,1-9.4,9.4V60A9.448,9.448,0,0,1,265.4,69.4Z" transform="translate(-243.728 -57.124)"/><g transform="translate(7.239 7.239)"><path class="c" d="M158.91,153.876a4.686,4.686,0,0,0-.82.1,4.7,4.7,0,0,0,.1-.82,2.157,2.157,0,1,0-4.314,0,4.7,4.7,0,0,0,.1.82,4.686,4.686,0,0,0-.82-.1,2.157,2.157,0,1,0,0,4.314,4.7,4.7,0,0,0,.82-.1,4.7,4.7,0,0,0-.1.82,2.157,2.157,0,1,0,4.314,0,4.7,4.7,0,0,0-.1-.82,4.7,4.7,0,0,0,.82.1,2.157,2.157,0,1,0,0-4.314Z" transform="translate(-151 -151)"/></g><path class="a" d="M261.033,156.033a2.154,2.154,0,0,1-2.157,2.157,4.7,4.7,0,0,1-.82-.1,4.69,4.69,0,0,1,.1.82A2.154,2.154,0,0,1,256,161.067V151a2.154,2.154,0,0,1,2.157,2.157,4.69,4.69,0,0,1-.1.82,4.686,4.686,0,0,1,.82-.1A2.154,2.154,0,0,1,261.033,156.033Z" transform="translate(-243.728 -143.761)"/></svg>