<svg xmlns="http://www.w3.org/2000/svg" xmlns:xlink="http://www.w3.org/1999/xlink" width="42" height="42" viewBox="0 0 42 42"><defs><style>.a{fill:url(#a);}.b{fill:url(#b);}.c{fill:url(#e);}.d{fill:url(#f);}.e{fill:url(#g);}.f{fill:url(#h);}.g{fill:url(#i);}.h{fill:url(#j);}.i{fill:url(#k);}.j{filter:url(#c);}</style><linearGradient id="a" x1="0.146" y1="0.854" x2="0.854" y2="0.146" gradientUnits="objectBoundingBox"><stop offset="0" stop-color="#ff4c4c"/><stop offset="1" stop-color="#fff200"/></linearGradient><radialGradient id="b" cx="0.5" cy="0.5" r="0.5" gradientUnits="objectBoundingBox"><stop offset="0" stop-color="#ff4c4c"/><stop offset="0.108" stop-color="#ff544e" stop-opacity="0.886"/><stop offset="0.269" stop-color="#ff6853" stop-opacity="0.718"/><stop offset="0.464" stop-color="#ff895c" stop-opacity="0.514"/><stop offset="0.684" stop-color="#ffb767" stop-opacity="0.282"/><stop offset="0.923" stop-color="#fff276" stop-opacity="0.031"/><stop offset="0.954" stop-color="#fffa78" stop-opacity="0"/></radialGradient><filter id="c" x="0" y="0" width="42" height="42" filterUnits="userSpaceOnUse"><feOffset dy="3" input="SourceAlpha"/><feGaussianBlur stdDeviation="3" result="d"/><feFlood flood-opacity="0.161"/><feComposite operator="in" in2="d"/><feComposite in="SourceGraphic"/></filter><linearGradient id="e" x1="-0.369" y1="1.369" x2="0.985" y2="0.015" gradientUnits="objectBoundingBox"><stop offset="0" stop-color="#ffb11d"/><stop offset="1" stop-color="#feffd6"/></linearGradient><linearGradient id="f" x1="-0.085" y1="1.085" x2="1.005" y2="-0.005" gradientUnits="objectBoundingBox"><stop offset="0" stop-color="#ff8c00"/><stop offset="1" stop-color="#fffa78"/></linearGradient><radialGradient id="g" cx="0.5" cy="0.5" r="0.644" gradientUnits="objectBoundingBox"><stop offset="0" stop-color="#ffcb00" stop-opacity="0"/><stop offset="0.317" stop-color="#ffc800" stop-opacity="0.318"/><stop offset="0.541" stop-color="#ffbf00" stop-opacity="0.541"/><stop offset="0.736" stop-color="#ffaf00" stop-opacity="0.737"/><stop offset="0.914" stop-color="#ff9a00" stop-opacity="0.914"/><stop offset="1" stop-color="#ff8c00"/></radialGradient><linearGradient id="h" x1="-0.322" y1="1.322" x2="0.878" y2="0.122" xlink:href="#e"/><linearGradient id="i" x1="0.006" y1="1.001" x2="0.861" y2="-0.068" xlink:href="#e"/><linearGradient id="j" x1="-4.599" y1="1.251" x2="3.909" y2="-0.027" xlink:href="#f"/><linearGradient id="k" x1="-1.591" y1="1.128" x2="3.453" y2="-0.386" xlink:href="#f"/></defs><g transform="translate(9 5.4)"><circle class="a" cx="12" cy="12" r="12" transform="translate(0 0.6)"/><g class="j" transform="matrix(1, 0, 0, 1, -9, -5.4)"><circle class="b" cx="12" cy="12" r="12" transform="translate(9 6)"/></g><circle class="c" cx="9.621" cy="9.621" r="9.621" transform="translate(2.639 2.719)"/><circle class="d" cx="7.412" cy="7.412" r="7.412" transform="translate(4.848 4.928)"/><circle class="e" cx="7.412" cy="7.412" r="7.412" transform="translate(4.848 4.928)"/><circle class="f" cx="6.308" cy="6.308" r="6.308" transform="translate(5.952 6.032)"/><path class="g" d="M131.327,191.143a6.332,6.332,0,0,1-6.3-6.295,6.179,6.179,0,0,1,.358-2.045,6.184,6.184,0,0,0-1.1,3.505,6.3,6.3,0,0,0,12.265,2.039A6.386,6.386,0,0,1,131.327,191.143Z" transform="translate(-118.336 -173.968)"/><path class="h" d="M264.394,179.129h-.734q0,3.681,0,7.363h.734a.37.37,0,0,0,.368-.369q.009-3.311,0-6.623A.37.37,0,0,0,264.394,179.129Z" transform="translate(-251.034 -170.469)"/><path class="i" d="M227.457,186.119q0-3.313,0-6.626a.369.369,0,0,0-.367-.368h-1.467a.37.37,0,0,0-.368.369q-.009,3.311,0,6.623a.37.37,0,0,0,.368.369h1.467A.369.369,0,0,0,227.457,186.119Z" transform="translate(-214.463 -170.466)"/></g></svg>