<svg xmlns="http://www.w3.org/2000/svg" width="82.97" height="82.974" viewBox="0 0 82.97 82.974"><defs><style>.a{fill:#00429d;}.b{fill:#00347b;}.c,.j{fill:#7dd5f4;}.d,.l{fill:#4793ff;}.e{fill:#ca75f5;}.f{fill:#fdbf00;}.g,.k{fill:#ff8856;}.h{fill:#bee75e;}.h,.i,.j,.k,.l,.m,.p{fill-rule:evenodd;}.i,.n{fill:#d98ff8;}.m,.o{fill:#ff435b;}.p{fill:#00cb75;}.q{fill:#525cdd;}</style></defs><g transform="translate(-0.01 0)"><g transform="translate(0.011 73.689)"><path class="a" d="M2.441,464.015a2.431,2.431,0,0,1-1.719-4.15l4.419-4.419a2.431,2.431,0,1,1,3.438,3.438L4.16,463.3A2.424,2.424,0,0,1,2.441,464.015Z" transform="translate(-0.011 -454.735)"/></g><path class="b" d="M4.671,467.249a2.427,2.427,0,0,0,3.394-.039l4.419-4.419a2.429,2.429,0,0,0,.039-3.394Z" transform="translate(-3.905 -384.951)"/><g transform="translate(0.509 45.914)"><path class="c" d="M3.139,303.1a7.253,7.253,0,0,1,1.583-2.372L6.452,299l3.286-.107L9.9,295.55l3.42-3.42,2.579-.352.827-3.055,3.5-3.5s4.166-2.627,5.115-1.677l14.094,14.094c.949.949-1.719,5.156-1.719,5.156l-3.448,3.448-3.044.349-.39,3.085-3.413,3.413-2.73.035-.735,3.43-1.709,1.709a7.255,7.255,0,0,1-2.158,1.491c-.95.427-18.044-14.01-16.957-16.652Z" transform="translate(-3.089 -283.336)"/></g><path class="d" d="M71.59,328.346,49.817,350.119c4.312,3.955,8.952,7.567,9.434,7.351a7.254,7.254,0,0,0,2.158-1.491l1.709-1.709.735-3.43,2.73-.035L70,347.391l.39-3.085,3.044-.349,3.448-3.448s2.668-4.207,1.719-5.156Z" transform="translate(-41.735 -275.138)"/><path class="d" d="M0,0H4.861V24.793H0Z" transform="translate(10.729 54.711) rotate(-45)"/><path class="d" d="M113.785,280.93a2.431,2.431,0,0,0-3.438,0l-1.718,1.718,17.532,17.532,1.718-1.718a2.431,2.431,0,0,0,0-3.438Z" transform="translate(-91.017 -234.81)"/><path class="d" d="M.74,402.931a7.308,7.308,0,0,0,.971,7.846l8.139,8.139a7.3,7.3,0,0,0,7.845.97Z" transform="translate(-0.006 -337.637)"/><path class="d" d="M0,0H4.861V24.794H0Z" transform="translate(3.854 61.585) rotate(-45)"/><g transform="translate(38.004 42.405)"><path class="e" d="M277.014,275.3a2.422,2.422,0,0,1-1.695-.688,28.372,28.372,0,0,0-19.886-8.076,28.7,28.7,0,0,0-17.078,5.678,2.431,2.431,0,0,1-2.911-3.894,33.6,33.6,0,0,1,19.989-6.646,33.209,33.209,0,0,1,23.275,9.452,2.431,2.431,0,0,1-1.695,4.173Z" transform="translate(-234.469 -261.679)"/></g><g transform="translate(18.605 9.642)"><path class="f" d="M125.853,91.937a2.431,2.431,0,0,1-1.955-3.872,15.476,15.476,0,0,0-7.491-23.831,2.431,2.431,0,1,1,1.562-4.6,20.337,20.337,0,0,1,9.844,31.318A2.427,2.427,0,0,1,125.853,91.937Z" transform="translate(-114.756 -59.501)"/></g><g transform="translate(44.521 0)"><path class="g" d="M277.11,29.845a2.431,2.431,0,0,1-1.719-4.15c2.317-2.317,5.507-2.893,8.322-3.4,2.318-.419,4.508-.814,5.749-2.055s1.636-3.43,2.055-5.749c.508-2.815,1.085-6.006,3.4-8.322,2.852-2.852,6.623-3.774,10.27-4.666A37.949,37.949,0,0,0,309.829.165,2.431,2.431,0,0,1,311.587,4.7a42.066,42.066,0,0,1-5.244,1.527c-3.135.767-6.1,1.491-7.987,3.381-1.24,1.241-1.636,3.43-2.055,5.749-.508,2.815-1.085,6.006-3.4,8.322s-5.507,2.893-8.322,3.4c-2.318.419-4.508.814-5.749,2.055a2.424,2.424,0,0,1-1.719.712Z" transform="translate(-274.68 0)"/></g><g transform="translate(2.927 3.728)"><path class="h" d="M321.441,31.866a2.431,2.431,0,1,0-2.431-2.431A2.435,2.435,0,0,0,321.441,31.866Z" transform="translate(-270.233 -26.357)"/><path class="i" d="M35.919,189.8a2.431,2.431,0,1,0-2.431-2.431A2.435,2.435,0,0,0,35.919,189.8Z" transform="translate(-30.98 -158.701)"/><path class="j" d="M20.441,27.866a2.431,2.431,0,1,0-2.431-2.431A2.435,2.435,0,0,0,20.441,27.866Z" transform="translate(-18.01 -23.005)"/><path class="k" d="M352.441,345.865a2.431,2.431,0,1,0-2.431-2.431A2.435,2.435,0,0,0,352.441,345.865Z" transform="translate(-296.21 -289.472)"/><path class="l" d="M439.441,482.865a2.431,2.431,0,1,0-2.431-2.431A2.435,2.435,0,0,0,439.441,482.865Z" transform="translate(-369.111 -404.272)"/><path class="m" d="M236.441,466.867a2.431,2.431,0,1,0-2.431-2.431A2.435,2.435,0,0,0,236.441,466.867Z" transform="translate(-199.007 -390.865)"/></g><g transform="translate(37.005 0)"><path class="n" d="M233.374,15.8c-.067,0-.135,0-.2-.008a2.431,2.431,0,0,1-2.222-2.623,15.578,15.578,0,0,0-2.282-9.449A2.431,2.431,0,1,1,232.8,1.149a20.472,20.472,0,0,1,3,12.417A2.431,2.431,0,0,1,233.374,15.8Z" transform="translate(-228.3 -0.002)"/></g><g transform="translate(59.134 28.961)"><path class="o" d="M367.287,185.169a2.431,2.431,0,0,1-.769-4.738,33.521,33.521,0,0,1,15.873-1.287,2.431,2.431,0,1,1-.774,4.8,28.628,28.628,0,0,0-13.561,1.1A2.425,2.425,0,0,1,367.287,185.169Z" transform="translate(-364.855 -178.722)"/></g><path class="j" d="M254.675,235.292a2.431,2.431,0,1,0-2.431-2.431A2.435,2.435,0,0,0,254.675,235.292Z" transform="translate(-211.359 -193.089)"/><path class="p" d="M465.441,84.866a2.431,2.431,0,1,0-2.431-2.431A2.436,2.436,0,0,0,465.441,84.866Z" transform="translate(-387.971 -67.041)"/><g transform="translate(56.356 0.754)"><path class="o" d="M347.718,116.128a10.526,10.526,0,0,0,9.414-9.414Z" transform="translate(-347.718 -90.176)"/><path class="o" d="M480.687,4.657,475.43,9.914A36.161,36.161,0,0,0,479.806,8.6a2.43,2.43,0,0,0,.881-3.943Z" transform="translate(-454.734 -4.657)"/></g><path class="l" d="M260.009,234.761l-3.434,3.434a2.428,2.428,0,1,0,3.434-3.434Z" transform="translate(-214.988 -196.718)"/><path class="q" d="M166.406,328.346l-3.437,3.437,8.726,8.726,1.718-1.718a2.431,2.431,0,0,0,0-3.438Z" transform="translate(-136.551 -275.138)"/><path class="q" d="M0,0H4.861V12.34H0Z" transform="translate(19.533 63.517) rotate(-45)"/><path class="q" d="M0,0H4.861V12.34H0Z" transform="translate(12.658 70.391) rotate(-45)"/><path class="q" d="M35.82,458.93l4.03,4.03a7.3,7.3,0,0,0,7.845.97l-8.437-8.437Z" transform="translate(-30.007 -381.681)"/></g></svg>