<svg width="22" height="23" viewBox="0 0 22 23" fill="none" xmlns="http://www.w3.org/2000/svg">
<path fill-rule="evenodd" clip-rule="evenodd" d="M11 2.5C15.9706 2.5 20 6.52944 20 11.5C20 16.4706 15.9706 20.5 11 20.5C6.02944 20.5 2 16.4706 2 11.5C2 6.52944 6.02944 2.5 11 2.5ZM22 11.5C22 5.42487 17.0751 0.5 11 0.5C4.92487 0.5 0 5.42487 0 11.5C0 17.5751 4.92487 22.5 11 22.5C17.0751 22.5 22 17.5751 22 11.5Z" fill="currentColor" />
<path fill-rule="evenodd" clip-rule="evenodd" d="M13.2071 6.79289C12.8166 6.40237 12.1834 6.40237 11.7929 6.79289L7.79289 10.7929C7.40237 11.1834 7.40237 11.8166 7.79289 12.2071L11.7929 16.2071C12.1834 16.5976 12.8166 16.5976 13.2071 16.2071C13.5976 15.8166 13.5976 15.1834 13.2071 14.7929L9.91421 11.5L13.2071 8.20711C13.5976 7.81658 13.5976 7.18342 13.2071 6.79289Z" fill="currentColor" />
</svg>
