<svg width="22" height="23" viewBox="0 0 22 23" fill="none" xmlns="http://www.w3.org/2000/svg">
<path fill-rule="evenodd" clip-rule="evenodd" d="M11 2.5C6.02944 2.5 2 6.52944 2 11.5C2 16.4706 6.02944 20.5 11 20.5C15.9706 20.5 20 16.4706 20 11.5C20 6.52944 15.9706 2.5 11 2.5ZM0 11.5C0 5.42487 4.92487 0.5 11 0.5C17.0751 0.5 22 5.42487 22 11.5C22 17.5751 17.0751 22.5 11 22.5C4.92487 22.5 0 17.5751 0 11.5Z" fill="currentColor"/>
<path fill-rule="evenodd" clip-rule="evenodd" d="M8.79289 6.79289C9.18342 6.40237 9.81658 6.40237 10.2071 6.79289L14.2071 10.7929C14.5976 11.1834 14.5976 11.8166 14.2071 12.2071L10.2071 16.2071C9.81658 16.5976 9.18342 16.5976 8.79289 16.2071C8.40237 15.8166 8.40237 15.1834 8.79289 14.7929L12.0858 11.5L8.79289 8.20711C8.40237 7.81658 8.40237 7.18342 8.79289 6.79289Z" fill="currentColor"/>
</svg>
