<svg width="24" height="22" viewBox="0 0 24 22" fill="none" xmlns="http://www.w3.org/2000/svg">
<path d="M21.0449 20.0948C21.0449 19.3518 20.4436 18.7505 19.7006 18.7505H4.29941C3.55636 18.7505 2.95508 19.3518 2.95508 20.0948C2.95508 20.8379 3.55636 21.4392 4.29941 21.4392H19.7006C20.4436 21.4392 21.0449 20.8354 21.0449 20.0948Z" fill="url(#paint0_linear_1172_7675)"/>
<path d="M1.59848 9.21315C1.62048 9.21315 1.64004 9.21315 1.66203 9.21071L3.79341 16.9247H12.0012H20.2065L22.3378 9.21071C22.3598 9.21071 22.3794 9.21315 22.4014 9.21315C23.2838 9.21315 23.9999 8.49699 23.9999 7.61462C23.9999 6.73225 23.2837 6.01609 22.4014 6.01609C21.519 6.01609 20.8029 6.73225 20.8029 7.61462C20.8029 7.78572 20.8298 7.95192 20.8811 8.10591L17.0265 10.3595L12.8835 3.49119C13.3137 3.20521 13.5997 2.71392 13.5997 2.15908C13.5997 1.27671 12.8835 0.560547 12.0012 0.560547C11.1188 0.560547 10.4027 1.27671 10.4027 2.15908C10.4027 2.71637 10.6862 3.20521 11.1188 3.49119L6.97586 10.3595L3.12129 8.10591C3.17018 7.95192 3.19951 7.78572 3.19951 7.61462C3.19951 6.73225 2.48335 6.01609 1.60098 6.01609C0.716162 6.01609 0 6.73225 0 7.61462C0 8.49699 0.716113 9.21315 1.59848 9.21315Z" fill="url(#paint1_linear_1172_7675)"/>
<defs>
<linearGradient id="paint0_linear_1172_7675" x1="21.0449" y1="20.0948" x2="2.95508" y2="20.0948" gradientUnits="userSpaceOnUse">
<stop stop-color="#FF423D"/>
<stop offset="1" stop-color="#FFAE00"/>
</linearGradient>
<linearGradient id="paint1_linear_1172_7675" x1="23.9999" y1="8.74263" x2="8.38188e-08" y2="8.74263" gradientUnits="userSpaceOnUse">
<stop stop-color="#FF423D"/>
<stop offset="1" stop-color="#FFAE00"/>
</linearGradient>
</defs>
</svg>
