<svg xmlns="http://www.w3.org/2000/svg" width="24.592" height="23.968" viewBox="0 0 24.592 23.968"><defs><style>.a{fill:#595959;}</style></defs><g transform="translate(0 -6.197)"><g transform="translate(0 6.197)"><path class="a" d="M24.334,17.057a2.576,2.576,0,0,0-1.2-1.2L3.7,6.455A2.576,2.576,0,0,0,.185,9.731l3.38,8.449-3.38,8.45A2.577,2.577,0,0,0,3.7,29.907L23.138,20.5A2.576,2.576,0,0,0,24.334,17.057ZM2.952,28.359A.859.859,0,0,1,1.78,27.267l3.291-8.228H22.213ZM5.071,17.321,1.78,9.093A.858.858,0,0,1,2.952,8l19.262,9.318Z" transform="translate(0 -6.197)"/></g></g></svg>