<svg width="17" height="16" viewBox="0 0 17 16" fill="none" xmlns="http://www.w3.org/2000/svg">
<path d="M3.62256 1.33333H6.50923C6.66758 1.33338 6.82001 1.39354 6.93572 1.50164C7.05143 1.60975 7.12179 1.75775 7.13258 1.91573C7.14337 2.07372 7.0938 2.22991 6.99386 2.35275C6.89393 2.47559 6.7511 2.55592 6.59422 2.5775L6.50923 2.58333H3.62256C3.14745 2.58327 2.69004 2.76358 2.34276 3.08781C1.99549 3.41204 1.78424 3.85601 1.75173 4.33L1.74756 4.45833V12.375C1.7475 12.8501 1.9278 13.3075 2.25203 13.6548C2.57626 14.0021 3.02023 14.2133 3.49423 14.2458L3.62256 14.25H11.5392C12.0143 14.2501 12.4717 14.0698 12.819 13.7455C13.1663 13.4213 13.3775 12.9773 13.4101 12.5033L13.4142 12.375V11.96C13.4128 11.8006 13.4724 11.6467 13.5807 11.5298C13.6891 11.4128 13.838 11.3417 13.997 11.331C14.1561 11.3202 14.3132 11.3706 14.4363 11.4719C14.5594 11.5732 14.6391 11.7177 14.6592 11.8758L14.6642 11.96V12.375C14.6643 13.175 14.3576 13.9446 13.8072 14.5252C13.2568 15.1058 12.5048 15.4532 11.7059 15.4958L11.5392 15.5H3.62256C2.82256 15.5001 2.053 15.1933 1.4724 14.643C0.891807 14.0926 0.544392 13.3405 0.501725 12.5417L0.497559 12.375V4.45833C0.497487 3.65834 0.804227 2.88878 1.35459 2.30818C1.90496 1.72758 2.65703 1.38017 3.45589 1.3375L3.62256 1.33333ZM10.0834 3.43333V1.125C10.0833 1.01004 10.115 0.897284 10.1748 0.79914C10.2347 0.700996 10.3205 0.621266 10.4227 0.568719C10.525 0.516173 10.6397 0.492846 10.7544 0.501305C10.869 0.509765 10.9791 0.549682 11.0726 0.616667L11.1409 0.674167L16.1359 5.46583C16.3692 5.68917 16.3909 6.04917 16.2001 6.29667L16.1359 6.3675L11.1409 11.1608C11.058 11.2405 10.9547 11.2957 10.8425 11.3205C10.7302 11.3453 10.6133 11.3386 10.5046 11.3012C10.3959 11.2638 10.2996 11.1972 10.2263 11.1086C10.153 11.02 10.1056 10.913 10.0892 10.7992L10.0834 10.71V8.43917L9.79673 8.46417C7.79673 8.6725 5.88006 9.5725 4.03506 11.1808C3.60173 11.5583 2.93256 11.2017 3.00423 10.6325C3.55756 6.19917 5.87589 3.75583 9.83339 3.44917L10.0834 3.43333ZM11.3334 2.59083V4.04167C11.3334 4.20743 11.2675 4.3664 11.1503 4.48361C11.0331 4.60082 10.8742 4.66667 10.7084 4.66667C7.48006 4.66667 5.48006 6.06333 4.61506 8.96417L4.54923 9.19667L4.84256 8.99917C6.70839 7.78083 8.66506 7.16667 10.7092 7.16667C10.8603 7.16667 11.0062 7.22137 11.12 7.32064C11.2338 7.41991 11.3079 7.55704 11.3284 7.70667L11.3342 7.79167V9.24417L14.8001 5.91667L11.3334 2.59083Z" fill="url(#paint0_linear_1676_4391)"/>
<defs>
<linearGradient id="paint0_linear_1676_4391" x1="16.3287" y1="7.9998" x2="0.497559" y2="7.9998" gradientUnits="userSpaceOnUse">
<stop stop-color="#FF423D"/>
<stop offset="1" stop-color="#FFAE00"/>
</linearGradient>
</defs>
</svg>
