<svg width="14" height="17" viewBox="0 0 14 17" fill="none" xmlns="http://www.w3.org/2000/svg">
<path d="M12.75 7.74973C12.9312 7.74974 13.1063 7.81537 13.2429 7.9345C13.3795 8.05362 13.4684 8.21818 13.493 8.39773L13.5 8.49973V13.7497C13.5 14.45 13.2329 15.1239 12.7531 15.634C12.2733 16.1441 11.617 16.452 10.918 16.4947L10.75 16.4997H3.25C2.54971 16.4998 1.87579 16.2326 1.3657 15.7528C0.855612 15.273 0.547781 14.6167 0.505 13.9177L0.5 13.7497V8.49973C0.500058 8.30971 0.572245 8.12679 0.701973 7.98794C0.831701 7.84909 1.0093 7.76466 1.19888 7.75171C1.38846 7.73875 1.57589 7.79825 1.7233 7.91816C1.87071 8.03808 1.9671 8.20948 1.993 8.39773L2 8.49973V13.7497C2 14.3967 2.492 14.9297 3.122 14.9937L3.25 14.9997H10.75C11.0593 14.9996 11.3576 14.8849 11.5871 14.6776C11.8167 14.4704 11.9613 14.1854 11.993 13.8777L12 13.7497V8.49973C12 8.30082 12.079 8.11005 12.2197 7.9694C12.3603 7.82875 12.5511 7.74973 12.75 7.74973ZM2.227 4.96173L6.47 0.719732C6.59699 0.592715 6.76534 0.515487 6.94445 0.50209C7.12356 0.488694 7.30153 0.540019 7.446 0.646732L7.53 0.719732L11.773 4.96173C11.9089 5.09518 11.989 5.27533 11.9969 5.46563C12.0048 5.65594 11.9401 5.84213 11.8158 5.98643C11.6914 6.13073 11.5169 6.22233 11.3275 6.24263C11.1381 6.26293 10.9481 6.21041 10.796 6.09573L10.712 6.02273L7.75 3.05973V10.7497C7.74999 10.931 7.68436 11.1061 7.56523 11.2427C7.44611 11.3793 7.28155 11.4681 7.102 11.4927L7 11.4997C6.81876 11.4997 6.64366 11.4341 6.50707 11.315C6.37048 11.1958 6.28165 11.0313 6.257 10.8517L6.25 10.7497V3.05973L3.288 6.02273C3.16095 6.15001 2.9924 6.2274 2.81307 6.2408C2.63373 6.2542 2.45555 6.20272 2.311 6.09573L2.227 6.02273C2.09972 5.89569 2.02233 5.72714 2.00893 5.5478C1.99553 5.36846 2.04701 5.19028 2.154 5.04573L2.227 4.96173L6.47 0.719732L2.227 4.96173Z" fill="black"/>
</svg>
