<svg width="16" height="16" viewBox="0 0 16 16" fill="none" xmlns="http://www.w3.org/2000/svg">
<path d="M9.28745 11.7875L5.84995 15.225C5.67417 15.4006 5.43589 15.4992 5.18745 15.4992C4.93901 15.4992 4.70073 15.4006 4.52495 15.225L1.08745 11.7875C0.995339 11.7017 0.921462 11.5982 0.870222 11.4832C0.818982 11.3682 0.791429 11.244 0.789208 11.1182C0.786987 10.9923 0.810143 10.8672 0.857294 10.7505C0.904446 10.6338 0.974626 10.5277 1.06365 10.4387C1.15267 10.3497 1.25872 10.2795 1.37545 10.2323C1.49219 10.1852 1.61722 10.162 1.7431 10.1643C1.86898 10.1665 1.99312 10.194 2.10812 10.2453C2.22312 10.2965 2.32662 10.3704 2.41245 10.4625L4.24995 12.3V1.4375C4.24995 1.18886 4.34872 0.950403 4.52454 0.774587C4.70035 0.598772 4.93881 0.5 5.18745 0.5C5.43609 0.5 5.67455 0.598772 5.85036 0.774587C6.02618 0.950403 6.12495 1.18886 6.12495 1.4375V12.3L7.96245 10.4625C8.14017 10.2969 8.37522 10.2067 8.6181 10.211C8.86098 10.2153 9.09271 10.3137 9.26447 10.4855C9.43624 10.6572 9.53463 10.889 9.53892 11.1318C9.5432 11.3747 9.45305 11.6098 9.28745 11.7875ZM8.62495 0.5C8.37631 0.5 8.13785 0.598772 7.96204 0.774587C7.78622 0.950403 7.68745 1.18886 7.68745 1.4375C7.68745 1.68614 7.78622 1.9246 7.96204 2.10041C8.13785 2.27623 8.37631 2.375 8.62495 2.375H14.8749C15.1236 2.375 15.362 2.27623 15.5379 2.10041C15.7137 1.9246 15.8124 1.68614 15.8124 1.4375C15.8124 1.18886 15.7137 0.950403 15.5379 0.774587C15.362 0.598772 15.1236 0.5 14.8749 0.5H8.62495ZM8.62495 3.625C8.37631 3.625 8.13785 3.72377 7.96204 3.89959C7.78622 4.0754 7.68745 4.31386 7.68745 4.5625C7.68745 4.81114 7.78622 5.0496 7.96204 5.22541C8.13785 5.40123 8.37631 5.5 8.62495 5.5H12.3749C12.6236 5.5 12.862 5.40123 13.0379 5.22541C13.2137 5.0496 13.3124 4.81114 13.3124 4.5625C13.3124 4.31386 13.2137 4.0754 13.0379 3.89959C12.862 3.72377 12.6236 3.625 12.3749 3.625H8.62495ZM8.62495 6.75C8.37631 6.75 8.13785 6.84877 7.96204 7.02459C7.78622 7.2004 7.68745 7.43886 7.68745 7.6875C7.68745 7.93614 7.78622 8.1746 7.96204 8.35041C8.13785 8.52623 8.37631 8.625 8.62495 8.625H9.87495C10.1236 8.625 10.362 8.52623 10.5379 8.35041C10.7137 8.1746 10.8124 7.93614 10.8124 7.6875C10.8124 7.43886 10.7137 7.2004 10.5379 7.02459C10.362 6.84877 10.1236 6.75 9.87495 6.75H8.62495Z" fill="black"/>
</svg>
