<svg width="16" height="16" viewBox="0 0 16 16" fill="none" xmlns="http://www.w3.org/2000/svg">
<path d="M8.78745 11.7875L5.34995 15.225C5.17417 15.4006 4.93589 15.4992 4.68745 15.4992C4.43901 15.4992 4.20073 15.4006 4.02495 15.225L0.587448 11.7875C0.495339 11.7017 0.421462 11.5982 0.370222 11.4832C0.318982 11.3682 0.291429 11.244 0.289208 11.1182C0.286987 10.9923 0.310143 10.8672 0.357294 10.7505C0.404446 10.6338 0.474626 10.5277 0.56365 10.4387C0.652673 10.3497 0.758716 10.2795 0.875451 10.2323C0.992186 10.1852 1.11722 10.162 1.2431 10.1643C1.36898 10.1665 1.49312 10.194 1.60812 10.2453C1.72312 10.2965 1.82662 10.3704 1.91245 10.4625L3.74995 12.3V1.4375C3.74995 1.18886 3.84872 0.950403 4.02454 0.774587C4.20035 0.598772 4.43881 0.5 4.68745 0.5C4.93609 0.5 5.17455 0.598772 5.35036 0.774587C5.52618 0.950403 5.62495 1.18886 5.62495 1.4375V12.3L7.46245 10.4625C7.64017 10.2969 7.87522 10.2067 8.1181 10.211C8.36098 10.2153 8.59271 10.3137 8.76447 10.4855C8.93624 10.6572 9.03463 10.889 9.03892 11.1318C9.0432 11.3747 8.95305 11.6098 8.78745 11.7875ZM8.12495 0.5C7.87631 0.5 7.63785 0.598772 7.46204 0.774587C7.28622 0.950403 7.18745 1.18886 7.18745 1.4375C7.18745 1.68614 7.28622 1.9246 7.46204 2.10041C7.63785 2.27623 7.87631 2.375 8.12495 2.375H14.3749C14.6236 2.375 14.862 2.27623 15.0379 2.10041C15.2137 1.9246 15.3124 1.68614 15.3124 1.4375C15.3124 1.18886 15.2137 0.950403 15.0379 0.774587C14.862 0.598772 14.6236 0.5 14.3749 0.5H8.12495ZM8.12495 3.625C7.87631 3.625 7.63785 3.72377 7.46204 3.89959C7.28622 4.0754 7.18745 4.31386 7.18745 4.5625C7.18745 4.81114 7.28622 5.0496 7.46204 5.22541C7.63785 5.40123 7.87631 5.5 8.12495 5.5H11.8749C12.1236 5.5 12.362 5.40123 12.5379 5.22541C12.7137 5.0496 12.8124 4.81114 12.8124 4.5625C12.8124 4.31386 12.7137 4.0754 12.5379 3.89959C12.362 3.72377 12.1236 3.625 11.8749 3.625H8.12495ZM8.12495 6.75C7.87631 6.75 7.63785 6.84877 7.46204 7.02459C7.28622 7.2004 7.18745 7.43886 7.18745 7.6875C7.18745 7.93614 7.28622 8.1746 7.46204 8.35041C7.63785 8.52623 7.87631 8.625 8.12495 8.625H9.37495C9.62359 8.625 9.86204 8.52623 10.0379 8.35041C10.2137 8.1746 10.3124 7.93614 10.3124 7.6875C10.3124 7.43886 10.2137 7.2004 10.0379 7.02459C9.86204 6.84877 9.62359 6.75 9.37495 6.75H8.12495Z" fill="black"/>
</svg>
