<svg width="20" height="20" viewBox="0 0 20 20" fill="none" xmlns="http://www.w3.org/2000/svg">
<path d="M19.5 10C19.5 15.2467 15.2467 19.5 10 19.5C4.75329 19.5 0.5 15.2467 0.5 10C0.5 4.75329 4.75329 0.5 10 0.5C15.2467 0.5 19.5 4.75329 19.5 10Z" fill="white" stroke="#178958"/>
<path d="M18.5 9.5C18.5 14.1944 14.6944 18 10 18C5.30558 18 1.5 14.1944 1.5 9.5C1.5 4.80558 5.30558 1 10 1C14.6944 1 18.5 4.80558 18.5 9.5Z" fill="white" stroke="#C1E4D2" stroke-width="2"/>
<path d="M4.50209 12.3619H4.36402C4.12134 12.3619 4 12.2987 4 12.1725C4 12.0463 4.27406 11.5309 4.82218 10.6262C5.37448 9.71739 5.65063 9.21248 5.65063 9.1115C5.65063 9.00631 5.38494 8.554 4.85356 7.75456C4.32636 6.95512 4.06276 6.50912 4.06276 6.41655C4.06276 6.24825 4.27406 6.1641 4.69665 6.1641C4.95607 6.1641 5.17782 6.25245 5.36192 6.42917C5.55021 6.60589 5.79707 6.93198 6.10251 7.40743C6.41213 7.88289 6.60251 8.12062 6.67364 8.12062C6.7113 8.12062 6.90167 7.85975 7.24477 7.33801C7.58787 6.81206 7.83264 6.47335 7.97908 6.32188C8.12552 6.17041 8.33682 6.09467 8.61297 6.09467C8.89331 6.09467 9.03347 6.1662 9.03347 6.30926C9.03347 6.37658 8.7636 6.83941 8.22385 7.69776C7.6841 8.55189 7.41423 9.07994 7.41423 9.28191C7.41423 9.39972 7.7113 9.85835 8.30544 10.6578C8.90377 11.4572 9.20293 11.8801 9.20293 11.9264C9.20293 12.1157 9.02301 12.2104 8.66318 12.2104C8.65481 12.2104 8.64644 12.2104 8.63808 12.2104C8.28661 12.2104 8.02092 12.1157 7.841 11.9264C7.6569 11.7328 7.39749 11.4004 7.06276 10.9292C6.72803 10.4537 6.54393 10.216 6.51046 10.216C6.43933 10.216 6.23431 10.4832 5.8954 11.0175C5.55649 11.5477 5.30126 11.9053 5.12971 12.0905C4.95816 12.2714 4.74895 12.3619 4.50209 12.3619Z" fill="#13784C"/>
<path d="M14.682 9.1115V8.89691C14.682 8.2195 14.5607 7.71459 14.318 7.38219C14.0753 7.04979 13.7762 6.88359 13.4205 6.88359H13.3013C12.8745 6.88359 12.5251 7.03086 12.2531 7.32539C11.9854 7.61571 11.8515 8.01964 11.8515 8.53717L11.8326 8.73282L11.8201 8.9979V9.26928L11.8138 9.47125V9.6669C11.8138 10.399 11.8808 10.8661 12.0146 11.068C12.2113 11.3668 12.5335 11.5161 12.9812 11.5161H13.0439C13.5502 11.5161 13.9498 11.3015 14.2427 10.8724C14.5356 10.4432 14.682 9.85624 14.682 9.1115ZM11.2552 6.2777C11.3766 6.2777 11.5021 6.31136 11.6318 6.37868C11.7615 6.4418 11.8494 6.47335 11.8954 6.47335C11.9414 6.47335 12.1632 6.39551 12.5607 6.23983C12.9582 6.07994 13.3264 6 13.6653 6H13.8033C14.113 6 14.4121 6.06942 14.7008 6.20827C14.9895 6.34292 15.2343 6.54278 15.4351 6.80785C15.8117 7.30435 16 7.91234 16 8.63184V9.07363C16 9.53226 15.9268 9.98668 15.7803 10.4369C15.6339 10.8913 15.4351 11.2574 15.1841 11.5351C14.6695 12.1073 13.977 12.3934 13.1067 12.3934C12.8891 12.3934 12.6841 12.3724 12.4916 12.3303C12.3033 12.2924 12.1736 12.2735 12.1025 12.2735C11.8975 12.2735 11.795 12.7216 11.795 13.6178C11.795 14.1353 11.7385 14.4951 11.6255 14.6971C11.5167 14.899 11.341 15 11.0983 15H10.9854C10.8264 15 10.7113 14.9516 10.6402 14.8548C10.5732 14.7623 10.5397 14.5961 10.5397 14.3562V14.2237L10.546 14.0849L10.5711 12.9614L10.6088 11.5414L10.6464 9.25035C10.6464 7.58415 10.6527 6.7237 10.6653 6.669C10.728 6.40813 10.9247 6.2777 11.2552 6.2777Z" fill="#13784C"/>
<path d="M4.46875 11.9062H4.33984C4.11328 11.9062 4 11.8477 4 11.7305C4 11.6133 4.25586 11.1348 4.76758 10.2949C5.2832 9.45117 5.54102 8.98242 5.54102 8.88867C5.54102 8.79102 5.29297 8.37109 4.79688 7.62891C4.30469 6.88672 4.05859 6.47266 4.05859 6.38672C4.05859 6.23047 4.25586 6.15234 4.65039 6.15234C4.89258 6.15234 5.09961 6.23438 5.27148 6.39844C5.44727 6.5625 5.67773 6.86523 5.96289 7.30664C6.25195 7.74805 6.42969 7.96875 6.49609 7.96875C6.53125 7.96875 6.70898 7.72656 7.0293 7.24219C7.34961 6.75391 7.57812 6.43945 7.71484 6.29883C7.85156 6.1582 8.04883 6.08789 8.30664 6.08789C8.56836 6.08789 8.69922 6.1543 8.69922 6.28711C8.69922 6.34961 8.44727 6.7793 7.94336 7.57617C7.43945 8.36914 7.1875 8.85938 7.1875 9.04688C7.1875 9.15625 7.46484 9.58203 8.01953 10.3242C8.57812 11.0664 8.85742 11.459 8.85742 11.502C8.85742 11.6777 8.68945 11.7656 8.35352 11.7656C8.3457 11.7656 8.33789 11.7656 8.33008 11.7656C8.00195 11.7656 7.75391 11.6777 7.58594 11.502C7.41406 11.3223 7.17188 11.0137 6.85938 10.5762C6.54688 10.1348 6.375 9.91406 6.34375 9.91406C6.27734 9.91406 6.08594 10.1621 5.76953 10.6582C5.45312 11.1504 5.21484 11.4824 5.05469 11.6543C4.89453 11.8223 4.69922 11.9062 4.46875 11.9062Z" fill="#6EC399"/>
<path d="M13.9727 8.88867V8.68945C13.9727 8.06055 13.8594 7.5918 13.6328 7.2832C13.4062 6.97461 13.127 6.82031 12.7949 6.82031H12.6836C12.2852 6.82031 11.959 6.95703 11.7051 7.23047C11.4551 7.5 11.3301 7.875 11.3301 8.35547L11.3125 8.53711L11.3008 8.7832V9.03516L11.2949 9.22266V9.4043C11.2949 10.084 11.3574 10.5176 11.4824 10.7051C11.666 10.9824 11.9668 11.1211 12.3848 11.1211H12.4434C12.916 11.1211 13.2891 10.9219 13.5625 10.5234C13.8359 10.125 13.9727 9.58008 13.9727 8.88867ZM10.7734 6.25781C10.8867 6.25781 11.0039 6.28906 11.125 6.35156C11.2461 6.41016 11.3281 6.43945 11.3711 6.43945C11.4141 6.43945 11.6211 6.36719 11.9922 6.22266C12.3633 6.07422 12.707 6 13.0234 6H13.1523C13.4414 6 13.7207 6.06445 13.9902 6.19336C14.2598 6.31836 14.4883 6.50391 14.6758 6.75C15.0273 7.21094 15.2031 7.77539 15.2031 8.44336V8.85352C15.2031 9.2793 15.1348 9.70117 14.998 10.1191C14.8613 10.541 14.6758 10.8809 14.4414 11.1387C13.9609 11.6699 13.3145 11.9355 12.502 11.9355C12.2988 11.9355 12.1074 11.916 11.9277 11.877C11.752 11.8418 11.6309 11.8242 11.5645 11.8242C11.373 11.8242 11.2773 12.2402 11.2773 13.0723C11.2773 13.5527 11.2246 13.8867 11.1191 14.0742C11.0176 14.2617 10.8535 14.3555 10.627 14.3555H10.5215C10.373 14.3555 10.2656 14.3105 10.1992 14.2207C10.1367 14.1348 10.1055 13.9805 10.1055 13.7578V13.6348L10.1113 13.5059L10.1348 12.4629L10.1699 11.1445L10.2051 9.01758C10.2051 7.4707 10.2109 6.67188 10.2227 6.62109C10.2812 6.37891 10.4648 6.25781 10.7734 6.25781Z" fill="#6EC399"/>
</svg>
